<?xml version="1.0" encoding="UTF-8" standalone="no"?>
<!-- Created with Inkscape (http://www.inkscape.org/) -->

<svg
   xmlns:dc="http://purl.org/dc/elements/1.1/"
   xmlns:cc="http://creativecommons.org/ns#"
   xmlns:rdf="http://www.w3.org/1999/02/22-rdf-syntax-ns#"
   xmlns:svg="http://www.w3.org/2000/svg"
   xmlns="http://www.w3.org/2000/svg"
   xmlns:xlink="http://www.w3.org/1999/xlink"
   xmlns:sodipodi="http://sodipodi.sourceforge.net/DTD/sodipodi-0.dtd"
   xmlns:inkscape="http://www.inkscape.org/namespaces/inkscape"
   width="129.54521mm"
   height="52.476368mm"
   viewBox="0 0 129.54521 52.476368"
   version="1.1"
   id="svg8"
   sodipodi:docname="KB3.svg"
   inkscape:version="0.92.5 (2060ec1f9f, 2020-04-08)">
  <defs
     id="defs2">
    <marker
       inkscape:stockid="Arrow2Mend"
       orient="auto"
       refY="0"
       refX="0"
       id="marker7043"
       style="overflow:visible"
       inkscape:isstock="true">
      <path
         id="path7041"
         style="fill:#000000;fill-opacity:1;fill-rule:evenodd;stroke:#000000;stroke-width:0.625;stroke-linejoin:round;stroke-opacity:1"
         d="M 8.7185878,4.0337352 -2.2072895,0.01601326 8.7185884,-4.0017078 c -1.7454984,2.3720609 -1.7354408,5.6174519 -6e-7,8.035443 z"
         transform="scale(-0.6)"
         inkscape:connector-curvature="0" />
    </marker>
    <linearGradient
       inkscape:collect="always"
       id="linearGradient5883">
      <stop
         style="stop-color:#ff2a2a;stop-opacity:1;"
         offset="0"
         id="stop5879" />
      <stop
         style="stop-color:#ff2a2a;stop-opacity:0;"
         offset="1"
         id="stop5881" />
    </linearGradient>
    <linearGradient
       inkscape:collect="always"
       id="linearGradient5835">
      <stop
         style="stop-color:#ff2a2a;stop-opacity:1;"
         offset="0"
         id="stop5831" />
      <stop
         style="stop-color:#ff2a2a;stop-opacity:0;"
         offset="1"
         id="stop5833" />
    </linearGradient>
    <marker
       inkscape:stockid="Arrow2Mend"
       orient="auto"
       refY="0"
       refX="0"
       id="marker5039"
       style="overflow:visible"
       inkscape:isstock="true">
      <path
         id="path5037"
         style="fill:#000000;fill-opacity:1;fill-rule:evenodd;stroke:#000000;stroke-width:0.625;stroke-linejoin:round;stroke-opacity:1"
         d="M 8.7185878,4.0337352 -2.2072895,0.01601326 8.7185884,-4.0017078 c -1.7454984,2.3720609 -1.7354408,5.6174519 -6e-7,8.035443 z"
         transform="scale(-0.6)"
         inkscape:connector-curvature="0" />
    </marker>
    <marker
       inkscape:isstock="true"
       style="overflow:visible"
       id="marker4943"
       refX="0"
       refY="0"
       orient="auto"
       inkscape:stockid="Arrow2Mend"
       inkscape:collect="always">
      <path
         transform="scale(-0.6)"
         d="M 8.7185878,4.0337352 -2.2072895,0.01601326 8.7185884,-4.0017078 c -1.7454984,2.3720609 -1.7354408,5.6174519 -6e-7,8.035443 z"
         style="fill:#000000;fill-opacity:1;fill-rule:evenodd;stroke:#000000;stroke-width:0.625;stroke-linejoin:round;stroke-opacity:1"
         id="path4941"
         inkscape:connector-curvature="0" />
    </marker>
    <linearGradient
       inkscape:collect="always"
       id="linearGradient13722">
      <stop
         style="stop-color:#ff2a2a;stop-opacity:1;"
         offset="0"
         id="stop13718" />
      <stop
         style="stop-color:#ff2a2a;stop-opacity:0;"
         offset="1"
         id="stop13720" />
    </linearGradient>
    <marker
       inkscape:stockid="Arrow2Mend"
       orient="auto"
       refY="0"
       refX="0"
       id="marker9686"
       style="overflow:visible"
       inkscape:isstock="true">
      <path
         id="path9684"
         style="fill:#000000;fill-opacity:1;fill-rule:evenodd;stroke:#000000;stroke-width:0.625;stroke-linejoin:round;stroke-opacity:1"
         d="M 8.7185878,4.0337352 -2.2072895,0.01601326 8.7185884,-4.0017078 c -1.7454984,2.3720609 -1.7354408,5.6174519 -6e-7,8.035443 z"
         transform="scale(-0.6)"
         inkscape:connector-curvature="0" />
    </marker>
    <marker
       inkscape:isstock="true"
       style="overflow:visible"
       id="marker8724"
       refX="0"
       refY="0"
       orient="auto"
       inkscape:stockid="Arrow2Mend"
       inkscape:collect="always">
      <path
         transform="scale(-0.6)"
         d="M 8.7185878,4.0337352 -2.2072895,0.01601326 8.7185884,-4.0017078 c -1.7454984,2.3720609 -1.7354408,5.6174519 -6e-7,8.035443 z"
         style="fill:#000000;fill-opacity:1;fill-rule:evenodd;stroke:#000000;stroke-width:0.625;stroke-linejoin:round;stroke-opacity:1"
         id="path8722"
         inkscape:connector-curvature="0" />
    </marker>
    <marker
       inkscape:stockid="Arrow2Mend"
       orient="auto"
       refY="0"
       refX="0"
       id="marker8136"
       style="overflow:visible"
       inkscape:isstock="true"
       inkscape:collect="always">
      <path
         id="path8134"
         style="fill:#000000;fill-opacity:1;fill-rule:evenodd;stroke:#000000;stroke-width:0.625;stroke-linejoin:round;stroke-opacity:1"
         d="M 8.7185878,4.0337352 -2.2072895,0.01601326 8.7185884,-4.0017078 c -1.7454984,2.3720609 -1.7354408,5.6174519 -6e-7,8.035443 z"
         transform="scale(-0.6)"
         inkscape:connector-curvature="0" />
    </marker>
    <marker
       inkscape:isstock="true"
       style="overflow:visible"
       id="marker8076"
       refX="0"
       refY="0"
       orient="auto"
       inkscape:stockid="Arrow2Mend"
       inkscape:collect="always">
      <path
         transform="scale(-0.6)"
         d="M 8.7185878,4.0337352 -2.2072895,0.01601326 8.7185884,-4.0017078 c -1.7454984,2.3720609 -1.7354408,5.6174519 -6e-7,8.035443 z"
         style="fill:#000000;fill-opacity:1;fill-rule:evenodd;stroke:#000000;stroke-width:0.625;stroke-linejoin:round;stroke-opacity:1"
         id="path8074"
         inkscape:connector-curvature="0" />
    </marker>
    <marker
       inkscape:isstock="true"
       style="overflow:visible"
       id="marker6465"
       refX="0"
       refY="0"
       orient="auto"
       inkscape:stockid="Arrow2Mend">
      <path
         transform="scale(-0.6)"
         d="M 8.7185878,4.0337352 -2.2072895,0.01601326 8.7185884,-4.0017078 c -1.7454984,2.3720609 -1.7354408,5.6174519 -6e-7,8.035443 z"
         style="fill:#000000;fill-opacity:1;fill-rule:evenodd;stroke:#000000;stroke-width:0.625;stroke-linejoin:round;stroke-opacity:1"
         id="path6463"
         inkscape:connector-curvature="0" />
    </marker>
    <marker
       inkscape:isstock="true"
       style="overflow:visible"
       id="marker5895"
       refX="0"
       refY="0"
       orient="auto"
       inkscape:stockid="Arrow2Mend"
       inkscape:collect="always">
      <path
         transform="scale(-0.6)"
         d="M 8.7185878,4.0337352 -2.2072895,0.01601326 8.7185884,-4.0017078 c -1.7454984,2.3720609 -1.7354408,5.6174519 -6e-7,8.035443 z"
         style="fill:#000000;fill-opacity:1;fill-rule:evenodd;stroke:#000000;stroke-width:0.625;stroke-linejoin:round;stroke-opacity:1"
         id="path5893"
         inkscape:connector-curvature="0" />
    </marker>
    <marker
       inkscape:stockid="Arrow2Mend"
       orient="auto"
       refY="0"
       refX="0"
       id="Arrow2Mend"
       style="overflow:visible"
       inkscape:isstock="true"
       inkscape:collect="always">
      <path
         id="path4794"
         style="fill:#000000;fill-opacity:1;fill-rule:evenodd;stroke:#000000;stroke-width:0.625;stroke-linejoin:round;stroke-opacity:1"
         d="M 8.7185878,4.0337352 -2.2072895,0.01601326 8.7185884,-4.0017078 c -1.7454984,2.3720609 -1.7354408,5.6174519 -6e-7,8.035443 z"
         transform="scale(-0.6)"
         inkscape:connector-curvature="0" />
    </marker>
    <marker
       inkscape:stockid="Arrow2Lend"
       orient="auto"
       refY="0"
       refX="0"
       id="Arrow2Lend"
       style="overflow:visible"
       inkscape:isstock="true">
      <path
         id="path4788"
         style="fill:#000000;fill-opacity:1;fill-rule:evenodd;stroke:#000000;stroke-width:0.625;stroke-linejoin:round;stroke-opacity:1"
         d="M 8.7185878,4.0337352 -2.2072895,0.01601326 8.7185884,-4.0017078 c -1.7454984,2.3720609 -1.7354408,5.6174519 -6e-7,8.035443 z"
         transform="matrix(-1.1,0,0,-1.1,-1.1,0)"
         inkscape:connector-curvature="0" />
    </marker>
    <linearGradient
       inkscape:collect="always"
       xlink:href="#linearGradient13722"
       id="linearGradient13724"
       x1="26.247183"
       y1="95.095764"
       x2="59.568642"
       y2="95.095764"
       gradientUnits="userSpaceOnUse" />
    <linearGradient
       inkscape:collect="always"
       xlink:href="#linearGradient5835"
       id="linearGradient5837"
       x1="138.01801"
       y1="96.080177"
       x2="102.82369"
       y2="96.080177"
       gradientUnits="userSpaceOnUse" />
    <linearGradient
       inkscape:collect="always"
       xlink:href="#linearGradient5883"
       id="linearGradient5885"
       x1="57.439625"
       y1="76.385201"
       x2="25.199783"
       y2="76.385201"
       gradientUnits="userSpaceOnUse" />
  </defs>
  <sodipodi:namedview
     id="base"
     pagecolor="#ffffff"
     bordercolor="#666666"
     borderopacity="1.0"
     inkscape:pageopacity="0.0"
     inkscape:pageshadow="2"
     inkscape:zoom="1.979899"
     inkscape:cx="248.79866"
     inkscape:cy="29.863824"
     inkscape:document-units="mm"
     inkscape:current-layer="layer1"
     showgrid="false"
     inkscape:window-width="1848"
     inkscape:window-height="1016"
     inkscape:window-x="72"
     inkscape:window-y="27"
     inkscape:window-maximized="1"
     fit-margin-top="0"
     fit-margin-left="0"
     fit-margin-right="0"
     fit-margin-bottom="0" />
  <metadata
     id="metadata5">
    <rdf:RDF>
      <cc:Work
         rdf:about="">
        <dc:format>image/svg+xml</dc:format>
        <dc:type
           rdf:resource="http://purl.org/dc/dcmitype/StillImage" />
        <dc:title />
      </cc:Work>
    </rdf:RDF>
  </metadata>
  <g
     inkscape:label="Layer 1"
     inkscape:groupmode="layer"
     id="layer1"
     transform="translate(-16.827688,-62.473269)">
    <g
       id="g8080"
       style="fill:#ffff00">
      <ellipse
         ry="3.8898537"
         rx="15.559415"
         cy="76.385201"
         cx="40.82856"
         id="path7768"
         style="opacity:1;fill:#ffff00;fill-opacity:1;fill-rule:nonzero;stroke:#000000;stroke-width:0.2;stroke-linecap:round;stroke-linejoin:round;stroke-miterlimit:4;stroke-dasharray:0.4, 0.4;stroke-dashoffset:0;stroke-opacity:1" />
      <g
         id="g8073"
         transform="translate(0.43166445,0.10307645)"
         style="fill:#ffff00">
        <circle
           id="circle8067"
           style="fill:#ffff00;stroke:none;stroke-width:0.19765005"
           cx="38.02309"
           cy="76.282036"
           r="0.29647508" />
        <circle
           r="0.29647508"
           cy="76.282036"
           cx="40.404335"
           style="fill:#ffff00;stroke:none;stroke-width:0.19765005"
           id="circle8069" />
        <circle
           id="circle8071"
           style="fill:#ffff00;stroke:none;stroke-width:0.19765005"
           cx="42.78558"
           cy="76.282036"
           r="0.29647508" />
      </g>
    </g>
    <g
       id="g8092"
       transform="matrix(-1,0,0,1,163.47719,8.5702573e-5)"
       style="fill:#ffff00">
      <ellipse
         style="opacity:1;fill:#ffff00;fill-opacity:1;fill-rule:nonzero;stroke:#000000;stroke-width:0.2;stroke-linecap:round;stroke-linejoin:round;stroke-miterlimit:4;stroke-dasharray:0.4, 0.4;stroke-dashoffset:0;stroke-opacity:1"
         id="ellipse8082"
         cx="40.82856"
         cy="76.385201"
         rx="15.559415"
         ry="3.8898537" />
      <g
         transform="translate(0.43166445,0.10307645)"
         id="g8090"
         style="fill:#ffff00">
        <circle
           r="0.29647508"
           cy="76.282036"
           cx="38.02309"
           style="fill:#ffff00;stroke:none;stroke-width:0.19765005"
           id="circle8084" />
        <circle
           id="circle8086"
           style="fill:#ffff00;stroke:none;stroke-width:0.19765005"
           cx="40.404335"
           cy="76.282036"
           r="0.29647508" />
        <circle
           r="0.29647508"
           cy="76.282036"
           cx="42.78558"
           style="fill:#ffff00;stroke:none;stroke-width:0.19765005"
           id="circle8088" />
      </g>
    </g>
    <rect
       style="opacity:1;fill:none;fill-opacity:1;fill-rule:nonzero;stroke:#000000;stroke-width:0.30000001;stroke-linecap:round;stroke-linejoin:round;stroke-miterlimit:4;stroke-dasharray:none;stroke-dashoffset:0;stroke-opacity:1"
       id="rect4747"
       width="24.706968"
       height="27.592262"
       x="28.587675"
       y="81.742554" />
    <rect
       y="81.742554"
       x="110.28076"
       height="27.592262"
       width="24.706968"
       id="rect4749"
       style="opacity:1;fill:none;fill-opacity:1;fill-rule:nonzero;stroke:#000000;stroke-width:0.30000001;stroke-linecap:round;stroke-linejoin:round;stroke-miterlimit:4;stroke-dasharray:none;stroke-dashoffset:0;stroke-opacity:1" />
    <rect
       style="opacity:1;fill:none;fill-opacity:1;fill-rule:nonzero;stroke:#000000;stroke-width:0.30000001;stroke-linecap:round;stroke-linejoin:round;stroke-miterlimit:4;stroke-dasharray:none;stroke-dashoffset:0;stroke-opacity:1"
       id="rect4751"
       width="48.491936"
       height="27.592262"
       x="57.527977"
       y="81.742554" />
    <path
       style="fill:none;stroke:#000000;stroke-width:0.26499999;stroke-linecap:round;stroke-linejoin:round;stroke-miterlimit:4;stroke-dasharray:none;stroke-opacity:1"
       d="M 28.587676,70.997569 H 134.98773 l -9.33118,-8.3918 H 37.829921 Z"
       id="path4757"
       inkscape:connector-curvature="0"
       sodipodi:nodetypes="cc" />
    <g
       id="g7756"
       transform="translate(41.36961,0.10316215)">
      <circle
         id="circle7750"
         style="fill:#000000;stroke:none;stroke-width:0.19765005"
         cx="38.02309"
         cy="76.282036"
         r="0.29647508" />
      <circle
         r="0.29647508"
         cy="76.282036"
         cx="40.404335"
         style="fill:#000000;stroke:none;stroke-width:0.19765005"
         id="circle7752" />
      <circle
         id="circle7754"
         style="fill:#000000;stroke:none;stroke-width:0.19765005"
         cx="42.78558"
         cy="76.282036"
         r="0.29647508" />
    </g>
    <g
       id="g8053">
      <path
         sodipodi:nodetypes="cc"
         inkscape:connector-curvature="0"
         id="path4765"
         d="M 30.607805,71.157247 V 81.346899"
         style="fill:none;stroke:#000000;stroke-width:0.26499999;stroke-linecap:round;stroke-linejoin:miter;stroke-miterlimit:4;stroke-dasharray:none;stroke-opacity:1;marker-end:url(#marker8076)" />
      <path
         style="fill:none;stroke:#000000;stroke-width:0.26499999;stroke-linecap:round;stroke-linejoin:miter;stroke-miterlimit:4;stroke-dasharray:none;stroke-opacity:1;marker-end:url(#marker7043)"
         d="M 51.059102,71.157247 V 81.346899"
         id="path5891"
         inkscape:connector-curvature="0"
         sodipodi:nodetypes="cc" />
    </g>
    <path
       sodipodi:nodetypes="cc"
       inkscape:connector-curvature="0"
       id="path8132"
       d="M 21.071758,66.125952 H 33.269409"
       style="fill:none;stroke:#000000;stroke-width:0.26499999;stroke-linecap:round;stroke-linejoin:miter;stroke-miterlimit:4;stroke-dasharray:none;stroke-opacity:1;marker-end:url(#marker8136)" />
    <g
       id="g8122">
      <path
         style="fill:none;stroke:#000000;stroke-width:0.26499999;stroke-linecap:round;stroke-linejoin:miter;stroke-miterlimit:4;stroke-dasharray:none;stroke-opacity:1;marker-end:url(#Arrow2Mend)"
         d="M 112.41299,71.157247 V 81.346899"
         id="path8008"
         inkscape:connector-curvature="0"
         sodipodi:nodetypes="cc" />
      <path
         sodipodi:nodetypes="cc"
         inkscape:connector-curvature="0"
         id="path8010"
         d="M 132.86429,71.157247 V 81.346899"
         style="fill:none;stroke:#000000;stroke-width:0.26499999;stroke-linecap:round;stroke-linejoin:miter;stroke-miterlimit:4;stroke-dasharray:none;stroke-opacity:1;marker-end:url(#marker5895)" />
    </g>
    <path
       style="fill:none;stroke:#000000;stroke-width:0.26499999;stroke-linecap:round;stroke-linejoin:miter;stroke-miterlimit:4;stroke-dasharray:none;stroke-opacity:1;marker-end:url(#marker8724)"
       d="m 20.953641,95.541231 h 7.118595"
       id="path8720"
       inkscape:connector-curvature="0"
       sodipodi:nodetypes="cc" />
    <path
       sodipodi:nodetypes="cc"
       inkscape:connector-curvature="0"
       id="path9682"
       d="m 135.12447,95.541231 h 7.11859"
       style="fill:none;stroke:#000000;stroke-width:0.26499999;stroke-linecap:round;stroke-linejoin:miter;stroke-miterlimit:4;stroke-dasharray:none;stroke-opacity:1;marker-end:url(#marker9686)" />
    <path
       style="fill:url(#linearGradient13724);fill-opacity:1;stroke:#000000;stroke-width:0.26458332px;stroke-linecap:butt;stroke-linejoin:miter;stroke-opacity:1"
       d="m 53.303566,98.418739 h 4.242903 v 3.875401 h -4.293015 l -24.669006,3.38378 v -16.1793 z"
       id="path10698"
       inkscape:connector-curvature="0"
       sodipodi:nodetypes="ccccccc" />
    <rect
       style="opacity:1;fill:none;fill-opacity:1;fill-rule:nonzero;stroke:#000000;stroke-width:0.30000001;stroke-linecap:round;stroke-linejoin:round;stroke-miterlimit:4;stroke-dasharray:none;stroke-dashoffset:0;stroke-opacity:1"
       id="rect4755"
       width="4.2608514"
       height="27.592262"
       x="53.267124"
       y="81.742554" />
    <path
       style="fill:url(#linearGradient5837);fill-opacity:1;stroke:#000000;stroke-width:0.26458332px;stroke-linecap:butt;stroke-linejoin:miter;stroke-opacity:1"
       d="m 110.28636,91.811728 h -4.26404 v 3.437221 h 4.19317 l 24.79288,7.654021 V 89.224952 Z"
       id="path10702"
       inkscape:connector-curvature="0" />
    <rect
       y="81.742554"
       x="106.01991"
       height="27.592262"
       width="4.2608514"
       id="rect4753"
       style="opacity:1;fill:none;fill-opacity:1;fill-rule:nonzero;stroke:#000000;stroke-width:0.30000001;stroke-linecap:round;stroke-linejoin:round;stroke-miterlimit:4;stroke-dasharray:none;stroke-dashoffset:0;stroke-opacity:1" />
    <path
       sodipodi:nodetypes="cc"
       inkscape:connector-curvature="0"
       id="path4939"
       d="M 71.510402,71.157247 V 81.346899"
       style="fill:none;stroke:#000000;stroke-width:0.26499999;stroke-linecap:round;stroke-linejoin:miter;stroke-miterlimit:4;stroke-dasharray:none;stroke-opacity:1;marker-end:url(#marker4943)" />
    <path
       style="fill:none;stroke:#000000;stroke-width:0.26499999;stroke-linecap:round;stroke-linejoin:miter;stroke-miterlimit:4;stroke-dasharray:none;stroke-opacity:1;marker-end:url(#marker5039)"
       d="M 91.961697,71.157247 V 81.346899"
       id="path5035"
       inkscape:connector-curvature="0"
       sodipodi:nodetypes="cc" />
    <g
       id="g6979"
       transform="translate(-90.804636,22.432289)">
      <g
         transform="matrix(0.4843822,0,0,0.4843822,24.635705,-25.745549)"
         style="fill:#000000;fill-opacity:1"
         id="g6719">
        <path
           inkscape:connector-curvature="0"
           style="stroke:none;stroke-width:0"
           d="m 2.75,-3.5625 1.515625,-1.921875 c 0.359375,0 0.5625,0 0.5625,-0.3125 0,-0.296875 -0.265625,-0.296875 -0.40625,-0.296875 h -0.875 c -0.140625,0 -0.40625,0 -0.40625,0.3125 0,0.296875 0.265625,0.296875 0.40625,0.296875 l -2.09375,2.65625 v -2.65625 h 0.21875 c 0.140625,0 0.40625,0 0.40625,-0.296875 0,-0.3125 -0.25,-0.3125 -0.40625,-0.3125 h -1 c -0.15625,0 -0.40625,0 -0.40625,0.296875 0,0.3125 0.25,0.3125 0.40625,0.3125 h 0.21875 v 4.875 h -0.21875 c -0.15625,0 -0.40625,0 -0.40625,0.296875 C 0.265625,0 0.515625,0 0.671875,0 h 1 c 0.140625,0 0.40625,0 0.40625,-0.296875 0,-0.3125 -0.25,-0.3125 -0.40625,-0.3125 H 1.453125 V -1.9375 L 2.375,-3.09375 3.765625,-0.609375 c -0.140625,0 -0.390625,0 -0.390625,0.296875 C 3.375,0 3.625,0 3.78125,0 h 0.75 c 0.140625,0 0.40625,0 0.40625,-0.296875 0,-0.3125 -0.234375,-0.3125 -0.515625,-0.3125 -0.03125,-0.03125 -0.0625,-0.09375 -0.078125,-0.125 z m 0,0"
           transform="translate(274.242,146.72)"
           id="path6713" />
        <path
           inkscape:connector-curvature="0"
           style="stroke:none;stroke-width:0"
           d="m 4.234375,-1.90625 c 0.203125,0 0.390625,0 0.390625,-0.359375 0,-1.140625 -0.640625,-2.125 -1.9375,-2.125 -1.1875,0 -2.140625,1 -2.140625,2.234375 0,1.203125 1.015625,2.21875 2.296875,2.21875 1.3125,0 1.78125,-0.90625 1.78125,-1.15625 0,-0.265625 -0.28125,-0.265625 -0.34375,-0.265625 -0.1875,0 -0.265625,0.03125 -0.328125,0.21875 -0.21875,0.5 -0.765625,0.59375 -1.046875,0.59375 -0.75,0 -1.484375,-0.5 -1.65625,-1.359375 z M 1.265625,-2.5 C 1.40625,-3.234375 2,-3.78125 2.6875,-3.78125 c 0.515625,0 1.140625,0.25 1.234375,1.28125 z m 0,0"
           transform="translate(279.47237,146.72)"
           id="path6715" />
        <path
           inkscape:connector-curvature="0"
           style="stroke:none;stroke-width:0"
           d="m 4.28125,-3.6875 h 0.296875 c 0.15625,0 0.40625,0 0.40625,-0.296875 0,-0.3125 -0.234375,-0.3125 -0.40625,-0.3125 h -1.15625 c -0.15625,0 -0.40625,0 -0.40625,0.296875 0,0.3125 0.25,0.3125 0.40625,0.3125 h 0.28125 l -0.71875,2.125 C 2.84375,-1.203125 2.796875,-1.015625 2.71875,-0.703125 2.65625,-0.890625 2.578125,-1.109375 2.5,-1.296875 L 1.578125,-3.6875 h 0.25 c 0.140625,0 0.390625,0 0.390625,-0.296875 0,-0.3125 -0.234375,-0.3125 -0.390625,-0.3125 H 0.65625 c -0.15625,0 -0.390625,0 -0.390625,0.3125 0,0.296875 0.25,0.296875 0.390625,0.296875 h 0.3125 L 2.375,-0.125 c 0.046875,0.09375 0.046875,0.109375 0.046875,0.125 0,0.015625 -0.25,0.84375 -0.375,1.09375 C 1.75,1.640625 1.390625,1.65625 1.25,1.671875 c 0,-0.015625 0.046875,-0.09375 0.046875,-0.21875 0,-0.25 -0.1875,-0.4375 -0.421875,-0.4375 -0.28125,0 -0.453125,0.1875 -0.453125,0.4375 0,0.421875 0.34375,0.8125 0.828125,0.8125 1,0 1.453125,-1.3125 1.484375,-1.421875 z m 0,0"
           transform="translate(284.70273,146.72)"
           id="path6717" />
      </g>
      <g
         transform="matrix(0.4843822,0,0,0.4843822,24.635705,-25.745549)"
         style="fill:#000000;fill-opacity:1"
         id="g6737">
        <path
           inkscape:connector-curvature="0"
           style="stroke:none;stroke-width:0"
           d="m 2.953125,-2.734375 c 0.28125,0.0625 1.109375,0.265625 1.109375,1.125 C 4.0625,-1.09375 3.625,-0.5 2.84375,-0.5 2.5625,-0.5 2.078125,-0.53125 1.671875,-0.8125 1.25,-1.078125 1.21875,-1.5 1.203125,-1.671875 1.203125,-1.84375 1.1875,-2.03125 0.875,-2.03125 c -0.359375,0 -0.359375,0.21875 -0.359375,0.421875 v 1.3125 c 0,0.15625 0,0.40625 0.296875,0.40625 0.21875,0 0.28125,-0.140625 0.375,-0.453125 0.390625,0.296875 1,0.453125 1.640625,0.453125 1.15625,0 1.875,-0.875 1.875,-1.765625 0,-0.640625 -0.359375,-1.0625 -0.46875,-1.1875 C 3.8125,-3.234375 3.546875,-3.3125 2.765625,-3.484375 l -0.796875,-0.1875 c -0.421875,-0.109375 -0.796875,-0.46875 -0.796875,-0.9375 0,-0.5 0.484375,-0.984375 1.1875,-0.984375 1.171875,0 1.328125,0.9375 1.390625,1.25 0.03125,0.21875 0.140625,0.28125 0.34375,0.28125 0.34375,0 0.34375,-0.21875 0.34375,-0.40625 v -1.328125 c 0,-0.15625 0,-0.40625 -0.296875,-0.40625 -0.25,0 -0.296875,0.171875 -0.375,0.46875 -0.40625,-0.34375 -0.9375,-0.46875 -1.390625,-0.46875 -1.109375,0 -1.859375,0.796875 -1.859375,1.640625 0,0.671875 0.46875,1.328125 1.28125,1.5625 0.046875,0.015625 1.015625,0.234375 1.15625,0.265625 z m 0,0"
           transform="translate(295.16346,146.72)"
           id="path6721" />
        <path
           inkscape:connector-curvature="0"
           style="stroke:none;stroke-width:0"
           d="m 4.640625,-1.09375 c 0,-0.265625 -0.28125,-0.265625 -0.34375,-0.265625 -0.15625,0 -0.265625,0.015625 -0.328125,0.21875 -0.0625,0.125 -0.25,0.59375 -0.984375,0.59375 -0.84375,0 -1.5625,-0.703125 -1.5625,-1.609375 0,-0.46875 0.265625,-1.625 1.625,-1.625 0.203125,0 0.59375,0 0.59375,0.09375 0.015625,0.34375 0.203125,0.484375 0.4375,0.484375 0.234375,0 0.453125,-0.171875 0.453125,-0.453125 0,-0.734375 -1.046875,-0.734375 -1.484375,-0.734375 -1.71875,0 -2.3125,1.359375 -2.3125,2.234375 0,1.203125 0.9375,2.21875 2.1875,2.21875 1.390625,0 1.71875,-0.984375 1.71875,-1.15625 z m 0,0"
           transform="translate(300.39382,146.72)"
           id="path6723" />
        <path
           inkscape:connector-curvature="0"
           style="stroke:none;stroke-width:0"
           d="m 4.25,-2.921875 c 0,-1 -0.5,-1.4375 -1.296875,-1.4375 -0.65625,0 -1.109375,0.34375 -1.296875,0.53125 V -5.6875 c 0,-0.296875 -0.0625,-0.40625 -0.40625,-0.40625 H 0.53125 c -0.15625,0 -0.40625,0 -0.40625,0.3125 0,0.296875 0.25,0.296875 0.390625,0.296875 H 0.96875 v 4.875 h -0.4375 c -0.15625,0 -0.40625,0 -0.40625,0.3125 C 0.125,0 0.375,0 0.515625,0 h 1.59375 C 2.25,0 2.5,0 2.5,-0.296875 c 0,-0.3125 -0.25,-0.3125 -0.40625,-0.3125 H 1.65625 V -2.375 c 0,-1 0.734375,-1.375 1.25,-1.375 0.515625,0 0.65625,0.28125 0.65625,0.875 v 2.265625 h -0.375 c -0.171875,0 -0.421875,0 -0.421875,0.3125 C 2.765625,0 3.046875,0 3.1875,0 h 1.515625 c 0.140625,0 0.40625,0 0.40625,-0.296875 0,-0.3125 -0.25,-0.3125 -0.421875,-0.3125 H 4.25 Z m 0,0"
           transform="translate(305.62419,146.72)"
           id="path6725" />
        <path
           inkscape:connector-curvature="0"
           style="stroke:none;stroke-width:0"
           d="m 4.234375,-1.90625 c 0.203125,0 0.390625,0 0.390625,-0.359375 0,-1.140625 -0.640625,-2.125 -1.9375,-2.125 -1.1875,0 -2.140625,1 -2.140625,2.234375 0,1.203125 1.015625,2.21875 2.296875,2.21875 1.3125,0 1.78125,-0.90625 1.78125,-1.15625 0,-0.265625 -0.28125,-0.265625 -0.34375,-0.265625 -0.1875,0 -0.265625,0.03125 -0.328125,0.21875 -0.21875,0.5 -0.765625,0.59375 -1.046875,0.59375 -0.75,0 -1.484375,-0.5 -1.65625,-1.359375 z M 1.265625,-2.5 C 1.40625,-3.234375 2,-3.78125 2.6875,-3.78125 c 0.515625,0 1.140625,0.25 1.234375,1.28125 z m 0,0"
           transform="translate(310.85455,146.72)"
           id="path6727" />
        <path
           inkscape:connector-curvature="0"
           style="stroke:none;stroke-width:0"
           d="m 3.5625,-0.5 c 0,0.359375 0,0.5 0.40625,0.5 H 4.6875 c 0.171875,0 0.421875,0 0.421875,-0.3125 0,-0.296875 -0.265625,-0.296875 -0.40625,-0.296875 H 4.25 V -5.6875 c 0,-0.296875 -0.046875,-0.40625 -0.390625,-0.40625 H 3.125 c -0.15625,0 -0.40625,0 -0.40625,0.3125 0,0.296875 0.265625,0.296875 0.40625,0.296875 H 3.5625 V -3.90625 C 3.234375,-4.203125 2.828125,-4.359375 2.40625,-4.359375 c -1.09375,0 -2.046875,0.953125 -2.046875,2.21875 0,1.234375 0.890625,2.203125 1.953125,2.203125 0.5625,0 0.984375,-0.265625 1.25,-0.5625 z m 0,-2.140625 V -1.9375 c 0,0.5625 -0.4375,1.390625 -1.203125,1.390625 -0.71875,0 -1.3125,-0.703125 -1.3125,-1.59375 C 1.046875,-3.09375 1.75,-3.75 2.4375,-3.75 c 0.640625,0 1.125,0.5625 1.125,1.109375 z m 0,0"
           transform="translate(316.08492,146.72)"
           id="path6729" />
        <path
           inkscape:connector-curvature="0"
           style="stroke:none;stroke-width:0"
           d="M 3.5625,-0.3125 C 3.578125,0 3.78125,0 3.96875,0 H 4.6875 c 0.171875,0 0.421875,0 0.421875,-0.3125 0,-0.296875 -0.265625,-0.296875 -0.40625,-0.296875 H 4.25 v -3.28125 c 0,-0.3125 -0.046875,-0.40625 -0.390625,-0.40625 H 3.125 c -0.15625,0 -0.40625,0 -0.40625,0.3125 0,0.296875 0.265625,0.296875 0.40625,0.296875 h 0.4375 v 2.125 c 0,0.890625 -0.796875,1.015625 -1.125,1.015625 -0.78125,0 -0.78125,-0.328125 -0.78125,-0.65625 v -2.6875 c 0,-0.3125 -0.0625,-0.40625 -0.40625,-0.40625 H 0.53125 c -0.15625,0 -0.40625,0 -0.40625,0.3125 0,0.296875 0.25,0.296875 0.390625,0.296875 H 0.96875 v 2.546875 c 0,0.96875 0.6875,1.203125 1.40625,1.203125 0.421875,0 0.828125,-0.109375 1.1875,-0.375 z m 0,0"
           transform="translate(321.31529,146.72)"
           id="path6731" />
        <path
           inkscape:connector-curvature="0"
           style="stroke:none;stroke-width:0"
           d="m 2.953125,-5.6875 c 0,-0.296875 -0.046875,-0.40625 -0.390625,-0.40625 H 0.984375 c -0.15625,0 -0.40625,0 -0.40625,0.3125 0,0.296875 0.265625,0.296875 0.40625,0.296875 h 1.28125 v 4.875 h -1.28125 c -0.15625,0 -0.40625,0 -0.40625,0.3125 C 0.578125,0 0.84375,0 0.984375,0 H 4.25 c 0.15625,0 0.40625,0 0.40625,-0.296875 0,-0.3125 -0.234375,-0.3125 -0.40625,-0.3125 H 2.953125 Z m 0,0"
           transform="translate(326.54565,146.72)"
           id="path6733" />
        <path
           inkscape:connector-curvature="0"
           style="stroke:none;stroke-width:0"
           d="m 4.234375,-1.90625 c 0.203125,0 0.390625,0 0.390625,-0.359375 0,-1.140625 -0.640625,-2.125 -1.9375,-2.125 -1.1875,0 -2.140625,1 -2.140625,2.234375 0,1.203125 1.015625,2.21875 2.296875,2.21875 1.3125,0 1.78125,-0.90625 1.78125,-1.15625 0,-0.265625 -0.28125,-0.265625 -0.34375,-0.265625 -0.1875,0 -0.265625,0.03125 -0.328125,0.21875 -0.21875,0.5 -0.765625,0.59375 -1.046875,0.59375 -0.75,0 -1.484375,-0.5 -1.65625,-1.359375 z M 1.265625,-2.5 C 1.40625,-3.234375 2,-3.78125 2.6875,-3.78125 c 0.515625,0 1.140625,0.25 1.234375,1.28125 z m 0,0"
           transform="translate(331.77601,146.72)"
           id="path6735" />
      </g>
    </g>
    <g
       id="g7003"
       transform="translate(-131.67965,33.468528)">
      <g
         transform="matrix(0.4843822,0,0,0.4843822,24.635705,-25.745549)"
         style="fill:#000000;fill-opacity:1"
         id="g6765">
        <path
           inkscape:connector-curvature="0"
           style="stroke:none;stroke-width:0"
           d="m 0.875,-0.59375 c -0.03125,0.15625 -0.09375,0.390625 -0.09375,0.4375 0,0.171875 0.140625,0.265625 0.296875,0.265625 0.125,0 0.296875,-0.078125 0.375,-0.28125 C 1.46875,-0.203125 1.796875,-1.5625 1.84375,-1.75 c 0.078125,-0.328125 0.265625,-1.015625 0.3125,-1.296875 0.046875,-0.125 0.328125,-0.59375 0.5625,-0.8125 0.078125,-0.0625 0.375,-0.328125 0.796875,-0.328125 0.265625,0 0.40625,0.125 0.421875,0.125 -0.296875,0.046875 -0.515625,0.28125 -0.515625,0.546875 0,0.15625 0.109375,0.34375 0.375,0.34375 0.265625,0 0.546875,-0.234375 0.546875,-0.59375 0,-0.34375 -0.3125,-0.640625 -0.828125,-0.640625 C 2.875,-4.40625 2.4375,-3.921875 2.25,-3.640625 2.15625,-4.09375 1.796875,-4.40625 1.328125,-4.40625 0.875,-4.40625 0.6875,-4.015625 0.59375,-3.84375 0.421875,-3.5 0.296875,-2.90625 0.296875,-2.875 c 0,0.109375 0.09375,0.109375 0.109375,0.109375 0.109375,0 0.109375,-0.015625 0.171875,-0.234375 0.171875,-0.703125 0.375,-1.1875 0.734375,-1.1875 0.15625,0 0.296875,0.078125 0.296875,0.453125 0,0.21875 -0.03125,0.328125 -0.15625,0.84375 z m 0,0"
           transform="translate(301.376,218.451)"
           id="path6763" />
      </g>
      <g
         transform="matrix(0.4843822,0,0,0.4843822,24.635705,-25.745549)"
         style="fill:#000000;fill-opacity:1"
         id="g6769">
        <path
           inkscape:connector-curvature="0"
           style="stroke:none;stroke-width:0"
           d="m 1.84375,-4.625 c 0,-0.015625 0.03125,-0.109375 0.03125,-0.109375 0,-0.046875 -0.03125,-0.109375 -0.125,-0.109375 -0.140625,0 -0.71875,0.0625 -0.890625,0.078125 -0.046875,0 -0.15625,0.015625 -0.15625,0.15625 0,0.09375 0.109375,0.09375 0.1875,0.09375 0.328125,0 0.328125,0.0625 0.328125,0.109375 0,0.046875 -0.0625,0.328125 -0.109375,0.484375 l -0.15625,0.640625 c -0.0625,0.25 -0.4375,1.765625 -0.453125,1.859375 -0.046875,0.171875 -0.046875,0.265625 -0.046875,0.34375 0,0.703125 0.453125,1.140625 1.03125,1.140625 0.875,0 1.796875,-0.9375 1.796875,-1.96875 0,-0.8125 -0.5625,-1.171875 -1.046875,-1.171875 -0.359375,0 -0.671875,0.203125 -0.875,0.390625 z m -0.359375,4.5 c -0.328125,0 -0.53125,-0.296875 -0.53125,-0.71875 0,-0.25 0.0625,-0.484375 0.265625,-1.28125 C 1.25,-2.25 1.25,-2.265625 1.390625,-2.421875 1.65625,-2.71875 1.96875,-2.875 2.21875,-2.875 c 0.265625,0 0.5,0.203125 0.5,0.671875 0,0.28125 -0.140625,1 -0.359375,1.40625 C 2.1875,-0.453125 1.84375,-0.125 1.484375,-0.125 Z m 0,0"
           transform="translate(305.87,219.945)"
           id="path6767" />
      </g>
    </g>
    <g
       id="g7015"
       transform="translate(-49.770264,16.09616)">
      <g
         transform="matrix(0.4843822,0,0,0.4843822,24.635705,-25.745549)"
         style="fill:#000000;fill-opacity:1"
         id="g6781">
        <path
           inkscape:connector-curvature="0"
           style="stroke:none;stroke-width:0"
           d="m 0.875,-0.59375 c -0.03125,0.15625 -0.09375,0.390625 -0.09375,0.4375 0,0.171875 0.140625,0.265625 0.296875,0.265625 0.125,0 0.296875,-0.078125 0.375,-0.28125 C 1.46875,-0.203125 1.796875,-1.5625 1.84375,-1.75 c 0.078125,-0.328125 0.265625,-1.015625 0.3125,-1.296875 0.046875,-0.125 0.328125,-0.59375 0.5625,-0.8125 0.078125,-0.0625 0.375,-0.328125 0.796875,-0.328125 0.265625,0 0.40625,0.125 0.421875,0.125 -0.296875,0.046875 -0.515625,0.28125 -0.515625,0.546875 0,0.15625 0.109375,0.34375 0.375,0.34375 0.265625,0 0.546875,-0.234375 0.546875,-0.59375 0,-0.34375 -0.3125,-0.640625 -0.828125,-0.640625 C 2.875,-4.40625 2.4375,-3.921875 2.25,-3.640625 2.15625,-4.09375 1.796875,-4.40625 1.328125,-4.40625 0.875,-4.40625 0.6875,-4.015625 0.59375,-3.84375 0.421875,-3.5 0.296875,-2.90625 0.296875,-2.875 c 0,0.109375 0.09375,0.109375 0.109375,0.109375 0.109375,0 0.109375,-0.015625 0.171875,-0.234375 0.171875,-0.703125 0.375,-1.1875 0.734375,-1.1875 0.15625,0 0.296875,0.078125 0.296875,0.453125 0,0.21875 -0.03125,0.328125 -0.15625,0.84375 z m 0,0"
           transform="translate(300.794,254.316)"
           id="path6779" />
      </g>
      <g
         transform="matrix(0.4843822,0,0,0.4843822,24.635705,-25.745549)"
         style="fill:#000000;fill-opacity:1"
         id="g6785">
        <path
           inkscape:connector-curvature="0"
           style="stroke:none;stroke-width:0"
           d="M 2.84375,-2.75 H 3.515625 C 3.65625,-2.75 3.75,-2.75 3.75,-2.90625 3.75,-3 3.65625,-3 3.53125,-3 H 2.890625 c 0.15625,-0.890625 0.203125,-1.203125 0.265625,-1.40625 0.03125,-0.15625 0.1875,-0.296875 0.359375,-0.296875 0,0 0.1875,0 0.328125,0.078125 -0.296875,0.09375 -0.3125,0.34375 -0.3125,0.375 0,0.15625 0.125,0.265625 0.28125,0.265625 0.1875,0 0.390625,-0.15625 0.390625,-0.421875 0,-0.328125 -0.328125,-0.5 -0.6875,-0.5 -0.3125,0 -0.65625,0.171875 -0.84375,0.515625 C 2.53125,-4.125 2.484375,-3.8125 2.328125,-3 H 1.78125 c -0.140625,0 -0.234375,0 -0.234375,0.15625 0,0.09375 0.09375,0.09375 0.21875,0.09375 H 2.28125 c 0,0.046875 -0.4375,2.546875 -0.609375,3.296875 -0.03125,0.15625 -0.15625,0.671875 -0.484375,0.671875 -0.015625,0 -0.171875,0 -0.3125,-0.078125 0.28125,-0.09375 0.3125,-0.34375 0.3125,-0.375 C 1.1875,0.609375 1.0625,0.5 0.90625,0.5 c -0.1875,0 -0.390625,0.15625 -0.390625,0.421875 0,0.3125 0.328125,0.5 0.671875,0.5 0.4375,0 0.75,-0.453125 0.828125,-0.609375 0.25,-0.46875 0.421875,-1.328125 0.4375,-1.40625 z m 0,0"
           transform="translate(305.289,255.811)"
           id="path6783" />
      </g>
    </g>
    <g
       id="g6793"
       style="fill:#000000;fill-opacity:1"
       transform="matrix(0.4843822,0,0,0.4843822,-129.17092,-72.785663)">
      <path
         id="path6791"
         transform="translate(301.037,290.182)"
         d="M 5.078125,-4.03125 C 5.0625,-4.0625 5.03125,-4.140625 5.03125,-4.171875 c 0,0 0.171875,-0.140625 0.28125,-0.21875 l 1.75,-1.34375 C 8,-6.4375 8.390625,-6.46875 8.6875,-6.5 8.765625,-6.515625 8.859375,-6.515625 8.859375,-6.703125 8.859375,-6.734375 8.828125,-6.8125 8.75,-6.8125 c -0.21875,0 -0.46875,0.03125 -0.703125,0.03125 -0.359375,0 -0.75,-0.03125 -1.109375,-0.03125 -0.0625,0 -0.1875,0 -0.1875,0.203125 0,0.0625 0.046875,0.09375 0.125,0.109375 0.21875,0.015625 0.296875,0.0625 0.296875,0.203125 0,0.1875 -0.296875,0.421875 -0.359375,0.46875 L 2.9375,-2.84375 3.734375,-6.046875 C 3.8125,-6.40625 3.84375,-6.5 4.5625,-6.5 c 0.25,0 0.34375,0 0.34375,-0.203125 0,-0.078125 -0.078125,-0.109375 -0.140625,-0.109375 -0.28125,0 -1,0.03125 -1.28125,0.03125 C 3.203125,-6.78125 2.5,-6.8125 2.203125,-6.8125 2.140625,-6.8125 2,-6.8125 2,-6.625 2,-6.5 2.09375,-6.5 2.296875,-6.5 c 0.125,0 0.3125,0.015625 0.421875,0.015625 0.15625,0.03125 0.21875,0.046875 0.21875,0.171875 0,0.03125 0,0.0625 -0.03125,0.1875 L 1.5625,-0.78125 c -0.09375,0.390625 -0.109375,0.46875 -0.90625,0.46875 -0.171875,0 -0.28125,0 -0.28125,0.1875 C 0.375,0 0.5,0 0.53125,0 0.8125,0 1.515625,-0.03125 1.796875,-0.03125 2,-0.03125 2.21875,-0.015625 2.4375,-0.015625 2.65625,-0.015625 2.875,0 3.078125,0 3.15625,0 3.28125,0 3.28125,-0.203125 3.28125,-0.3125 3.1875,-0.3125 3,-0.3125 c -0.375,0 -0.640625,0 -0.640625,-0.171875 0,-0.078125 0.046875,-0.296875 0.078125,-0.4375 C 2.578125,-1.453125 2.71875,-1.96875 2.84375,-2.5 l 1.484375,-1.15625 1.15625,2.6875 c 0.125,0.265625 0.125,0.296875 0.125,0.34375 0,0.3125 -0.4375,0.3125 -0.53125,0.3125 -0.109375,0 -0.21875,0 -0.21875,0.203125 C 4.859375,0 4.984375,0 5,0 5.40625,0 5.828125,-0.03125 6.21875,-0.03125 6.4375,-0.03125 6.984375,0 7.203125,0 7.25,0 7.375,0 7.375,-0.203125 7.375,-0.3125 7.265625,-0.3125 7.171875,-0.3125 c -0.40625,0 -0.53125,-0.09375 -0.6875,-0.4375 z m 0,0"
         style="stroke:none;stroke-width:0"
         inkscape:connector-curvature="0" />
    </g>
    <g
       id="g6797"
       style="fill:#000000;fill-opacity:1"
       transform="matrix(0.4843822,0,0,0.4843822,-129.44823,-52.05681)">
      <path
         id="path6795"
         transform="translate(301.734,308.115)"
         d="M 3.015625,-3.15625 H 4.71875 c 1.40625,0 2.796875,-1.03125 2.796875,-2.140625 0,-0.78125 -0.65625,-1.515625 -1.96875,-1.515625 h -3.21875 c -0.1875,0 -0.296875,0 -0.296875,0.1875 0,0.125 0.078125,0.125 0.28125,0.125 0.125,0 0.3125,0.015625 0.421875,0.015625 0.171875,0.03125 0.21875,0.046875 0.21875,0.171875 0,0.03125 0,0.0625 -0.03125,0.1875 l -1.34375,5.34375 c -0.09375,0.390625 -0.109375,0.46875 -0.90625,0.46875 -0.15625,0 -0.265625,0 -0.265625,0.1875 C 0.40625,0 0.515625,0 0.546875,0 0.828125,0 1.53125,-0.03125 1.8125,-0.03125 c 0.21875,0 0.4375,0.015625 0.640625,0.015625 0.21875,0 0.4375,0.015625 0.640625,0.015625 0.078125,0 0.203125,0 0.203125,-0.203125 0,-0.109375 -0.09375,-0.109375 -0.28125,-0.109375 -0.359375,0 -0.640625,0 -0.640625,-0.171875 0,-0.0625 0.015625,-0.109375 0.03125,-0.171875 z M 3.734375,-6.125 C 3.828125,-6.46875 3.84375,-6.5 4.28125,-6.5 h 0.953125 c 0.828125,0 1.359375,0.265625 1.359375,0.953125 0,0.390625 -0.203125,1.25 -0.59375,1.609375 -0.5,0.453125 -1.09375,0.53125 -1.53125,0.53125 H 3.0625 Z m 0,0"
         style="stroke:none;stroke-width:0"
         inkscape:connector-curvature="0" />
    </g>
    <g
       id="g6801"
       style="fill:#000000;fill-opacity:1"
       transform="matrix(0.4843822,0,0,0.4843822,-3.4393162,-60.742752)">
      <path
         id="path6799"
         transform="translate(301.707,326.047)"
         d="m 7.578125,-6.921875 c 0,-0.03125 -0.015625,-0.109375 -0.109375,-0.109375 -0.03125,0 -0.046875,0.015625 -0.15625,0.125 L 6.625,-6.140625 C 6.53125,-6.28125 6.078125,-7.03125 4.96875,-7.03125 2.734375,-7.03125 0.5,-4.828125 0.5,-2.515625 0.5,-0.875 1.671875,0.21875 3.203125,0.21875 c 0.859375,0 1.625,-0.390625 2.15625,-0.859375 0.921875,-0.8125 1.09375,-1.71875 1.09375,-1.75 C 6.453125,-2.5 6.34375,-2.5 6.328125,-2.5 c -0.0625,0 -0.109375,0.03125 -0.125,0.109375 -0.09375,0.28125 -0.328125,1 -1.015625,1.578125 -0.6875,0.546875 -1.3125,0.71875 -1.828125,0.71875 -0.890625,0 -1.953125,-0.515625 -1.953125,-2.0625 0,-0.578125 0.203125,-2.1875 1.203125,-3.359375 0.609375,-0.703125 1.546875,-1.203125 2.4375,-1.203125 1.015625,0 1.609375,0.765625 1.609375,1.921875 0,0.40625 -0.03125,0.40625 -0.03125,0.515625 0,0.09375 0.109375,0.09375 0.140625,0.09375 0.125,0 0.125,-0.015625 0.1875,-0.203125 z m 0,0"
         style="stroke:none;stroke-width:0"
         inkscape:connector-curvature="0" />
    </g>
    <g
       id="g6805"
       style="fill:#000000;fill-opacity:1"
       transform="matrix(0.4843822,0,0,0.4843822,-125.0383,-88.582662)">
      <path
         id="path6803"
         transform="translate(301.596,343.98)"
         d="M 1.59375,-0.78125 C 1.5,-0.390625 1.46875,-0.3125 0.6875,-0.3125 c -0.171875,0 -0.265625,0 -0.265625,0.203125 C 0.421875,0 0.515625,0 0.6875,0 H 4.25 C 5.828125,0 7,-1.171875 7,-2.15625 7,-2.875 6.421875,-3.453125 5.453125,-3.5625 6.484375,-3.75 7.53125,-4.484375 7.53125,-5.4375 c 0,-0.734375 -0.65625,-1.375 -1.84375,-1.375 H 2.328125 c -0.1875,0 -0.28125,0 -0.28125,0.203125 0,0.109375 0.09375,0.109375 0.28125,0.109375 0.015625,0 0.203125,0 0.375,0.015625 0.171875,0.03125 0.265625,0.03125 0.265625,0.171875 0,0.03125 -0.015625,0.0625 -0.03125,0.1875 z m 1.5,-2.875 0.625,-2.46875 C 3.8125,-6.46875 3.828125,-6.5 4.25,-6.5 h 1.296875 c 0.875,0 1.078125,0.59375 1.078125,1.03125 0,0.875 -0.859375,1.8125 -2.0625,1.8125 z m -0.4375,3.34375 c -0.140625,0 -0.15625,0 -0.21875,0 -0.109375,-0.015625 -0.140625,-0.03125 -0.140625,-0.109375 0,-0.03125 0,-0.046875 0.0625,-0.21875 l 0.6875,-2.78125 h 1.875 c 0.953125,0 1.15625,0.734375 1.15625,1.15625 C 6.078125,-1.28125 5.1875,-0.3125 4,-0.3125 Z m 0,0"
         style="stroke:none;stroke-width:0"
         inkscape:connector-curvature="0" />
    </g>
    <g
       id="g6809"
       style="fill:#000000;fill-opacity:1"
       transform="matrix(0.4843822,0,0,0.4843822,-7.3843924,-97.276656)">
      <path
         id="path6807"
         transform="translate(301.729,361.913)"
         d="m 3.015625,-3.234375 h 0.96875 c 0.75,0 0.828125,0.15625 0.828125,0.4375 0,0.078125 0,0.1875 -0.0625,0.5 C 4.71875,-2.25 4.71875,-2.21875 4.71875,-2.1875 c 0,0.078125 0.0625,0.109375 0.109375,0.109375 0.109375,0 0.109375,-0.03125 0.15625,-0.203125 L 5.53125,-4.453125 C 5.5625,-4.5625 5.5625,-4.578125 5.5625,-4.609375 5.5625,-4.625 5.546875,-4.71875 5.4375,-4.71875 5.34375,-4.71875 5.328125,-4.671875 5.296875,-4.5 5.078125,-3.734375 4.859375,-3.546875 4,-3.546875 H 3.09375 l 0.640625,-2.53125 C 3.828125,-6.4375 3.84375,-6.46875 4.28125,-6.46875 h 1.3125 c 1.21875,0 1.453125,0.328125 1.453125,1.09375 0,0.234375 0,0.265625 -0.03125,0.546875 C 7,-4.703125 7,-4.6875 7,-4.65625 c 0,0.046875 0.03125,0.125 0.125,0.125 0.109375,0 0.109375,-0.0625 0.125,-0.25 L 7.453125,-6.515625 C 7.484375,-6.78125 7.4375,-6.78125 7.1875,-6.78125 H 2.296875 c -0.1875,0 -0.296875,0 -0.296875,0.203125 0,0.109375 0.09375,0.109375 0.28125,0.109375 0.375,0 0.65625,0 0.65625,0.171875 0,0.046875 0,0.0625 -0.0625,0.25 L 1.5625,-0.78125 c -0.09375,0.390625 -0.109375,0.46875 -0.90625,0.46875 -0.171875,0 -0.28125,0 -0.28125,0.1875 C 0.375,0 0.5,0 0.53125,0 0.8125,0 1.5625,-0.03125 1.84375,-0.03125 2.171875,-0.03125 3,0 3.328125,0 3.421875,0 3.53125,0 3.53125,-0.1875 3.53125,-0.265625 3.484375,-0.296875 3.484375,-0.296875 3.453125,-0.3125 3.421875,-0.3125 3.203125,-0.3125 c -0.21875,0 -0.265625,0 -0.515625,-0.015625 -0.296875,-0.03125 -0.328125,-0.078125 -0.328125,-0.203125 0,-0.015625 0,-0.078125 0.046875,-0.21875 z m 0,0"
         style="stroke:none;stroke-width:0"
         inkscape:connector-curvature="0" />
    </g>
    <path
       style="fill:none;stroke:#000000;stroke-width:0.16500001;stroke-linecap:round;stroke-linejoin:round;stroke-miterlimit:4;stroke-dasharray:none;stroke-opacity:1"
       d="m 28.581135,109.66275 0.701583,0.54925 h 10.144923 l 1.097101,0.57878 1.12351,-0.57878 H 52.56822 l 0.635119,-0.55516"
       id="path8130"
       inkscape:connector-curvature="0"
       inkscape:transform-center-y="-1.2361132"
       sodipodi:nodetypes="ccscccc" />
    <path
       sodipodi:nodetypes="ccscccc"
       inkscape:transform-center-y="-1.2361132"
       inkscape:connector-curvature="0"
       id="path8137"
       d="m 110.43212,109.66275 0.70159,0.54925 h 10.14492 l 1.09711,0.57878 1.12351,-0.57878 h 10.91997 l 0.63512,-0.55516"
       style="fill:none;stroke:#000000;stroke-width:0.16500001;stroke-linecap:round;stroke-linejoin:round;stroke-miterlimit:4;stroke-dasharray:none;stroke-opacity:1" />
    <path
       style="fill:none;stroke:#000000;stroke-width:0.16500001;stroke-linecap:round;stroke-linejoin:round;stroke-miterlimit:4;stroke-dasharray:none;stroke-opacity:1"
       d="m 57.580235,109.66275 0.701587,0.54925 h 22.027541 l 1.09711,0.57878 1.12351,-0.57878 H 105.3562 l 0.63512,-0.55516"
       id="path8139"
       inkscape:connector-curvature="0"
       inkscape:transform-center-y="-1.2361132"
       sodipodi:nodetypes="ccscccc" />
    <g
       id="g5160"
       transform="matrix(1.2876868,0,0,1.2876868,-20.843342,22.539394)">
      <g
         word-spacing="normal"
         letter-spacing="normal"
         font-size-adjust="none"
         font-stretch="normal"
         font-weight="normal"
         font-variant="normal"
         font-style="normal"
         stroke-miterlimit="10.433"
         xml:space="preserve"
         transform="matrix(0.07496624,0,0,-0.07496624,-13.119092,97.158907)"
         id="content"
         style="font-style:normal;font-variant:normal;font-weight:normal;font-stretch:normal;letter-spacing:normal;word-spacing:normal;text-anchor:start;fill:none;fill-opacity:1;fill-rule:evenodd;stroke:#000000;stroke-linecap:butt;stroke-linejoin:miter;stroke-miterlimit:10.43299961;stroke-dasharray:none;stroke-dashoffset:0;stroke-opacity:1"><path
           id="path5141"
           d="m 1114.9,349.38 v -0.07 l -0.1,-0.08 v -0.07 -0.08 -0.16 l -0.1,-0.16 v -0.16 -0.16 l -0.1,-0.16 v -0.16 -0.08 -0.07 l -0.1,-0.07 v -0.07 -0.07 -0.07 -0.06 -0.06 -0.05 l -0.1,-0.06 v -0.04 -0.05 -0.04 -0.03 -0.04 -0.02 c 0,-0.89 0.7,-1.35 1.5,-1.35 0.6,0 1.5,0.4 1.8,1.4 0.1,0.2 1.8,6.98 2,7.87 0.4,1.64 1.3,5.13 1.6,6.48 0.2,0.65 1.6,2.99 2.8,4.08 0.4,0.35 1.8,1.64 4,1.64 1.3,0 2,-0.59 2.1,-0.59 -1.5,-0.25 -2.6,-1.45 -2.6,-2.73 0,-0.8 0.5,-1.75 1.9,-1.75 1.3,0 2.7,1.14 2.7,2.93 0,1.75 -1.6,3.24 -4.1,3.24 -3.3,0 -5.5,-2.44 -6.4,-3.83 -0.4,2.23 -2.2,3.83 -4.5,3.83 -2.3,0 -3.3,-1.94 -3.7,-2.83 -0.9,-1.7 -1.6,-4.69 -1.6,-4.84 0,-0.5 0.5,-0.5 0.6,-0.5 0.5,0 0.6,0.06 0.9,1.15 0.8,3.53 1.8,5.92 3.6,5.92 0.9,0 1.6,-0.39 1.6,-2.28 0,-1.04 -0.2,-1.61 -0.8,-4.19 z"
           inkscape:connector-curvature="0"
           style="fill:#000000;stroke-width:0" /><path
           id="path5143"
           d="m 1152.8,362.02 v 0 0.01 0 0.01 0 0.01 0 0.01 0.01 0 0.02 0.02 l 0.1,0.02 v 0.02 0.02 0.02 0.02 0.02 0.03 0.04 0.03 0.02 0.02 0.03 0.02 0.02 0.02 0.02 0.01 0.02 0.01 0 0.01 0.01 0 0.01 0 0.01 0 0 0 0.01 c 0,0.18 -0.1,0.5 -0.5,0.5 -0.7,0 -3.6,-0.28 -4.5,-0.36 -0.2,-0.03 -0.7,-0.07 -0.7,-0.8 0,-0.48 0.5,-0.48 0.9,-0.48 1.7,0 1.7,-0.25 1.7,-0.54 0,-0.23 -0.1,-0.45 -0.2,-0.76 l -2,-7.94 c -0.7,1.14 -1.9,2.05 -3.6,2.05 v -0.97 c 2.5,0 3.1,-2.64 3.1,-3.03 0,-0.14 0,-0.39 -0.1,-0.49 l -1.6,-6.51 c -0.2,-0.99 -1,-1.67 -1.8,-2.35 -0.3,-0.26 -1.7,-1.39 -3.2,-1.39 -1.3,0 -2.5,0.91 -2.5,3.38 0,1.86 1,5.69 1.8,7.08 1.6,2.79 3.4,3.31 4.3,3.31 v 0.97 c -4.4,0 -8.9,-4.91 -8.9,-9.92 0,-3.38 2.2,-5.78 5.2,-5.78 1.9,0 3.6,1.07 4.9,2.43 0.7,-2.09 2.7,-2.43 3.6,-2.43 1.3,0 2.2,0.76 2.8,1.84 0.8,1.36 1.2,3.34 1.2,3.48 0,0.46 -0.4,0.46 -0.5,0.46 -0.5,0 -0.6,-0.14 -0.8,-1.08 -0.4,-1.67 -1.1,-3.74 -2.6,-3.74 -0.8,0 -1.1,0.77 -1.1,1.71 0,0.67 0.1,0.98 0.2,1.43 z"
           inkscape:connector-curvature="0"
           style="fill:#000000;stroke-width:0" /><path
           id="path5145"
           d="m 1204.2,362.74 h 0.2 0.1 0.2 v 0.01 h 0.1 l 0.1,0.01 v 0.01 l 0.1,0.01 0.1,0.01 0.1,0.01 v 0.02 l 0.1,0.02 0.1,0.02 v 0.03 l 0.1,0.02 v 0.03 l 0.1,0.04 v 0.04 l 0.1,0.04 v 0.04 l 0.1,0.05 v 0.03 0.03 0.03 0.03 0.03 l 0.1,0.03 v 0.03 0.04 0.03 0.04 0.04 0.04 0.04 0.04 0.05 0.04 c 0,1 -0.9,1 -1.6,1 h -29.9 c -0.7,0 -1.6,0 -1.6,-1 0,-0.98 0.9,-0.98 1.7,-0.98 z"
           inkscape:connector-curvature="0"
           style="fill:#000000;stroke-width:0" /><path
           id="path5147"
           d="m 1204.3,353.07 v 0 h 0.1 0.1 0.2 l 0.1,0.01 v 0 l 0.1,0.01 0.1,0.01 v 0.01 l 0.1,0.01 0.1,0.01 v 0.02 l 0.1,0.02 0.1,0.02 v 0.03 l 0.1,0.02 v 0.04 l 0.1,0.03 v 0.04 l 0.1,0.04 v 0.05 0.02 l 0.1,0.03 v 0.02 0.03 0.03 0.03 0.03 l 0.1,0.04 v 0.03 0.04 0.03 0.04 0.04 0.04 0.04 0.05 0.04 0.05 c 0,1 -0.9,1 -1.7,1 h -29.7 c -0.8,0 -1.7,0 -1.7,-1 0,-1 0.9,-1 1.6,-1 z"
           inkscape:connector-curvature="0"
           style="fill:#000000;stroke-width:0" /><path
           id="path5149"
           d="m 1226.9,349.38 v -0.07 -0.08 -0.07 -0.08 l -0.1,-0.16 v -0.16 -0.16 l -0.1,-0.16 v -0.16 -0.16 l -0.1,-0.08 v -0.07 -0.07 -0.07 -0.07 -0.07 -0.06 l -0.1,-0.06 v -0.05 -0.06 -0.04 -0.05 -0.04 -0.03 -0.04 -0.02 c 0,-0.89 0.7,-1.35 1.4,-1.35 0.6,0 1.5,0.4 1.9,1.4 0.1,0.2 1.8,6.98 2,7.87 0.4,1.64 1.3,5.13 1.6,6.48 0.2,0.65 1.6,2.99 2.8,4.08 0.4,0.35 1.8,1.64 4,1.64 1.2,0 2,-0.59 2,-0.59 -1.4,-0.25 -2.5,-1.45 -2.5,-2.73 0,-0.8 0.5,-1.75 1.8,-1.75 1.4,0 2.8,1.14 2.8,2.93 0,1.75 -1.6,3.24 -4.1,3.24 -3.3,0 -5.5,-2.44 -6.4,-3.83 -0.4,2.23 -2.2,3.83 -4.6,3.83 -2.3,0 -3.2,-1.94 -3.7,-2.83 -0.8,-1.7 -1.5,-4.69 -1.5,-4.84 0,-0.5 0.5,-0.5 0.6,-0.5 0.5,0 0.6,0.06 0.8,1.15 0.9,3.53 1.9,5.92 3.7,5.92 0.8,0 1.5,-0.39 1.5,-2.28 0,-1.04 -0.1,-1.61 -0.8,-4.19 z"
           inkscape:connector-curvature="0"
           style="fill:#000000;stroke-width:0" /><path
           id="path5151"
           d="m 1259.7,344.52 v -0.07 -0.07 -0.07 -0.07 l -0.1,-0.08 v -0.08 -0.08 -0.09 l -0.1,-0.16 v -0.17 -0.17 l -0.1,-0.08 v -0.08 -0.08 -0.07 -0.08 l -0.1,-0.07 v -0.06 -0.07 -0.06 -0.05 -0.05 l -0.1,-0.05 v -0.03 -0.04 -0.01 -0.02 -0.01 -0.01 0 -0.01 0 -0.01 c -0.7,-1.08 -2.1,-2.97 -4.2,-2.97 -2.4,0 -2.4,2.27 -2.4,2.89 0,2.07 0.9,4.54 1.9,7.08 0.3,0.71 0.5,1.22 0.5,1.78 0,1.82 -1.5,2.99 -3.3,2.99 -3.5,0 -5.1,-4.77 -5.1,-5.33 0,-0.45 0.5,-0.45 0.6,-0.45 0.5,0 0.6,0.17 0.7,0.56 0.8,2.86 2.3,4.25 3.7,4.25 0.6,0 0.8,-0.39 0.8,-1.22 0,-0.8 -0.2,-1.53 -0.6,-2.33 -1.9,-4.81 -1.9,-5.83 -1.9,-6.76 0,-0.6 0,-2.21 1.3,-3.32 1,-0.82 2.4,-1.1 3.6,-1.1 2.2,0 3.4,1.18 4.6,2.29 0.7,-2.23 3,-2.29 3.5,-2.29 1.2,0 2.1,0.68 2.7,1.84 0.8,1.36 1.3,3.37 1.3,3.48 0,0.46 -0.5,0.46 -0.6,0.46 -0.5,0 -0.5,-0.14 -0.8,-1.08 -0.4,-1.64 -1.1,-3.74 -2.5,-3.74 -0.9,0 -1.2,0.8 -1.2,1.71 0,0.59 0.3,1.86 0.6,2.76 0.2,0.94 0.5,2.36 0.7,3.13 l 0.8,3.11 c 0.2,0.87 0.6,2.4 0.6,2.58 0,0.68 -0.6,1.1 -1.1,1.1 -1.3,0 -1.6,-1.01 -1.8,-2.12 z"
           inkscape:connector-curvature="0"
           style="fill:#000000;stroke-width:0" /><path
           id="path5153"
           d="m 1302.6,357.89 h 13.9 c 0.7,0 1.6,0 1.6,1 0,1 -0.9,1 -1.6,1 h -13.9 v 13.96 c 0,0.69 0,1.64 -1,1.64 -1,0 -1,-0.95 -1,-1.64 v -13.96 h -14 c -0.7,0 -1.6,0 -1.6,-1 0,-1 0.9,-1 1.6,-1 h 14 v -13.93 c 0,-0.71 0,-1.66 1,-1.66 1,0 1,0.95 1,1.66 z"
           inkscape:connector-curvature="0"
           style="fill:#000000;stroke-width:0" /><path
           id="path5155"
           d="m 1336.4,349.38 v -0.07 -0.08 l -0.1,-0.07 v -0.08 -0.16 -0.16 l -0.1,-0.16 v -0.16 l -0.1,-0.16 v -0.16 -0.08 -0.07 l -0.1,-0.07 v -0.07 -0.07 -0.07 -0.06 -0.06 -0.05 -0.06 -0.04 l -0.1,-0.05 v -0.04 -0.03 -0.04 -0.02 c 0,-0.89 0.7,-1.35 1.5,-1.35 0.6,0 1.5,0.4 1.8,1.4 0.1,0.2 1.8,6.98 2,7.87 0.4,1.64 1.3,5.13 1.6,6.48 0.2,0.65 1.6,2.99 2.8,4.08 0.4,0.35 1.8,1.64 4,1.64 1.3,0 2,-0.59 2.1,-0.59 -1.5,-0.25 -2.6,-1.45 -2.6,-2.73 0,-0.8 0.5,-1.75 1.9,-1.75 1.3,0 2.7,1.14 2.7,2.93 0,1.75 -1.6,3.24 -4.1,3.24 -3.3,0 -5.4,-2.44 -6.4,-3.83 -0.4,2.23 -2.2,3.83 -4.5,3.83 -2.3,0 -3.3,-1.94 -3.7,-2.83 -0.9,-1.7 -1.6,-4.69 -1.6,-4.84 0,-0.5 0.5,-0.5 0.6,-0.5 0.5,0 0.6,0.06 0.9,1.15 0.8,3.53 1.8,5.92 3.6,5.92 0.9,0 1.6,-0.39 1.6,-2.28 0,-1.04 -0.2,-1.61 -0.8,-4.19 z"
           inkscape:connector-curvature="0"
           style="fill:#000000;stroke-width:0" /><path
           id="path5157"
           d="m 1364.3,362.02 v 0 0.01 0 0.01 0 0.01 0 0.01 0.01 0 0.02 0.02 0.02 0.02 0.02 0.02 0.02 0.02 0.03 l 0.1,0.04 v 0.05 0.02 0.03 0.02 0.02 0.02 0.02 0.01 0.02 0.01 0 0.01 0.01 0 0.01 0 0.01 0 0 0 0.01 c 0,0.18 -0.1,0.5 -0.6,0.5 -0.6,0 -3.6,-0.28 -4.4,-0.36 -0.3,-0.03 -0.7,-0.07 -0.7,-0.8 0,-0.48 0.4,-0.48 0.8,-0.48 1.7,0 1.7,-0.25 1.7,-0.54 0,-0.23 -0.1,-0.45 -0.1,-0.76 l -4.4,-17.2 c -0.1,-0.36 -0.1,-0.74 -0.1,-1.08 0,-2.24 2,-3.31 3.6,-3.31 0.9,0 1.9,0.28 2.9,1.84 0.7,1.28 1.2,3.34 1.2,3.48 0,0.46 -0.5,0.46 -0.6,0.46 -0.5,0 -0.5,-0.21 -0.7,-0.85 -0.4,-1.73 -1.1,-3.97 -2.6,-3.97 -0.9,0 -1.2,0.88 -1.2,1.71 0,0.39 0.1,1.04 0.2,1.43 z"
           inkscape:connector-curvature="0"
           style="fill:#000000;stroke-width:0" /></g>    </g>
    <g
       id="g5573"
       transform="translate(-2.4277061,-56.054619)">
      <path
         style="font-style:normal;font-variant:normal;font-weight:normal;font-stretch:normal;letter-spacing:normal;word-spacing:normal;text-anchor:start;fill:#000000;fill-opacity:1;fill-rule:evenodd;stroke:#000000;stroke-width:0;stroke-linecap:butt;stroke-linejoin:miter;stroke-miterlimit:10.43299961;stroke-dasharray:none;stroke-dashoffset:0;stroke-opacity:1"
         inkscape:connector-curvature="0"
         d="m 43.753598,142.10935 v -0.002 -0.003 -0.005 -0.005 -0.005 l 0.01,-0.005 v -0.005 -0.006 -0.005 -0.002 -0.002 -0.003 -0.002 -0.002 l 0.01,-0.002 v -0.002 -0.002 -0.002 -0.002 -0.002 -9.9e-4 -0.002 -0.001 -9.9e-4 -0.001 c 0,-0.005 0,-0.0547 -0.05973,-0.0547 -0.04978,0 -0.05973,0.0299 -0.05973,0.0607 -0.328526,0.73371 -0.507723,1.06523 -1.363883,1.06523 h -0.716786 c -0.07168,0 -0.08064,0 -0.110504,-0.005 -0.04978,-0.004 -0.06571,-0.009 -0.06571,-0.0498 0,-0.0139 0,-0.0249 0.02489,-0.11349 l 0.340473,-1.35492 h 0.487812 c 0.418125,0 0.418125,0.10453 0.418125,0.22897 0,0.0348 0,0.0946 -0.02987,0.24291 -0.01,0.0249 -0.01991,0.0408 -0.01991,0.0548 0,0.0249 0.01991,0.0538 0.06969,0.0538 0.03982,0 0.04978,-0.0249 0.06969,-0.0976 l 0.288706,-1.16179 c 0,-0.0299 -0.02987,-0.0547 -0.05973,-0.0547 -0.04978,0 -0.05973,0.0299 -0.06969,0.0906 -0.109509,0.37631 -0.199107,0.4898 -0.657053,0.4898 h -0.457947 l 0.298661,-1.19464 c 0.03982,-0.17422 0.04978,-0.19313 0.258839,-0.19313 h 0.70683 c 0.597322,0 0.746652,0.14336 0.746652,0.55053 0,0.11847 0,0.12743 -0.01991,0.26282 0,0.0299 0,0.0637 0,0.0886 0,0.0249 0.01991,0.0597 0.05973,0.0597 0.05973,0 0.05973,-0.0299 0.06969,-0.12445 l 0.09955,-0.85715 c 0.01,-0.1344 -0.01,-0.1344 -0.139375,-0.1344 h -2.498795 c -0.09955,0 -0.14933,0 -0.14933,0.0995 0,0.0548 0.0448,0.0548 0.137384,0.0548 0.181187,0 0.320562,0 0.320562,0.0886 0,0.0199 0,0.0299 -0.01991,0.11947 l -0.656058,2.62323 c -0.04978,0.19413 -0.06073,0.23296 -0.452969,0.23296 -0.08362,0 -0.138379,0 -0.138379,0.0946 0,0.0597 0.0448,0.0597 0.138379,0.0597 h 2.572464 c 0.119464,0 0.119464,-0.005 0.159286,-0.0846 z"
         id="path5468" />
      <path
         style="font-style:normal;font-variant:normal;font-weight:normal;font-stretch:normal;letter-spacing:normal;word-spacing:normal;text-anchor:start;fill:#000000;fill-opacity:1;fill-rule:evenodd;stroke:#000000;stroke-width:0;stroke-linecap:butt;stroke-linejoin:miter;stroke-miterlimit:10.43299961;stroke-dasharray:none;stroke-dashoffset:0;stroke-opacity:1"
         inkscape:connector-curvature="0"
         d="m 45.61525,142.77636 0.02987,-0.006 0.02987,-0.007 0.02987,-0.008 0.02987,-0.008 0.02987,-0.01 0.02987,-0.01 0.02987,-0.011 0.01991,-0.0119 0.02987,-0.0129 0.02987,-0.013 0.01991,-0.0149 0.02987,-0.0139 0.01991,-0.0159 0.01991,-0.0159 0.01991,-0.0169 0.01991,-0.0179 0.01991,-0.0179 0.01991,-0.0189 0.01991,-0.0189 0.01991,-0.0199 0.01,-0.0199 0.01991,-0.0209 0.01,-0.0209 0.01,-0.0219 0.01,-0.0219 0.01,-0.0229 0.01,-0.0229 0.01,-0.0239 v -0.0239 l 0.01,-0.0239 v -0.0249 -0.0249 c 0,-0.30862 -0.338482,-0.58638 -0.806384,-0.58638 l -0.01991,0.10752 c 0.348438,0 0.487813,0.28473 0.487813,0.47886 0,0.24291 -0.199107,0.51369 -0.597322,0.51369 h -0.537589 v 0.0767 h 0.696875 c 0.358393,0 0.527634,0.30762 0.527634,0.55451 0,0.25685 -0.209062,0.53062 -0.577411,0.53062 h -0.477857 c -0.159285,0 -0.169241,-0.0249 -0.169241,-0.13838 v -0.94675 -0.0767 -0.85417 c 0,-0.11349 0.01,-0.13838 0.169241,-0.13838 h 0.477857 l 0.01991,-0.10752 H 44.09208 v 0.10752 h 0.0896 c 0.268795,0 0.268795,0.0388 0.268795,0.16327 v 1.8278 c 0,0.12445 0,0.16327 -0.268795,0.16327 h -0.0896 v 0.10752 h 1.413661 c 0.477857,0 0.806384,-0.30762 0.806384,-0.63416 0,-0.29169 -0.27875,-0.55849 -0.696875,-0.60429 z"
         id="path5470" />
    </g>
    <g
       id="g5569"
       transform="translate(71.095582,-56.383862)">
      <path
         style="font-style:normal;font-variant:normal;font-weight:normal;font-stretch:normal;letter-spacing:normal;word-spacing:normal;text-anchor:start;fill:#000000;fill-opacity:1;fill-rule:evenodd;stroke:#000000;stroke-width:0;stroke-linecap:butt;stroke-linejoin:miter;stroke-miterlimit:10.43299961;stroke-dasharray:none;stroke-dashoffset:0;stroke-opacity:1"
         inkscape:connector-curvature="0"
         d="m 51.996633,142.10935 v -0.002 -0.003 -0.005 -0.005 -0.005 l 0.01,-0.005 v -0.005 -0.006 -0.005 -0.002 -0.002 -0.003 -0.002 l 0.01,-0.002 v -0.002 -0.002 -0.002 -0.002 -0.002 -0.002 -9.9e-4 -0.002 -0.001 -9.9e-4 -0.001 c 0,-0.005 0,-0.0547 -0.05973,-0.0547 -0.03982,0 -0.04978,0.0299 -0.05973,0.0607 -0.328527,0.73371 -0.507723,1.06523 -1.363884,1.06523 H 49.81641 c -0.06969,0 -0.07964,0 -0.109509,-0.005 -0.04978,-0.004 -0.06969,-0.009 -0.06969,-0.0498 0,-0.0139 0,-0.0249 0.02987,-0.11349 l 0.338483,-1.35492 h 0.487812 c 0.42808,0 0.42808,0.10453 0.42808,0.22897 0,0.0348 0,0.0946 -0.03982,0.24291 -0.01,0.0249 -0.01,0.0408 -0.01,0.0548 0,0.0249 0.01,0.0538 0.05973,0.0538 0.03982,0 0.04978,-0.0249 0.06969,-0.0976 l 0.288706,-1.16179 c 0,-0.0299 -0.02987,-0.0547 -0.05973,-0.0547 -0.04978,0 -0.05973,0.0299 -0.06969,0.0906 -0.109509,0.37631 -0.199107,0.4898 -0.647098,0.4898 h -0.467902 l 0.298661,-1.19464 c 0.03982,-0.17422 0.04978,-0.19313 0.268794,-0.19313 h 0.696875 c 0.607277,0 0.756607,0.14336 0.756607,0.55053 0,0.11847 0,0.12743 -0.02987,0.26282 0,0.0299 0,0.0637 0,0.0886 0,0.0249 0.01991,0.0597 0.05973,0.0597 0.05973,0 0.05973,-0.0299 0.06969,-0.12445 l 0.09955,-0.85715 c 0.01,-0.1344 -0.01,-0.1344 -0.139375,-0.1344 H 49.62721 c -0.09955,0 -0.14933,0 -0.14933,0.0995 0,0.0548 0.04978,0.0548 0.139375,0.0548 0.179196,0 0.318571,0 0.318571,0.0886 0,0.0199 0,0.0299 -0.01991,0.11947 l -0.657053,2.62323 c -0.04978,0.19413 -0.05973,0.23296 -0.447991,0.23296 -0.0896,0 -0.139375,0 -0.139375,0.0946 0,0.0597 0.03982,0.0597 0.139375,0.0597 h 2.568482 c 0.119464,0 0.119464,-0.005 0.159285,-0.0846 z"
         id="path5472" />
      <path
         style="font-style:normal;font-variant:normal;font-weight:normal;font-stretch:normal;letter-spacing:normal;word-spacing:normal;text-anchor:start;fill:#000000;fill-opacity:1;fill-rule:evenodd;stroke:#000000;stroke-width:0;stroke-linecap:butt;stroke-linejoin:miter;stroke-miterlimit:10.43299961;stroke-dasharray:none;stroke-dashoffset:0;stroke-opacity:1"
         inkscape:connector-curvature="0"
         d="M 54.306275,141.65937 H 52.32516 v 0.10751 h 0.0896 c 0.258839,0 0.268794,0.0378 0.268794,0.16327 v 1.81685 c 0,0.12445 -0.01,0.16327 -0.268794,0.16327 h -0.0896 v 0.10752 c 0.119464,-0.0109 0.398214,-0.0109 0.527633,-0.0109 0.139375,0 0.457947,0 0.587366,0.0109 v -0.10752 h -0.119464 c -0.328527,0 -0.328527,-0.0448 -0.328527,-0.16625 v -0.85417 h 0.328527 c 0.338482,0 0.378304,0.10752 0.378304,0.40618 h 0.0896 v -0.91888 h -0.0896 c 0,0.29866 -0.03982,0.40518 -0.378304,0.40518 h -0.328527 v -0.87707 c 0,-0.11448 0.01,-0.13838 0.169241,-0.13838 h 0.457947 c 0.537589,0 0.637143,0.18716 0.696875,0.67199 h 0.0896 z"
         id="path5474" />
    </g>
    <g
       id="g5549"
       transform="translate(22.031514,-46.41653)">
      <path
         style="font-style:normal;font-variant:normal;font-weight:normal;font-stretch:normal;letter-spacing:normal;word-spacing:normal;text-anchor:start;fill:#000000;fill-opacity:1;fill-rule:evenodd;stroke:#000000;stroke-width:0;stroke-linecap:butt;stroke-linejoin:miter;stroke-miterlimit:10.43299961;stroke-dasharray:none;stroke-dashoffset:0;stroke-opacity:1"
         inkscape:connector-curvature="0"
         d="m 60.02065,142.10935 v -0.002 -0.003 -0.005 l 0.01,-0.005 v -0.005 -0.005 -0.005 -0.006 l 0.01,-0.005 v -0.002 -0.002 -0.003 -0.002 -0.002 -0.002 -0.002 -0.002 -0.002 -0.002 -0.002 -9.9e-4 -0.002 -0.001 -9.9e-4 -0.001 c 0,-0.005 0,-0.0547 -0.05973,-0.0547 -0.03982,0 -0.04978,0.0299 -0.05973,0.0607 -0.328527,0.73371 -0.507723,1.06523 -1.353928,1.06523 h -0.726741 c -0.06969,0 -0.07964,0 -0.109509,-0.005 -0.04978,-0.004 -0.05973,-0.009 -0.05973,-0.0498 0,-0.0139 0,-0.0249 0.01991,-0.11349 l 0.338483,-1.35492 h 0.497767 c 0.418125,0 0.418125,0.10453 0.418125,0.22897 0,0.0348 0,0.0946 -0.03982,0.24291 -0.01,0.0249 -0.01,0.0408 -0.01,0.0548 0,0.0249 0.01991,0.0538 0.05973,0.0538 0.03982,0 0.05973,-0.0249 0.07964,-0.0976 l 0.27875,-1.16179 c 0,-0.0299 -0.01991,-0.0547 -0.05973,-0.0547 -0.03982,0 -0.04978,0.0299 -0.06969,0.0906 -0.09955,0.37631 -0.189152,0.4898 -0.647098,0.4898 H 58.0694 l 0.298661,-1.19464 c 0.03982,-0.17422 0.04978,-0.19313 0.268794,-0.19313 h 0.696875 c 0.607277,0 0.756607,0.14336 0.756607,0.55053 0,0.11847 0,0.12743 -0.01991,0.26282 0,0.0299 -0.01,0.0637 -0.01,0.0886 0,0.0249 0.01991,0.0597 0.05973,0.0597 0.05973,0 0.05973,-0.0299 0.06969,-0.12445 l 0.09955,-0.85715 c 0.01991,-0.1344 -0.01,-0.1344 -0.129419,-0.1344 h -2.50875 c -0.09955,0 -0.14933,0 -0.14933,0.0995 0,0.0548 0.04978,0.0548 0.139375,0.0548 0.189151,0 0.328526,0 0.328526,0.0886 0,0.0199 0,0.0299 -0.02987,0.11947 l -0.647098,2.62323 c -0.04978,0.19413 -0.06969,0.23296 -0.457946,0.23296 -0.07964,0 -0.139375,0 -0.139375,0.0946 0,0.0597 0.04978,0.0597 0.139375,0.0597 h 2.578437 c 0.109509,0 0.119464,-0.005 0.14933,-0.0846 z"
         id="path5476" />
      <path
         style="font-style:normal;font-variant:normal;font-weight:normal;font-stretch:normal;letter-spacing:normal;word-spacing:normal;text-anchor:start;fill:#000000;fill-opacity:1;fill-rule:evenodd;stroke:#000000;stroke-width:0;stroke-linecap:butt;stroke-linejoin:miter;stroke-miterlimit:10.43299961;stroke-dasharray:none;stroke-dashoffset:0;stroke-opacity:1"
         inkscape:connector-curvature="0"
         d="m 60.44873,141.75593 h 0.01 0.01 0.01 l 0.01,0.001 h 0.01 0.01991 l 0.01,9.9e-4 h 0.01 v 10e-4 h 0.01 l 0.01,9.9e-4 0.01,0.001 h 0.01 l 0.01,0.001 0.01,9.9e-4 v 0.001 l 0.01,9.9e-4 0.01,0.002 v 0.001 l 0.01,9.9e-4 0.01,0.001 v 0.002 l 0.01,0.002 v 0.001 l 0.01,0.002 v 0.002 l 0.01,0.002 v 0.002 l 0.01,0.004 v 0.004 l 0.01,0.005 0.01,0.006 v 0.005 l 0.01,0.006 v 0.007 0.007 0.007 l 0.01,0.008 v 0.008 0.009 0.009 0.009 0.01 0.011 0.011 0.0109 1.8278 c 0,0.12445 -0.01,0.16327 -0.268795,0.16327 h -0.0896 v 0.10752 h 1.314107 l -0.0896,-0.10752 h -0.398215 c -0.159285,0 -0.169241,-0.0249 -0.169241,-0.13838 v -1.87758 c 0,-0.11349 0.01,-0.13838 0.169241,-0.13838 h 0.398215 c 0.189151,0 0.457946,0.0597 0.657053,0.32654 0.159286,0.20408 0.199107,0.50573 0.199107,0.77054 0,0.34944 -0.05973,0.60031 -0.228973,0.78648 -0.139375,0.16028 -0.358393,0.27078 -0.627187,0.27078 l 0.0896,0.10752 c 0.607277,0 1.115,-0.5137 1.115,-1.16478 0,-0.66302 -0.497768,-1.2046 -1.115,-1.2046 h -1.314107 v 0.10752 z"
         id="path5478" />
    </g>
    <g
       id="g5553"
       transform="translate(-26.093915,-43.217653)">
      <path
         style="font-style:normal;font-variant:normal;font-weight:normal;font-stretch:normal;letter-spacing:normal;word-spacing:normal;text-anchor:start;fill:#0000ff;fill-opacity:1;fill-rule:evenodd;stroke:#000000;stroke-width:0;stroke-linecap:butt;stroke-linejoin:miter;stroke-miterlimit:10.43299961;stroke-dasharray:none;stroke-dashoffset:0;stroke-opacity:1"
         inkscape:connector-curvature="0"
         d="m 66.919711,141.37962 h -0.01991 -0.01 l -0.01,0.001 h -0.01991 l -0.01,9.9e-4 -0.01991,0.002 v 0.001 l -0.01,9.9e-4 -0.01,10e-4 v 0.002 l -0.01,0.002 -0.01,0.002 v 0.002 l -0.01,0.002 -0.01,0.003 v 0.003 l -0.01,0.003 -0.01,0.004 v 0.004 l -0.01,0.004 -0.01,0.004 v 0.005 l -0.01,0.005 -0.01,0.006 v 0.006 l -0.01,0.006 c -0.07964,0.0747 -0.0896,0.15928 -0.0896,0.19313 0,0.11947 0.0896,0.17422 0.179197,0.17422 0.14933,0 0.27875,-0.11946 0.27875,-0.31758 0,-0.24191 -0.228973,-0.42608 -0.577411,-0.42608 -0.676964,0 -1.334018,0.70981 -1.334018,1.40768 0,0.447 0.288706,0.83924 0.806384,0.83924 0.706831,0 1.124955,-0.52664 1.124955,-0.58538 0,-0.0299 -0.02987,-0.0657 -0.05973,-0.0657 -0.02987,0 -0.03982,0.011 -0.06969,0.0498 -0.388259,0.49179 -0.925848,0.49179 -0.98558,0.49179 -0.318572,0 -0.447991,-0.24291 -0.447991,-0.54157 0,-0.20209 0.09955,-0.68393 0.268794,-0.99056 0.149331,-0.28273 0.428081,-0.49578 0.696875,-0.49578 0.169241,0 0.358393,0.0637 0.42808,0.19712 z"
         id="path5480" />
      <path
         style="font-style:normal;font-variant:normal;font-weight:normal;font-stretch:normal;letter-spacing:normal;word-spacing:normal;text-anchor:start;fill:#0000ff;fill-opacity:1;fill-rule:evenodd;stroke:#000000;stroke-width:0;stroke-linecap:butt;stroke-linejoin:miter;stroke-miterlimit:10.43299961;stroke-dasharray:none;stroke-dashoffset:0;stroke-opacity:1"
         inkscape:connector-curvature="0"
         d="m 68.83114,142.77636 0.02987,-0.006 0.02987,-0.007 0.02987,-0.008 0.02987,-0.008 0.02987,-0.01 0.01991,-0.01 0.02987,-0.011 0.02987,-0.0119 0.02987,-0.0129 0.01991,-0.013 0.02987,-0.0149 0.01991,-0.0139 0.01991,-0.0159 0.02987,-0.0159 0.01991,-0.0169 0.01991,-0.0179 0.01991,-0.0179 0.01991,-0.0189 0.01991,-0.0189 0.01,-0.0199 0.01991,-0.0199 0.01,-0.0209 0.01991,-0.0209 0.01,-0.0219 0.01,-0.0219 0.01,-0.0229 0.01,-0.0229 v -0.0239 l 0.01,-0.0239 v -0.0239 l 0.01,-0.0249 v -0.0249 c 0,-0.30862 -0.348437,-0.58638 -0.816339,-0.58638 l -0.01991,0.10752 c 0.358393,0 0.497768,0.28473 0.497768,0.47886 0,0.24291 -0.209062,0.51369 -0.597321,0.51369 h -0.53759 v 0.0767 h 0.696875 c 0.358393,0 0.527634,0.30762 0.527634,0.55451 0,0.25685 -0.209062,0.53062 -0.57741,0.53062 H 68.12431 c -0.169242,0 -0.169242,-0.0249 -0.169242,-0.13838 v -0.94675 -0.0767 -0.85417 c 0,-0.11349 0,-0.13838 0.169242,-0.13838 h 0.467901 l 0.01991,-0.10752 H 67.30797 v 0.10752 h 0.07964 c 0.268795,0 0.27875,0.0388 0.27875,0.16327 v 1.8278 c 0,0.12445 -0.01,0.16327 -0.27875,0.16327 h -0.07964 v 0.10752 h 1.403706 c 0.477857,0 0.816339,-0.30762 0.816339,-0.63416 0,-0.29169 -0.27875,-0.55849 -0.696875,-0.60429 z"
         id="path5482" />
    </g>
    <g
       id="g5557"
       transform="translate(52.384828,-47.173071)">
      <path
         style="font-style:normal;font-variant:normal;font-weight:normal;font-stretch:normal;letter-spacing:normal;word-spacing:normal;text-anchor:start;fill:#0000ff;fill-opacity:1;fill-rule:evenodd;stroke:#000000;stroke-width:0;stroke-linecap:butt;stroke-linejoin:miter;stroke-miterlimit:10.43299961;stroke-dasharray:none;stroke-dashoffset:0;stroke-opacity:1"
         inkscape:connector-curvature="0"
         d="m 73.639577,141.37962 h -0.01 -0.01 l -0.01991,0.001 h -0.01 l -0.01991,9.9e-4 -0.01,0.002 -0.01,0.001 v 9.9e-4 l -0.01,10e-4 -0.01,0.002 -0.01,0.002 v 0.002 l -0.01,0.002 -0.01,0.002 v 0.003 l -0.01,0.003 -0.01,0.003 v 0.004 l -0.01,0.004 -0.01,0.004 v 0.004 l -0.01,0.005 -0.01,0.005 v 0.006 l -0.01,0.006 -0.01,0.006 c -0.07964,0.0747 -0.07964,0.15928 -0.07964,0.19313 0,0.11947 0.07964,0.17422 0.179196,0.17422 0.139375,0 0.27875,-0.11946 0.27875,-0.31758 0,-0.24191 -0.228973,-0.42608 -0.587366,-0.42608 -0.667008,0 -1.324062,0.70981 -1.324062,1.40768 0,0.447 0.288705,0.83924 0.796429,0.83924 0.70683,0 1.124955,-0.52664 1.124955,-0.58538 0,-0.0299 -0.02987,-0.0657 -0.04978,-0.0657 -0.02987,0 -0.03982,0.011 -0.06969,0.0498 -0.398215,0.49179 -0.935804,0.49179 -0.995536,0.49179 -0.308616,0 -0.447991,-0.24291 -0.447991,-0.54157 0,-0.20209 0.09955,-0.68393 0.268795,-0.99056 0.159285,-0.28273 0.42808,-0.49578 0.70683,-0.49578 0.169241,0 0.358393,0.0637 0.418125,0.19712 z"
         id="path5484" />
      <path
         style="font-style:normal;font-variant:normal;font-weight:normal;font-stretch:normal;letter-spacing:normal;word-spacing:normal;text-anchor:start;fill:#0000ff;fill-opacity:1;fill-rule:evenodd;stroke:#000000;stroke-width:0;stroke-linecap:butt;stroke-linejoin:miter;stroke-miterlimit:10.43299961;stroke-dasharray:none;stroke-dashoffset:0;stroke-opacity:1"
         inkscape:connector-curvature="0"
         d="M 75.998996,141.65937 H 74.01788 v 0.10751 h 0.0896 c 0.268795,0 0.268795,0.0378 0.268795,0.16327 v 1.81685 c 0,0.12445 0,0.16327 -0.268795,0.16327 h -0.0896 v 0.10752 c 0.12942,-0.0109 0.398215,-0.0109 0.527634,-0.0109 0.14933,0 0.457947,0 0.587366,0.0109 v -0.10752 h -0.119464 c -0.328527,0 -0.328527,-0.0448 -0.328527,-0.16625 v -0.85417 h 0.328527 c 0.338482,0 0.378303,0.10752 0.378303,0.40618 h 0.0896 v -0.91888 h -0.0896 c 0,0.29866 -0.03982,0.40518 -0.378303,0.40518 h -0.328527 v -0.87707 c 0,-0.11448 0.01,-0.13838 0.169241,-0.13838 h 0.467902 c 0.537589,0 0.637143,0.18716 0.686919,0.67199 h 0.0896 z"
         id="path5486" />
    </g>
    <g
       id="g5561"
       transform="translate(-39.996334,-65.534993)">
      <path
         style="font-style:normal;font-variant:normal;font-weight:normal;font-stretch:normal;letter-spacing:normal;word-spacing:normal;text-anchor:start;fill:#ff0000;fill-opacity:1;fill-rule:evenodd;stroke:#000000;stroke-width:0;stroke-linecap:butt;stroke-linejoin:miter;stroke-miterlimit:10.43299961;stroke-dasharray:none;stroke-dashoffset:0;stroke-opacity:1"
         inkscape:connector-curvature="0"
         d="m 79.61279,139.87736 v -0.001 0 -9.9e-4 -0.001 -0.001 -9.9e-4 -0.002 -0.002 -0.002 -0.002 -0.002 -0.002 -0.003 -0.002 -0.002 -0.003 l -0.01,-0.002 v -0.003 -0.002 -0.003 -0.002 -9.9e-4 l -0.01,-0.001 v -0.001 -9.9e-4 -10e-4 -9.9e-4 -0.001 -9.9e-4 l -0.01,-0.001 v -9.9e-4 -0.001 0 -0.001 l -0.01,-9.9e-4 v 0 -10e-4 0 l -0.01,-9.9e-4 v 0 0 -0.001 h -0.01 v 0 0 c -0.119464,0 -0.477857,0.0408 -0.607277,0.0498 -0.03982,0.005 -0.0896,0.009 -0.0896,0.0995 0,0.0587 0.03982,0.0587 0.109509,0.0587 0.238929,0 0.248884,0.0348 0.248884,0.0846 l -0.01,0.0996 -0.716786,2.85719 c -0.01991,0.0687 -0.01991,0.0796 -0.01991,0.10851 0,0.11449 0.09955,0.13938 0.139375,0.13938 0.05973,0 0.139375,-0.0458 0.169241,-0.10453 0.01991,-0.0448 0.248884,-0.96169 0.27875,-1.08613 0.169241,0.0139 0.577411,0.0936 0.577411,0.42211 0,0.0338 0,0.0538 -0.01991,0.10353 -0.01,0.0597 -0.01991,0.11847 -0.01991,0.17322 0,0.29369 0.199107,0.4918 0.457946,0.4918 0.14933,0 0.27875,-0.0796 0.398214,-0.26382 0.119465,-0.21702 0.169241,-0.4908 0.169241,-0.50075 0,-0.0498 -0.03982,-0.0498 -0.05973,-0.0498 -0.04978,0 -0.04978,0.0209 -0.06969,0.0906 -0.09955,0.36039 -0.209063,0.61425 -0.428081,0.61425 -0.0896,0 -0.159285,-0.0547 -0.159285,-0.23296 0,-0.0846 0.01991,-0.19811 0.03982,-0.27675 0.01991,-0.0856 0.01991,-0.10454 0.01991,-0.15431 0,-0.32355 -0.308616,-0.46691 -0.736697,-0.52067 0.159286,-0.0906 0.318572,-0.24888 0.428081,-0.36735 0.238928,-0.26282 0.467902,-0.47587 0.70683,-0.47587 0.02987,0 0.03982,0 0.04978,0.004 0.05973,0.01 0.05973,0.01 0.09955,0.0388 0.01,0.007 0.01,0.0109 0.01991,0.0209 -0.238928,0.0149 -0.27875,0.20807 -0.27875,0.2668 0,0.0796 0.04978,0.17422 0.189152,0.17422 0.12942,0 0.268795,-0.10851 0.268795,-0.30165 0,-0.14933 -0.109509,-0.31259 -0.338483,-0.31259 -0.129419,0 -0.358392,0.0388 -0.716785,0.43604 -0.169241,0.18816 -0.368348,0.38726 -0.5575,0.46193 z"
         id="path5488" />
      <path
         style="font-style:normal;font-variant:normal;font-weight:normal;font-stretch:normal;letter-spacing:normal;word-spacing:normal;text-anchor:start;fill:#ff0000;fill-opacity:1;fill-rule:evenodd;stroke:#000000;stroke-width:0;stroke-linecap:butt;stroke-linejoin:miter;stroke-miterlimit:10.43299961;stroke-dasharray:none;stroke-dashoffset:0;stroke-opacity:1"
         inkscape:connector-curvature="0"
         d="m 82.489888,142.77636 0.03982,-0.006 0.02987,-0.007 0.02987,-0.008 0.01991,-0.008 0.02987,-0.01 0.02987,-0.01 0.02987,-0.011 0.02987,-0.0119 0.01991,-0.0129 0.02987,-0.013 0.01991,-0.0149 0.02987,-0.0139 0.01991,-0.0159 0.02987,-0.0159 0.01991,-0.0169 0.01991,-0.0179 0.01991,-0.0179 0.01991,-0.0189 0.01,-0.0189 0.01991,-0.0199 0.01991,-0.0199 0.01,-0.0209 0.01991,-0.0209 0.01,-0.0219 0.01,-0.0219 0.01,-0.0229 0.01,-0.0229 v -0.0239 l 0.01,-0.0239 v -0.0239 -0.0249 -0.0249 c 0,-0.30862 -0.338483,-0.58638 -0.806384,-0.58638 l -0.01991,0.10752 c 0.348437,0 0.497768,0.28473 0.497768,0.47886 0,0.24291 -0.209063,0.51369 -0.597322,0.51369 h -0.547544 v 0.0767 h 0.696875 c 0.358393,0 0.537589,0.30762 0.537589,0.55451 0,0.25685 -0.209062,0.53062 -0.577411,0.53062 h -0.487812 c -0.159286,0 -0.169241,-0.0249 -0.169241,-0.13838 v -0.94675 -0.0767 -0.85417 c 0,-0.11349 0.01,-0.13838 0.169241,-0.13838 h 0.477857 l 0.01991,-0.10752 h -1.304152 v 0.10752 h 0.07964 c 0.268795,0 0.27875,0.0388 0.27875,0.16327 v 1.8278 c 0,0.12445 -0.01,0.16327 -0.27875,0.16327 h -0.07964 v 0.10752 h 1.403705 c 0.477857,0 0.81634,-0.30762 0.81634,-0.63416 0,-0.29169 -0.288706,-0.55849 -0.706831,-0.60429 z"
         id="path5490" />
    </g>
    <g
       id="g5565"
       transform="translate(34.720812,-65.534922)">
      <path
         style="font-style:normal;font-variant:normal;font-weight:normal;font-stretch:normal;letter-spacing:normal;word-spacing:normal;text-anchor:start;fill:#ff0000;fill-opacity:1;fill-rule:evenodd;stroke:#000000;stroke-width:0;stroke-linecap:butt;stroke-linejoin:miter;stroke-miterlimit:10.43299961;stroke-dasharray:none;stroke-dashoffset:0;stroke-opacity:1"
         inkscape:connector-curvature="0"
         d="m 86.780647,139.87736 v -0.001 0 -9.9e-4 -0.001 -0.001 -9.9e-4 -0.002 -0.002 -0.002 -0.002 -0.002 -0.002 -0.003 -0.002 -0.002 -0.003 l -0.01,-0.002 v -0.003 -0.002 -0.003 -0.002 -9.9e-4 l -0.01,-0.001 v -0.001 -9.9e-4 -10e-4 -9.9e-4 -0.001 -9.9e-4 l -0.01,-0.001 v -9.9e-4 -0.001 0 -0.001 l -0.01,-9.9e-4 v 0 -10e-4 0 l -0.01,-9.9e-4 v 0 0 -0.001 h -0.01 v 0 0 c -0.119465,0 -0.477858,0.0408 -0.607277,0.0498 -0.03982,0.005 -0.0896,0.009 -0.0896,0.0995 0,0.0587 0.03982,0.0587 0.109509,0.0587 0.238928,0 0.248883,0.0348 0.248883,0.0846 l -0.01,0.0996 -0.716786,2.85719 c -0.01991,0.0687 -0.01991,0.0796 -0.01991,0.10851 0,0.11449 0.09955,0.13938 0.139375,0.13938 0.05973,0 0.139375,-0.0458 0.169241,-0.10453 0.01991,-0.0448 0.248884,-0.96169 0.27875,-1.08613 0.169241,0.0139 0.57741,0.0936 0.57741,0.42211 0,0.0338 0,0.0538 -0.01991,0.10353 -0.01,0.0597 -0.01991,0.11847 -0.01991,0.17322 0,0.29369 0.199107,0.4918 0.457946,0.4918 0.149331,0 0.27875,-0.0796 0.398215,-0.26382 0.119464,-0.21702 0.169241,-0.4908 0.169241,-0.50075 0,-0.0498 -0.03982,-0.0498 -0.05973,-0.0498 -0.04978,0 -0.04978,0.0209 -0.06969,0.0906 -0.09955,0.36039 -0.209062,0.61425 -0.42808,0.61425 -0.0896,0 -0.159286,-0.0547 -0.159286,-0.23296 0,-0.0846 0.01991,-0.19811 0.03982,-0.27675 0.01991,-0.0856 0.01991,-0.10454 0.01991,-0.15431 0,-0.32355 -0.308616,-0.46691 -0.736696,-0.52067 0.159285,-0.0906 0.318571,-0.24888 0.42808,-0.36735 0.238929,-0.26282 0.467902,-0.47587 0.70683,-0.47587 0.02987,0 0.03982,0 0.04978,0.004 0.05973,0.01 0.05973,0.01 0.09955,0.0388 0.01,0.007 0.01,0.0109 0.01991,0.0209 -0.238928,0.0149 -0.27875,0.20807 -0.27875,0.2668 0,0.0796 0.04978,0.17422 0.189152,0.17422 0.12942,0 0.268795,-0.10851 0.268795,-0.30165 0,-0.14933 -0.109509,-0.31259 -0.338482,-0.31259 -0.12942,0 -0.358393,0.0388 -0.716786,0.43604 -0.169241,0.18816 -0.368348,0.38726 -0.5575,0.46193 z"
         id="path5492" />
      <path
         style="font-style:normal;font-variant:normal;font-weight:normal;font-stretch:normal;letter-spacing:normal;word-spacing:normal;text-anchor:start;fill:#ff0000;fill-opacity:1;fill-rule:evenodd;stroke:#000000;stroke-width:0;stroke-linecap:butt;stroke-linejoin:miter;stroke-miterlimit:10.43299961;stroke-dasharray:none;stroke-dashoffset:0;stroke-opacity:1"
         inkscape:connector-curvature="0"
         d="m 90.105736,141.65937 h -1.971161 v 0.10751 h 0.07964 c 0.268795,0 0.268795,0.0378 0.268795,0.16327 v 1.81685 c 0,0.12445 0,0.16327 -0.268795,0.16327 h -0.07964 v 0.10752 c 0.119464,-0.0109 0.388259,-0.0109 0.527634,-0.0109 0.139375,0 0.447991,0 0.577411,0.0109 v -0.10752 h -0.109509 c -0.328527,0 -0.328527,-0.0448 -0.328527,-0.16625 v -0.85417 h 0.318571 c 0.338482,0 0.388259,0.10752 0.388259,0.40618 h 0.07964 v -0.91888 h -0.07964 c 0,0.29866 -0.04978,0.40518 -0.388259,0.40518 h -0.318571 v -0.87707 c 0,-0.11448 0,-0.13838 0.159286,-0.13838 h 0.467901 c 0.53759,0 0.637143,0.18716 0.68692,0.67199 h 0.0896 z"
         id="path5494" />
    </g>
    <g
       id="g5772"
       transform="translate(-46.079191,-10.738246)">
      <path
         style="font-style:normal;font-variant:normal;font-weight:normal;font-stretch:normal;letter-spacing:normal;word-spacing:normal;text-anchor:start;fill:#000000;fill-opacity:1;fill-rule:evenodd;stroke:#000000;stroke-width:0;stroke-linecap:butt;stroke-linejoin:miter;stroke-miterlimit:10.43299961;stroke-dasharray:none;stroke-dashoffset:0;stroke-opacity:1"
         inkscape:connector-curvature="0"
         d="m 68.82051,101.26384 v -0.005 l -0.0088,-0.005 v -0.004 -0.004 -0.004 l -0.0088,-0.004 v -0.004 -0.004 -0.004 l -0.0088,-0.004 v -0.004 -0.004 -0.003 l -0.0088,-0.003 v -0.003 -0.003 l -0.0088,-0.002 v -0.003 -0.002 l -0.0088,-0.002 v -0.002 l -0.0088,-0.002 v -8.7e-4 l -0.0088,-8.8e-4 v -0.002 l -0.0088,-8.7e-4 v 0 l -0.0088,-8.8e-4 -0.0088,-8.8e-4 v 0 h -0.0088 v 0 h -0.0088 c -0.07023,0 -0.07901,0.022 -0.114126,0.0781 l -0.02634,0.35906 1.176376,2.36241 h -2.352752 l 1.176376,-2.36241 0.02634,-0.35906 -1.474859,2.96552 c -0.02634,0.0395 -0.02634,0.0483 -0.02634,0.0518 0,0.036 0.02634,0.036 0.09657,0.036 h 3.037508 c 0.07023,0 0.09657,0 0.09657,-0.036 0,-0.004 0,-0.0123 -0.01756,-0.0518 z"
         id="path5721" />
      <path
         style="font-style:normal;font-variant:normal;font-weight:normal;font-stretch:normal;letter-spacing:normal;word-spacing:normal;text-anchor:start;fill:#000000;fill-opacity:1;fill-rule:evenodd;stroke:#000000;stroke-width:0;stroke-linecap:butt;stroke-linejoin:miter;stroke-miterlimit:10.43299961;stroke-dasharray:none;stroke-dashoffset:0;stroke-opacity:1"
         inkscape:connector-curvature="0"
         d="m 72.051154,103.88611 0.02634,-0.005 0.02634,-0.006 0.02634,-0.007 0.02634,-0.007 0.02634,-0.009 0.02634,-0.009 0.02634,-0.01 0.02634,-0.0105 0.01756,-0.0114 0.02634,-0.0114 0.01756,-0.0132 0.02634,-0.0123 0.01756,-0.014 0.01756,-0.014 0.02634,-0.0149 0.01756,-0.0158 0.01756,-0.0158 0.0088,-0.0167 0.01756,-0.0167 0.01756,-0.0175 0.01756,-0.0176 0.0088,-0.0184 0.0088,-0.0184 0.01756,-0.0193 0.0088,-0.0193 0.0088,-0.0202 v -0.0202 l 0.0088,-0.0211 0.0088,-0.0211 v -0.0211 -0.022 -0.022 c 0,-0.27214 -0.298483,-0.51708 -0.711093,-0.51708 l -0.01756,0.0948 c 0.307263,0 0.438946,0.25107 0.438946,0.42226 0,0.21421 -0.184357,0.453 -0.526735,0.453 h -0.482841 v 0.0676 h 0.614525 c 0.316041,0 0.474062,0.27127 0.474062,0.48899 0,0.2265 -0.184358,0.46792 -0.517957,0.46792 h -0.421388 c -0.140463,0 -0.149242,-0.022 -0.149242,-0.12203 v -0.83488 -0.0676 -0.75324 c 0,-0.10008 0.0088,-0.12202 0.149242,-0.12202 h 0.421388 l 0.01756,-0.0948 h -1.158818 v 0.0948 h 0.07901 c 0.237031,0 0.237031,0.0342 0.237031,0.14397 v 1.61181 c 0,0.10974 0,0.14398 -0.237031,0.14398 h -0.07901 v 0.0948 h 1.246607 c 0.421389,0 0.719872,-0.27127 0.719872,-0.55922 0,-0.25722 -0.254589,-0.4925 -0.623304,-0.53288 z"
         id="path5723" />
    </g>
    <g
       id="g5776"
       transform="translate(61.405456,-10.738576)">
      <path
         style="font-style:normal;font-variant:normal;font-weight:normal;font-stretch:normal;letter-spacing:normal;word-spacing:normal;text-anchor:start;fill:#000000;fill-opacity:1;fill-rule:evenodd;stroke:#000000;stroke-width:0;stroke-linecap:butt;stroke-linejoin:miter;stroke-miterlimit:10.43299961;stroke-dasharray:none;stroke-dashoffset:0;stroke-opacity:1"
         inkscape:connector-curvature="0"
         d="m 76.502069,101.26384 v -0.005 l -0.0088,-0.005 v -0.004 -0.004 -0.004 l -0.0088,-0.004 v -0.004 -0.004 l -0.0088,-0.004 v -0.004 -0.004 -0.004 l -0.0088,-0.003 v -0.003 -0.003 l -0.0088,-0.003 v -0.002 -0.003 l -0.0088,-0.002 v -0.002 -0.002 l -0.0088,-0.002 v -8.7e-4 l -0.0088,-8.8e-4 v -0.002 l -0.0088,-8.7e-4 v 0 l -0.0088,-8.8e-4 -0.0088,-8.8e-4 v 0 h -0.0088 -0.0088 v 0 c -0.07023,0 -0.07901,0.022 -0.114126,0.0781 l -0.02634,0.35906 1.176376,2.36241 h -2.361531 l 1.185155,-2.36241 0.02634,-0.35906 -1.474859,2.96552 c -0.02634,0.0395 -0.02634,0.0483 -0.02634,0.0518 0,0.036 0.02634,0.036 0.09657,0.036 h 3.037508 c 0.07023,0 0.09657,0 0.09657,-0.036 0,-0.004 0,-0.0123 -0.02634,-0.0518 z"
         id="path5725" />
      <path
         style="font-style:normal;font-variant:normal;font-weight:normal;font-stretch:normal;letter-spacing:normal;word-spacing:normal;text-anchor:start;fill:#000000;fill-opacity:1;fill-rule:evenodd;stroke:#000000;stroke-width:0;stroke-linecap:butt;stroke-linejoin:miter;stroke-miterlimit:10.43299961;stroke-dasharray:none;stroke-dashoffset:0;stroke-opacity:1"
         inkscape:connector-curvature="0"
         d="m 80.127766,102.90111 h -1.747007 v 0.0948 h 0.07023 c 0.237031,0 0.24581,0.0334 0.24581,0.14398 v 1.60215 c 0,0.10974 -0.0088,0.14398 -0.24581,0.14398 h -0.07023 v 0.0948 c 0.105348,-0.01 0.351157,-0.01 0.465283,-0.01 0.122905,0 0.403831,0 0.517957,0.01 v -0.0948 h -0.105347 c -0.289705,0 -0.289705,-0.0395 -0.289705,-0.14661 v -0.75323 h 0.289705 c 0.298483,0 0.333599,0.0948 0.333599,0.35818 h 0.07901 v -0.8103 h -0.07901 c 0,0.26337 -0.03512,0.3573 -0.333599,0.3573 h -0.289705 v -0.77342 c 0,-0.10096 0.0088,-0.12203 0.149242,-0.12203 h 0.41261 c 0.465283,0 0.553072,0.16505 0.605745,0.59258 h 0.07023 z"
         id="path5727" />
    </g>
    <g
       id="g5780"
       transform="translate(-23.519719,-7.5755402)">
      <path
         style="font-style:normal;font-variant:normal;font-weight:normal;font-stretch:normal;letter-spacing:normal;word-spacing:normal;text-anchor:start;fill:#000000;fill-opacity:1;fill-rule:evenodd;stroke:#000000;stroke-width:0;stroke-linecap:butt;stroke-linejoin:miter;stroke-miterlimit:10.43299961;stroke-dasharray:none;stroke-dashoffset:0;stroke-opacity:1"
         inkscape:connector-curvature="0"
         d="m 83.999271,101.26384 v -0.005 -0.005 l -0.0088,-0.004 v -0.004 -0.004 -0.004 l -0.0088,-0.004 v -0.004 -0.004 -0.004 l -0.0088,-0.004 v -0.004 -0.003 l -0.0088,-0.003 v -0.003 -0.003 l -0.0088,-0.002 v -0.003 -0.002 l -0.0088,-0.002 v -0.002 -0.002 l -0.0088,-8.7e-4 v -8.8e-4 l -0.0088,-0.002 -0.0088,-8.7e-4 v 0 l -0.0088,-8.8e-4 v -8.8e-4 h -0.0088 -0.0088 v 0 h -0.0088 c -0.07023,0 -0.07901,0.022 -0.105347,0.0781 l -0.03512,0.35906 1.185154,2.36241 h -2.36153 l 1.176376,-2.36241 0.03512,-0.35906 -1.483638,2.96552 c -0.01756,0.0395 -0.01756,0.0483 -0.01756,0.0518 0,0.036 0.02634,0.036 0.09657,0.036 h 3.028729 c 0.07023,0 0.09657,0 0.09657,-0.036 0,-0.004 0,-0.0123 -0.01756,-0.0518 z"
         id="path5729" />
      <path
         style="font-style:normal;font-variant:normal;font-weight:normal;font-stretch:normal;letter-spacing:normal;word-spacing:normal;text-anchor:start;fill:#000000;fill-opacity:1;fill-rule:evenodd;stroke:#000000;stroke-width:0;stroke-linecap:butt;stroke-linejoin:miter;stroke-miterlimit:10.43299961;stroke-dasharray:none;stroke-dashoffset:0;stroke-opacity:1"
         inkscape:connector-curvature="0"
         d="m 86.466149,103.13024 0.0088,-0.01 v -0.01 -0.01 -0.009 -0.008 -0.008 -0.008 -0.007 -0.007 -0.006 l 0.0088,-0.006 v -0.006 l 0.0088,-0.005 v -0.004 l 0.0088,-0.005 v -0.004 l 0.0088,-0.004 0.0088,-0.004 v -0.002 l 0.0088,-0.002 v -0.002 -0.002 l 0.0088,-8.8e-4 0.0088,-0.002 v -0.002 l 0.0088,-8.8e-4 v -8.8e-4 l 0.0088,-8.8e-4 0.0088,-0.002 v -8.8e-4 l 0.0088,-8.8e-4 0.0088,-8.8e-4 0.0088,-8.7e-4 v 0 l 0.0088,-8.8e-4 0.0088,-8.8e-4 h 0.0088 l 0.0088,-8.8e-4 h 0.0088 l 0.0088,-8.7e-4 h 0.0088 0.0088 l 0.0088,-8.8e-4 h 0.01756 0.0088 0.0088 0.07023 v -0.0948 c -0.105347,0.01 -0.3336,0.01 -0.447726,0.01 -0.114126,0 -0.342378,0 -0.447725,-0.01 v 0.0948 h 0.07023 c 0.237031,0 0.237031,0.0342 0.237031,0.14397 v 1.15004 c 0,0.43456 0.377493,0.76816 0.807661,0.76816 0.456504,0 0.719872,-0.42315 0.719872,-0.72426 v -1.10176 c 0,-0.0948 0,-0.23615 0.316041,-0.23615 v -0.0948 c -0.114126,0.004 -0.263368,0.01 -0.368715,0.01 -0.105347,0 -0.24581,-0.006 -0.359936,-0.01 v 0.0948 c 0.316041,0 0.316041,0.14397 0.316041,0.22649 v 1.06138 c 0,0.43104 -0.307262,0.67948 -0.623303,0.67948 -0.158021,0 -0.535515,-0.0895 -0.535515,-0.66368 z"
         id="path5731" />
    </g>
    <g
       id="g5784"
       transform="translate(9.0203466,-7.5429602)">
      <path
         style="font-style:normal;font-variant:normal;font-weight:normal;font-stretch:normal;letter-spacing:normal;word-spacing:normal;text-anchor:start;fill:#000000;fill-opacity:1;fill-rule:evenodd;stroke:#000000;stroke-width:0;stroke-linecap:butt;stroke-linejoin:miter;stroke-miterlimit:10.43299961;stroke-dasharray:none;stroke-dashoffset:0;stroke-opacity:1"
         inkscape:connector-curvature="0"
         d="m 91.821294,101.26384 -0.0088,-0.005 v -0.005 -0.004 -0.004 l -0.0088,-0.004 v -0.004 -0.004 -0.004 l -0.0088,-0.004 v -0.004 -0.004 l -0.0088,-0.004 v -0.003 -0.003 -0.003 l -0.0088,-0.003 v -0.002 -0.003 l -0.0088,-0.002 v -0.002 l -0.0088,-0.002 v -0.002 l -0.0088,-8.7e-4 v -8.8e-4 l -0.0088,-0.002 v -8.7e-4 h -0.0088 v -8.8e-4 l -0.0088,-8.8e-4 h -0.0088 v 0 h -0.0088 v 0 c -0.07901,0 -0.08779,0.022 -0.114126,0.0781 l -0.02634,0.35906 1.176376,2.36241 H 90.38155 l 1.185155,-2.36241 0.02634,-0.35906 -1.47486,2.96552 c -0.02634,0.0395 -0.02634,0.0483 -0.02634,0.0518 0,0.036 0.02634,0.036 0.09657,0.036 h 3.037508 c 0.07023,0 0.09657,0 0.09657,-0.036 0,-0.004 0,-0.0123 -0.02634,-0.0518 z"
         id="path5733" />
      <path
         style="font-style:normal;font-variant:normal;font-weight:normal;font-stretch:normal;letter-spacing:normal;word-spacing:normal;text-anchor:start;fill:#000000;fill-opacity:1;fill-rule:evenodd;stroke:#000000;stroke-width:0;stroke-linecap:butt;stroke-linejoin:miter;stroke-miterlimit:10.43299961;stroke-dasharray:none;stroke-dashoffset:0;stroke-opacity:1"
         inkscape:connector-curvature="0"
         d="m 95.438211,104.19249 h -0.07023 c -0.03512,0.30551 -0.07901,0.69354 -0.640861,0.69354 h -0.289705 c -0.149241,0 -0.149241,-0.022 -0.149241,-0.12203 v -1.63112 c 0,-0.1036 0,-0.14661 0.289704,-0.14661 h 0.09657 v -0.0948 c -0.105347,0.01 -0.386272,0.01 -0.509177,0.01 -0.122905,0 -0.359936,0 -0.465283,-0.01 v 0.0948 h 0.07023 c 0.237031,0 0.24581,0.0342 0.24581,0.14397 v 1.61181 c 0,0.10974 -0.0088,0.14398 -0.24581,0.14398 h -0.07023 v 0.0948 h 1.650437 z"
         id="path5735" />
    </g>
    <rect
       style="opacity:1;fill:#ff2a2a;fill-opacity:0.30784314;fill-rule:nonzero;stroke:none;stroke-width:0.5;stroke-linecap:round;stroke-linejoin:round;stroke-miterlimit:4;stroke-dasharray:none;stroke-dashoffset:0;stroke-opacity:1"
       id="rect5026"
       width="4.2429032"
       height="3.875401"
       x="53.303566"
       y="98.418739" />
    <rect
       style="opacity:1;fill:#ff2a2a;fill-opacity:0.30784314;fill-rule:nonzero;stroke:none;stroke-width:0.5;stroke-linecap:round;stroke-linejoin:round;stroke-miterlimit:4;stroke-dasharray:none;stroke-dashoffset:0;stroke-opacity:1"
       id="rect5028"
       width="4.1931701"
       height="3.4372211"
       x="106.02232"
       y="91.811729" />
  </g>
</svg>
