<?xml version="1.0" encoding="UTF-8" standalone="no"?>
<svg
   xmlns:dc="http://purl.org/dc/elements/1.1/"
   xmlns:cc="http://creativecommons.org/ns#"
   xmlns:rdf="http://www.w3.org/1999/02/22-rdf-syntax-ns#"
   xmlns:svg="http://www.w3.org/2000/svg"
   xmlns="http://www.w3.org/2000/svg"
   xmlns:sodipodi="http://sodipodi.sourceforge.net/DTD/sodipodi-0.dtd"
   xmlns:inkscape="http://www.inkscape.org/namespaces/inkscape"
   width="369.52356pt"
   height="195.3241pt"
   viewBox="0 0 369.52356 195.3241"
   version="1.2"
   id="svg64"
   sodipodi:docname="austria3colored.svg"
   inkscape:version="0.92.5 (2060ec1f9f, 2020-04-08)">
  <metadata
     id="metadata68">
    <rdf:RDF>
      <cc:Work
         rdf:about="">
        <dc:format>image/svg+xml</dc:format>
        <dc:type
           rdf:resource="http://purl.org/dc/dcmitype/StillImage" />
        <dc:title></dc:title>
      </cc:Work>
    </rdf:RDF>
  </metadata>
  <sodipodi:namedview
     pagecolor="#ffffff"
     bordercolor="#666666"
     borderopacity="1"
     objecttolerance="10"
     gridtolerance="10"
     guidetolerance="10"
     inkscape:pageopacity="0"
     inkscape:pageshadow="2"
     inkscape:window-width="1848"
     inkscape:window-height="1016"
     id="namedview66"
     showgrid="false"
     fit-margin-top="0"
     fit-margin-left="0"
     fit-margin-right="0"
     fit-margin-bottom="0"
     inkscape:zoom="1.9920013"
     inkscape:cx="287.1769"
     inkscape:cy="117.97759"
     inkscape:window-x="72"
     inkscape:window-y="1107"
     inkscape:window-maximized="1"
     inkscape:current-layer="svg64" />
  <defs
     id="defs11">
    <clipPath
       id="clip1">
      <path
         d="m 144,135 h 142 v 60.28516 H 144 Z m 0,0"
         id="path2"
         inkscape:connector-curvature="0" />
    </clipPath>
    <clipPath
       id="clip2">
      <path
         d="m 308,48 h 61.52734 V 165 H 308 Z m 0,0"
         id="path5"
         inkscape:connector-curvature="0" />
    </clipPath>
    <clipPath
       id="clip3">
      <path
         d="M 228,0 H 369.52734 V 120 H 228 Z m 0,0"
         id="path8"
         inkscape:connector-curvature="0" />
    </clipPath>
  </defs>
  <path
     inkscape:connector-curvature="0"
     id="path13"
     d="m 29.842097,169.51089 0.09766,-3.00391 -1.648437,-0.96875 -0.191407,-2.32422 1.742188,-1.35937 0.777344,-1.83985 -0.09766,-1.64453 -0.484376,-1.84375 0.191407,-0.87109 0.96875,-1.83985 -0.289063,-1.64843 0.484375,-1.45313 1.355469,-2.03125 1.066406,-2.13281 0.386719,-2.03516 -0.289063,-1.9375 -0.777343,-2.03515 -0.683594,-2.28907 -0.01953,-0.0547 v -1.06641 l 0.675781,-0.87109 1.261719,-0.28907 0.386718,-0.96875 -0.386718,-1.64843 1.160156,-2.13282 -0.484375,-1.54687 -2.128906,-0.58203 -1.261719,1.64453 -1.839844,-0.28906 -1.066406,1.16406 -0.191406,-2.8125 -1.066406,-0.87109 1.644531,-1.06641 -0.289063,-1.83984 -0.773437,-1.06641 -1.453125,-0.48438 v -1.45312 h -0.777345 l -1.355469,0.96875 -0.484375,-0.67578 v -1.64842 l -1.550781,-1.06641 -0.582031,-1.45312 -2.226563,1.06641 -1.066406,-1.35547 -1.160156,0.96875 -1.9375,-1.16407 0.09375,-1.83984 -0.871094,-1.06641 -2.128906,0.0977 -0.875,2.03516 -1.160157,2.13281 -5.2304679,0.28906 -2.132813,-0.19531 -0.679687,2.23047 0.484375,0.96875 1.453125,1.74219 2.714844,0.87109 -0.582032,2.32812 1.453125,1.74219 v 1.64844 l -1.648437,0.57812 -1.355469,0.19532 -1.257813,2.90625 -1.453124,1.74218 -1.35546904,2.32813 1.74218704,1.64453 -0.679687,1.06641 1.359375,1.55078 -0.195313,2.71093 0.871094,0.8711 1.355469,1.64844 0.292968,1.25781 0.097657,1.84375 -0.96875,2.61328 1.742187,0.29297 1.648438,-0.39063 3.8749999,1.9375 h 1.546875 l 1.84375,1.06641 2.128906,0.0977 1.261719,1.9375 -0.777344,1.45312 v 0.87109 l 0.09766,1.9375 1.164063,0.19532 1.160156,1.83984 2.132813,-0.19531 0.96875,0.77734 h 1.066406 l 2.128906,1.83985 0.09766,0.87109 1.550782,0.0977 1.367187,0.98437"
     style="fill:#009e00;fill-opacity:1;fill-rule:nonzero;stroke:#ffffff;stroke-width:1.5;stroke-linecap:butt;stroke-linejoin:miter;stroke-miterlimit:4;stroke-opacity:1" />
  <path
     inkscape:connector-curvature="0"
     id="path15"
     d="m 133.40069,101.55776 -1.74609,1.35938 -2.03516,1.16015 1.26172,3.10157 0.19141,3.38671 -2.13281,0.48829 -5.52344,-0.67579 -0.67188,0.48047 -1.26171,-0.48047 -7.26563,1.9375 -0.39062,1.55079 -3.19532,-0.58594 -5.13672,0.48828 -1.74218,-0.68359 -2.22657,1.9414 v 2.61328 l -1.35546,1.55078 -3.195321,0.39063 -2.910156,-0.68359 -2.519531,3.10546 1.160156,0.28516 -0.285156,1.45703 -2.8125,-0.0977 -2.226563,2.03906 -0.292968,1.16015 -1.453125,1.16407 -1.644531,-0.29297 1.066406,-1.7461 -0.96875,-0.77343 -1.355469,0.29297 -2.035156,0.57812 -2.324219,2.51953 -2.8125,-0.29297 -2.128906,0.58594 -2.226563,-1.26172 0.96875,-1.35547 -3.390625,-4.35937 -2.039062,0.19531 -0.578125,-1.06641 2.128906,-1.45312 -1.742187,-1.55078 -3.386719,1.35547 h -1.941407 l -0.386718,-1.26172 -1.941406,0.0977 -1.355469,-1.64843 -2.707031,0.0977 -1.554688,-0.87109 -1.550781,1.45703 -0.09766,1.16016 h -2.609374 l -2.039063,-1.35547 0.386719,-1.26172 -0.09375,-0.86719 -2.617188,0.76953 1.257813,1.55469 -0.96875,1.45313 0.683593,1.2539 -0.585937,1.16406 1.746094,0.97266 0.484375,3.77344 -2.132813,2.61718 -0.195312,1.45313 -0.964844,-0.0977 -1.359375,1.45703 0.488281,0.67579 -2.8125,3.58203 h -1.355469 l -1.359374,1.35937 -2.128907,0.8711 -1.457028,-0.29298 -1.53125,0.48047 -0.01172,0.10156 0.675781,2.32812 0.777344,2.12891 0.285156,1.94141 -0.382812,2.03125 -1.066406,2.13281 -1.355469,2.03125 -0.488281,1.45312 0.292968,1.65235 -0.96875,1.83593 -0.191406,0.8711 0.480469,1.84375 0.09766,1.64453 -0.773437,1.84375 -1.746094,1.35547 0.191406,2.32422 1.652344,0.96875 -0.09375,2.76953 2.222656,0.0352 1.746094,-1.34765 2.035156,-0.58594 0.09375,-1.93359 0.578125,-2.03907 2.617188,0.48438 0.773437,-0.29297 -0.285156,-1.16016 1.164062,-0.96875 1.0625,-2.90234 0.773438,0.0898 0.871094,-0.28515 2.226562,1.44922 0.292969,1.25781 2.519531,2.03906 -1.164062,3 0.292968,1.06641 1.9375,1.35937 3.292969,0.19141 2.90625,-1.45313 2.714844,0.0977 1.449219,1.45313 2.226562,0.57812 0.292969,1.16406 -1.355469,1.7461 1.257813,0.29297 1.457031,-0.6836 0.964844,1.16406 2.132812,0.19532 1.453125,0.96875 3.683594,-0.8711 3,0.67578 0.582031,-2.13281 1.839841,-1.64067 v -2.8125 l 1.257812,-1.26172 -0.289062,-2.51953 3.875,-4.55078 3.585938,-0.29297 3.777343,-1.25782 2.230469,0.38672 1.257812,0.8711 1.9375,-0.48047 2.128907,-2.8125 h 1.160156 l 1.652348,1.45703 3.67969,-1.55469 4.9414,1.45703 1.06641,1.0625 h 1.83984 l 0.19532,-1.25781 2.90625,-0.29297 5.71484,-3.29297 5.61719,-1.45312 1.55468,-1.74219 1.0625,-0.23828 v -1.98828 l -0.0977,-2.32422 -0.77735,-0.87109 -1.44921,-0.58594 -0.19532,-2.22656 -0.0977,-2.8125 0.67578,-1.25782 -0.57813,-2.32422 1.26172,-0.67578 2.70703,0.19141 2.13672,-1.16016 2.80469,-1.26172 1.75,-1.55078 1.0625,-0.38281 2.42187,1.64453 4.45703,-1.74219 -0.0977,-1.45312 2.61719,-2.51953 h 1.93359 l 1.26172,-0.57813 1.0625,-1.45703 0.48828,-1.64843 0.38281,-1.64454 0.87891,-1.16015 1.35156,-2.23438 -0.77344,-1.0664 -0.96875,-1.16016 v -1.44922 l -0.19531,-2.13672 -1.74219,-0.77343 -1.55078,-0.96875 -0.53515,-2.05079 -1.21094,-0.37109 -1.44922,1.06641 -3.00781,-2.51953 -0.96485,-2.13282 -3.29297,0.8711 -1.9414,-0.57813 -3.39063,1.16406 -0.77343,-1.84375 1.0664,-1.44921 z m 15.44532,6.47656 0.0469,0.0195 -0.0937,-0.19532 z m -20.19532,41.62891 2.5586,-0.54297 1.22656,-0.25391 1.18359,0.9375 -1.19531,-0.96875 -1.80469,0.39844 z m 4.96875,0.14062 0.35938,0.29297 -1.74219,3.39063 -3.10547,0.77344 v 3.58203 l 1.45703,2.13281 0.19532,1.45312 2.90234,1.83985 2.03906,-0.19141 0.67578,0.67578 1.64844,3.00782 -0.77734,3.77343 1.9414,0.77735 c 0,0 1.54688,-0.19141 1.9336,-0.0977 0,0.004 0.004,0 0.008,0 0.004,0.004 0.0156,0.008 0.0234,0.0156 0.40234,0.28906 1.23047,3.95312 1.23047,3.95312 l 2.1289,1.26172 6.78125,3.10156 2.32422,0.28906 2.51953,-0.0508 0.40625,0.3711 0.27344,-0.9961 c 0,0 0.76953,-1.73437 1.25391,-2.03515 0.48437,-0.28907 0.68359,-2.42188 0.68359,-2.42188 l 0.0977,-2.51953 1.64062,0.0977 2.03906,0.0977 1.83985,-1.0664 2.1289,-1.25782 1.55078,1.35547 1.65235,0.19141 -0.39063,-2.23047 -1.45312,-1.44531 -1.55469,-2.13672 -1.73828,-1.44922 -1.45703,-1.64844 -0.19531,-2.13281 -0.76954,-2.12891 -1.83984,-0.29296 -0.67969,-1.64844 -1.16406,-1.44922 0.48828,-1.84375 0.96485,-2.61719 -3.00391,-0.87109 -3.09766,-0.67578 -0.57812,-2.32422 -0.78125,-0.875 -2.32422,-1.64453 h -1.83984 l -1.25782,-0.29297 -1.45312,-0.86719 -1.74219,1.54297 -1.74609,-0.38281 -2.22657,0.57812 -0.57812,1.64844 -0.68359,1.16406 -2.22657,1.55078 -2.71484,0.67578 z m -103.777343,19.4336 h -0.09766 l 0.09375,0.23047 z m 0,0"
     style="fill:#ff0000;fill-opacity:1;fill-rule:nonzero;stroke:#ffffff;stroke-width:1.5;stroke-linecap:butt;stroke-linejoin:miter;stroke-miterlimit:4;stroke-opacity:1" />
  <path
     inkscape:connector-curvature="0"
     id="path17"
     d="m 153.18194,146.71792 0.96875,-0.77344 0.28907,-1.45313 2.42187,1.16016 1.35547,0.875 1.55078,0.96875 2.32422,0.28906 2.8125,0.38672 h 1.9375 l 2.12891,1.16406 2.13281,1.16016 2.1289,1.26172 2.32813,-0.48438 h 1.74219 l 2.03515,0.19141 2.32422,-0.87109 1.45313,-0.28907 0.38672,-1.35546 0.96875,-1.9375 2.13281,-0.58204 1.55078,0.58204 1.74219,0.96875 2.13281,0.1914 2.12891,0.0977 h 1.55078 l 2.03515,0.67969 0.96875,0.38671 2.32422,-0.0977 h 1.74219 l 1.06641,0.67969 1.16406,1.16015 1.25781,1.06641 1.55078,0.67969 2.13281,1.54687 1.16016,-0.48437 1.06641,-1.16016 -0.0977,-1.55078 0.77734,-1.45313 0.77344,-1.55078 0.96875,-1.35547 -0.38672,-2.42187 0.48438,-1.35547 2.1289,-1.45313 0.58204,-0.87109 -0.0977,-1.26172 -1.83984,-0.48437 -0.77344,-0.48438 -1.26172,-2.61328 -0.96875,-1.9375 -1.0625,-1.74609 -1.26172,-2.61328 -1.35547,0.0937 -0.28906,1.0664 -0.39063,0.67969 -2.1289,-0.58203 -0.8711,0.77344 -0.58203,0.58203 -2.23047,-1.35547 -1.54687,-1.06641 -0.77734,-0.38672 -1.16016,-3.875 -1.06641,-2.71093 -0.58203,-2.13282 0.67969,-2.90625 0.19141,-0.58203 -1.74219,-1.16015 -1.55078,-1.26172 -2.03516,-1.25781 -0.0977,-1.64844 0.58204,-1.74219 0.87109,-1.55078 -0.19141,-1.55078 -0.67968,-0.67578 0.96875,-3.00391 0.87109,-2.71484 -0.19141,-1.257819 -0.67968,-0.289063 -1.64454,-0.195312 -1.9375,-1.164063 -1.16406,-0.96875 v -0.386718 h 4.16406 l 0.58204,-0.582032 -0.0977,-0.871094 -2.51563,-1.160156 -3.48828,-0.292968 -1.64843,0.09766 h -2.42188 l -0.96875,-1.839844 -1.16016,-3.683594 -0.77734,-3 0.67969,-2.328125 2.42187,0.09766 1.25782,0.09766 v -1.257813 l -0.77344,-1.164062 -1.9375,-0.386719 -1.9375,0.289062 -1.26172,1.164063 -3.19531,0.09766 -3.29297,-0.484375 -2.13281,-1.9375 -0.96875,-0.96875 -1.83985,0.09375 -1.55078,0.484375 -1.06641,0.09766 -0.38671,0.96875 -0.58204,1.648437 -2.8125,0.753906 -0.0937,-0.171875 0.67969,0.871094 0.67969,0.773438 1.54687,0.582031 2.23047,3.292969 2.42188,3.875 -1.7461,3.683593 -1.45312,1.644531 0.0977,2.132813 -0.96875,2.03516 0.67968,0.96875 h 3.29297 l 1.45313,-1.26172 2.13281,2.13282 0.77344,1.9375 1.16406,2.1289 -1.26172,1.35938 -0.0977,2.51562 h -0.96875 l -0.38671,0.96875 0.87109,0.96875 -0.87109,1.26172 -0.0977,1.06641 c 0,0 0.58203,1.16015 1.06641,1.16015 0.48437,0 -0.19141,1.64844 -0.19141,1.64844 l -1.26172,0.48438 -0.67578,1.55078 -1.06641,-1.35938 -1.35547,0.875 -3.68359,-2.23047 -0.0977,-0.87109 -2.32421,-2.03516 h -1.55079 l -1.25781,-2.61328 0.67969,-2.13281 1.25781,-0.19531 -0.67969,-1.35547 -2.42187,-1.16016 0.0977,-1.55078 -1.64454,-0.87109 -0.96875,0.28906 -2.03515,-0.0977 -1.55078,0.77735 -1.64844,-0.0977 c 0,0 -0.91797,2.20313 -1.64453,2.80859 l -0.0977,-0.19531 0.58203,2.23047 1.55078,0.96875 1.74219,0.77344 0.19531,2.13281 v 1.45313 l 0.96875,1.16015 0.77344,1.06641 -1.35547,2.23047 -0.87109,1.16015 -0.39063,1.64844 -0.48437,1.64453 -1.0625,1.45313 -1.26172,0.58203 h -1.9375 l -2.61328,2.51953 0.0937,1.45312 -4.45313,1.74219 -2.42187,-1.64453 -1.06641,0.38672 -1.74609,1.55078 -2.80859,1.25781 -2.12891,1.16406 -2.71484,-0.19531 -1.25782,0.67969 0.58204,2.32422 -0.67969,1.25781 0.0977,2.8125 0.19141,2.22656 1.45313,0.58203 0.77734,0.8711 0.0977,2.32422 v 2.13281 l 0.0195,-0.14453 1.33593,-0.29297 2.42188,-0.53125 1.16015,0.86719 0.0977,0.10156 2.71484,-0.67969 2.22657,-1.55078 0.67968,-1.16016 0.57813,-1.64843 2.23047,-0.58203 1.74219,0.39062 1.74609,-1.55078 1.45312,0.87109 1.25782,0.28907 h 1.83984 l 2.32422,1.64843 0.77734,0.8711"
     style="fill:#009e00;fill-opacity:1;fill-rule:nonzero;stroke:#ffffff;stroke-width:1.5;stroke-linecap:butt;stroke-linejoin:miter;stroke-miterlimit:4;stroke-opacity:1" />
  <path
     inkscape:connector-curvature="0"
     id="path19"
     d="m 153.31476,146.67495 0.96875,-0.77735 0.28906,-1.45312 2.42187,1.16406 1.35547,0.8711 1.55078,0.96875 2.32422,0.28906 2.8086,0.39062 h 1.9375 l 2.13281,1.16016 2.13281,1.16406 2.12891,1.25781 2.32422,-0.48437 h 1.74609 l 2.03516,0.19531 2.32421,-0.87109 1.45313,-0.29297 0.38672,-1.35547 0.96875,-1.9375 2.13281,-0.58203 1.54688,0.58203 1.74609,0.96875 2.12891,0.19531 2.13281,0.0937 h 1.55078 l 2.03516,0.67969 0.96875,0.38672 2.32421,-0.0977 h 1.74219 l 1.06641,0.67969 1.16406,1.16406 1.25781,1.0625 1.55078,0.67969 2.12891,1.55078 0.29297,-0.0977 1.25781,2.03515 1.35547,0.96875 1.06641,0.48438 2.13281,-0.96875 0.58203,-1.35547 1.54688,-1.35938 1.35937,-0.67578 0.67578,-1.26172 0.67969,-1.35547 1.16016,-1.0664 1.45312,-0.57813 1.55078,-0.96875 1.55078,-0.77734 1.16407,-0.58203 1.25781,-0.19141 h 0.67969 l 0.87109,-0.29297 0.87109,-0.1914 0.58203,0.96875 0.67579,1.16015 1.26171,0.29297 1.35547,-0.0977 1.9375,-0.19532 0.58203,-0.1914 0.77344,1.83984 0.67969,0.38672 h 1.25781 l 1.26172,-0.67578 0.96875,-0.875 0.96875,-0.67578 h 0.77344 l 0.87109,-0.29297 2.42188,-0.0937 0.87109,-0.48438 h 0.875 l 1.16016,0.28907 h 0.87109 l 1.16406,-0.38672 h 1.06641 l 1.45312,-0.0977 1.35547,-0.19531 1.06641,-0.0937 h 1.25781 l 0.96875,-0.29297 1.7461,-0.67578 1.16015,-0.39063 1.16406,1.16407 1.55079,0.77343 0.96875,1.16407 1.0625,1.74218 1.0664,1.45313 1.45313,1.84375 0.77734,1.16015 0.0937,1.7461 -0.87109,1.55078 -0.38672,1.25781 0.28906,1.55078 0.58203,1.06641 0.67969,0.77344 0.58203,1.74218 v 2.32813 l 0.28906,2.22656 0.19532,0.77344 1.25781,0.48437 1.64844,1.35938 1.32031,0.76172 -0.35156,0.30078 -3.39063,0.77734 -1.06641,2.12891 -0.58203,0.96875 -1.9375,-2.03125 -1.16406,1.64453 -2.80859,0.29297 -2.12891,7.65234 -3.97266,0.8711 -1.0664,2.61718 -1.25781,0.19141 -0.875,1.45313 -3.67969,1.0664 v 2.51953 l -0.8711,1.45313 -2.80859,-2.61719 -0.875,0.87109 -1.35547,-0.57812 -1.16015,-0.77734 -1.16407,-1.25782 -3.58593,0.77344 -1.9375,0.67969 -1.35547,-0.67969 -3.09766,0.48438 -3.29687,0.48437 -2.12891,-3.09766 -3.19922,-0.39062 -2.90625,0.19531 -3.58203,-2.42187 -3.29297,0.0977 -2.32812,1.35547 -4.26172,-0.38672 -5.03516,-1.83984 -1.64844,0.96875 -1.55078,-1.45313 -1.55078,0.38672 -1.45312,-1.16406 -2.71094,0.87109 -1.74219,-1.16015 -4.26562,1.64453 -3.875,0.19531 -4.16407,-2.13281 -4.45703,-0.28906 -5.32812,-0.28907 -4.94141,0.0937 -4.16406,-2.22656 -0.96875,-0.48437 -3.00391,0.0977 -2.02344,-0.1289 0.30079,0.16015 0.26953,-1 c 0,0 0.77734,-1.74609 1.26172,-2.03515 0.48437,-0.28907 0.67578,-2.42188 0.67578,-2.42188 l 0.0977,-2.51953 1.64844,0.0977 2.03125,0.0977 1.84375,-1.0664 2.12891,-1.25782 1.55078,1.35547 1.64844,0.19141 -0.39063,-2.22656 -1.45312,-1.45313 -1.54688,-2.13281 -1.74609,-1.45313 -1.45313,-1.64453 -0.1914,-2.13281 -0.77735,-2.12891 -1.83984,-0.29296 -0.67969,-1.64454 -1.16016,-1.45312 0.48438,-1.84375 0.96875,-2.61328 -3.00391,-0.875 -3.10156,-0.67578 -0.57812,-2.32422"
     style="fill:#0082ff;fill-opacity:1;fill-rule:nonzero;stroke:none" />
  <path
     style="clip-rule:nonzero;fill:none;stroke:#ffffff;stroke-width:1.5;stroke-linecap:butt;stroke-linejoin:miter;stroke-miterlimit:4;stroke-opacity:1"
     d="m 153.31476,146.67495 0.96875,-0.77735 0.28906,-1.45312 2.42187,1.16406 1.35547,0.8711 1.55078,0.96875 2.32422,0.28906 2.8086,0.39062 h 1.9375 l 2.13281,1.16016 2.13281,1.16406 2.12891,1.25781 2.32422,-0.48437 h 1.74609 l 2.03516,0.19531 2.32421,-0.87109 1.45313,-0.29297 0.38672,-1.35547 0.96875,-1.9375 2.13281,-0.58203 1.54688,0.58203 1.74609,0.96875 2.12891,0.19531 2.13281,0.0937 h 1.55078 l 2.03516,0.67969 0.96875,0.38672 2.32421,-0.0977 h 1.74219 l 1.06641,0.67969 1.16406,1.16406 1.25781,1.0625 1.55078,0.67969 2.12891,1.55078 0.29297,-0.0977 1.25781,2.03515 1.35547,0.96875 1.06641,0.48438 2.13281,-0.96875 0.58203,-1.35547 1.54688,-1.35938 1.35937,-0.67578 0.67578,-1.26172 0.67969,-1.35547 1.16016,-1.0664 1.45312,-0.57813 1.55078,-0.96875 1.55078,-0.77734 1.16407,-0.58203 1.25781,-0.19141 h 0.67969 l 0.87109,-0.29297 0.87109,-0.1914 0.58203,0.96875 0.67579,1.16015 1.26171,0.29297 1.35547,-0.0977 1.9375,-0.19532 0.58203,-0.1914 0.77344,1.83984 0.67969,0.38672 h 1.25781 l 1.26172,-0.67578 0.96875,-0.875 0.96875,-0.67578 h 0.77344 l 0.87109,-0.29297 2.42188,-0.0937 0.87109,-0.48438 h 0.875 l 1.16016,0.28907 h 0.87109 l 1.16406,-0.38672 h 1.06641 l 1.45312,-0.0977 1.35547,-0.19531 1.06641,-0.0937 h 1.25781 l 0.96875,-0.29297 1.7461,-0.67578 1.16015,-0.39063 1.16406,1.16407 1.55079,0.77343 0.96875,1.16407 1.0625,1.74218 1.0664,1.45313 1.45313,1.84375 0.77734,1.16015 0.0937,1.7461 -0.87109,1.55078 -0.38672,1.25781 0.28906,1.55078 0.58203,1.06641 0.67969,0.77344 0.58203,1.74218 v 2.32813 l 0.28906,2.22656 0.19532,0.77344 1.25781,0.48437 1.64844,1.35938 1.32031,0.76172 -0.35156,0.30078 -3.39063,0.77734 -1.06641,2.12891 -0.58203,0.96875 -1.9375,-2.03125 -1.16406,1.64453 -2.80859,0.29297 -2.12891,7.65234 -3.97266,0.8711 -1.0664,2.61718 -1.25781,0.19141 -0.875,1.45313 -3.67969,1.0664 v 2.51953 l -0.8711,1.45313 -2.80859,-2.61719 -0.875,0.87109 -1.35547,-0.57812 -1.16015,-0.77734 -1.16407,-1.25782 -3.58593,0.77344 -1.9375,0.67969 -1.35547,-0.67969 -3.09766,0.48438 -3.29687,0.48437 -2.12891,-3.09766 -3.19922,-0.39062 -2.90625,0.19531 -3.58203,-2.42187 -3.29297,0.0977 -2.32812,1.35547 -4.26172,-0.38672 -5.03516,-1.83984 -1.64844,0.96875 -1.55078,-1.45313 -1.55078,0.38672 -1.45312,-1.16406 -2.71094,0.87109 -1.74219,-1.16015 -4.26562,1.64453 -3.875,0.19531 -4.16407,-2.13281 -4.45703,-0.28906 -5.32812,-0.28907 -4.94141,0.0937 -4.16406,-2.22656 -0.96875,-0.48437 -3.00391,0.0977 -2.02344,-0.1289 0.30079,0.16015 0.26953,-1 c 0,0 0.77734,-1.74609 1.26172,-2.03515 0.48437,-0.28907 0.67578,-2.42188 0.67578,-2.42188 l 0.0977,-2.51953 1.64844,0.0977 2.03125,0.0977 1.84375,-1.0664 2.12891,-1.25782 1.55078,1.35547 1.64844,0.19141 -0.39063,-2.22656 -1.45312,-1.45313 -1.54688,-2.13281 -1.74609,-1.45313 -1.45313,-1.64453 -0.1914,-2.13281 -0.77735,-2.12891 -1.83984,-0.29296 -0.67969,-1.64454 -1.16016,-1.45312 0.48438,-1.84375 0.96875,-2.61328 -3.00391,-0.875 -3.10156,-0.67578 -0.57812,-2.32422"
     id="path21"
     inkscape:connector-curvature="0" />
  <path
     inkscape:connector-curvature="0"
     id="path25"
     d="m 251.36163,93.116352 0.45703,0.792969 1.06641,0.871094 1.16015,-0.96875 2.71485,0.09766 1.0664,0.195312 0.77344,0.386719 1.55078,1.355469 c 0,0 0.67578,0.09766 1.25782,0.195312 0.58203,0.09375 1.26171,-0.484375 1.26171,-0.484375 l 0.96875,-2.230473 1.16016,-0.289062 1.74609,-0.195312 1.16016,0.679687 0.96875,-0.292969 1.64844,-0.871094 1.83984,-0.773437 2.03516,-0.484375 0.77344,-2.230469 0.58203,-0.386719 0.96875,-1.066406 1.25781,0.292969 1.55078,-0.386719 0.87109,-0.875 0.96875,-0.191406 c 0,0 0.875,0 1.55079,0 0.67968,0 1.9375,1.839844 1.9375,1.839844 l 1.16406,1.453125 c 0,0 1.74219,0.195312 2.1289,0.195312 0.39063,0 1.9375,0.578125 1.9375,0.578125 l 1.35938,1.648438 2.03125,-0.289063 h 2.13281 l 0.8711,1.9375 1.16406,0.191407 1.55078,0.195312 h 1.74219 l 0.87109,2.421875 1.35547,3.292969 1.16406,-2.132813 2.03516,0.09766 0.67578,2.519532 -0.19141,1.9375 2.03516,-0.19531 1.25781,1.0664 0.8711,1.35547 0.67968,1.45313 h 4.16407 l 0.48437,0.67968 0.67969,0.38672 1.83984,-0.0977 1.16406,-1.16016 0.19141,3.00391 1.06641,1.0625 1.64843,1.55078 -1.35937,2.23047 -1.45313,2.03125 -1.0625,-2.12891 h -0.96875 v 0.77344 l -0.0976,1.26172 -0.77735,0.48437 0.67969,2.12891 0.8711,2.13281 0.58203,1.64453 0.96875,2.13281 0.38672,2.22657 0.0976,1.84375 0.77344,1.35546 0.875,1.16016 0.0937,1.06641 v 1.64843 l -0.57813,2.22657 0.28907,1.74609 1.55078,1.64453 1.64453,1.06641 -0.0937,1.9375 -0.96875,1.45312 -1.06641,1.9375 -1.0664,1.74219 -0.77344,1.55078 -0.67969,0.0977 -1.45312,1.16406 0.19531,2.51563 0.67578,0.96875 1.06641,0.96875 v 1.16406 l -0.48438,0.48437 -1.55078,0.38672 0.77734,1.26172 v 2.80859 l 0.28907,2.51954 0.87109,1.35546 1.16406,0.19141 0.19141,1.16406 0.875,0.77344 v 2.51953 h -0.875 l -2.03125,-2.61328 -0.96875,0.38672 -5.32813,-2.13281 -2.90625,0.77734 -2.03515,1.45313 -1.64844,0.38671 h -0.96875 l -1.16016,-0.67968 h -1.35937 l -0.57813,1.74609 -0.29296,0.67578 -1.55079,-0.58203 -2.71093,1.16406 v 2.71094 l -1.55078,1.26172 -2.22657,0.28906 -1.26172,-1.16015 -0.96875,-0.96875 h -1.83984 l -4.84375,0.67578 -4.06641,0.38672 -2.03515,-0.77344 -3.77735,0.67969 0.35157,-0.30469 -1.32032,-0.76172 -1.64843,-1.35547 -1.25782,-0.48437 -0.19531,-0.77735 -0.28906,-2.22656 V 164.339 l -0.58203,-1.74609 -0.67969,-0.77344 -0.58203,-1.06641 -0.28906,-1.55078 0.38672,-1.25781 0.87109,-1.55078 -0.0937,-1.74219 -0.77734,-1.16406 -1.45313,-1.83985 -1.06641,-1.45312 -1.0625,-1.74609 -0.96875,-1.16016 -1.55078,-0.77734 -1.16406,-1.16016 -1.16016,0.38672 -1.74609,0.67969 -0.96875,0.28906 h -1.25781 l -1.06641,0.0977 -1.35547,0.19141 -1.45312,0.0977 h -1.06641 l -1.16406,0.38672 h -0.87109 l -1.16016,-0.28907 h -0.875 l -0.87109,0.48438 -2.42188,0.0977 -0.87109,0.28907 h -0.77344 l -0.96875,0.67968 -0.96875,0.8711 -1.26172,0.67969 h -1.25781 l -0.67969,-0.39063 -0.77344,-1.83984 -0.58203,0.19531 -1.9375,0.19141 -1.35547,0.0977 -1.26172,-0.28906 -0.67578,-1.16406 -0.58203,-0.96875 -0.87109,0.19531 -0.8711,0.28906 h -0.67968 l -1.25782,0.19531 -1.16406,0.58204 -1.55078,0.77343 -1.55078,0.96875 -1.45313,0.58203 -1.16015,1.06641 -0.67969,1.35547 -0.67578,1.25781 -1.35938,0.67969 -1.54687,1.35547 -0.58203,1.35547 -2.13281,0.96875 -1.06641,-0.48438 -1.35547,-0.96875 -1.25781,-2.03515 -0.29297,0.0977 1.16406,-0.48437 1.06641,-1.16016 -0.0977,-1.55078 0.77344,-1.45313 0.77734,-1.55078 0.96875,-1.35547 -0.38672,-2.42187 0.48438,-1.35547 2.12891,-1.45312 0.58203,-0.875 -0.0977,-1.25782 -1.83984,-0.48437 -0.77344,-0.48438 -1.26172,-2.61718 -0.96875,-1.9375 -1.06641,-1.74219 -1.25781,-2.61719 -1.35547,0.0977 -0.29297,1.0664 -0.38671,0.67969 -2.13282,-0.58203 -0.87109,0.77344 -0.58203,0.58203 -2.22656,-1.35547 -1.55079,-1.06641 -0.77343,-0.38672 -1.16407,-3.87499 -1.0664,-2.71485 -0.57813,-2.1289 0.67578,-2.90625 0.19532,-0.58204 h -0.0977 l 1.9375,0.48438 2.22656,0.28906 1.26172,0.29297 0.28906,-1.06641 0.29297,-0.87109 1.25782,-0.87109 0.29296,-0.29297 v -1.55078 l -0.39062,-1.0625 -0.96875,-1.16407 -1.06641,-0.87109 -0.57812,-1.06641 -0.19531,-1.25781 v -2.90625 l 0.0977,-1.74609 0.19141,-0.48438 3.19922,-1.9375 2.22656,-1.25781 1.55078,-1.164062 1.74609,1.261718 0.77344,0.191404 1.74219,0.19532 0.48437,-0.0977 0.67969,0.67969 1.83985,-0.48438 h 0.19531 l 1.64453,1.45313 1.64844,1.45312 0.19531,0.96875 -0.0977,1.25781 0.77344,0.0977 0.58203,-1.35547 1.55078,-0.19531 1.25782,-0.0977 0.67968,-1.0664 1.35547,-0.28907 h 0.77344 l 1.16406,1.35547 1.06641,0.67969 3.0039,0.38672 c 0,0 0.8711,0 1.25782,0 0.38672,0 1.35547,-0.28906 1.35547,-0.28906 l 0.38671,-0.96875 1.26172,-1.9375 0.67578,-0.58203 h 1.06641 l 1.55078,-0.0977 0.67969,-0.96875 -0.0977,-0.968751 2.42188,-0.96875 1.25781,-0.484375 2.61719,-0.96875 1.74219,-0.773438 1.55078,-1.84375 1.0664,-0.96875"
     style="fill:#ff0000;fill-opacity:1;fill-rule:nonzero;stroke:#ffffff;stroke-width:1.5;stroke-linecap:butt;stroke-linejoin:miter;stroke-miterlimit:4;stroke-opacity:1" />
  <path
     inkscape:connector-curvature="0"
     id="path27"
     d="m 161.65851,82.089008 v -1.355469 l -0.46485,-1.160156 0.0781,-0.195312 -1.25782,-1.164063 -2.42187,-1.453125 -0.96875,-2.128906 -0.67969,-2.519531 0.96875,-0.484375 1.35547,0.195312 -0.0937,-1.164062 0.67578,-0.96875 1.55078,-0.773438 0.19532,-1.261718 v -1.257813 l 1.16015,-0.679687 h 1.7461 l 1.54687,-0.289063 1.26172,-0.292969 0.48437,-0.871094 0.96875,-1.644531 0.38672,-0.96875 1.25782,-0.195312 h 1.45312 l 0.77734,-0.484375 0.58204,-0.582032 1.0625,-0.09766 0.96875,-0.871094 1.64843,-0.773437 3.77735,-0.09766 1.16406,-0.386719 2.12891,-1.550781 1.45312,-1.648438 1.35938,-1.453125 0.96875,-1.160156 0.28906,-1.164062 0.38672,-0.96875 0.29297,-0.96875 v -1.453126 l -0.0977,-1.355468 V 45.2765 l 0.28906,-1.160156 0.96875,-1.453125 -0.67578,-1.746094 -0.48437,-1.355468 V 38.49525 l 0.96875,-0.773437 1.35546,-0.582032 1.45313,-0.386718 1.25781,0.871094 0.77735,0.777343 1.16015,-0.390625 0.67969,-0.09375 0.87109,0.675782 1.55078,0.09766 0.38672,0.773437 0.58203,0.679688 1.45313,0.871093 0.87109,0.386719 0.67969,-0.871093 0.19141,-2.421876 1.26172,-0.191406 1.54687,-1.453125 v -1.550777 l 1.16406,-1.355469 -1.0664,-4.75 0.77734,-1.160156 -2.03516,-1.648437 0.8711,-1.066407 0.38672,-0.96875 0.38672,-1.550781 1.26171,0.195312 1.35547,0.09766 3.77735,3.097656 1.9375,0.195313 1.35547,2.035156 1.35937,0.871094 v 1.164062 l -1.45312,0.675781 v 0.871094 l 0.96875,0.875 0.0937,0.773437 1.74609,0.96875 5.91016,0.09766 1.54687,0.871093 1.45313,0.09766 1.26171,0.195312 1.25782,0.386719 1.45312,0.96875 1.45313,-1.550781 1.0664,-1.257813 1.16407,0.09375 0.87109,-1.9375 v -2.128915 l 1.9375,-0.484375 1.16016,1.355469 1.26171,0.582031 1.25782,0.582031 0.96875,-0.972656 0.96875,-0.773438 0.87109,0.484376 0.29297,1.164062 h 1.55078 l 0.48438,1.550781 1.45312,0.09375 0.0937,-0.09375 v 1.0625 h 1.64844 l 1.64844,0.292969 1.9375,0.773438 1.74218,0.582031 2.13282,0.195312 1.83984,1.160157 -0.29297,1.066406 -0.96875,0.09766 -0.87109,1.257812 -0.28907,0.871094 0.28907,0.96875 2.23047,1.746094 0.96875,0.386719 0.0937,2.421875 h 1.16406 v 0.679687 l 0.0976,1.839844 -0.0976,0.96875 0.77344,1.257813 0.19531,1.453124 -0.0977,2.230469 0.0977,1.9375 0.28906,3.097657 -0.67578,-0.386719 -0.87109,-0.386719 -0.77735,-0.679688 -1.0664,0.09766 -0.8711,0.09766 -0.96875,0.675781 -1.25781,1.359375 -0.96875,1.257813 -0.96875,0.386718 -1.16406,0.292969 -1.06641,0.289063 -1.16016,0.289062 -1.74609,0.484375 -1.9375,-0.578125 -0.67578,-0.484375 -1.06641,-1.164062 -1.16406,-1.257813 -0.28906,-0.777344 -1.35547,-0.09766 -1.74609,-0.191406 -1.9375,1.550781 -0.19141,1.742188 0.19141,2.035156 -0.48438,1.9375 0.96875,1.839844 -0.38672,0.679687 -0.48437,1.355469 -0.8711,1.839844 0.38672,1.453125 1.9375,1.550781 2.13281,1.742187 1.06641,0.195313 0.96875,0.582031 0.77344,0.773438 1.45312,1.164062 1.55078,0.484375 1.16016,0.484375 h 1.06641 l 1.55078,0.675782 1.74219,1.453124 0.29296,1.550782 -0.77734,0.582031 v 1.355469 l -0.67578,1.453125 -0.48438,0.871093 v 1.164063 l 0.67579,1.839844 -0.28907,1.742187 -1.0664,0.96875 -1.55078,1.84375 -1.74219,0.773438 -2.61719,0.96875 -1.25781,0.484375 -2.42188,0.96875 0.0977,0.968757 -0.67969,0.96875 -1.55078,0.0977 h -1.0625 l -0.67969,0.58203 -1.25781,1.9375 -0.39062,0.96875 c 0,0 -0.96875,0.28906 -1.35547,0.28906 -0.38672,0 -1.25782,0 -1.25782,0 l -3.0039,-0.38672 -1.06641,-0.67969 -1.16015,-1.35547 h -0.77735 l -1.35547,0.28907 -0.67968,1.0664 -1.25782,0.0977 -1.55078,0.19531 -0.58203,1.35547 -0.77344,-0.0977 0.0977,-1.25781 -0.19531,-0.96875 -1.64453,-1.45312 -1.64844,-1.45313 h -0.19531 l -1.83985,0.48438 -0.67578,-0.67969 -0.48437,0.0977 -1.7461,-0.19532 -0.77344,-0.19141 -1.74609,-1.261718 -1.54687,1.164062 -2.23047,1.257816 -3.19532,1.9375 -0.19531,0.48438 -0.0977,1.74609 v 2.90625 l 0.19531,1.25781 0.58203,1.06641 1.06641,0.87109 0.96875,1.16407 0.38671,1.0625 v 1.55078 l -0.29296,0.29297 -1.25782,0.87109 -0.28906,0.87109 -0.29297,1.06641 -1.25781,-0.29297 -2.23047,-0.28906 -1.9375,-0.48438 h 0.0977 l -1.74219,-1.16406 -1.55078,-1.25781 -2.03516,-1.25781 -0.0977,-1.64844 0.58203,-1.74219 0.87109,-1.55078 -0.19141,-1.55078 -0.67968,-0.67969 0.96875,-3 0.87109,-2.71484 -0.19141,-1.257821 -0.67968,-0.292969 -1.64453,-0.191406 -1.9375,-1.164062 -1.16407,-0.96875 v -0.386719 h 4.16407 l 0.58203,-0.582031 -0.0977,-0.871094 -2.51562,-1.164063 -3.48829,-0.289062 -1.64843,0.09766 h -2.42188 l -0.96875,-1.839844 -1.16015,-3.683593 -0.77735,-3.003907 0.67969,-2.324219 2.42187,0.09766 1.25782,0.09766 v -1.261719 l -0.77344,-1.160156 -1.9375,-0.386719 -1.9375,0.289063 -1.26172,1.164062 -3.19531,0.09375 -3.29297,-0.484375 -2.13281,-1.9375 -0.96875,-0.96875 -1.83985,0.09766 -1.55078,0.484374 -1.0664,0.09766 -0.38672,0.96875 -0.58203,1.648437 -2.8125,0.753906"
     style="fill:#0082ff;fill-opacity:1;fill-rule:nonzero;stroke:#ffffff;stroke-width:1.5;stroke-linecap:butt;stroke-linejoin:miter;stroke-miterlimit:4;stroke-opacity:1" />
  <path
     inkscape:connector-curvature="0"
     id="path29"
     d="m 363.59991,57.237446 -2.5664,2.566406 -0.48438,-0.578125 -2.13281,0.773438 0.58203,1.648437 -0.0977,1.546875 -0.57812,0.777344 -1.06641,-0.777344 -1.9375,-1.355469 h -1.64844 l -1.55078,1.355469 -1.16015,1.648438 -2.03516,1.164062 -1.83984,0.773438 -1.45313,0.773437 -0.0976,2.132813 -0.38672,1.164062 -1.45313,0.773438 -1.26172,0.582031 v 1.644531 l -0.96875,0.875 -1.35547,1.0625 -0.96875,-0.96875 -1.83984,-1.160156 -1.16406,0.386718 -2.42188,0.484376 -1.35547,1.164062 -0.67578,0.96875 -1.35937,1.9375 0.29297,1.546875 0.28906,1.84375 -0.87109,1.453125 v 1.355469 l -1.25782,-0.195313 -1.16406,1.066406 v 2.226563 l 0.38671,1.648437 0.29297,0.871094 0.87109,1.355469 1.06641,0.875 1.64453,1.644531 0.67969,0.871094 0.0976,1.066406 -0.875,1.066406 v 1.164063 l -0.38672,1.0625 -0.96875,0.777348 -0.1914,1.16016 0.0937,1.9375 1.55078,1.55078 -0.58203,1.55078 -1.35547,1.55078 -1.55078,1.25781 -1.64453,1.45313 -1.83985,0.19531 -2.23047,0.19141 0.0977,0.0977 -1.35547,2.23047 -1.45312,2.03125 -1.06641,-2.12891 h -0.96875 v 0.77344 l -0.0977,1.26172 -0.77343,0.48438 0.67578,2.1289 0.875,2.13281 0.57812,1.64454 0.96875,2.13281 0.39063,2.22656 0.0937,1.84375 0.77734,1.35547 0.8711,1.16015 0.0976,1.06641 v 1.64844 l -0.58203,2.22656 0.28906,1.74609 1.55078,1.64454 1.64844,1.0664 -0.0976,1.9375 -0.96875,1.45313 -1.06641,1.9375 -1.06641,1.74218 -0.77343,1.55079 -0.67969,0.0977 -1.45313,1.16406 0.19532,2.51563 0.67968,0.96875 1.0625,0.96875 v 1.31641 l 1.06641,-0.73438 1.83984,-1.45312 1.84375,-0.48438 1.83985,-2.80859 0.96875,-1.25782 0.38672,-1.55078 1.74218,-0.19531 0.39063,-0.87109 0.38672,-1.25782 0.96875,-0.96875 0.38672,-1.16406 0.19531,-1.16406 0.67578,0.58203 h 0.77734 l 1.64453,-0.67578 1.26172,0.38672 1.16016,-0.67969 1.45312,0.87109 0.8711,-0.67578 0.77734,0.19141 1.83985,-0.0937 0.48437,-0.48438 -0.48437,-0.67968 -1.35547,-0.38672 h -1.64844 l 0.29297,-1.06641 2.42187,-1.0664 0.67578,-1.35547 h -1.45312 l -1.06641,-1.83985 0.875,-0.96875 0.77344,-0.87109 0.58203,-0.39063 0.48438,-1.0625 -0.67969,-0.875 -1.25781,0.0977 -1.7461,1.26172 -0.48437,-1.74609 0.58203,-0.77344 -0.58203,-1.06641 h -0.77344 l -0.67969,-1.45312 0.67969,-1.06641 0.0977,-2.90625 -0.0977,-1.83984 0.77344,-1.35547 -0.0937,-2.42188 -1.35938,-0.29296 0.29297,-2.71094 -0.58203,-1.83985 0.48438,-0.96875 h 0.87109 l 1.35547,1.35547 1.16406,-1.35547 2.22656,-0.0977 3.19922,-3.00391 1.16016,-1.45312 -0.48438,-1.25782 -0.38672,-1.45312 1.35547,-0.58203 1.06641,-0.8711 -0.0977,-1.64843 -2.1289,-1.355475 -0.19532,-2.710938 -1.9375,-1.648438 -1.64439,0.679548 -3.78125,-1.453125 -1.35547,0.484375 -3.39062,-1.359375 0.96875,-1.453125 h 1.26172 l 0.96875,-1.644531 2.32422,-1.261719 -0.67969,-1.742188 0.48437,-1.066406 h 2.13282 l 1.55078,-0.773437 1.54687,1.160156 1.64844,-0.09375 0.28906,0.675781 h 0.875 l 0.77344,0.484375 0.58203,1.550781 1.25781,0.679688 3.58594,0.96875 1.16016,-3.390625 1.16406,1.839844 6.87891,-2.035157 2.80859,-0.09766 -1.16406,-1.9375 0.0976,-2.90625 -1.0664,-1.160156 -0.0937,-0.875 0.48437,-1.0625 -0.58203,-1.066406 -2.42187,-1.746094 v -0.578125 l 2.22656,-0.484375 1.64844,-1.9375 -0.19532,-3.003906 0.48438,-1.648434 -0.38672,-1.066406 2.22656,-3.195312 -0.77343,-0.96875 -2.8086,-0.09766 -0.48437,-2.226562 -0.0977,-2.230469 -0.28906,-1.453125 -0.52735,-0.648437"
     style="fill:#7f7f7f;fill-opacity:1;fill-rule:nonzero;stroke:none" />
  <path
     style="clip-rule:nonzero;fill:#0082ff;stroke:#ffffff;stroke-width:1.5;stroke-linecap:butt;stroke-linejoin:miter;stroke-miterlimit:4;stroke-opacity:1;fill-opacity:1"
     d="m 363.59991,57.237446 -2.5664,2.566406 -0.48438,-0.578125 -2.13281,0.773438 0.58203,1.648437 -0.0977,1.546875 -0.57812,0.777344 -1.06641,-0.777344 -1.9375,-1.355469 h -1.64844 l -1.55078,1.355469 -1.16015,1.648438 -2.03516,1.164062 -1.83984,0.773438 -1.45313,0.773437 -0.0976,2.132813 -0.38672,1.164062 -1.45313,0.773438 -1.26172,0.582031 v 1.644531 l -0.96875,0.875 -1.35547,1.0625 -0.96875,-0.96875 -1.83984,-1.160156 -1.16406,0.386718 -2.42188,0.484376 -1.35547,1.164062 -0.67578,0.96875 -1.35937,1.9375 0.29297,1.546875 0.28906,1.84375 -0.87109,1.453125 v 1.355469 l -1.25782,-0.195313 -1.16406,1.066406 v 2.226563 l 0.38671,1.648437 0.29297,0.871094 0.87109,1.355469 1.06641,0.875 1.64453,1.644531 0.67969,0.871094 0.0976,1.066406 -0.875,1.066406 v 1.164063 l -0.38672,1.0625 -0.96875,0.777348 -0.1914,1.16016 0.0937,1.9375 1.55078,1.55078 -0.58203,1.55078 -1.35547,1.55078 -1.55078,1.25781 -1.64453,1.45313 -1.83985,0.19531 -2.23047,0.19141 0.0977,0.0977 -1.35547,2.23047 -1.45312,2.03125 -1.06641,-2.12891 h -0.96875 v 0.77344 l -0.0977,1.26172 -0.77343,0.48438 0.67578,2.1289 0.875,2.13281 0.57812,1.64454 0.96875,2.13281 0.39063,2.22656 0.0937,1.84375 0.77734,1.35547 0.8711,1.16015 0.0976,1.06641 v 1.64844 l -0.58203,2.22656 0.28906,1.74609 1.55078,1.64454 1.64844,1.0664 -0.0976,1.9375 -0.96875,1.45313 -1.06641,1.9375 -1.06641,1.74218 -0.77343,1.55079 -0.67969,0.0977 -1.45313,1.16406 0.19532,2.51563 0.67968,0.96875 1.0625,0.96875 v 1.31641 l 1.06641,-0.73438 1.83984,-1.45312 1.84375,-0.48438 1.83985,-2.80859 0.96875,-1.25782 0.38672,-1.55078 1.74218,-0.19531 0.39063,-0.87109 0.38672,-1.25782 0.96875,-0.96875 0.38672,-1.16406 0.19531,-1.16406 0.67578,0.58203 h 0.77734 l 1.64453,-0.67578 1.26172,0.38672 1.16016,-0.67969 1.45312,0.87109 0.8711,-0.67578 0.77734,0.19141 1.83985,-0.0937 0.48437,-0.48438 -0.48437,-0.67968 -1.35547,-0.38672 h -1.64844 l 0.29297,-1.06641 2.42187,-1.0664 0.67578,-1.35547 h -1.45312 l -1.06641,-1.83985 0.875,-0.96875 0.77344,-0.87109 0.58203,-0.39063 0.48438,-1.0625 -0.67969,-0.875 -1.25781,0.0977 -1.7461,1.26172 -0.48437,-1.74609 0.58203,-0.77344 -0.58203,-1.06641 h -0.77344 l -0.67969,-1.45312 0.67969,-1.06641 0.0977,-2.90625 -0.0977,-1.83984 0.77344,-1.35547 -0.0937,-2.42188 -1.35938,-0.29296 0.29297,-2.71094 -0.58203,-1.83985 0.48438,-0.96875 h 0.87109 l 1.35547,1.35547 1.16406,-1.35547 2.22656,-0.0977 3.19922,-3.00391 1.16016,-1.45312 -0.48438,-1.25782 -0.38672,-1.45312 1.35547,-0.58203 1.06641,-0.8711 -0.0977,-1.64843 -2.1289,-1.355475 -0.19532,-2.710938 -1.9375,-1.648438 -1.64439,0.679548 -3.78125,-1.453125 -1.35547,0.484375 -3.39062,-1.359375 0.96875,-1.453125 h 1.26172 l 0.96875,-1.644531 2.32422,-1.261719 -0.67969,-1.742188 0.48437,-1.066406 h 2.13282 l 1.55078,-0.773437 1.54687,1.160156 1.64844,-0.09375 0.28906,0.675781 h 0.875 l 0.77344,0.484375 0.58203,1.550781 1.25781,0.679688 3.58594,0.96875 1.16016,-3.390625 1.16406,1.839844 6.87891,-2.035157 2.80859,-0.09766 -1.16406,-1.9375 0.0976,-2.90625 -1.0664,-1.160156 -0.0937,-0.875 0.48437,-1.0625 -0.58203,-1.066406 -2.42187,-1.746094 v -0.578125 l 2.22656,-0.484375 1.64844,-1.9375 -0.19532,-3.003906 0.48438,-1.648434 -0.38672,-1.066406 2.22656,-3.195312 -0.77343,-0.96875 -2.8086,-0.09766 -0.48437,-2.226562 -0.0977,-2.230469 -0.28906,-1.453125 -0.52735,-0.648437"
     id="path31"
     inkscape:connector-curvature="0" />
  <path
     inkscape:connector-curvature="0"
     id="path35"
     d="m 259.39679,0.78822665 -0.19532,1.64843805 -0.57812,1.554687 1.06641,4.453125 -0.29297,1.453125 -0.38282,1.5468753 0.1875,1.261719 -0.0898,1.160156 -0.58594,1.84375 0.39063,1.261719 0.67578,1.257812 -0.57813,1.261719 h -0.58593 l -1.0625,-0.585937 -2.51953,-0.386719 h -2.8086 l -0.48437,3.582031 -3,3.203125 -0.6836,2.609375 0.19532,3.390625 -0.67579,2.324219 0.0937,-0.08984 v 1.066406 h 1.64844 l 1.64844,0.285156 1.93359,0.777344 1.75,0.578125 2.12891,0.195313 1.83594,1.164062 -0.28907,1.0625 -0.96875,0.09766 -0.87109,1.261719 -0.29297,0.871094 0.29297,0.964844 2.22656,1.75 0.96875,0.386719 0.0977,2.421874 h 1.16406 v 0.675782 l 0.0977,1.839844 -0.0977,0.972656 0.77344,1.253906 0.19141,1.453125 -0.0977,2.230469 0.0977,1.941406 0.29296,3.097656 -0.67578,-0.390625 -0.875,-0.382812 -0.77343,-0.683594 -1.06641,0.09766 -0.86719,0.09766 -0.96875,0.683593 -1.26172,1.351563 -0.97265,1.257812 -0.96875,0.390625 -1.16016,0.292969 -1.06641,0.285156 -1.16406,0.292969 -1.73828,0.484375 -1.94141,-0.582031 -0.67578,-0.480469 -1.0664,-1.164062 -1.16016,-1.257813 -0.29297,-0.78125 -1.35937,-0.08984 -1.73828,-0.195312 -1.94141,1.546875 -0.19141,1.746094 0.19141,2.03125 -0.48047,1.9375 0.96484,1.84375 -0.38671,0.675781 -0.48047,1.355469 -0.87891,1.84375 0.39063,1.449218 1.93359,1.550782 1.07422,0.871093 1.0625,0.878907 1.0664,0.1875 0.96875,0.582031 0.77344,0.773437 1.45313,1.164063 1.55078,0.488281 1.16406,0.480469 h 1.0625 l 1.54688,0.679687 1.74609,1.453125 0.29297,1.546875 -0.77735,0.585938 v 1.355468 l -0.67578,1.449219 -0.48828,0.875 v 1.164063 l 0.6836,1.839844 -0.33204,1.683593 0.42969,0.738281 1.0625,0.867188 1.16406,-0.964844 2.70704,0.09766 1.07031,0.195313 0.77344,0.382813 1.55468,1.355468 c 0,0 0.67188,0.09766 1.25391,0.195313 0.57812,0.09766 1.25781,-0.480469 1.25781,-0.480469 l 0.97266,-2.234375 1.16406,-0.285156 1.74219,-0.195313 1.16015,0.675782 0.96875,-0.285157 1.64844,-0.878906 1.83985,-0.773437 2.03906,-0.484376 0.76953,-2.226562 0.57812,-0.386719 0.97657,-1.0625 1.25781,0.285157 1.54687,-0.382813 0.8711,-0.878906 0.97265,-0.1875 c 0,0 0.86719,0 1.54688,0 0.67578,0 1.94141,1.839843 1.94141,1.839843 l 1.16015,1.453126 c 0,0 1.7461,0.195312 2.13281,0.195312 0.38672,0 1.9336,0.578125 1.9336,0.578125 l 1.35937,1.648437 2.03125,-0.292968 h 2.12891 l 0.87891,1.9375 1.16015,0.195312 1.54688,0.195313 h 1.74609 l 0.87109,2.421875 1.35938,3.292968 1.16016,-2.132812 2.03125,0.09766 0.68359,2.51954 -0.19531,1.9375 2.03515,-0.19531 1.25782,1.0664 0.87109,1.35547 0.67969,1.45313 h 4.16406 l 0.48828,0.67578 0.67578,0.39062 1.84375,-0.0977 1.16016,-1.16407 0.1914,3.00391 1.07032,1.07031 1.54687,1.44922 2.22656,-0.19531 1.84375,-0.19141 1.64454,-1.45312 1.55078,-1.25782 1.35547,-1.55468 0.57812,-1.54297 -1.54297,-1.55469 -0.0976,-1.93359 0.19531,-1.16407 0.96484,-0.777346 0.38281,-1.066406 v -1.160156 l 0.87891,-1.066407 -0.0977,-1.066406 -0.68359,-0.871094 -1.64062,-1.648437 -1.06641,-0.871094 -0.875,-1.355469 -0.28906,-0.871093 -0.38672,-1.648438 v -2.226562 l 1.16015,-1.066407 1.26172,0.195313 v -1.359375 l 0.8711,-1.453125 -0.29297,-1.839844 -0.28516,-1.550781 1.35547,-1.933594 0.67578,-0.96875 1.35547,-1.164063 2.42578,-0.484374 1.16016,-0.390626 1.83984,1.164063 0.96485,0.964844 1.35937,-1.0625 0.96875,-0.871094 v -1.644531 l 1.25781,-0.582032 1.45703,-0.773437 0.38672,-1.164063 0.0977,-2.136718 1.44922,-0.773438 1.84375,-0.769531 2.03125,-1.164063 1.16406,-1.648437 1.55078,-1.359375 h 1.64453 l 1.94141,1.359375 1.06641,0.777344 0.57812,-0.777344 0.0977,-1.546875 -0.57813,-1.648438 2.12891,-0.773437 0.48047,0.578125 2.57031,-2.570312 -0.0391,-0.06641 -0.6875,-0.851562 h -0.8711 l -1.16015,-0.390625 -1.26172,-1.351563 -1.0625,-0.191406 -0.58594,-2.039063 -0.39062,-1.449218 -0.57813,-1.550782 v -2.230468 l -1.45312,-0.386719 -0.39063,-0.578125 -1.0625,-1.359375 -0.38672,-1.746094 -2.51953,-1.351562 -0.58203,-1.746094 0.67969,-0.871094 -0.0977,-4.941406 1.16406,-2.519531 1.16407,-2.128906 1.35546,-2.328126 -0.96875,-2.710937 v -1.449219 l -0.48437,-1.652344 -1.65234,-5.230468 -1.44532,-1.742188 -2.03906,1.164063 h -2.80859 l -1.35547,-1.554688 -2.12891,-0.292969 -0.29297,0.878907 -0.96875,0.480469 -0.39062,-1.261719 v -1.640625 l -1.45313,-1.359375 -2.03125,0.96875 -3.58593,-1.9375003 -1.45704,0.9687503 -1.93359,-0.484375 -1.55078,4.363281 -2.13281,1.542969 -0.86719,-0.769532 h -0.87109 l -0.78125,1.160157 -0.67579,-0.675781 h -0.48437 l -3.19531,0.285156 -3.48828,-0.671875 -0.96875,0.769531 h -2.12891 l -6.6875,-3.777344 -0.96875,-1.546875 -5.42188,-2.8125003 h -2.61718 l -0.19532,0.683594 -0.48046,0.964844 -3.48829,-0.289063 -0.48828,-0.675781 -1.16015,-0.78125 -1.64844,-0.867187 -2.41797,-0.292969 -2.8125,-0.578125 -1.83594,-2.519532 h -2.32812 l -3.77735,-1.84375 -1.74609,0.679688 -1.54687,-1.066406 -0.6836,3.003906 -2.22656,-0.097656 -1.45313,1.160156 -1.44921,-0.1875 0.96875,-1.746094 -1.26172,-1.9375 h -3.39063 L 262.88511,0.98351265 Z M 329.57647,44.135883 c 0.0156,-0.0039 0.0312,0 0.043,0 0.17969,0.105469 0.3711,0.191406 0.54297,0.316406 0.4375,0.132813 0.37891,0.535157 0.38672,0.90625 0.30078,0.429688 0.10156,0.992188 0.16016,1.484376 0.69531,0.488281 1.38672,0.980468 2.07031,1.492187 0.0898,0.128906 0.17969,0.15625 0.25391,0.125 0.16796,-0.07031 0.28125,-0.4375 0.24218,-0.632813 0.0117,-0.324218 -0.21484,-0.753906 -0.0898,-1.007812 0.60937,-0.07422 1.20312,0.132812 1.71484,0.449219 0.4961,0.179687 0.1211,0.566406 -0.0117,0.863281 -0.33984,0.390625 0.21875,0.492188 0.20313,0.871094 0.38672,0.125 0.48437,0.554687 0.94922,0.5 0.32812,-0.03125 0.64453,-0.203125 0.99609,-0.05469 -0.0625,0.617188 -0.32422,1.1875 -0.44922,1.792969 0.44141,-0.02344 0.45313,0.347656 0.82032,0.328125 -0.20313,0.5 -0.28907,1.03125 -0.36329,1.558594 0.0547,0.433594 -0.14453,0.800781 -0.32812,1.175781 -0.21094,0.316406 -0.29688,0.652344 -0.16016,1.015625 0.17578,0.375 0.13672,0.75 -0.0234,1.121094 0.19531,0.257812 -0.17969,0.578125 -0.0781,0.9375 0.0742,0.429687 0.75781,0.144531 0.53906,-0.214844 0.10547,0.0078 0.17188,0.02734 0.20703,0.05469 0.004,0.0039 0.008,0.0078 0.008,0.0078 0,0 0.004,0.0039 0.008,0.0039 0,0.0039 0.004,0.0078 0.004,0.0078 0,0 0.004,0.0039 0.008,0.0078 0,0 0.004,0.0039 0.004,0.0039 0,0 0,0.0039 0,0.0078 0.082,0.160156 -0.27343,0.492188 -0.13281,0.742188 0.008,0.01172 0.0195,0.02734 0.0312,0.04297 0.0274,0.03125 0.0703,0.06641 0.125,0.09766 0,0 0,0.0039 0,0.0039 0.004,0.07422 0.0742,0.234375 0.16016,0.335937 0.0391,0.04297 0.0859,0.07422 0.1289,0.08594 0.0117,0 0.0274,0 0.0391,0 0.0586,-0.01172 0.12109,-0.05859 0.17187,-0.179688 0.0195,0.07031 0.0469,0.121094 0.0742,0.152344 0.008,0.01172 0.0195,0.02344 0.0312,0.03125 0.008,0.0078 0.0195,0.01563 0.0273,0.01953 0.004,0 0.0117,0.0039 0.0117,0.0039 0.008,0.0039 0.0195,0.0078 0.0274,0.0078 0.004,0 0.0156,0 0.0234,0 0.008,0 0.0234,0 0.0312,0 0.1211,-0.01172 0.28125,-0.121094 0.46094,-0.214844 0.44141,-0.07031 0.45703,0.507813 0.21875,0.730469 0.27735,0.222656 0.3711,0.710937 0.1836,0.96875 0.0859,0.289063 0.082,0.460937 0.0234,0.554687 -0.004,0.0039 -0.008,0.01563 -0.0117,0.01953 0,0 -0.008,0.0078 -0.0117,0.01172 -0.008,0.0039 -0.0156,0.01172 -0.0234,0.01563 -0.004,0.0039 -0.0156,0.01172 -0.0195,0.01562 -0.29688,0.144532 -1.09375,-0.394531 -1.52735,-0.445312 -0.78515,-0.132812 -1.07031,-1.019531 -1.7539,-1.332031 -0.34766,-0.351563 -0.80469,-0.128907 -1.19141,0.01172 -0.35937,-0.117188 -0.54297,-0.144532 -0.82812,0.132812 -0.17188,-0.08984 -0.29688,-0.121094 -0.39063,-0.105469 -0.0195,0.0078 -0.0469,0.01563 -0.0664,0.02734 -0.008,0.0039 -0.0234,0.01172 -0.0312,0.01563 -0.10156,0.07031 -0.17578,0.207031 -0.27734,0.386719 -0.33594,0.214843 -0.44141,0.578125 -0.76953,0.777343 -0.36328,0.578126 -0.98438,0.476563 -1.625,0.476563 -0.34375,0.136719 0.10156,0.695313 -0.0117,1.003906 0.0391,0.195313 0.11719,0.378907 0.11719,0.480469 0,0.0039 -0.004,0.01172 -0.008,0.01563 0,0.0039 0.004,0.01172 0,0.01172 0,0.0039 -0.004,0.01172 -0.004,0.01563 0,0 0,0.0039 0,0.0039 0,0 -0.008,0.0039 -0.008,0.0078 -0.004,0.0039 -0.0117,0.01172 -0.0156,0.01562 -0.004,0.0039 -0.008,0.0078 -0.008,0.0078 -0.0117,0.0039 -0.0273,0.0039 -0.043,0.0039 -0.0625,0.0039 -0.16797,-0.01563 -0.32812,-0.07813 -0.39063,-0.375 -0.5,0.277344 -0.91797,0.07422 -0.0508,0.113281 -0.10157,0.175781 -0.14844,0.207031 -0.004,0.0039 -0.0117,0.0078 -0.0156,0.01172 -0.004,0.0039 -0.0156,0.0039 -0.0195,0.0078 -0.008,0 -0.0195,0 -0.0234,0 -0.004,0 -0.0156,0 -0.0195,0 -0.004,-0.0039 -0.0117,-0.0078 -0.0195,-0.0078 -0.004,0 -0.0156,-0.0039 -0.0234,-0.0078 -0.004,0 -0.0117,-0.0078 -0.0156,-0.01172 -0.10937,-0.06641 -0.23047,-0.234375 -0.39062,-0.328125 -0.5,-0.03516 -0.86329,-0.46875 -1.375,-0.382813 -0.54297,-0.171875 -1.16407,-0.171875 -1.63282,-0.511718 -0.48437,-0.222657 -1.04297,-0.277344 -1.53906,-0.5 -0.0195,0.01172 -0.0391,0.02734 -0.0547,0.04297 -0.1875,0.191406 -0.26172,0.625 -0.39062,0.890625 -0.0117,0.07422 -0.0312,0.128907 -0.0547,0.164063 -0.008,0.01172 -0.0234,0.02734 -0.0352,0.03516 -0.004,0 -0.004,0.0078 -0.008,0.0078 0,0 -0.008,0.0039 -0.0117,0.0039 -0.004,0.0039 -0.008,0.0078 -0.0117,0.0078 -0.004,0 -0.008,0 -0.0117,0 -0.004,0 -0.008,0.0039 -0.0117,0.0039 -0.0469,0.0078 -0.10157,-0.0039 -0.14844,0.0078 0,0 -0.008,0 -0.0117,0 0,0 -0.008,0.0039 -0.0117,0.0078 -0.004,0 -0.008,0.0039 -0.0117,0.0039 0,0 -0.004,0.0039 -0.004,0.0078 -0.0117,0.0039 -0.0234,0.01563 -0.0312,0.02734 -0.0312,0.04687 -0.0547,0.125 -0.0625,0.261719 -0.008,0.08984 -0.0352,0.144531 -0.0664,0.164062 -0.0117,0.01172 -0.0312,0.01172 -0.0469,0.01563 -0.17579,-0.0039 -0.49219,-0.386719 -0.63282,-0.5 0.0391,-0.222656 -0.0117,-0.335937 -0.10937,-0.394531 -0.13281,-0.07813 -0.34766,-0.07422 -0.55078,-0.125 -0.008,0.0078 -0.0195,0.01563 -0.0312,0.01953 0,0 -0.008,0.0039 -0.0117,0.0078 -0.36328,0.15625 -0.88281,-0.707032 -1.42188,-0.195313 -0.54297,0.484375 -1.42578,-0.167969 -1.99609,0.40625 -0.30078,0.164063 -0.66406,0.425781 -0.96094,0.203125 0.17578,-0.371094 0.6211,-0.292968 0.9375,-0.445312 0.19922,-0.04297 0.35156,-0.125 0.42578,-0.238282 0.004,-0.0078 0.0117,-0.01953 0.0156,-0.03125 0.0156,-0.02734 0.0273,-0.05859 0.0312,-0.08984 0.0117,-0.07813 -0.0117,-0.167969 -0.0664,-0.269531 -0.33203,0.05859 -0.66406,0.08203 -0.99219,0.152343 0.004,-0.371093 -0.42968,-0.574219 -0.48828,-0.953125 -0.0703,-0.07422 -0.10937,-0.136718 -0.12109,-0.183594 0,-0.0039 -0.004,-0.01562 -0.004,-0.01953 0,0 0,-0.0039 0,-0.0039 0,-0.0039 0,-0.0078 0,-0.0078 0,0 0,-0.0039 0,-0.0039 0,-0.0039 0,-0.0078 0,-0.0078 0,0 0.004,-0.0039 0.004,-0.0039 0,-0.0039 0,-0.0078 0,-0.0078 0,0 0,-0.0039 0,-0.0078 0.004,0 0.004,-0.0078 0.008,-0.01172 0,0 0.004,-0.0039 0.004,-0.0039 0.10547,-0.140626 0.66015,-0.08203 0.79687,-0.285157 0.004,-0.0078 0.0117,-0.01563 0.0117,-0.01953 0.004,-0.0039 0.008,-0.01172 0.008,-0.01172 0,-0.0039 0.004,-0.01172 0.004,-0.01172 0.004,-0.0039 0,-0.01562 0,-0.01953 0.004,-0.0039 0.008,-0.01563 0.008,-0.01953 0,-0.0039 0,-0.0078 0,-0.01172 -0.41406,-0.03516 -0.82422,-0.08594 -1.23437,-0.152343 -0.0742,0.03906 -0.14063,0.05859 -0.19141,0.0625 -0.0156,0 -0.0351,0 -0.0469,0 -0.004,0 -0.008,0 -0.0117,0 -0.004,0 -0.0117,-0.0078 -0.0117,-0.0078 -0.004,0 -0.0117,-0.0039 -0.0117,-0.0039 -0.004,-0.0039 -0.008,0 -0.008,0 0,-0.0039 -0.004,-0.0078 -0.004,-0.0078 -0.004,0 -0.0117,-0.0039 -0.0156,-0.0039 0,-0.0039 -0.004,-0.0078 -0.004,-0.0078 0,0 -0.004,-0.0039 -0.008,-0.0078 0,0 -0.004,-0.0039 -0.004,-0.0039 -0.14844,-0.167969 -0.0391,-0.722657 -0.25,-0.992188 -0.043,-0.05078 -0.0937,-0.09766 -0.16406,-0.121093 -0.3125,-0.02734 -0.44922,-0.08203 -0.48828,-0.160157 -0.0664,-0.15625 0.25,-0.410156 0.26172,-0.691406 0.16797,-0.226563 0.49609,-0.4375 0.6289,-0.695313 0.26953,-0.160156 0.22266,-0.605468 0.28516,-0.902343 0.12891,-0.34375 0.31641,-0.625 -0.0234,-0.898438 0.13281,-0.136719 0.28906,-0.265625 0.34766,-0.378906 0.004,-0.0078 0.008,-0.01953 0.0117,-0.03125 0,-0.0078 0.004,-0.01953 0.004,-0.02734 0,-0.0078 0,-0.01953 0,-0.02734 0,-0.01172 -0.008,-0.02734 -0.0117,-0.03906 -0.004,-0.01172 -0.0156,-0.02734 -0.0234,-0.03906 -0.004,-0.0039 -0.008,-0.0078 -0.0117,-0.01172 -0.043,-0.03906 -0.11328,-0.07813 -0.21875,-0.109375 -0.0117,0.0078 -0.0274,0.01172 -0.0391,0.01953 -0.004,0 -0.0156,0.0039 -0.0234,0.0039 -0.004,0.0039 -0.0117,0.0078 -0.0195,0.0078 -0.004,0 -0.0117,0.0039 -0.0156,0.0039 -0.008,0.0039 -0.0195,0 -0.0273,0 -0.28906,0.0039 -0.54688,-0.574219 -0.35547,-0.773437 0,0 0.004,-0.0039 0.004,-0.0039 0,0 0.004,-0.0039 0.008,-0.0078 0,0 0.008,-0.0039 0.0117,-0.0039 0,0 0.004,-0.0078 0.004,-0.0078 0.004,0 0.0117,-0.0039 0.0117,-0.0039 0.004,-0.0039 0.0117,-0.0078 0.0156,-0.0078 0.008,-0.0039 0.0273,-0.01563 0.0391,-0.01953 0.0156,-0.0039 0.0391,-0.0039 0.0547,-0.0039 0.0195,0 0.0391,0 0.0547,0 0,-0.01172 0,-0.02734 -0.004,-0.03516 0,-0.0039 -0.004,-0.01172 -0.008,-0.01563 0,0 -0.004,-0.0078 -0.004,-0.01172 -0.004,0 -0.004,-0.0078 -0.008,-0.01172 -0.1211,-0.199219 -0.67578,-0.08203 -0.79688,-0.109375 -0.004,0 -0.008,-0.0039 -0.0117,-0.0039 0,0 -0.004,0 -0.004,0 -0.004,0 0,-0.0078 0,-0.0078 0,0 0,-0.0039 0,-0.0039 0,-0.0039 0,-0.0078 0,-0.0078 0,0 -0.004,-0.0039 0,-0.0078 0.0156,-0.02734 0.0859,-0.07422 0.21875,-0.152344 0.16406,-0.234375 0.44531,-0.257812 0.53906,-0.363281 0.004,0 0.008,-0.0039 0.008,-0.0078 0.004,-0.0039 0.008,-0.01172 0.0117,-0.01562 0,-0.0039 0.004,-0.01172 0.008,-0.01172 0,-0.0039 -0.004,-0.0078 0,-0.0078 0,-0.0039 0.004,-0.0078 0.004,-0.01172 0,-0.0039 0,-0.01563 0,-0.01953 0,-0.0039 0,-0.01172 0,-0.01563 0,-0.0078 0.004,-0.02344 0,-0.03125 -0.46094,-0.3125 -0.35156,-0.917969 -0.23828,-1.371093 0.0703,-0.355469 0.32031,-0.621094 0.44531,-0.972657 0.0977,-0.117187 0.13672,-0.398437 0.21875,-0.535156 0.0156,-0.02344 0.0352,-0.04687 0.0547,-0.0625 0.0117,-0.0078 0.0312,-0.01563 0.043,-0.01563 0.0117,-0.0039 0.0312,0 0.043,0.0039 0.043,0.01172 0.0976,0.04297 0.15625,0.109375 0.52734,0.25 0.90234,0.671875 1.28515,1.097657 0.17188,0.0039 0.30078,0.07031 0.3711,0.167968 0.0937,0.136719 0.0898,0.335938 -0.0352,0.535156 0.17187,0.425782 0.58594,0.347657 0.88672,0.21875 0.125,0.03516 0.18359,0 0.21875,-0.05859 0.0547,-0.09375 0.0508,-0.265625 0.0976,-0.367188 0.008,-0.0078 0.0156,-0.01953 0.0195,-0.02734 0.008,-0.0078 0.0156,-0.01953 0.0234,-0.02734 0.0391,-0.02734 0.0937,-0.03516 0.17578,-0.01563 0.26172,-0.21875 0.3711,-0.441407 0.48829,-0.714844 -0.11719,-0.0078 -0.1836,-0.02344 -0.21094,-0.03906 -0.004,-0.0039 -0.008,-0.0078 -0.008,-0.0078 0,0 -0.004,-0.0039 -0.004,-0.0078 -0.004,0 0,-0.0039 0,-0.0039 0,0 -0.004,-0.0078 0,-0.0078 0,0 -0.004,-0.0039 0,-0.0039 0,-0.0039 0.008,-0.01172 0.0117,-0.01172 0,-0.0039 0.004,-0.0078 0.004,-0.0078 0.008,-0.0039 0.0195,-0.01172 0.0312,-0.01953 0.13672,-0.0625 0.4961,-0.136719 0.6211,-0.144531 0.55859,0.06641 0.47656,-0.335938 0.89453,-0.535157 0.0977,-0.08203 0.13672,-0.144531 0.13281,-0.1875 0,-0.01953 -0.0156,-0.04297 -0.0312,-0.05469 -0.0859,-0.08594 -0.33984,-0.113281 -0.41406,-0.183594 0,-0.0039 -0.004,-0.01172 -0.004,-0.01172 0,-0.0039 -0.004,-0.0078 -0.008,-0.0078 0,-0.0039 -0.004,-0.0078 -0.004,-0.01172 0,-0.0039 0,-0.01172 0,-0.01953 0.004,-0.01953 0.0195,-0.04297 0.0469,-0.07031 0.15234,-0.277344 0.50781,-0.433594 0.82812,-0.398438 0.3711,0.328125 0.9336,-0.1875 1.11329,-0.441406 0.25781,0.09375 0.47265,0.09375 0.61718,-0.03906 0.008,-0.0078 0.0274,-0.02344 0.0352,-0.03516 0.0352,-0.04297 0.0664,-0.101563 0.0898,-0.164063 0.21875,-0.203124 0.97266,-0.253906 0.67578,-0.621093 -0.043,-0.05469 -0.0625,-0.09766 -0.0664,-0.128907 0,0 0,-0.0039 0,-0.0039 0,-0.0039 0.008,-0.0078 0.008,-0.0078 0,0 0,-0.0039 0,-0.0039 0,-0.0039 0,-0.0078 0,-0.0078 0,0 0.004,-0.0039 0.004,-0.0078 0,0 0,-0.0039 0,-0.0039 0.008,-0.0078 0.0156,-0.01563 0.0273,-0.01953 0.14063,-0.06641 0.66406,0.144531 0.63672,0.453125 0,0.0078 -0.004,0.02344 -0.004,0.03516 -0.004,0.0078 -0.0117,0.01953 -0.0156,0.03125 0.35547,-0.07813 0.67969,0.378906 0.98047,0.1875 -0.082,-0.164062 -0.0781,-0.375 0.0391,-0.492187 0.0781,-0.07813 0.21094,-0.121094 0.39453,-0.08594 0.0898,-0.0078 0.13672,-0.03516 0.15625,-0.07813 0.0742,-0.179687 -0.30469,-0.582031 -0.15625,-0.785156 -0.0234,-0.109375 -0.008,-0.179688 0.0312,-0.226562 0.0937,-0.105469 0.3125,-0.07813 0.41406,-0.121094 0.0234,-0.01172 0.043,-0.03516 0.0469,-0.0625 0.004,-0.03125 -0.0156,-0.08203 -0.0586,-0.152344 -0.12109,-0.242188 -0.008,-0.574219 -0.21484,-0.84375 -0.0469,-0.140625 -0.0195,-0.238281 0.043,-0.304688 0.14062,-0.148437 0.45312,-0.1875 0.52734,-0.359374 0.0156,-0.01563 0.0312,-0.02734 0.043,-0.03516 0.008,-0.0039 0.0195,-0.01172 0.0274,-0.01172 0.004,-0.0039 0.0156,-0.0078 0.0234,-0.0078 0.004,0 0.0117,0 0.0195,0 0.004,0 0.0156,0.0039 0.0234,0.0078 0.0156,0.0039 0.0352,0.01953 0.0547,0.03516 0.13672,0.125 0.28516,0.453125 0.56641,0.371093 0.22656,-0.363281 0.69921,-0.464843 1.10546,-0.503906 z m 0,0"
     style="fill:#009e00;fill-opacity:1;fill-rule:nonzero;stroke:none" />
  <path
     style="clip-rule:nonzero;fill:none;stroke:#ffffff;stroke-width:1.5;stroke-linecap:butt;stroke-linejoin:miter;stroke-miterlimit:4;stroke-opacity:1"
     d="m 259.39679,0.78822665 -0.19532,1.64843805 -0.57812,1.554687 1.06641,4.453125 -0.29297,1.453125 -0.38282,1.5468753 0.1875,1.261719 -0.0898,1.160156 -0.58594,1.84375 0.39063,1.261719 0.67578,1.257812 -0.57813,1.261719 h -0.58593 l -1.0625,-0.585937 -2.51953,-0.386719 h -2.8086 l -0.48437,3.582031 -3,3.203125 -0.6836,2.609375 0.19532,3.390625 -0.67579,2.324219 0.0937,-0.08984 v 1.066406 h 1.64844 l 1.64844,0.285156 1.93359,0.777344 1.75,0.578125 2.12891,0.195313 1.83594,1.164062 -0.28907,1.0625 -0.96875,0.09766 -0.87109,1.261719 -0.29297,0.871094 0.29297,0.964844 2.22656,1.75 0.96875,0.386719 0.0977,2.421874 h 1.16406 v 0.675782 l 0.0977,1.839844 -0.0977,0.972656 0.77344,1.253906 0.19141,1.453125 -0.0977,2.230469 0.0977,1.941406 0.29296,3.097656 -0.67578,-0.390625 -0.875,-0.382812 -0.77343,-0.683594 -1.06641,0.09766 -0.86719,0.09766 -0.96875,0.683593 -1.26172,1.351563 -0.97265,1.257812 -0.96875,0.390625 -1.16016,0.292969 -1.06641,0.285156 -1.16406,0.292969 -1.73828,0.484375 -1.94141,-0.582031 -0.67578,-0.480469 -1.0664,-1.164062 -1.16016,-1.257813 -0.29297,-0.78125 -1.35937,-0.08984 -1.73828,-0.195312 -1.94141,1.546875 -0.19141,1.746094 0.19141,2.03125 -0.48047,1.9375 0.96484,1.84375 -0.38671,0.675781 -0.48047,1.355469 -0.87891,1.84375 0.39063,1.449218 1.93359,1.550782 1.07422,0.871093 1.0625,0.878907 1.0664,0.1875 0.96875,0.582031 0.77344,0.773437 1.45313,1.164063 1.55078,0.488281 1.16406,0.480469 h 1.0625 l 1.54688,0.679687 1.74609,1.453125 0.29297,1.546875 -0.77735,0.585938 v 1.355468 l -0.67578,1.449219 -0.48828,0.875 v 1.164063 l 0.6836,1.839844 -0.33204,1.683593 0.42969,0.738281 1.0625,0.867188 1.16406,-0.964844 2.70704,0.09766 1.07031,0.195313 0.77344,0.382813 1.55468,1.355468 c 0,0 0.67188,0.09766 1.25391,0.195313 0.57812,0.09766 1.25781,-0.480469 1.25781,-0.480469 l 0.97266,-2.234375 1.16406,-0.285156 1.74219,-0.195313 1.16015,0.675782 0.96875,-0.285157 1.64844,-0.878906 1.83985,-0.773437 2.03906,-0.484376 0.76953,-2.226562 0.57812,-0.386719 0.97657,-1.0625 1.25781,0.285157 1.54687,-0.382813 0.8711,-0.878906 0.97265,-0.1875 c 0,0 0.86719,0 1.54688,0 0.67578,0 1.94141,1.839843 1.94141,1.839843 l 1.16015,1.453126 c 0,0 1.7461,0.195312 2.13281,0.195312 0.38672,0 1.9336,0.578125 1.9336,0.578125 l 1.35937,1.648437 2.03125,-0.292968 h 2.12891 l 0.87891,1.9375 1.16015,0.195312 1.54688,0.195313 h 1.74609 l 0.87109,2.421875 1.35938,3.292968 1.16016,-2.132812 2.03125,0.09766 0.68359,2.51954 -0.19531,1.9375 2.03515,-0.19531 1.25782,1.0664 0.87109,1.35547 0.67969,1.45313 h 4.16406 l 0.48828,0.67578 0.67578,0.39062 1.84375,-0.0977 1.16016,-1.16407 0.1914,3.00391 1.07032,1.07031 1.54687,1.44922 2.22656,-0.19531 1.84375,-0.19141 1.64454,-1.45312 1.55078,-1.25782 1.35547,-1.55468 0.57812,-1.54297 -1.54297,-1.55469 -0.0976,-1.93359 0.19531,-1.16407 0.96484,-0.777346 0.38281,-1.066406 v -1.160156 l 0.87891,-1.066407 -0.0977,-1.066406 -0.68359,-0.871094 -1.64062,-1.648437 -1.06641,-0.871094 -0.875,-1.355469 -0.28906,-0.871093 -0.38672,-1.648438 v -2.226562 l 1.16015,-1.066407 1.26172,0.195313 v -1.359375 l 0.8711,-1.453125 -0.29297,-1.839844 -0.28516,-1.550781 1.35547,-1.933594 0.67578,-0.96875 1.35547,-1.164063 2.42578,-0.484374 1.16016,-0.390626 1.83984,1.164063 0.96485,0.964844 1.35937,-1.0625 0.96875,-0.871094 v -1.644531 l 1.25781,-0.582032 1.45703,-0.773437 0.38672,-1.164063 0.0977,-2.136718 1.44922,-0.773438 1.84375,-0.769531 2.03125,-1.164063 1.16406,-1.648437 1.55078,-1.359375 h 1.64453 l 1.94141,1.359375 1.06641,0.777344 0.57812,-0.777344 0.0977,-1.546875 -0.57813,-1.648438 2.12891,-0.773437 0.48047,0.578125 2.57031,-2.570312 -0.0391,-0.06641 -0.6875,-0.851562 h -0.8711 l -1.16015,-0.390625 -1.26172,-1.351563 -1.0625,-0.191406 -0.58594,-2.039063 -0.39062,-1.449218 -0.57813,-1.550782 v -2.230468 l -1.45312,-0.386719 -0.39063,-0.578125 -1.0625,-1.359375 -0.38672,-1.746094 -2.51953,-1.351562 -0.58203,-1.746094 0.67969,-0.871094 -0.0977,-4.941406 1.16406,-2.519531 1.16407,-2.128906 1.35546,-2.328126 -0.96875,-2.710937 v -1.449219 l -0.48437,-1.652344 -1.65234,-5.230468 -1.44532,-1.742188 -2.03906,1.164063 h -2.80859 l -1.35547,-1.554688 -2.12891,-0.292969 -0.29297,0.878907 -0.96875,0.480469 -0.39062,-1.261719 v -1.640625 l -1.45313,-1.359375 -2.03125,0.96875 -3.58593,-1.9375003 -1.45704,0.9687503 -1.93359,-0.484375 -1.55078,4.363281 -2.13281,1.542969 -0.86719,-0.769532 h -0.87109 l -0.78125,1.160157 -0.67579,-0.675781 h -0.48437 l -3.19531,0.285156 -3.48828,-0.671875 -0.96875,0.769531 h -2.12891 l -6.6875,-3.777344 -0.96875,-1.546875 -5.42188,-2.8125003 h -2.61718 l -0.19532,0.683594 -0.48046,0.964844 -3.48829,-0.289063 -0.48828,-0.675781 -1.16015,-0.78125 -1.64844,-0.867187 -2.41797,-0.292969 -2.8125,-0.578125 -1.83594,-2.519532 h -2.32812 l -3.77735,-1.84375 -1.74609,0.679688 -1.54687,-1.066406 -0.6836,3.003906 -2.22656,-0.097656 -1.45313,1.160156 -1.44921,-0.1875 0.96875,-1.746094 -1.26172,-1.9375 h -3.39063 L 262.88511,0.98351265 Z M 329.57647,44.135883 c 0.0156,-0.0039 0.0312,0 0.043,0 0.17969,0.105469 0.3711,0.191406 0.54297,0.316406 0.4375,0.132813 0.37891,0.535157 0.38672,0.90625 0.30078,0.429688 0.10156,0.992188 0.16016,1.484376 0.69531,0.488281 1.38672,0.980468 2.07031,1.492187 0.0898,0.128906 0.17969,0.15625 0.25391,0.125 0.16796,-0.07031 0.28125,-0.4375 0.24218,-0.632813 0.0117,-0.324218 -0.21484,-0.753906 -0.0898,-1.007812 0.60937,-0.07422 1.20312,0.132812 1.71484,0.449219 0.4961,0.179687 0.1211,0.566406 -0.0117,0.863281 -0.33984,0.390625 0.21875,0.492188 0.20313,0.871094 0.38672,0.125 0.48437,0.554687 0.94922,0.5 0.32812,-0.03125 0.64453,-0.203125 0.99609,-0.05469 -0.0625,0.617188 -0.32422,1.1875 -0.44922,1.792969 0.44141,-0.02344 0.45313,0.347656 0.82032,0.328125 -0.20313,0.5 -0.28907,1.03125 -0.36329,1.558594 0.0547,0.433594 -0.14453,0.800781 -0.32812,1.175781 -0.21094,0.316406 -0.29688,0.652344 -0.16016,1.015625 0.17578,0.375 0.13672,0.75 -0.0234,1.121094 0.19531,0.257812 -0.17969,0.578125 -0.0781,0.9375 0.0742,0.429687 0.75781,0.144531 0.53906,-0.214844 0.10547,0.0078 0.17188,0.02734 0.20703,0.05469 0.004,0.0039 0.008,0.0078 0.008,0.0078 0,0 0.004,0.0039 0.008,0.0039 0,0.0039 0.004,0.0078 0.004,0.0078 0,0 0.004,0.0039 0.008,0.0078 0,0 0.004,0.0039 0.004,0.0039 0,0 0,0.0039 0,0.0078 0.082,0.160156 -0.27343,0.492188 -0.13281,0.742188 0.008,0.01172 0.0195,0.02734 0.0312,0.04297 0.0274,0.03125 0.0703,0.06641 0.125,0.09766 0,0 0,0.0039 0,0.0039 0.004,0.07422 0.0742,0.234375 0.16016,0.335937 0.0391,0.04297 0.0859,0.07422 0.1289,0.08594 0.0117,0 0.0274,0 0.0391,0 0.0586,-0.01172 0.12109,-0.05859 0.17187,-0.179688 0.0195,0.07031 0.0469,0.121094 0.0742,0.152344 0.008,0.01172 0.0195,0.02344 0.0312,0.03125 0.008,0.0078 0.0195,0.01563 0.0273,0.01953 0.004,0 0.0117,0.0039 0.0117,0.0039 0.008,0.0039 0.0195,0.0078 0.0274,0.0078 0.004,0 0.0156,0 0.0234,0 0.008,0 0.0234,0 0.0312,0 0.1211,-0.01172 0.28125,-0.121094 0.46094,-0.214844 0.44141,-0.07031 0.45703,0.507813 0.21875,0.730469 0.27735,0.222656 0.3711,0.710937 0.1836,0.96875 0.0859,0.289063 0.082,0.460937 0.0234,0.554687 -0.004,0.0039 -0.008,0.01563 -0.0117,0.01953 0,0 -0.008,0.0078 -0.0117,0.01172 -0.008,0.0039 -0.0156,0.01172 -0.0234,0.01563 -0.004,0.0039 -0.0156,0.01172 -0.0195,0.01562 -0.29688,0.144532 -1.09375,-0.394531 -1.52735,-0.445312 -0.78515,-0.132812 -1.07031,-1.019531 -1.7539,-1.332031 -0.34766,-0.351563 -0.80469,-0.128907 -1.19141,0.01172 -0.35937,-0.117188 -0.54297,-0.144532 -0.82812,0.132812 -0.17188,-0.08984 -0.29688,-0.121094 -0.39063,-0.105469 -0.0195,0.0078 -0.0469,0.01563 -0.0664,0.02734 -0.008,0.0039 -0.0234,0.01172 -0.0312,0.01563 -0.10156,0.07031 -0.17578,0.207031 -0.27734,0.386719 -0.33594,0.214843 -0.44141,0.578125 -0.76953,0.777343 -0.36328,0.578126 -0.98438,0.476563 -1.625,0.476563 -0.34375,0.136719 0.10156,0.695313 -0.0117,1.003906 0.0391,0.195313 0.11719,0.378907 0.11719,0.480469 0,0.0039 -0.004,0.01172 -0.008,0.01563 0,0.0039 0.004,0.01172 0,0.01172 0,0.0039 -0.004,0.01172 -0.004,0.01563 0,0 0,0.0039 0,0.0039 0,0 -0.008,0.0039 -0.008,0.0078 -0.004,0.0039 -0.0117,0.01172 -0.0156,0.01562 -0.004,0.0039 -0.008,0.0078 -0.008,0.0078 -0.0117,0.0039 -0.0273,0.0039 -0.043,0.0039 -0.0625,0.0039 -0.16797,-0.01563 -0.32812,-0.07813 -0.39063,-0.375 -0.5,0.277344 -0.91797,0.07422 -0.0508,0.113281 -0.10157,0.175781 -0.14844,0.207031 -0.004,0.0039 -0.0117,0.0078 -0.0156,0.01172 -0.004,0.0039 -0.0156,0.0039 -0.0195,0.0078 -0.008,0 -0.0195,0 -0.0234,0 -0.004,0 -0.0156,0 -0.0195,0 -0.004,-0.0039 -0.0117,-0.0078 -0.0195,-0.0078 -0.004,0 -0.0156,-0.0039 -0.0234,-0.0078 -0.004,0 -0.0117,-0.0078 -0.0156,-0.01172 -0.10937,-0.06641 -0.23047,-0.234375 -0.39062,-0.328125 -0.5,-0.03516 -0.86329,-0.46875 -1.375,-0.382813 -0.54297,-0.171875 -1.16407,-0.171875 -1.63282,-0.511718 -0.48437,-0.222657 -1.04297,-0.277344 -1.53906,-0.5 -0.0195,0.01172 -0.0391,0.02734 -0.0547,0.04297 -0.1875,0.191406 -0.26172,0.625 -0.39062,0.890625 -0.0117,0.07422 -0.0312,0.128907 -0.0547,0.164063 -0.008,0.01172 -0.0234,0.02734 -0.0352,0.03516 -0.004,0 -0.004,0.0078 -0.008,0.0078 0,0 -0.008,0.0039 -0.0117,0.0039 -0.004,0.0039 -0.008,0.0078 -0.0117,0.0078 -0.004,0 -0.008,0 -0.0117,0 -0.004,0 -0.008,0.0039 -0.0117,0.0039 -0.0469,0.0078 -0.10157,-0.0039 -0.14844,0.0078 0,0 -0.008,0 -0.0117,0 0,0 -0.008,0.0039 -0.0117,0.0078 -0.004,0 -0.008,0.0039 -0.0117,0.0039 0,0 -0.004,0.0039 -0.004,0.0078 -0.0117,0.0039 -0.0234,0.01563 -0.0312,0.02734 -0.0312,0.04687 -0.0547,0.125 -0.0625,0.261719 -0.008,0.08984 -0.0352,0.144531 -0.0664,0.164062 -0.0117,0.01172 -0.0312,0.01172 -0.0469,0.01563 -0.17579,-0.0039 -0.49219,-0.386719 -0.63282,-0.5 0.0391,-0.222656 -0.0117,-0.335937 -0.10937,-0.394531 -0.13281,-0.07813 -0.34766,-0.07422 -0.55078,-0.125 -0.008,0.0078 -0.0195,0.01563 -0.0312,0.01953 0,0 -0.008,0.0039 -0.0117,0.0078 -0.36328,0.15625 -0.88281,-0.707032 -1.42188,-0.195313 -0.54297,0.484375 -1.42578,-0.167969 -1.99609,0.40625 -0.30078,0.164063 -0.66406,0.425781 -0.96094,0.203125 0.17578,-0.371094 0.6211,-0.292968 0.9375,-0.445312 0.19922,-0.04297 0.35156,-0.125 0.42578,-0.238282 0.004,-0.0078 0.0117,-0.01953 0.0156,-0.03125 0.0156,-0.02734 0.0273,-0.05859 0.0312,-0.08984 0.0117,-0.07813 -0.0117,-0.167969 -0.0664,-0.269531 -0.33203,0.05859 -0.66406,0.08203 -0.99219,0.152343 0.004,-0.371093 -0.42968,-0.574219 -0.48828,-0.953125 -0.0703,-0.07422 -0.10937,-0.136718 -0.12109,-0.183594 0,-0.0039 -0.004,-0.01562 -0.004,-0.01953 0,0 0,-0.0039 0,-0.0039 0,-0.0039 0,-0.0078 0,-0.0078 0,0 0,-0.0039 0,-0.0039 0,-0.0039 0,-0.0078 0,-0.0078 0,0 0.004,-0.0039 0.004,-0.0039 0,-0.0039 0,-0.0078 0,-0.0078 0,0 0,-0.0039 0,-0.0078 0.004,0 0.004,-0.0078 0.008,-0.01172 0,0 0.004,-0.0039 0.004,-0.0039 0.10547,-0.140626 0.66015,-0.08203 0.79687,-0.285157 0.004,-0.0078 0.0117,-0.01563 0.0117,-0.01953 0.004,-0.0039 0.008,-0.01172 0.008,-0.01172 0,-0.0039 0.004,-0.01172 0.004,-0.01172 0.004,-0.0039 0,-0.01562 0,-0.01953 0.004,-0.0039 0.008,-0.01563 0.008,-0.01953 0,-0.0039 0,-0.0078 0,-0.01172 -0.41406,-0.03516 -0.82422,-0.08594 -1.23437,-0.152343 -0.0742,0.03906 -0.14063,0.05859 -0.19141,0.0625 -0.0156,0 -0.0351,0 -0.0469,0 -0.004,0 -0.008,0 -0.0117,0 -0.004,0 -0.0117,-0.0078 -0.0117,-0.0078 -0.004,0 -0.0117,-0.0039 -0.0117,-0.0039 -0.004,-0.0039 -0.008,0 -0.008,0 0,-0.0039 -0.004,-0.0078 -0.004,-0.0078 -0.004,0 -0.0117,-0.0039 -0.0156,-0.0039 0,-0.0039 -0.004,-0.0078 -0.004,-0.0078 0,0 -0.004,-0.0039 -0.008,-0.0078 0,0 -0.004,-0.0039 -0.004,-0.0039 -0.14844,-0.167969 -0.0391,-0.722657 -0.25,-0.992188 -0.043,-0.05078 -0.0937,-0.09766 -0.16406,-0.121093 -0.3125,-0.02734 -0.44922,-0.08203 -0.48828,-0.160157 -0.0664,-0.15625 0.25,-0.410156 0.26172,-0.691406 0.16797,-0.226563 0.49609,-0.4375 0.6289,-0.695313 0.26953,-0.160156 0.22266,-0.605468 0.28516,-0.902343 0.12891,-0.34375 0.31641,-0.625 -0.0234,-0.898438 0.13281,-0.136719 0.28906,-0.265625 0.34766,-0.378906 0.004,-0.0078 0.008,-0.01953 0.0117,-0.03125 0,-0.0078 0.004,-0.01953 0.004,-0.02734 0,-0.0078 0,-0.01953 0,-0.02734 0,-0.01172 -0.008,-0.02734 -0.0117,-0.03906 -0.004,-0.01172 -0.0156,-0.02734 -0.0234,-0.03906 -0.004,-0.0039 -0.008,-0.0078 -0.0117,-0.01172 -0.043,-0.03906 -0.11328,-0.07813 -0.21875,-0.109375 -0.0117,0.0078 -0.0274,0.01172 -0.0391,0.01953 -0.004,0 -0.0156,0.0039 -0.0234,0.0039 -0.004,0.0039 -0.0117,0.0078 -0.0195,0.0078 -0.004,0 -0.0117,0.0039 -0.0156,0.0039 -0.008,0.0039 -0.0195,0 -0.0273,0 -0.28906,0.0039 -0.54688,-0.574219 -0.35547,-0.773437 0,0 0.004,-0.0039 0.004,-0.0039 0,0 0.004,-0.0039 0.008,-0.0078 0,0 0.008,-0.0039 0.0117,-0.0039 0,0 0.004,-0.0078 0.004,-0.0078 0.004,0 0.0117,-0.0039 0.0117,-0.0039 0.004,-0.0039 0.0117,-0.0078 0.0156,-0.0078 0.008,-0.0039 0.0273,-0.01563 0.0391,-0.01953 0.0156,-0.0039 0.0391,-0.0039 0.0547,-0.0039 0.0195,0 0.0391,0 0.0547,0 0,-0.01172 0,-0.02734 -0.004,-0.03516 0,-0.0039 -0.004,-0.01172 -0.008,-0.01563 0,0 -0.004,-0.0078 -0.004,-0.01172 -0.004,0 -0.004,-0.0078 -0.008,-0.01172 -0.1211,-0.199219 -0.67578,-0.08203 -0.79688,-0.109375 -0.004,0 -0.008,-0.0039 -0.0117,-0.0039 0,0 -0.004,0 -0.004,0 -0.004,0 0,-0.0078 0,-0.0078 0,0 0,-0.0039 0,-0.0039 0,-0.0039 0,-0.0078 0,-0.0078 0,0 -0.004,-0.0039 0,-0.0078 0.0156,-0.02734 0.0859,-0.07422 0.21875,-0.152344 0.16406,-0.234375 0.44531,-0.257812 0.53906,-0.363281 0.004,0 0.008,-0.0039 0.008,-0.0078 0.004,-0.0039 0.008,-0.01172 0.0117,-0.01562 0,-0.0039 0.004,-0.01172 0.008,-0.01172 0,-0.0039 -0.004,-0.0078 0,-0.0078 0,-0.0039 0.004,-0.0078 0.004,-0.01172 0,-0.0039 0,-0.01563 0,-0.01953 0,-0.0039 0,-0.01172 0,-0.01563 0,-0.0078 0.004,-0.02344 0,-0.03125 -0.46094,-0.3125 -0.35156,-0.917969 -0.23828,-1.371093 0.0703,-0.355469 0.32031,-0.621094 0.44531,-0.972657 0.0977,-0.117187 0.13672,-0.398437 0.21875,-0.535156 0.0156,-0.02344 0.0352,-0.04687 0.0547,-0.0625 0.0117,-0.0078 0.0312,-0.01563 0.043,-0.01563 0.0117,-0.0039 0.0312,0 0.043,0.0039 0.043,0.01172 0.0976,0.04297 0.15625,0.109375 0.52734,0.25 0.90234,0.671875 1.28515,1.097657 0.17188,0.0039 0.30078,0.07031 0.3711,0.167968 0.0937,0.136719 0.0898,0.335938 -0.0352,0.535156 0.17187,0.425782 0.58594,0.347657 0.88672,0.21875 0.125,0.03516 0.18359,0 0.21875,-0.05859 0.0547,-0.09375 0.0508,-0.265625 0.0976,-0.367188 0.008,-0.0078 0.0156,-0.01953 0.0195,-0.02734 0.008,-0.0078 0.0156,-0.01953 0.0234,-0.02734 0.0391,-0.02734 0.0937,-0.03516 0.17578,-0.01563 0.26172,-0.21875 0.3711,-0.441407 0.48829,-0.714844 -0.11719,-0.0078 -0.1836,-0.02344 -0.21094,-0.03906 -0.004,-0.0039 -0.008,-0.0078 -0.008,-0.0078 0,0 -0.004,-0.0039 -0.004,-0.0078 -0.004,0 0,-0.0039 0,-0.0039 0,0 -0.004,-0.0078 0,-0.0078 0,0 -0.004,-0.0039 0,-0.0039 0,-0.0039 0.008,-0.01172 0.0117,-0.01172 0,-0.0039 0.004,-0.0078 0.004,-0.0078 0.008,-0.0039 0.0195,-0.01172 0.0312,-0.01953 0.13672,-0.0625 0.4961,-0.136719 0.6211,-0.144531 0.55859,0.06641 0.47656,-0.335938 0.89453,-0.535157 0.0977,-0.08203 0.13672,-0.144531 0.13281,-0.1875 0,-0.01953 -0.0156,-0.04297 -0.0312,-0.05469 -0.0859,-0.08594 -0.33984,-0.113281 -0.41406,-0.183594 0,-0.0039 -0.004,-0.01172 -0.004,-0.01172 0,-0.0039 -0.004,-0.0078 -0.008,-0.0078 0,-0.0039 -0.004,-0.0078 -0.004,-0.01172 0,-0.0039 0,-0.01172 0,-0.01953 0.004,-0.01953 0.0195,-0.04297 0.0469,-0.07031 0.15234,-0.277344 0.50781,-0.433594 0.82812,-0.398438 0.3711,0.328125 0.9336,-0.1875 1.11329,-0.441406 0.25781,0.09375 0.47265,0.09375 0.61718,-0.03906 0.008,-0.0078 0.0274,-0.02344 0.0352,-0.03516 0.0352,-0.04297 0.0664,-0.101563 0.0898,-0.164063 0.21875,-0.203124 0.97266,-0.253906 0.67578,-0.621093 -0.043,-0.05469 -0.0625,-0.09766 -0.0664,-0.128907 0,0 0,-0.0039 0,-0.0039 0,-0.0039 0.008,-0.0078 0.008,-0.0078 0,0 0,-0.0039 0,-0.0039 0,-0.0039 0,-0.0078 0,-0.0078 0,0 0.004,-0.0039 0.004,-0.0078 0,0 0,-0.0039 0,-0.0039 0.008,-0.0078 0.0156,-0.01563 0.0273,-0.01953 0.14063,-0.06641 0.66406,0.144531 0.63672,0.453125 0,0.0078 -0.004,0.02344 -0.004,0.03516 -0.004,0.0078 -0.0117,0.01953 -0.0156,0.03125 0.35547,-0.07813 0.67969,0.378906 0.98047,0.1875 -0.082,-0.164062 -0.0781,-0.375 0.0391,-0.492187 0.0781,-0.07813 0.21094,-0.121094 0.39453,-0.08594 0.0898,-0.0078 0.13672,-0.03516 0.15625,-0.07813 0.0742,-0.179687 -0.30469,-0.582031 -0.15625,-0.785156 -0.0234,-0.109375 -0.008,-0.179688 0.0312,-0.226562 0.0937,-0.105469 0.3125,-0.07813 0.41406,-0.121094 0.0234,-0.01172 0.043,-0.03516 0.0469,-0.0625 0.004,-0.03125 -0.0156,-0.08203 -0.0586,-0.152344 -0.12109,-0.242188 -0.008,-0.574219 -0.21484,-0.84375 -0.0469,-0.140625 -0.0195,-0.238281 0.043,-0.304688 0.14062,-0.148437 0.45312,-0.1875 0.52734,-0.359374 0.0156,-0.01563 0.0312,-0.02734 0.043,-0.03516 0.008,-0.0039 0.0195,-0.01172 0.0274,-0.01172 0.004,-0.0039 0.0156,-0.0078 0.0234,-0.0078 0.004,0 0.0117,0 0.0195,0 0.004,0 0.0156,0.0039 0.0234,0.0078 0.0156,0.0039 0.0352,0.01953 0.0547,0.03516 0.13672,0.125 0.28516,0.453125 0.56641,0.371093 0.22656,-0.363281 0.69921,-0.464843 1.10546,-0.503906 z m 0,0"
     id="path37"
     inkscape:connector-curvature="0" />
  <path
     inkscape:connector-curvature="0"
     id="path41"
     d="m 329.61944,44.163227 c -0.41406,0.03906 -0.91406,0.132812 -1.14843,0.507812 -0.40625,0.117188 -0.53125,-0.625 -0.75391,-0.355468 -0.11328,0.25 -0.72656,0.210937 -0.57422,0.660156 0.20703,0.269531 0.0977,0.605469 0.21875,0.847656 0.28906,0.429688 -0.55859,0.02344 -0.43359,0.558594 -0.1836,0.257812 0.46093,0.820312 -0.004,0.867188 -0.47266,-0.08984 -0.57031,0.296874 -0.43359,0.570312 -0.30078,0.191406 -0.6211,-0.265625 -0.97266,-0.1875 0.15625,-0.460938 -0.93359,-0.734375 -0.58984,-0.332031 0.29687,0.367187 -0.46094,0.417969 -0.67969,0.621093 -0.11719,0.316407 -0.39063,0.371094 -0.74219,0.238282 -0.18359,0.253906 -0.74219,0.765625 -1.11328,0.441406 -0.32031,-0.03516 -0.67969,0.121094 -0.83203,0.398438 -0.26953,0.265624 0.77344,0.148437 0.28125,0.546874 -0.41797,0.199219 -0.33203,0.605469 -0.89453,0.539063 -0.20703,0.01563 -1.07813,0.195313 -0.44141,0.253906 -0.11719,0.269531 -0.22656,0.492188 -0.48437,0.707031 -0.44532,-0.101562 -0.0899,0.621094 -0.54297,0.5 -0.30078,0.125 -0.71094,0.207032 -0.88281,-0.214843 0.22265,-0.355469 0.0703,-0.695313 -0.33204,-0.707031 -0.38671,-0.421876 -0.76562,-0.847657 -1.28906,-1.09375 -0.35547,-0.386719 -0.35156,0.289062 -0.51953,0.496093 -0.125,0.351563 -0.36719,0.617188 -0.4375,0.976563 -0.11719,0.453125 -0.23047,1.058594 0.23047,1.371094 0.0508,0.226562 -0.35156,0.175781 -0.57031,0.484374 -0.73438,0.417969 0.58593,-0.06641 0.62109,0.363282 -0.57422,-0.03516 -0.125,1.042968 0.27344,0.796875 0.52344,0.164062 0.17187,0.386719 -0.0977,0.664062 0.33985,0.273438 0.15625,0.558594 0.0274,0.902344 -0.0664,0.296875 -0.0156,0.742187 -0.28516,0.902344 -0.13281,0.257812 -0.46094,0.464843 -0.62891,0.6875 -0.0234,0.429687 -0.72656,0.78125 0.22266,0.855469 0.57031,0.214843 0.0469,1.449218 0.73047,1.097656 0.41015,0.06641 0.82422,0.113281 1.23828,0.148437 -0.0234,0.417969 -1.23438,0.109375 -0.71875,0.636719 0.0586,0.378906 0.48828,0.589844 0.48437,0.960938 0.32813,-0.07031 0.66407,-0.101563 0.99219,-0.15625 0.1875,0.324218 -0.0195,0.542968 -0.40625,0.628906 -0.3164,0.152344 -0.76172,0.07422 -0.9375,0.441406 0.30078,0.222656 0.66406,-0.03906 0.96094,-0.199219 0.57422,-0.574219 1.45312,0.07813 2,-0.40625 0.55859,-0.535156 1.09375,0.429688 1.46484,0.171875 0.35547,0.08594 0.75391,0 0.66016,0.511719 0.19141,0.160156 0.70703,0.816406 0.74219,0.328125 0.0351,-0.609375 0.35156,-0.05859 0.42578,-0.539062 0.14453,-0.292969 0.21875,-0.785157 0.44531,-0.9375 0.5,0.21875 1.05859,0.277343 1.54297,0.5 0.46875,0.339843 1.09375,0.339843 1.63281,0.511718 0.51172,-0.08594 0.875,0.34375 1.3711,0.382813 0.30468,0.171875 0.45312,0.625 0.67578,0.128906 0.42187,0.207031 0.53125,-0.449219 0.92187,-0.07422 0.6211,0.238282 0.375,-0.07422 0.30078,-0.484375 0.10938,-0.308593 -0.33984,-0.863281 0.008,-1.003906 0.63671,0.0039 1.25781,0.101563 1.625,-0.476563 0.32812,-0.199218 0.43359,-0.566406 0.76562,-0.78125 0.21484,-0.363281 0.29688,-0.5625 0.76953,-0.320312 0.28516,-0.28125 0.46875,-0.25 0.82813,-0.136719 0.38672,-0.140625 0.84765,-0.359375 1.19531,-0.0078 0.68359,0.316406 0.96094,1.199219 1.74609,1.328125 0.61328,0.07422 1.95703,1.128906 1.57813,-0.167969 0.1875,-0.257813 0.0898,-0.742187 -0.1875,-0.964844 0.23437,-0.222656 0.22265,-0.804687 -0.21485,-0.730469 -0.33593,0.167969 -0.58593,0.386719 -0.6914,-0.01172 -0.19922,0.480468 -0.5,-0.08594 -0.5,-0.238282 -0.58594,-0.316406 0.42578,-0.925781 -0.25781,-0.976562 0.21484,0.355469 -0.46875,0.644531 -0.54688,0.214844 -0.0977,-0.359375 0.27734,-0.679688 0.0781,-0.9375 0.16406,-0.371094 0.20312,-0.742188 0.0273,-1.117188 -0.13672,-0.363281 -0.0547,-0.703125 0.15625,-1.015625 0.18359,-0.378906 0.38672,-0.75 0.33203,-1.179687 0.0781,-0.53125 0.15625,-1.058594 0.36328,-1.554688 -0.37109,0.01563 -0.3789,-0.355468 -0.82031,-0.332031 0.125,-0.605469 0.38281,-1.175781 0.44922,-1.792969 -0.35547,-0.148437 -0.66797,0.02344 -0.9961,0.05469 -0.46484,0.05469 -0.5664,-0.375 -0.95312,-0.5 0.0195,-0.382813 -0.53906,-0.484375 -0.19922,-0.871094 0.13281,-0.296875 0.50781,-0.683594 0.0156,-0.863281 -0.51172,-0.316407 -1.10938,-0.519531 -1.71875,-0.449219 -0.125,0.257812 0.10156,0.683594 0.0898,1.007812 0.0586,0.28125 -0.20313,0.933594 -0.5,0.503907 -0.67969,-0.507813 -1.37109,-1.003907 -2.07031,-1.492188 -0.0547,-0.492187 0.14453,-1.046875 -0.15235,-1.480469 -0.0117,-0.367187 0.043,-0.773437 -0.39453,-0.90625 -0.17187,-0.121093 -0.36328,-0.210937 -0.54297,-0.320312 z m 0,0"
     style="fill:#ff0000;fill-opacity:1;fill-rule:nonzero;stroke:#ffffff;stroke-width:1.5;stroke-linecap:butt;stroke-linejoin:miter;stroke-miterlimit:4;stroke-opacity:1" />
  <path
     inkscape:connector-curvature="0"
     id="path43"
     d="m 330.06476,118.35854 v -0.26953 l -0.0469,-0.0195 v -0.17187 l -0.043,-0.0195 v -0.043 l -0.0469,-0.0117 v -0.008 l -0.043,-0.008 v -0.008 l -0.0469,-0.008 v -0.004 l -0.0469,-0.004 v -0.004 h -0.043 v -0.004 h -0.0469 l -0.043,-0.004 h -0.13672 c -1.40625,1.44531 -3.35938,1.44531 -4.08594,1.44531 v 0.70312 c 0.45312,0 1.76953,0 2.94922,-0.58984 v 11.71094 c 0,0.8164 -0.0899,1.08593 -2.08594,1.08593 h -0.77344 v 0.70313 c 0.82032,-0.0742 2.76953,-0.0742 3.67578,-0.0742 0.91016,0 2.85938,0 3.67579,0.0742 v -0.70313 h -0.72657 c -2.03906,0 -2.08593,-0.25 -2.08593,-1.08593 z m 0,0"
     style="fill:#000000;fill-opacity:1;fill-rule:evenodd;stroke:none" />
  <path
     inkscape:connector-curvature="0"
     id="path45"
     d="m 215.73663,176.0226 2.35938,-2.32812 c 3.53906,-3.11719 4.90234,-4.33984 4.90234,-6.60547 0,-2.57422 -2.04297,-4.38672 -4.8125,-4.38672 -2.53906,0 -4.21875,2.08985 -4.21875,4.09766 0,1.26562 1.13672,1.26562 1.17969,1.26562 0.41015,0 1.17968,-0.26953 1.17968,-1.20312 0,-0.58203 -0.36328,-1.17188 -1.17968,-1.17188 -0.17969,0 -0.22657,0 -0.26953,0.0195 0.49609,-1.46875 1.72265,-2.30468 3.03906,-2.30468 2.04297,0 3.03906,1.83984 3.03906,3.68359 0,1.8125 -1.13281,3.60156 -2.40625,5.00391 l -4.30859,4.83593 c -0.27344,0.2461 -0.27344,0.28907 -0.27344,0.83594 h 8.39453 l 0.63672,-3.93747 h -0.58984 c -0.0898,0.6836 -0.27344,1.67578 -0.45313,2.01563 -0.18359,0.17968 -1.67969,0.17968 -2.17969,0.17968 z m 0,0"
     style="fill:#000000;fill-opacity:1;fill-rule:evenodd;stroke:none" />
  <path
     inkscape:connector-curvature="0"
     id="path47"
     d="m 294.74835,51.112446 0.13672,-0.05859 0.18359,-0.06641 0.17969,-0.07031 0.13672,-0.07422 0.17969,-0.08203 0.13671,-0.08594 0.1836,-0.09375 0.13281,-0.09766 0.27344,-0.203124 0.13672,-0.109376 0.13672,-0.113281 0.0898,-0.121093 0.13672,-0.121094 0.0898,-0.121094 0.13672,-0.132812 0.17969,-0.265626 0.0937,-0.136718 0.0898,-0.148438 0.0899,-0.144531 0.0469,-0.144531 0.0898,-0.148438 0.0469,-0.15625 0.043,-0.152344 0.0469,-0.15625 0.043,-0.15625 0.0937,-0.328124 v -0.496094 c 0,-1.851563 -1.95312,-3.121094 -4.1289,-3.121094 -2.31641,0 -3.9961,1.363281 -3.9961,3.078125 0,0.746094 0.45703,1.179687 1.13672,1.179687 0.67969,0 1.13281,-0.5 1.13281,-1.15625 0,-1.125 -1.04297,-1.125 -1.35937,-1.125 0.67969,-1.109374 2.17578,-1.410156 2.99219,-1.410156 0.91015,0 2.17968,0.5 2.17968,2.535156 0,0.273438 -0.0898,1.582032 -0.63672,2.582032 -0.67968,1.082031 -1.44921,1.144531 -2.03906,1.171875 -0.18359,0.02344 -0.72656,0.06641 -0.86328,0.06641 -0.18359,0.02344 -0.36328,0.04297 -0.36328,0.269531 0,0.246094 0.17969,0.246094 0.54297,0.246094 h 1 c 1.85937,0 2.72265,1.539062 2.72265,3.761719 0,3.066406 -1.58984,3.726562 -2.58593,3.726562 -0.95313,0 -2.67969,-0.382812 -3.44922,-1.714843 0.76953,0.109374 1.49609,-0.390626 1.49609,-1.25 0,-0.8125 -0.58984,-1.261719 -1.26953,-1.261719 -0.54297,0 -1.26953,0.3125 -1.26953,1.3125 0,2.054687 2.08594,3.542969 4.58203,3.542969 2.72266,0 4.80859,-2.054688 4.80859,-4.355469 0,-1.859375 -1.44921,-3.617188 -3.76562,-4.09375 z m 0,0"
     style="fill:#000000;fill-opacity:1;fill-rule:evenodd;stroke:none" />
  <path
     inkscape:connector-curvature="0"
     id="path49"
     d="m 209.4046,68.753071 v 1.960937 c 0,0.816407 -0.0469,1.066407 -1.72656,1.066407 h -0.5 v 0.699218 c 0.95312,-0.07031 2.13281,-0.07031 3.08593,-0.07031 0.95313,0 2.13282,0 3.03907,0.07031 v -0.699218 h -0.45313 c -1.67578,0 -1.72265,-0.25 -1.72265,-1.066407 v -1.960937 h 2.26953 v -0.703125 h -2.26953 V 57.760883 c 0,-0.453125 0,-0.585937 -0.36329,-0.585937 -0.22656,0 -0.27343,0 -0.45312,0.277343 l -6.94141,10.597657 h 0.63282 l 5.53515,-8.429688 v 8.429688 h -6.16797 v 0.703125 z m 0,0"
     style="fill:#000000;fill-opacity:1;fill-rule:evenodd;stroke:none" />
  <path
     inkscape:connector-curvature="0"
     id="path51"
     d="m 180.89679,132.55776 v -0.25 l -0.0469,-0.25 v -0.24219 l -0.043,-0.24218 -0.0469,-0.23829 -0.0469,-0.23046 -0.0898,-0.23047 -0.043,-0.22266 -0.0937,-0.21875 -0.0898,-0.21484 -0.0898,-0.20703 -0.13672,-0.19922 -0.0898,-0.19532 -0.13672,-0.1875 -0.13672,-0.17968 -0.13672,-0.17188 -0.17968,-0.16797 -0.13672,-0.15625 -0.13672,-0.14843 -0.17969,-0.13672 -0.18359,-0.13282 -0.17969,-0.12109 -0.18359,-0.10937 -0.17969,-0.10157 -0.22656,-0.0898 -0.1836,-0.0781 -0.22656,-0.0664 -0.17969,-0.0586 -0.22656,-0.043 -0.23047,-0.0312 -0.22656,-0.0195 -0.22656,-0.008 c -1.08594,0 -2.03907,0.36328 -2.85547,1.14844 v -4.40234 c 0.45312,0.13281 1.17969,0.28906 1.90234,0.28906 2.81641,0 4.35938,-2.05469 4.35938,-2.35156 0,-0.13672 -0.0469,-0.25 -0.23047,-0.25 0,0 -0.043,0 -0.17969,0.0703 -0.45312,0.20703 -1.54297,0.65234 -3.03906,0.65234 -0.91016,0 -1.95313,-0.15625 -3.04297,-0.6289 -0.17969,-0.0664 -0.22656,-0.0664 -0.26953,-0.0664 -0.1836,0 -0.1836,0.17969 -0.1836,0.53906 v 6.69531 c 0,0.40235 0,0.58594 0.27344,0.58594 0.17969,0 0.22656,-0.0703 0.31641,-0.20312 0.22656,-0.36328 1.08984,-1.58203 2.90625,-1.58203 1.17969,0 1.76953,1.04296 1.94922,1.44531 0.36328,0.83984 0.41015,1.71875 0.41015,2.85156 0,0.78516 0,2.14844 -0.58984,3.09766 -0.5,0.8789 -1.36328,1.46875 -2.40625,1.46875 -1.63281,0 -2.90234,-1.19922 -3.3125,-2.53125 0.0469,0.0195 0.13672,0.043 0.41016,0.043 0.72656,0 1.08593,-0.56641 1.08593,-1.10547 0,-0.54688 -0.35937,-1.10938 -1.08593,-1.10938 -0.36329,0 -1.13672,0.15625 -1.13672,1.19922 0,1.94531 1.54297,4.13281 4.08593,4.13281 2.62891,0 4.94532,-2.16797 4.94532,-5.03906 z m 0,0"
     style="fill:#000000;fill-opacity:1;fill-rule:evenodd;stroke:none" />
  <path
     inkscape:connector-curvature="0"
     id="path53"
     d="m 269.87335,125.29604 v -0.53906 c 0,-5.72266 2.8125,-6.53906 3.94922,-6.53906 0.54297,0 1.49609,0.13672 1.99609,0.91015 -0.3164,0 -1.22656,0 -1.22656,1.01172 0,0.70313 0.54687,1.04297 1,1.04297 0.40625,0 1.04297,-0.20703 1.04297,-1.08594 0,-1.35937 -0.95313,-2.44531 -2.85938,-2.44531 -2.90234,0 -5.9414,2.92188 -5.9414,7.91406 0,6.03907 2.6289,7.64063 4.71875,7.64063 2.53906,0 4.67187,-2.125 4.67187,-5.10547 0,-2.87109 -1.99609,-5.04687 -4.53906,-5.04687 v 0.52343 c 0.36328,0 1.41016,0 2.08984,1.40625 0.40625,0.82813 0.40625,1.98438 0.40625,3.08985 0,1.08593 0,2.21875 -0.36328,3.03515 -0.67969,1.35156 -1.72265,1.46485 -2.26562,1.46485 -1.40625,0 -2.08985,-1.35157 -2.22657,-1.69141 -0.40625,-1.0625 -0.40625,-2.87109 -0.40625,-3.28125 0,-1.76172 0.72657,-4.02344 2.76563,-4.02344 v -0.52343 c -1.53906,0 -2.35938,1.15625 -2.8125,2.24218 z m 0,0"
     style="fill:#000000;fill-opacity:1;fill-rule:evenodd;stroke:none" />
  <path
     inkscape:connector-curvature="0"
     id="path55"
     d="m 93.537409,136.49135 0.04297,-0.0273 v -0.0195 l 0.04687,-0.0234 v -0.0586 l 0.04687,-0.0234 v -0.0547 l 0.04297,-0.0195 v -0.1289 l 0.04687,-0.0234 v -0.41016 h -5.492187 c -2.765626,0 -2.8125,-0.29297 -2.902344,-0.71875 h -0.546875 l -0.769531,4.64844 h 0.589843 c 0.04687,-0.36328 0.273438,-1.78516 0.542969,-2.05469 0.136719,-0.13672 1.90625,-0.13672 2.226562,-0.13672 h 4.671876 c -0.273438,0.36328 -2.042969,2.82813 -2.539063,3.57813 -2.042969,3.04297 -2.769531,6.1914 -2.769531,8.49609 0,0.22656 0,1.23828 1.042968,1.23828 1.042969,0 1.042969,-1.01172 1.042969,-1.23828 v -1.15625 c 0,-1.23828 0.04687,-2.48828 0.226563,-3.70703 0.09376,-0.51582 0.410169,-2.46114 1.410169,-3.86348 z m 0,0"
     style="fill:#000000;fill-opacity:1;fill-rule:evenodd;stroke:none" />
  <path
     inkscape:connector-curvature="0"
     id="path57"
     d="m 18.150691,141.0812 0.136718,-0.082 0.179688,-0.0781 0.410156,-0.25781 0.136719,-0.0898 0.136719,-0.0937 0.136718,-0.0898 0.08984,-0.0937 0.136719,-0.10156 0.132813,-0.0937 0.09375,-0.10547 0.08984,-0.10156 0.136719,-0.10547 0.08984,-0.10547 0.179687,-0.21875 0.04687,-0.11328 0.08984,-0.11328 0.09375,-0.11719 0.04297,-0.11719 0.08984,-0.125 0.04688,-0.11718 0.04687,-0.125 0.04297,-0.125 0.04687,-0.13282 0.04297,-0.125 v -0.13281 l 0.04687,-0.12891 v -0.41406 c 0,-2.08203 -1.996094,-3.375 -4.039062,-3.375 l -0.04297,0.56641 c 1.675781,0 3.085937,1.17969 3.085937,2.80859 0,1.28516 -0.863281,2.36719 -2.226562,3.16406 l -2.8125,-1.80859 c -0.996094,-0.67969 -1.132813,-1.44531 -1.132813,-1.83203 0,-1.37891 1.496094,-2.33203 3.085938,-2.33203 l 0.04297,-0.56641 c -2.269532,0 -4.082032,1.67188 -4.082032,3.77735 0,0.40625 0,1.42578 0.953125,2.49218 0.269531,0.26953 1.089844,0.83594 1.679688,1.21485 l 0.496093,0.33984 2.816407,1.76172 c 0.632812,0.42969 1.675781,1.11328 1.675781,2.48828 0,1.67188 -1.675781,2.84766 -3.539062,2.84766 -1.949219,0 -3.582032,-1.40235 -3.582032,-3.26953 0,-1.3125 0.722656,-2.76172 2.628906,-3.82813 l -0.496093,-0.33984 c -1.316407,0.65625 -3.269531,1.92578 -3.269531,4.16797 0,2.39453 2.316406,3.90625 4.675781,3.90625 2.585937,0 4.71875,-1.88282 4.71875,-4.29688 0,-0.8125 -0.273438,-1.82812 -1.089844,-2.78125 -0.453125,-0.47656 -0.816406,-0.70312 -2.269531,-1.60156 z m 0,0"
     style="fill:#000000;fill-opacity:1;fill-rule:evenodd;stroke:none" />
  <path
     inkscape:connector-curvature="0"
     id="path59"
     d="m 331.76007,52.651508 v 0.769531 c 0,5.640626 -2.51563,6.75 -3.92188,6.75 -0.38672,0 -1.6914,-0.04687 -2.32031,-0.867187 1.01563,0 1.20703,-0.695313 1.20703,-1.113281 0,-0.738282 -0.57812,-1.101563 -1.11328,-1.101563 -0.33594,0 -1.0625,0.210938 -1.0625,1.15625 0,1.609375 1.30469,2.601563 3.33984,2.601563 3.09375,0 6.04688,-3.273438 6.04688,-8.460938 0,-6.488281 -2.75781,-8.128906 -4.93359,-8.128906 -1.3086,0 -2.51954,0.4375 -3.53516,1.523438 -1.01563,1.082031 -1.54688,2.101562 -1.54688,3.90625 0,3.007812 2.12891,5.375 4.83985,5.375 v -0.550782 c -0.38672,0 -1.5,0 -2.22656,-1.519531 -0.4375,-0.890625 -0.4375,-2.101563 -0.4375,-3.28125 0,-1.300781 0,-2.433594 0.48437,-3.328125 0.67969,-1.203125 1.59766,-1.519531 2.42188,-1.519531 1.10937,0 1.93359,0.824219 2.32031,1.90625 0.29297,0.773437 0.38672,2.292969 0.38672,3.402343 0,1.996094 -0.82032,4.339844 -2.94922,4.339844 v 0.550782 c 1.44922,0 2.46484,-1.011719 3,-2.410157 z m 0,0"
     style="fill:#000000;fill-opacity:1;fill-rule:evenodd;stroke:none" />
  <path
     inkscape:connector-curvature="0"
     id="path61"
     d="m 151.78741,154.38979 0.0469,-0.0273 v -0.0195 l 0.043,-0.0234 v -0.0586 l 0.0469,-0.0234 v -0.0547 l 0.0469,-0.0195 v -0.12891 l 0.043,-0.0234 v -0.41016 h -5.48828 c -2.76953,0 -2.8164,-0.29297 -2.90625,-0.71875 h -0.54297 l -0.77343,4.64844 h 0.58984 c 0.0469,-0.36328 0.27344,-1.78516 0.54688,-2.05469 0.13671,-0.13672 1.90625,-0.13672 2.22265,-0.13672 h 4.67188 c -0.26953,0.36328 -2.03907,2.82813 -2.53907,3.57813 -2.04296,3.04296 -2.76953,6.1914 -2.76953,8.49609 0,0.22656 0,1.23828 1.04688,1.23828 1.04297,0 1.04297,-1.01172 1.04297,-1.23828 v -1.15625 c 0,-1.23828 0.043,-2.48438 0.22656,-3.70703 0.0898,-0.51563 0.40625,-2.46094 1.40625,-3.85938 z m 0,0"
     style="fill:#000000;fill-opacity:1;fill-rule:evenodd;stroke:none" />
  <g
     id="g4841"
     transform="translate(-10.201594,-10.770142)">
    <rect
       ry="2.5361652"
       rx="2.5361652"
       y="11.558369"
       x="10.201594"
       height="15.574444"
       width="15.574444"
       id="rect4771"
       style="fill:#ff0000;fill-opacity:1;stroke:none;stroke-width:0.375;stroke-linecap:round;stroke-linejoin:round;stroke-miterlimit:4;stroke-dasharray:none;stroke-dashoffset:0;stroke-opacity:1" />
    <rect
       style="fill:#009e00;fill-opacity:1;stroke:none;stroke-width:0.375;stroke-linecap:round;stroke-linejoin:round;stroke-miterlimit:4;stroke-dasharray:none;stroke-dashoffset:0;stroke-opacity:1"
       id="rect4775"
       width="15.574444"
       height="15.574444"
       x="10.201594"
       y="31.058369"
       rx="2.5361652"
       ry="2.5361652" />
    <rect
       ry="2.5361652"
       rx="2.5361652"
       y="50.558369"
       x="10.201594"
       height="15.574444"
       width="15.574444"
       id="rect4777"
       style="fill:#0082ff;fill-opacity:1;stroke:none;stroke-width:0.375;stroke-linecap:round;stroke-linejoin:round;stroke-miterlimit:4;stroke-dasharray:none;stroke-dashoffset:0;stroke-opacity:1" />
    <path
       style="font-style:normal;font-variant:normal;font-weight:normal;font-stretch:normal;letter-spacing:normal;word-spacing:normal;text-anchor:start;fill:#000000;fill-opacity:1;fill-rule:evenodd;stroke:#000000;stroke-width:0;stroke-linecap:butt;stroke-linejoin:miter;stroke-miterlimit:10.43299961;stroke-dasharray:none;stroke-dashoffset:0;stroke-opacity:1"
       inkscape:connector-curvature="0"
       d="m 18.546854,15.077944 v -0.01674 -0.01395 -0.01395 -0.01395 -0.01395 -0.01395 -0.01116 -0.01395 -0.01116 -0.01116 -0.01116 -0.01116 -0.01116 l -0.0279,-0.01116 v -0.0084 -0.01116 -0.01674 -0.01674 -0.01395 -0.01395 -0.01395 -0.01116 l -0.0279,-0.01116 v -0.01116 -0.0084 -0.0084 l -0.0279,-0.0056 v -0.0056 l -0.0279,-0.0056 v -0.0028 -0.0028 0 l -0.0279,-0.0028 v -0.0028 0 l -0.0279,-0.0028 v 0 -0.0028 h -0.0279 v 0 -0.0028 h -0.0279 v 0 0 l -0.0279,-0.0028 v 0 h -0.0279 v 0 h -0.02791 v 0 h -0.0279 c -0.865007,0.89012 -2.064855,0.89012 -2.51131,0.89012 v 0.432504 c 0.279035,0 1.088234,0 1.813724,-0.362745 v 7.201878 c 0,0.502262 -0.05581,0.666893 -1.283558,0.666893 h -0.47436 v 0.432503 c 0.502262,-0.04465 1.702111,-0.04465 2.260179,-0.04465 0.558069,0 1.757917,0 2.260179,0.04465 v -0.432318 h -0.446455 c -1.255655,0 -1.283558,-0.153469 -1.283558,-0.666893 z"
       id="path4813" />
    <path
       style="font-style:normal;font-variant:normal;font-weight:normal;font-stretch:normal;letter-spacing:normal;word-spacing:normal;text-anchor:start;fill:#000000;fill-opacity:1;fill-rule:evenodd;stroke:#000000;stroke-width:0;stroke-linecap:butt;stroke-linejoin:miter;stroke-miterlimit:10.43299961;stroke-dasharray:none;stroke-dashoffset:0;stroke-opacity:1"
       inkscape:connector-curvature="0"
       d="m 16.300658,42.404674 1.450979,-1.431446 c 2.176469,-1.916967 3.013572,-2.667569 3.013572,-4.059951 0,-1.584916 -1.255655,-2.698263 -2.957765,-2.698263 -1.562593,0 -2.59502,1.283558 -2.59502,2.519681 0,0.778506 0.697586,0.778506 0.725489,0.778506 0.251131,0 0.72549,-0.167421 0.72549,-0.739442 0,-0.359954 -0.223228,-0.722699 -0.72549,-0.722699 -0.111614,0 -0.139517,0 -0.16742,0.01395 0.306937,-0.904072 1.06033,-1.417495 1.86953,-1.417495 1.255655,0 1.869531,1.13009 1.869531,2.26576 0,1.113347 -0.697586,2.212743 -1.478883,3.074959 l -2.650827,2.974509 c -0.16742,0.150679 -0.16742,0.178582 -0.16742,0.513424 h 5.162137 l 0.390648,-2.419229 h -0.362745 c -0.05581,0.418552 -0.167421,1.029637 -0.279034,1.238913 -0.111614,0.108823 -1.032428,0.108823 -1.339366,0.108823 z"
       id="path4815" />
    <path
       style="font-style:normal;font-variant:normal;font-weight:normal;font-stretch:normal;letter-spacing:normal;word-spacing:normal;text-anchor:start;fill:#000000;fill-opacity:1;fill-rule:evenodd;stroke:#000000;stroke-width:0;stroke-linecap:butt;stroke-linejoin:miter;stroke-miterlimit:10.43299961;stroke-dasharray:none;stroke-dashoffset:0;stroke-opacity:1"
       inkscape:connector-curvature="0"
       d="m 18.56084,57.932617 0.08371,-0.03627 0.111614,-0.04185 0.111613,-0.04186 0.08371,-0.04743 0.111614,-0.05023 0.08371,-0.05302 0.111614,-0.05581 0.08371,-0.06139 0.08371,-0.06139 0.08371,-0.06418 0.08371,-0.06697 0.08371,-0.06976 0.05581,-0.07255 0.08371,-0.07534 0.05581,-0.07534 0.08371,-0.08092 0.05581,-0.08092 0.05581,-0.08371 0.05581,-0.08371 0.05581,-0.08929 0.05581,-0.08929 0.0279,-0.08929 0.05581,-0.09208 0.0279,-0.09487 0.0279,-0.09487 0.0279,-0.09487 0.0279,-0.09766 0.0279,-0.100452 0.0279,-0.100453 V 55.68639 55.585938 55.482695 c 0,-1.138461 -1.199848,-1.919757 -2.539213,-1.919757 -1.423076,0 -2.455503,0.837103 -2.455503,1.891854 0,0.460406 0.279034,0.725489 0.697586,0.725489 0.418551,0 0.697586,-0.306938 0.697586,-0.711538 0,-0.692005 -0.641779,-0.692005 -0.837103,-0.692005 0.418551,-0.680844 1.339365,-0.865007 1.841627,-0.865007 0.558069,0 1.339365,0.306938 1.339365,1.557012 0,0.170211 -0.05581,0.97383 -0.390648,1.587706 -0.418552,0.666892 -0.89291,0.705957 -1.255655,0.722699 -0.111614,0.01395 -0.446455,0.03907 -0.530166,0.03907 -0.111613,0.01395 -0.223227,0.0279 -0.223227,0.167421 0,0.150678 0.111614,0.150678 0.334841,0.150678 h 0.613876 c 1.144041,0 1.674207,0.945927 1.674207,2.313196 0,1.886273 -0.976621,2.290872 -1.590497,2.290872 -0.585972,0 -1.646303,-0.234388 -2.120661,-1.05475 0.474358,0.06697 0.920813,-0.239969 0.920813,-0.767344 0,-0.499472 -0.362744,-0.775716 -0.781296,-0.775716 -0.334841,0 -0.781297,0.192534 -0.781297,0.806409 0,1.264026 1.283559,2.179259 2.818248,2.179259 1.674207,0 2.957765,-1.264026 2.957765,-2.67873 0,-1.144041 -0.89291,-2.223905 -2.315986,-2.516891 z"
       id="path4817" />
  </g>
</svg>
