<?xml version="1.0" encoding="UTF-8" standalone="no"?>
<!-- Uploaded to: SVG Repo, www.svgrepo.com, Generator: SVG Repo Mixer Tools -->

<svg
   xmlns:dc="http://purl.org/dc/elements/1.1/"
   xmlns:cc="http://creativecommons.org/ns#"
   xmlns:rdf="http://www.w3.org/1999/02/22-rdf-syntax-ns#"
   xmlns:svg="http://www.w3.org/2000/svg"
   xmlns="http://www.w3.org/2000/svg"
   xmlns:sodipodi="http://sodipodi.sourceforge.net/DTD/sodipodi-0.dtd"
   xmlns:inkscape="http://www.inkscape.org/namespaces/inkscape"
   width="800px"
   height="800px"
   viewBox="0 0 64 64"
   aria-hidden="true"
   role="img"
   class="iconify iconify--emojione"
   preserveAspectRatio="xMidYMid meet"
   version="1.1"
   id="svg68"
   sodipodi:docname="realsandwich.svg"
   inkscape:version="0.92.5 (2060ec1f9f, 2020-04-08)">
  <metadata
     id="metadata74">
    <rdf:RDF>
      <cc:Work
         rdf:about="">
        <dc:format>image/svg+xml</dc:format>
        <dc:type
           rdf:resource="http://purl.org/dc/dcmitype/StillImage" />
        <dc:title></dc:title>
      </cc:Work>
    </rdf:RDF>
  </metadata>
  <defs
     id="defs72">
    <marker
       inkscape:isstock="true"
       style="overflow:visible"
       id="marker4096"
       refX="0"
       refY="0"
       orient="auto"
       inkscape:stockid="Arrow2Mend">
      <path
         transform="scale(-0.6)"
         d="M 8.7185878,4.0337352 -2.2072895,0.01601326 8.7185884,-4.0017078 c -1.7454984,2.3720609 -1.7354408,5.6174519 -6e-7,8.035443 z"
         style="fill:#000000;fill-opacity:1;fill-rule:evenodd;stroke:#000000;stroke-width:0.625;stroke-linejoin:round;stroke-opacity:1"
         id="path4094"
         inkscape:connector-curvature="0" />
    </marker>
    <marker
       inkscape:isstock="true"
       style="overflow:visible"
       id="marker7735"
       refX="0"
       refY="0"
       orient="auto"
       inkscape:stockid="Arrow2Mend">
      <path
         transform="scale(-0.6)"
         d="M 8.7185878,4.0337352 -2.2072895,0.01601326 8.7185884,-4.0017078 c -1.7454984,2.3720609 -1.7354408,5.6174519 -6e-7,8.035443 z"
         style="fill:#000000;fill-opacity:1;fill-rule:evenodd;stroke:#000000;stroke-width:0.625;stroke-linejoin:round;stroke-opacity:1"
         id="path7733"
         inkscape:connector-curvature="0" />
    </marker>
    <marker
       inkscape:stockid="Arrow2Mend"
       orient="auto"
       refY="0"
       refX="0"
       id="marker6487"
       style="overflow:visible"
       inkscape:isstock="true">
      <path
         id="path6485"
         style="fill:#000000;fill-opacity:1;fill-rule:evenodd;stroke:#000000;stroke-width:0.625;stroke-linejoin:round;stroke-opacity:1"
         d="M 8.7185878,4.0337352 -2.2072895,0.01601326 8.7185884,-4.0017078 c -1.7454984,2.3720609 -1.7354408,5.6174519 -6e-7,8.035443 z"
         transform="scale(-0.6)"
         inkscape:connector-curvature="0" />
    </marker>
    <marker
       inkscape:stockid="Arrow2Mend"
       orient="auto"
       refY="0"
       refX="0"
       id="marker4523"
       style="overflow:visible"
       inkscape:isstock="true">
      <path
         id="path4521"
         style="fill:#000000;fill-opacity:1;fill-rule:evenodd;stroke:#000000;stroke-width:0.625;stroke-linejoin:round;stroke-opacity:1"
         d="M 8.7185878,4.0337352 -2.2072895,0.01601326 8.7185884,-4.0017078 c -1.7454984,2.3720609 -1.7354408,5.6174519 -6e-7,8.035443 z"
         transform="scale(-0.6)"
         inkscape:connector-curvature="0" />
    </marker>
    <marker
       inkscape:stockid="Arrow2Mend"
       orient="auto"
       refY="0"
       refX="0"
       id="marker16998"
       style="overflow:visible"
       inkscape:isstock="true">
      <path
         inkscape:connector-curvature="0"
         id="path16996"
         style="fill:#000000;fill-opacity:1;fill-rule:evenodd;stroke:#000000;stroke-width:0.625;stroke-linejoin:round;stroke-opacity:1"
         d="M 8.7185878,4.0337352 -2.2072895,0.01601326 8.7185884,-4.0017078 c -1.7454984,2.3720609 -1.7354408,5.6174519 -6e-7,8.035443 z"
         transform="scale(-0.6)" />
    </marker>
    <marker
       inkscape:stockid="Arrow2Mend"
       orient="auto"
       refY="0"
       refX="0"
       id="marker7311"
       style="overflow:visible"
       inkscape:isstock="true">
      <path
         id="path7309"
         style="fill:#000000;fill-opacity:1;fill-rule:evenodd;stroke:#000000;stroke-width:0.625;stroke-linejoin:round;stroke-opacity:1"
         d="M 8.7185878,4.0337352 -2.2072895,0.01601326 8.7185884,-4.0017078 c -1.7454984,2.3720609 -1.7354408,5.6174519 -6e-7,8.035443 z"
         transform="scale(-0.6)"
         inkscape:connector-curvature="0" />
    </marker>
    <marker
       inkscape:isstock="true"
       style="overflow:visible"
       id="marker6893"
       refX="0"
       refY="0"
       orient="auto"
       inkscape:stockid="Arrow2Mend">
      <path
         transform="scale(-0.6)"
         d="M 8.7185878,4.0337352 -2.2072895,0.01601326 8.7185884,-4.0017078 c -1.7454984,2.3720609 -1.7354408,5.6174519 -6e-7,8.035443 z"
         style="fill:#000000;fill-opacity:1;fill-rule:evenodd;stroke:#000000;stroke-width:0.625;stroke-linejoin:round;stroke-opacity:1"
         id="path6891"
         inkscape:connector-curvature="0" />
    </marker>
    <marker
       inkscape:stockid="Arrow2Mend"
       orient="auto"
       refY="0"
       refX="0"
       id="marker3311"
       style="overflow:visible"
       inkscape:isstock="true">
      <path
         id="path3309"
         style="fill:#000000;fill-opacity:1;fill-rule:evenodd;stroke:#000000;stroke-width:0.625;stroke-linejoin:round;stroke-opacity:1"
         d="M 8.7185878,4.0337352 -2.2072895,0.01601326 8.7185884,-4.0017078 c -1.7454984,2.3720609 -1.7354408,5.6174519 -6e-7,8.035443 z"
         transform="scale(-0.6)"
         inkscape:connector-curvature="0" />
    </marker>
    <marker
       inkscape:isstock="true"
       style="overflow:visible"
       id="marker5293"
       refX="0"
       refY="0"
       orient="auto"
       inkscape:stockid="Arrow2Mend">
      <path
         transform="scale(-0.6)"
         d="M 8.7185878,4.0337352 -2.2072895,0.01601326 8.7185884,-4.0017078 c -1.7454984,2.3720609 -1.7354408,5.6174519 -6e-7,8.035443 z"
         style="fill:#000000;fill-opacity:1;fill-rule:evenodd;stroke:#000000;stroke-width:0.625;stroke-linejoin:round;stroke-opacity:1"
         id="path5291"
         inkscape:connector-curvature="0" />
    </marker>
    <marker
       inkscape:stockid="Arrow2Mend"
       orient="auto"
       refY="0"
       refX="0"
       id="marker10703"
       style="overflow:visible"
       inkscape:isstock="true">
      <path
         inkscape:connector-curvature="0"
         id="path10701"
         style="fill:#000000;fill-opacity:1;fill-rule:evenodd;stroke:#000000;stroke-width:0.625;stroke-linejoin:round;stroke-opacity:1"
         d="M 8.7185878,4.0337352 -2.2072895,0.01601326 8.7185884,-4.0017078 c -1.7454984,2.3720609 -1.7354408,5.6174519 -6e-7,8.035443 z"
         transform="scale(-0.6)" />
    </marker>
    <marker
       inkscape:stockid="Arrow2Mend"
       orient="auto"
       refY="0"
       refX="0"
       id="marker6081"
       style="overflow:visible"
       inkscape:isstock="true">
      <path
         id="path6079"
         style="fill:#000000;fill-opacity:1;fill-rule:evenodd;stroke:#000000;stroke-width:0.625;stroke-linejoin:round;stroke-opacity:1"
         d="M 8.7185878,4.0337352 -2.2072895,0.01601326 8.7185884,-4.0017078 c -1.7454984,2.3720609 -1.7354408,5.6174519 -6e-7,8.035443 z"
         transform="scale(-0.6)"
         inkscape:connector-curvature="0" />
    </marker>
    <marker
       inkscape:stockid="Arrow2Mend"
       orient="auto"
       refY="0"
       refX="0"
       id="marker3726"
       style="overflow:visible"
       inkscape:isstock="true">
      <path
         id="path3724"
         style="fill:#000000;fill-opacity:1;fill-rule:evenodd;stroke:#000000;stroke-width:0.625;stroke-linejoin:round;stroke-opacity:1"
         d="M 8.7185878,4.0337352 -2.2072895,0.01601326 8.7185884,-4.0017078 c -1.7454984,2.3720609 -1.7354408,5.6174519 -6e-7,8.035443 z"
         transform="scale(-0.6)"
         inkscape:connector-curvature="0" />
    </marker>
    <marker
       inkscape:isstock="true"
       style="overflow:visible"
       id="marker5687"
       refX="0"
       refY="0"
       orient="auto"
       inkscape:stockid="Arrow2Mend">
      <path
         transform="scale(-0.6)"
         d="M 8.7185878,4.0337352 -2.2072895,0.01601326 8.7185884,-4.0017078 c -1.7454984,2.3720609 -1.7354408,5.6174519 -6e-7,8.035443 z"
         style="fill:#000000;fill-opacity:1;fill-rule:evenodd;stroke:#000000;stroke-width:0.625;stroke-linejoin:round;stroke-opacity:1"
         id="path5685"
         inkscape:connector-curvature="0" />
    </marker>
    <marker
       inkscape:stockid="Arrow2Mend"
       orient="auto"
       refY="0"
       refX="0"
       id="marker4911"
       style="overflow:visible"
       inkscape:isstock="true">
      <path
         id="path4909"
         style="fill:#000000;fill-opacity:1;fill-rule:evenodd;stroke:#000000;stroke-width:0.625;stroke-linejoin:round;stroke-opacity:1"
         d="M 8.7185878,4.0337352 -2.2072895,0.01601326 8.7185884,-4.0017078 c -1.7454984,2.3720609 -1.7354408,5.6174519 -6e-7,8.035443 z"
         transform="scale(-0.6)"
         inkscape:connector-curvature="0" />
    </marker>
    <marker
       inkscape:isstock="true"
       style="overflow:visible"
       id="marker12595"
       refX="0"
       refY="0"
       orient="auto"
       inkscape:stockid="Arrow2Mend">
      <path
         inkscape:connector-curvature="0"
         transform="scale(-0.6)"
         d="M 8.7185878,4.0337352 -2.2072895,0.01601326 8.7185884,-4.0017078 c -1.7454984,2.3720609 -1.7354408,5.6174519 -6e-7,8.035443 z"
         style="fill:#000000;fill-opacity:1;fill-rule:evenodd;stroke:#000000;stroke-width:0.625;stroke-linejoin:round;stroke-opacity:1"
         id="path12593" />
    </marker>
  </defs>
  <sodipodi:namedview
     pagecolor="#ffffff"
     bordercolor="#666666"
     borderopacity="1"
     objecttolerance="10"
     gridtolerance="10"
     guidetolerance="10"
     inkscape:pageopacity="0"
     inkscape:pageshadow="2"
     inkscape:window-width="1848"
     inkscape:window-height="1016"
     id="namedview70"
     showgrid="false"
     inkscape:zoom="0.834386"
     inkscape:cx="298.20619"
     inkscape:cy="310.68482"
     inkscape:window-x="72"
     inkscape:window-y="27"
     inkscape:window-maximized="1"
     inkscape:current-layer="svg68" />
  <g
     id="g4846">
    <path
       sodipodi:nodetypes="cssc"
       style="fill:#265e7f;fill-opacity:1"
       inkscape:connector-curvature="0"
       id="path2"
       d="M 62,44.5 C 62,56.5 51.1,63.534062 32.2,63.534062 13.2,63.534062 2.4,56.5 2.4,44.5 2.4,26.9 62,26.9 62,44.5" />
    <path
       id="path4"
       d="M 61.8,36.2 C 61.8,48.2 51,53.7 32.1,53.7 13.3,53.7 2.4,48.2 2.4,36.2 2.5,18.7 61.8,18.7 61.8,36.2"
       inkscape:connector-curvature="0"
       style="fill:#ba8443" />
    <path
       id="path6"
       d="m 2.4,36.5 c 0,-5 5.9,-11.9 29.8,-11.9 23.9,0 29.8,7 29.8,11.9 0,9.1 -8.4,15.7 -29.8,15.7 C 10.8,52.2 2.4,45.6 2.4,36.5"
       inkscape:connector-curvature="0"
       style="fill:#826046" />
    <path
       id="path8"
       d="m 3,31.3 c 0,-5 5.8,-11.9 29.2,-11.9 23.4,0 29.2,7 29.2,11.9 C 61.4,40.4 53.2,47 32.2,47 11.2,47 3,40.4 3,31.3 Z"
       inkscape:connector-curvature="0"
       style="fill:#68472c" />
    <path
       id="path10"
       d="m 3.2,24.8 c 1.4,-3 5.1,-3.2 17.1,1.9 12,5.1 14.3,7.8 12.9,10.9 -2.6,5.5 -9.7,9.6 -20.5,5 C 1.9,38 0.5,30.4 3.2,24.8"
       inkscape:connector-curvature="0"
       style="fill:#78b373;fill-opacity:1" />
    <path
       id="path12"
       d="m 4.2,21.4 c 1.4,-3 5.1,-3.2 17.1,1.9 12,5.1 14.3,7.8 12.9,10.9 -2.6,5.5 -9.7,9.6 -20.5,5 C 2.9,34.6 1.5,26.9 4.2,21.4"
       inkscape:connector-curvature="0"
       style="fill:#d33b23" />
    <path
       id="path14"
       d="m 29.3,34.5 c -0.8,-3.2 2,-5.5 14.9,-8.3 12.9,-2.8 16.4,-2 17.2,1.3 1.5,5.9 -1.5,13.2 -13.1,15.7 -11.5,2.5 -17.6,-2.8 -19,-8.7"
       inkscape:connector-curvature="0"
       style="fill:#78b373;fill-opacity:1" />
    <path
       id="path16"
       d="M 28,31.3 C 27.2,28.1 30,25.8 42.9,23 55.8,20.2 59.3,21 60.1,24.3 61.6,30.2 58.6,37.5 47,40 35.5,42.5 29.5,37.2 28,31.3"
       inkscape:connector-curvature="0"
       style="fill:#78b373;fill-opacity:1" />
    <path
       id="path18"
       d="m 9.7,30.9 20,19.2 19.6,-19.2 z"
       inkscape:connector-curvature="0"
       style="fill:#ffe62e" />
    <path
       id="path20"
       d="m 60.7,25.9 c 0,0 0.9,3.4 0,4.4 -0.8,0.9 -3.3,-0.1 -4.4,0.7 -1,0.7 -0.7,3.4 -1.9,4 -1.1,0.6 -3.2,-1.1 -4.4,-0.6 -1.1,0.4 -1.5,3.1 -2.7,3.5 -1.2,0.3 -3,-1.7 -4.2,-1.5 -1.2,0.2 -2,2.8 -3.3,3 -1.2,0.2 -2.7,-2.1 -4,-2 -1.2,0.1 -2.4,2.5 -3.7,2.5 -1.3,0 -2.4,-2.5 -3.7,-2.5 -1.3,-0.1 -2.7,2.2 -4,2 -1.3,-0.2 -2.1,-2.7 -3.3,-3 -1.3,-0.3 -3,1.8 -4.2,1.5 -1.2,-0.4 -1.6,-3 -2.7,-3.5 C 13,33.9 10.8,35.6 9.8,35 8.6,34.4 8.9,31.7 7.9,31 6.8,30.2 4.3,31.2 3.5,30.3 c -0.9,-1 0,-4.4 0,-4.4 h 57.2"
       inkscape:connector-curvature="0"
       style="fill:#78b373;fill-opacity:1" />
    <path
       id="path22"
       d="M 62,23.4 C 62,29.9 48.7,33.1 32.2,33.1 15.7,33.1 2.4,29.9 2.4,23.4 2.4,11.6 15.7,2 32.2,2 48.7,2 62,11.6 62,23.4 Z"
       inkscape:connector-curvature="0"
       style="fill:#f50045;fill-opacity:1" />
    <g
       style="fill:#ffc17a"
       id="g66">
      <path
         inkscape:connector-curvature="0"
         id="path24"
         d="m 16.3,14.4 -1.6,1.5 -1.5,-1.5 1.5,-1.5 z" />
      <path
         inkscape:connector-curvature="0"
         id="path26"
         d="M 23.7,12 22.2,13.5 20.7,12 22.2,10.5 Z" />
      <path
         inkscape:connector-curvature="0"
         id="path28"
         d="m 28,18.8 -1.6,1.5 -1.5,-1.5 1.5,-1.5 z" />
      <path
         inkscape:connector-curvature="0"
         id="path30"
         d="m 33.2,13.4 -1,1 -1,-1 1,-1 z" />
      <path
         inkscape:connector-curvature="0"
         id="path32"
         d="m 51.9,17.3 -1,1 -1,-1 1,-1 z" />
      <path
         inkscape:connector-curvature="0"
         id="path34"
         d="m 58.1,18.3 -1,1 -1,-1 1,-1 z" />
      <path
         inkscape:connector-curvature="0"
         id="path36"
         d="m 46.4,11 -1,1 -1,-1 1,-1 z" />
      <path
         inkscape:connector-curvature="0"
         id="path38"
         d="m 15.9,9.7 -1,1 -1,-1 1,-1 z" />
      <path
         inkscape:connector-curvature="0"
         id="path40"
         d="m 10.5,14.4 -1,1 -1,-1 1,-1 z" />
      <path
         inkscape:connector-curvature="0"
         id="path42"
         d="m 16.8,21.1 -1,1 -1.1,-1 1.1,-1 z" />
      <path
         inkscape:connector-curvature="0"
         id="path44"
         d="m 28.5,5.7 -1,1 -1.1,-1 1.1,-1 z" />
      <path
         inkscape:connector-curvature="0"
         id="path46"
         d="m 38,4.7 -1,1 -1,-1 1,-1 z" />
      <path
         inkscape:connector-curvature="0"
         id="path48"
         d="m 22.2,6.7 -1,1 -1,-1 1,-1 z" />
      <path
         inkscape:connector-curvature="0"
         id="path50"
         d="m 50.9,9.1 -1,1 -1,-1 1,-1 z" />
      <path
         inkscape:connector-curvature="0"
         id="path52"
         d="M 40,21.7 38.5,23.2 37,21.7 38.5,20.2 Z" />
      <path
         inkscape:connector-curvature="0"
         id="path54"
         d="M 37.6,14 36.1,15.5 34.6,14 36.1,12.5 Z" />
      <path
         inkscape:connector-curvature="0"
         id="path56"
         d="M 43.2,8.2 41.7,9.7 40.2,8.2 41.7,6.7 Z" />
      <path
         inkscape:connector-curvature="0"
         id="path58"
         d="m 47.6,14.7 -1.5,1.5 -1.6,-1.5 1.6,-1.5 z" />
      <path
         inkscape:connector-curvature="0"
         id="path60"
         d="M 54,12.5 52.5,14 50.9,12.5 52.5,11 Z" />
      <path
         inkscape:connector-curvature="0"
         id="path62"
         d="m 49.1,21.3 -1.5,1.5 -1.5,-1.5 1.5,-1.5 z" />
      <path
         inkscape:connector-curvature="0"
         id="path64"
         d="M 12.5,18.7 11,20.2 9.5,18.7 11,17.2 Z" />
    </g>
  </g>
</svg>
