<?xml version="1.0" encoding="UTF-8" standalone="no"?>
<!-- Created with Inkscape (http://www.inkscape.org/) -->

<svg
   xmlns:ns1="http://www.iki.fi/pav/software/textext/"
   xmlns:dc="http://purl.org/dc/elements/1.1/"
   xmlns:cc="http://creativecommons.org/ns#"
   xmlns:rdf="http://www.w3.org/1999/02/22-rdf-syntax-ns#"
   xmlns:svg="http://www.w3.org/2000/svg"
   xmlns="http://www.w3.org/2000/svg"
   xmlns:sodipodi="http://sodipodi.sourceforge.net/DTD/sodipodi-0.dtd"
   xmlns:inkscape="http://www.inkscape.org/namespaces/inkscape"
   width="172.17821mm"
   height="33.685917mm"
   viewBox="0 0 172.17821 33.685917"
   version="1.1"
   id="svg8"
   inkscape:version="0.92.3 (2405546, 2018-03-11)"
   sodipodi:docname="impact_of_tk_2.svg">
  <sodipodi:namedview
     id="base"
     pagecolor="#ffffff"
     bordercolor="#666666"
     borderopacity="1.0"
     inkscape:pageopacity="0.0"
     inkscape:pageshadow="2"
     inkscape:zoom="0.98994949"
     inkscape:cx="379.06407"
     inkscape:cy="-7.2320184"
     inkscape:document-units="mm"
     inkscape:current-layer="layer1"
     showgrid="true"
     showguides="false"
     inkscape:window-width="1299"
     inkscape:window-height="704"
     inkscape:window-x="67"
     inkscape:window-y="27"
     inkscape:window-maximized="1"
     fit-margin-top="0"
     fit-margin-left="0"
     fit-margin-right="0"
     fit-margin-bottom="0">
    <inkscape:grid
       originy="-222.52917"
       originx="-14.540909"
       id="grid815"
       type="xygrid" />
  </sodipodi:namedview>
  <defs
     id="defs2">
    <marker
       inkscape:stockid="Arrow2Mend"
       orient="auto"
       refY="0"
       refX="0"
       id="marker2758"
       style="overflow:visible"
       inkscape:isstock="true">
      <path
         inkscape:connector-curvature="0"
         id="path2756"
         style="fill:#000000;fill-opacity:1;fill-rule:evenodd;stroke:#000000;stroke-width:0.625;stroke-linejoin:round;stroke-opacity:1"
         d="M 8.7185878,4.0337352 -2.2072895,0.01601326 8.7185884,-4.0017078 c -1.7454984,2.3720609 -1.7354408,5.6174519 -6e-7,8.035443 z"
         transform="scale(-0.6)" />
    </marker>
    <marker
       inkscape:isstock="true"
       style="overflow:visible"
       id="marker2718"
       refX="0"
       refY="0"
       orient="auto"
       inkscape:stockid="Arrow2Mend"
       inkscape:collect="always">
      <path
         inkscape:connector-curvature="0"
         transform="scale(-0.6)"
         d="M 8.7185878,4.0337352 -2.2072895,0.01601326 8.7185884,-4.0017078 c -1.7454984,2.3720609 -1.7354408,5.6174519 -6e-7,8.035443 z"
         style="fill:#000000;fill-opacity:1;fill-rule:evenodd;stroke:#000000;stroke-width:0.625;stroke-linejoin:round;stroke-opacity:1"
         id="path2716" />
    </marker>
    <marker
       inkscape:stockid="Arrow2Mend"
       orient="auto"
       refY="0"
       refX="0"
       id="marker2682"
       style="overflow:visible"
       inkscape:isstock="true"
       inkscape:collect="always">
      <path
         inkscape:connector-curvature="0"
         id="path2680"
         style="fill:#000000;fill-opacity:1;fill-rule:evenodd;stroke:#000000;stroke-width:0.625;stroke-linejoin:round;stroke-opacity:1"
         d="M 8.7185878,4.0337352 -2.2072895,0.01601326 8.7185884,-4.0017078 c -1.7454984,2.3720609 -1.7354408,5.6174519 -6e-7,8.035443 z"
         transform="scale(-0.6)" />
    </marker>
    <marker
       inkscape:isstock="true"
       style="overflow:visible"
       id="marker2648"
       refX="0"
       refY="0"
       orient="auto"
       inkscape:stockid="Arrow2Mend"
       inkscape:collect="always">
      <path
         inkscape:connector-curvature="0"
         transform="scale(-0.6)"
         d="M 8.7185878,4.0337352 -2.2072895,0.01601326 8.7185884,-4.0017078 c -1.7454984,2.3720609 -1.7354408,5.6174519 -6e-7,8.035443 z"
         style="fill:#000000;fill-opacity:1;fill-rule:evenodd;stroke:#000000;stroke-width:0.625;stroke-linejoin:round;stroke-opacity:1"
         id="path2646" />
    </marker>
    <marker
       inkscape:stockid="Arrow2Mend"
       orient="auto"
       refY="0"
       refX="0"
       id="marker1452"
       style="overflow:visible"
       inkscape:isstock="true"
       inkscape:collect="always">
      <path
         inkscape:connector-curvature="0"
         id="path1450"
         style="fill:#000000;fill-opacity:1;fill-rule:evenodd;stroke:#000000;stroke-width:0.625;stroke-linejoin:round;stroke-opacity:1"
         d="M 8.7185878,4.0337352 -2.2072895,0.01601326 8.7185884,-4.0017078 c -1.7454984,2.3720609 -1.7354408,5.6174519 -6e-7,8.035443 z"
         transform="scale(-0.6)" />
    </marker>
    <marker
       inkscape:stockid="Arrow2Mend"
       orient="auto"
       refY="0"
       refX="0"
       id="marker1400"
       style="overflow:visible"
       inkscape:isstock="true">
      <path
         inkscape:connector-curvature="0"
         id="path1398"
         style="fill:#000000;fill-opacity:1;fill-rule:evenodd;stroke:#000000;stroke-width:0.625;stroke-linejoin:round;stroke-opacity:1"
         d="M 8.7185878,4.0337352 -2.2072895,0.01601326 8.7185884,-4.0017078 c -1.7454984,2.3720609 -1.7354408,5.6174519 -6e-7,8.035443 z"
         transform="scale(-0.6)" />
    </marker>
    <marker
       inkscape:stockid="Arrow2Mend"
       orient="auto"
       refY="0"
       refX="0"
       id="marker1354"
       style="overflow:visible"
       inkscape:isstock="true">
      <path
         inkscape:connector-curvature="0"
         id="path1352"
         style="fill:#000000;fill-opacity:1;fill-rule:evenodd;stroke:#000000;stroke-width:0.625;stroke-linejoin:round;stroke-opacity:1"
         d="M 8.7185878,4.0337352 -2.2072895,0.01601326 8.7185884,-4.0017078 c -1.7454984,2.3720609 -1.7354408,5.6174519 -6e-7,8.035443 z"
         transform="scale(-0.6)" />
    </marker>
    <marker
       inkscape:isstock="true"
       style="overflow:visible"
       id="marker1160"
       refX="0"
       refY="0"
       orient="auto"
       inkscape:stockid="Arrow2Mend">
      <path
         inkscape:connector-curvature="0"
         transform="scale(-0.6)"
         d="M 8.7185878,4.0337352 -2.2072895,0.01601326 8.7185884,-4.0017078 c -1.7454984,2.3720609 -1.7354408,5.6174519 -6e-7,8.035443 z"
         style="fill:#000000;fill-opacity:1;fill-rule:evenodd;stroke:#000000;stroke-width:0.625;stroke-linejoin:round;stroke-opacity:1"
         id="path1158" />
    </marker>
    <marker
       inkscape:collect="always"
       inkscape:isstock="true"
       style="overflow:visible"
       id="Arrow2Mend"
       refX="0"
       refY="0"
       orient="auto"
       inkscape:stockid="Arrow2Mend">
      <path
         inkscape:connector-curvature="0"
         transform="scale(-0.6)"
         d="M 8.7185878,4.0337352 -2.2072895,0.01601326 8.7185884,-4.0017078 c -1.7454984,2.3720609 -1.7354408,5.6174519 -6e-7,8.035443 z"
         style="fill:#000000;fill-opacity:1;fill-rule:evenodd;stroke:#000000;stroke-width:0.625;stroke-linejoin:round;stroke-opacity:1"
         id="path903" />
    </marker>
  </defs>
  <metadata
     id="metadata5">
    <rdf:RDF>
      <cc:Work
         rdf:about="">
        <dc:format>image/svg+xml</dc:format>
        <dc:type
           rdf:resource="http://purl.org/dc/dcmitype/StillImage" />
        <dc:title></dc:title>
      </cc:Work>
    </rdf:RDF>
  </metadata>
  <g
     transform="translate(-14.540908,-40.784912)"
     id="layer1"
     inkscape:groupmode="layer"
     inkscape:label="Layer 1">
    <rect
       y="58.345829"
       x="63.5"
       height="15.875"
       width="15.875"
       id="rect817"
       style="opacity:1;fill:none;fill-opacity:1;fill-rule:nonzero;stroke:#000000;stroke-width:0.5;stroke-linecap:round;stroke-linejoin:round;stroke-miterlimit:4;stroke-dasharray:none;stroke-dashoffset:0;stroke-opacity:1;paint-order:markers fill stroke" />
    <rect
       style="opacity:1;fill:none;fill-opacity:1;fill-rule:nonzero;stroke:#000000;stroke-width:0.5;stroke-linecap:round;stroke-linejoin:round;stroke-miterlimit:4;stroke-dasharray:none;stroke-dashoffset:0;stroke-opacity:1;paint-order:markers fill stroke"
       id="rect836"
       width="15.875"
       height="15.875"
       x="127"
       y="58.345829" />
    <g
       id="g1635"
       transform="translate(40.575753,-5.820834)">
      <g
         id="g854"
         transform="translate(71.777668,-0.28348541)">
        <circle
           r="2.6458333"
           cy="72.38765"
           cx="56.979912"
           id="circle848"
           style="opacity:1;fill:none;fill-opacity:1;fill-rule:nonzero;stroke:#000000;stroke-width:0.5;stroke-linecap:round;stroke-linejoin:round;stroke-miterlimit:4;stroke-dasharray:none;stroke-dashoffset:0;stroke-opacity:1;paint-order:markers fill stroke" />
        <path
           inkscape:connector-curvature="0"
           id="path850"
           d="m 54.334079,72.38765 h 5.291666"
           style="fill:none;stroke:#000000;stroke-width:0.26458332px;stroke-linecap:butt;stroke-linejoin:miter;stroke-opacity:1" />
        <path
           style="fill:none;stroke:#000000;stroke-width:0.26458332px;stroke-linecap:butt;stroke-linejoin:miter;stroke-opacity:1"
           d="m 56.979912,69.741817 v 5.291666"
           id="path852"
           inkscape:connector-curvature="0" />
      </g>
    </g>
    <g
       id="g1621"
       transform="translate(-15.875001,-5.820834)">
      <g
         id="g830"
         transform="translate(-4.0632453,-0.28348541)">
        <circle
           r="2.6458333"
           cy="72.38765"
           cx="56.979912"
           id="path819"
           style="opacity:1;fill:none;fill-opacity:1;fill-rule:nonzero;stroke:#000000;stroke-width:0.5;stroke-linecap:round;stroke-linejoin:round;stroke-miterlimit:4;stroke-dasharray:none;stroke-dashoffset:0;stroke-opacity:1;paint-order:markers fill stroke" />
        <path
           inkscape:connector-curvature="0"
           id="path821"
           d="m 54.334079,72.38765 h 5.291666"
           style="fill:none;stroke:#000000;stroke-width:0.26458332px;stroke-linecap:butt;stroke-linejoin:miter;stroke-opacity:1" />
        <path
           style="fill:none;stroke:#000000;stroke-width:0.26458332px;stroke-linecap:butt;stroke-linejoin:miter;stroke-opacity:1"
           d="m 56.979912,69.741817 v 5.291666"
           id="path825"
           inkscape:connector-curvature="0" />
      </g>
      <path
         style="fill:none;stroke:#000000;stroke-width:0.26499999;stroke-linecap:butt;stroke-linejoin:miter;stroke-miterlimit:4;stroke-dasharray:none;stroke-opacity:1;marker-end:url(#Arrow2Mend)"
         d="m 52.916666,53.583334 v 15.875"
         id="path864"
         inkscape:connector-curvature="0" />
      <circle
         id="path866"
         style="fill:#000000;stroke:none"
         cx="52.916668"
         cy="53.583332"
         r="1.5" />
    </g>
    <g
       id="g1629"
       transform="translate(12.350377,-5.820834)">
      <g
         transform="translate(33.857211,-0.28348541)"
         id="g846">
        <circle
           style="opacity:1;fill:none;fill-opacity:1;fill-rule:nonzero;stroke:#000000;stroke-width:0.5;stroke-linecap:round;stroke-linejoin:round;stroke-miterlimit:4;stroke-dasharray:none;stroke-dashoffset:0;stroke-opacity:1;paint-order:markers fill stroke"
           id="circle840"
           cx="56.979912"
           cy="72.38765"
           r="2.6458333" />
        <path
           style="fill:none;stroke:#000000;stroke-width:0.26458332px;stroke-linecap:butt;stroke-linejoin:miter;stroke-opacity:1"
           d="m 54.334079,72.38765 h 5.291666"
           id="path842"
           inkscape:connector-curvature="0" />
        <path
           inkscape:connector-curvature="0"
           id="path844"
           d="m 56.979912,69.741817 v 5.291666"
           style="fill:none;stroke:#000000;stroke-width:0.26458332px;stroke-linecap:butt;stroke-linejoin:miter;stroke-opacity:1" />
      </g>
      <path
         style="fill:none;stroke:#000000;stroke-width:0.26458332px;stroke-linecap:butt;stroke-linejoin:miter;stroke-opacity:1;marker-end:url(#marker1160)"
         d="m 90.837123,53.583334 v 15.875"
         id="path868"
         inkscape:connector-curvature="0" />
      <circle
         id="path870"
         style="fill:#000000;stroke:none"
         cx="90.83712"
         cy="53.583336"
         r="1.5" />
    </g>
    <g
       id="g2632"
       transform="translate(-30.348109,-81.228359)">
      <g
         transform="matrix(0.81051481,0,0,0.81051481,-23.314161,40.438022)"
         style="fill:#000000;fill-opacity:1"
         id="g1542">
        <path
           inkscape:connector-curvature="0"
           style="stroke:none;stroke-width:0"
           d="m 3.734375,-6.125 c 0.0625,-0.234375 0.09375,-0.328125 0.28125,-0.359375 C 4.109375,-6.5 4.421875,-6.5 4.625,-6.5 c 0.703125,0 1.8125,0 1.8125,0.984375 0,0.34375 -0.15625,1.03125 -0.546875,1.421875 -0.265625,0.25 -0.78125,0.578125 -1.6875,0.578125 H 3.09375 Z m 1.4375,2.734375 c 1.015625,-0.21875 2.1875,-0.921875 2.1875,-1.921875 0,-0.859375 -0.890625,-1.5 -2.203125,-1.5 H 2.328125 c -0.203125,0 -0.296875,0 -0.296875,0.203125 C 2.03125,-6.5 2.125,-6.5 2.3125,-6.5 c 0.015625,0 0.203125,0 0.375,0.015625 0.1875,0.03125 0.265625,0.03125 0.265625,0.171875 0,0.03125 0,0.0625 -0.03125,0.1875 l -1.34375,5.34375 C 1.484375,-0.390625 1.46875,-0.3125 0.671875,-0.3125 0.5,-0.3125 0.40625,-0.3125 0.40625,-0.109375 0.40625,0 0.53125,0 0.546875,0 c 0.28125,0 0.984375,-0.03125 1.25,-0.03125 0.28125,0 1,0.03125 1.28125,0.03125 0.078125,0 0.1875,0 0.1875,-0.203125 0,-0.109375 -0.078125,-0.109375 -0.28125,-0.109375 -0.359375,0 -0.640625,0 -0.640625,-0.171875 0,-0.0625 0.015625,-0.109375 0.03125,-0.171875 l 0.65625,-2.640625 h 1.1875 c 0.90625,0 1.078125,0.5625 1.078125,0.90625 0,0.140625 -0.078125,0.453125 -0.140625,0.6875 C 5.09375,-1.421875 5,-1.0625 5,-0.859375 5,0.21875 6.203125,0.21875 6.328125,0.21875 c 0.84375,0 1.203125,-1 1.203125,-1.140625 0,-0.125 -0.109375,-0.125 -0.125,-0.125 -0.09375,0 -0.109375,0.0625 -0.125,0.140625 C 7.03125,-0.171875 6.59375,0 6.375,0 6.046875,0 5.96875,-0.21875 5.96875,-0.609375 c 0,-0.3125 0.0625,-0.8125 0.109375,-1.140625 0.015625,-0.140625 0.03125,-0.328125 0.03125,-0.46875 0,-0.765625 -0.671875,-1.078125 -0.9375,-1.171875 z m 0,0"
           transform="translate(148.712,134.765)"
           id="path1540" />
      </g>
      <g
         transform="matrix(0.81051481,0,0,0.81051481,-23.314161,40.438022)"
         style="fill:#000000;fill-opacity:1"
         id="g1546">
        <path
           inkscape:connector-curvature="0"
           style="stroke:none;stroke-width:0"
           d="m 2.328125,-4.4375 c 0,-0.1875 0,-0.1875 -0.203125,-0.1875 -0.453125,0.4375 -1.078125,0.4375 -1.359375,0.4375 v 0.25 c 0.15625,0 0.625,0 1,-0.1875 v 3.546875 c 0,0.234375 0,0.328125 -0.6875,0.328125 H 0.8125 V 0 c 0.125,0 0.984375,-0.03125 1.234375,-0.03125 0.21875,0 1.09375,0.03125 1.25,0.03125 V -0.25 H 3.03125 c -0.703125,0 -0.703125,-0.09375 -0.703125,-0.328125 z m 0,0"
           transform="translate(156.277,136.259)"
           id="path1544" />
      </g>
    </g>
    <g
       id="g2638"
       transform="translate(20.617787,-81.228359)">
      <g
         transform="matrix(0.81051481,0,0,0.81051481,-23.314161,40.438022)"
         style="fill:#000000;fill-opacity:1"
         id="g1550">
        <path
           inkscape:connector-curvature="0"
           style="stroke:none;stroke-width:0"
           d="m 3.734375,-6.125 c 0.0625,-0.234375 0.09375,-0.328125 0.28125,-0.359375 C 4.109375,-6.5 4.421875,-6.5 4.625,-6.5 c 0.703125,0 1.8125,0 1.8125,0.984375 0,0.34375 -0.15625,1.03125 -0.546875,1.421875 -0.265625,0.25 -0.78125,0.578125 -1.6875,0.578125 H 3.09375 Z m 1.4375,2.734375 c 1.015625,-0.21875 2.1875,-0.921875 2.1875,-1.921875 0,-0.859375 -0.890625,-1.5 -2.203125,-1.5 H 2.328125 c -0.203125,0 -0.296875,0 -0.296875,0.203125 C 2.03125,-6.5 2.125,-6.5 2.3125,-6.5 c 0.015625,0 0.203125,0 0.375,0.015625 0.1875,0.03125 0.265625,0.03125 0.265625,0.171875 0,0.03125 0,0.0625 -0.03125,0.1875 l -1.34375,5.34375 C 1.484375,-0.390625 1.46875,-0.3125 0.671875,-0.3125 0.5,-0.3125 0.40625,-0.3125 0.40625,-0.109375 0.40625,0 0.53125,0 0.546875,0 c 0.28125,0 0.984375,-0.03125 1.25,-0.03125 0.28125,0 1,0.03125 1.28125,0.03125 0.078125,0 0.1875,0 0.1875,-0.203125 0,-0.109375 -0.078125,-0.109375 -0.28125,-0.109375 -0.359375,0 -0.640625,0 -0.640625,-0.171875 0,-0.0625 0.015625,-0.109375 0.03125,-0.171875 l 0.65625,-2.640625 h 1.1875 c 0.90625,0 1.078125,0.5625 1.078125,0.90625 0,0.140625 -0.078125,0.453125 -0.140625,0.6875 C 5.09375,-1.421875 5,-1.0625 5,-0.859375 5,0.21875 6.203125,0.21875 6.328125,0.21875 c 0.84375,0 1.203125,-1 1.203125,-1.140625 0,-0.125 -0.109375,-0.125 -0.125,-0.125 -0.09375,0 -0.109375,0.0625 -0.125,0.140625 C 7.03125,-0.171875 6.59375,0 6.375,0 6.046875,0 5.96875,-0.21875 5.96875,-0.609375 c 0,-0.3125 0.0625,-0.8125 0.109375,-1.140625 0.015625,-0.140625 0.03125,-0.328125 0.03125,-0.46875 0,-0.765625 -0.671875,-1.078125 -0.9375,-1.171875 z m 0,0"
           transform="translate(164.067,134.765)"
           id="path1548" />
      </g>
      <g
         transform="matrix(0.81051481,0,0,0.81051481,-23.314161,40.438022)"
         style="fill:#000000;fill-opacity:1"
         id="g1554">
        <path
           inkscape:connector-curvature="0"
           style="stroke:none;stroke-width:0"
           d="M 3.515625,-1.265625 H 3.28125 c -0.015625,0.15625 -0.09375,0.5625 -0.1875,0.625 C 3.046875,-0.59375 2.515625,-0.59375 2.40625,-0.59375 H 1.125 c 0.734375,-0.640625 0.984375,-0.84375 1.390625,-1.171875 0.515625,-0.40625 1,-0.84375 1,-1.5 0,-0.84375 -0.734375,-1.359375 -1.625,-1.359375 -0.859375,0 -1.453125,0.609375 -1.453125,1.25 0,0.34375 0.296875,0.390625 0.375,0.390625 0.15625,0 0.359375,-0.125 0.359375,-0.375 0,-0.125 -0.046875,-0.375 -0.40625,-0.375 C 0.984375,-4.21875 1.453125,-4.375 1.78125,-4.375 c 0.703125,0 1.0625,0.546875 1.0625,1.109375 0,0.609375 -0.4375,1.078125 -0.65625,1.328125 L 0.515625,-0.265625 C 0.4375,-0.203125 0.4375,-0.1875 0.4375,0 h 2.875 z m 0,0"
           transform="translate(171.632,136.259)"
           id="path1552" />
      </g>
    </g>
    <path
       style="fill:none;stroke:#000000;stroke-width:0.26458332px;stroke-linecap:butt;stroke-linejoin:miter;stroke-opacity:1;marker-end:url(#marker2648)"
       d="M 21.166667,66.283322 H 63.499999"
       id="path2303"
       inkscape:connector-curvature="0"
       sodipodi:nodetypes="cc" />
    <path
       style="fill:none;stroke:#000000;stroke-width:0.26458332px;stroke-linecap:butt;stroke-linejoin:miter;stroke-opacity:1;marker-end:url(#marker2682)"
       d="M 79.374999,66.283322 H 127"
       id="path2305"
       inkscape:connector-curvature="0" />
    <path
       style="fill:none;stroke:#000000;stroke-width:0.26458332px;stroke-linecap:butt;stroke-linejoin:miter;stroke-opacity:1;marker-end:url(#marker2718)"
       d="m 142.875,66.283322 h 40.74583"
       id="path2307"
       inkscape:connector-curvature="0"
       sodipodi:nodetypes="cc" />
    <path
       style="fill:none;stroke:#000000;stroke-width:0.26458332px;stroke-linecap:butt;stroke-linejoin:miter;stroke-opacity:1;marker-end:url(#marker1452)"
       d="M 21.166667,47.762489 H 169.33333 v 15.610417"
       id="path2309"
       inkscape:connector-curvature="0"
       sodipodi:nodetypes="ccc" />
    <g
       style="fill:#ff0000"
       transform="translate(5.2916668,-48.333091)"
       id="g3578">
      <g
         id="g3255"
         style="fill:#ff0000;fill-opacity:1"
         transform="matrix(0.572554,0,0,0.572554,-53.927257,35.868217)">
        <path
           id="path3253"
           transform="translate(177.039,134.765)"
           d="m 5.515625,-6.78125 h -5.1875 v 0.3125 H 0.5625 c 0.765625,0 0.796875,0.109375 0.796875,0.46875 v 5.21875 c 0,0.359375 -0.03125,0.46875 -0.796875,0.46875 H 0.328125 V 0 c 0.34375,-0.03125 1.125,-0.03125 1.515625,-0.03125 0.40625,0 1.3125,0 1.671875,0.03125 V -0.3125 H 3.1875 C 2.25,-0.3125 2.25,-0.4375 2.25,-0.78125 v -5.296875 c 0,-0.328125 0.015625,-0.390625 0.484375,-0.390625 h 1.03125 c 1.421875,0 1.625,0.59375 1.78125,1.9375 h 0.25 z m 0,0"
           style="fill:#000000;stroke:none;stroke-width:0"
           inkscape:connector-curvature="0" />
      </g>
      <g
         id="g3259"
         style="fill:#ff0000;fill-opacity:1"
         transform="matrix(0.572554,0,0,0.572554,-53.927257,35.868217)">
        <path
           id="path3257"
           transform="translate(183.266,136.259)"
           d="M 3.59375,-2.21875 C 3.59375,-2.984375 3.5,-3.546875 3.1875,-4.03125 2.96875,-4.34375 2.53125,-4.625 1.984375,-4.625 c -1.625,0 -1.625,1.90625 -1.625,2.40625 0,0.5 0,2.359375 1.625,2.359375 1.609375,0 1.609375,-1.859375 1.609375,-2.359375 z M 1.984375,-0.0625 c -0.328125,0 -0.75,-0.1875 -0.890625,-0.75 C 1,-1.21875 1,-1.796875 1,-2.3125 1,-2.828125 1,-3.359375 1.09375,-3.734375 1.25,-4.28125 1.6875,-4.4375 1.984375,-4.4375 c 0.375,0 0.734375,0.234375 0.859375,0.640625 0.109375,0.375 0.125,0.875 0.125,1.484375 0,0.515625 0,1.03125 -0.09375,1.46875 -0.140625,0.640625 -0.609375,0.78125 -0.890625,0.78125 z m 0,0"
           style="fill:#000000;stroke:none;stroke-width:0"
           inkscape:connector-curvature="0" />
      </g>
    </g>
    <g
       transform="translate(60.766177,-48.252576)"
       id="g3584">
      <g
         id="g3263"
         style="fill:#000000;fill-opacity:1"
         transform="matrix(0.572554,0,0,0.572554,-53.927257,35.868217)">
        <path
           id="path3261"
           transform="translate(191.056,134.765)"
           d="m 5.515625,-6.78125 h -5.1875 v 0.3125 H 0.5625 c 0.765625,0 0.796875,0.109375 0.796875,0.46875 v 5.21875 c 0,0.359375 -0.03125,0.46875 -0.796875,0.46875 H 0.328125 V 0 c 0.34375,-0.03125 1.125,-0.03125 1.515625,-0.03125 0.40625,0 1.3125,0 1.671875,0.03125 V -0.3125 H 3.1875 C 2.25,-0.3125 2.25,-0.4375 2.25,-0.78125 v -5.296875 c 0,-0.328125 0.015625,-0.390625 0.484375,-0.390625 h 1.03125 c 1.421875,0 1.625,0.59375 1.78125,1.9375 h 0.25 z m 0,0"
           style="stroke:none;stroke-width:0"
           inkscape:connector-curvature="0" />
      </g>
      <g
         id="g3267"
         style="fill:#000000;fill-opacity:1"
         transform="matrix(0.572554,0,0,0.572554,-53.927257,35.868217)">
        <path
           id="path3265"
           transform="translate(197.283,136.259)"
           d="m 2.328125,-4.4375 c 0,-0.1875 0,-0.1875 -0.203125,-0.1875 -0.453125,0.4375 -1.078125,0.4375 -1.359375,0.4375 v 0.25 c 0.15625,0 0.625,0 1,-0.1875 v 3.546875 c 0,0.234375 0,0.328125 -0.6875,0.328125 H 0.8125 V 0 c 0.125,0 0.984375,-0.03125 1.234375,-0.03125 0.21875,0 1.09375,0.03125 1.25,0.03125 V -0.25 H 3.03125 c -0.703125,0 -0.703125,-0.09375 -0.703125,-0.328125 z m 0,0"
           style="stroke:none;stroke-width:0"
           inkscape:connector-curvature="0" />
      </g>
    </g>
    <g
       style="fill:#ff0000"
       transform="translate(85.311505,-48.252576)"
       id="g3590">
      <g
         id="g3271"
         style="fill:#ff0000;fill-opacity:1"
         transform="matrix(0.572554,0,0,0.572554,-53.927257,35.868217)">
        <path
           id="path3269"
           transform="translate(205.073,134.765)"
           d="m 5.515625,-6.78125 h -5.1875 v 0.3125 H 0.5625 c 0.765625,0 0.796875,0.109375 0.796875,0.46875 v 5.21875 c 0,0.359375 -0.03125,0.46875 -0.796875,0.46875 H 0.328125 V 0 c 0.34375,-0.03125 1.125,-0.03125 1.515625,-0.03125 0.40625,0 1.3125,0 1.671875,0.03125 V -0.3125 H 3.1875 C 2.25,-0.3125 2.25,-0.4375 2.25,-0.78125 v -5.296875 c 0,-0.328125 0.015625,-0.390625 0.484375,-0.390625 h 1.03125 c 1.421875,0 1.625,0.59375 1.78125,1.9375 h 0.25 z m 0,0"
           style="fill:#000000;stroke:none;stroke-width:0"
           inkscape:connector-curvature="0" />
      </g>
      <g
         id="g3275"
         style="fill:#ff0000;fill-opacity:1"
         transform="matrix(0.572554,0,0,0.572554,-53.927257,35.868217)">
        <path
           id="path3273"
           transform="translate(211.3,136.259)"
           d="M 3.515625,-1.265625 H 3.28125 c -0.015625,0.15625 -0.09375,0.5625 -0.1875,0.625 C 3.046875,-0.59375 2.515625,-0.59375 2.40625,-0.59375 H 1.125 c 0.734375,-0.640625 0.984375,-0.84375 1.390625,-1.171875 0.515625,-0.40625 1,-0.84375 1,-1.5 0,-0.84375 -0.734375,-1.359375 -1.625,-1.359375 -0.859375,0 -1.453125,0.609375 -1.453125,1.25 0,0.34375 0.296875,0.390625 0.375,0.390625 0.15625,0 0.359375,-0.125 0.359375,-0.375 0,-0.125 -0.046875,-0.375 -0.40625,-0.375 C 0.984375,-4.21875 1.453125,-4.375 1.78125,-4.375 c 0.703125,0 1.0625,0.546875 1.0625,1.109375 0,0.609375 -0.4375,1.078125 -0.65625,1.328125 L 0.515625,-0.265625 C 0.4375,-0.203125 0.4375,-0.1875 0.4375,0 h 2.875 z m 0,0"
           style="fill:#000000;stroke:none;stroke-width:0"
           inkscape:connector-curvature="0" />
      </g>
    </g>
    <g
       style="fill:#ff0000"
       transform="translate(-50.707918,-68.360913)"
       id="g3614">
      <g
         id="g3279"
         style="fill:#ff0000;fill-opacity:1"
         transform="matrix(0.572554,0,0,0.572554,-53.927257,35.868217)">
        <path
           id="path3277"
           transform="translate(219.09,134.765)"
           d="m 4.75,-2.359375 c 0,-1.5625 -0.921875,-2.046875 -1.65625,-2.046875 -1.375,0 -2.6875,1.421875 -2.6875,2.828125 0,0.9375 0.59375,1.6875 1.625,1.6875 0.625,0 1.34375,-0.234375 2.09375,-0.84375 0.125,0.53125 0.453125,0.84375 0.90625,0.84375 0.53125,0 0.84375,-0.546875 0.84375,-0.703125 0,-0.078125 -0.0625,-0.109375 -0.125,-0.109375 -0.0625,0 -0.09375,0.03125 -0.125,0.109375 -0.1875,0.484375 -0.546875,0.484375 -0.5625,0.484375 -0.3125,0 -0.3125,-0.78125 -0.3125,-1.015625 0,-0.203125 0,-0.234375 0.109375,-0.34375 C 5.796875,-2.65625 6,-3.8125 6,-3.8125 6,-3.84375 5.984375,-3.921875 5.875,-3.921875 c -0.09375,0 -0.09375,0.03125 -0.140625,0.21875 -0.1875,0.625 -0.515625,1.375 -0.984375,1.96875 z m -0.65625,1.375 c -0.890625,0.765625 -1.65625,0.875 -2.046875,0.875 -0.59375,0 -0.90625,-0.453125 -0.90625,-1.09375 0,-0.484375 0.265625,-1.5625 0.578125,-2.0625 C 2.1875,-4 2.734375,-4.1875 3.078125,-4.1875 c 0.984375,0 0.984375,1.3125 0.984375,2.078125 0,0.375 0,0.953125 0.03125,1.125 z m 0,0"
           style="fill:#ff0000;stroke:none;stroke-width:0"
           inkscape:connector-curvature="0" />
      </g>
      <g
         id="g3283"
         style="fill:#ff0000;fill-opacity:1"
         transform="matrix(0.572554,0,0,0.572554,-53.927257,35.868217)">
        <path
           id="path3281"
           transform="translate(225.463,136.259)"
           d="m 2.328125,-4.4375 c 0,-0.1875 0,-0.1875 -0.203125,-0.1875 -0.453125,0.4375 -1.078125,0.4375 -1.359375,0.4375 v 0.25 c 0.15625,0 0.625,0 1,-0.1875 v 3.546875 c 0,0.234375 0,0.328125 -0.6875,0.328125 H 0.8125 V 0 c 0.125,0 0.984375,-0.03125 1.234375,-0.03125 0.21875,0 1.09375,0.03125 1.25,0.03125 V -0.25 H 3.03125 c -0.703125,0 -0.703125,-0.09375 -0.703125,-0.328125 z m 0,0"
           style="fill:#ff0000;stroke:none;stroke-width:0"
           inkscape:connector-curvature="0" />
      </g>
      <g
         id="g3287"
         style="fill:#ff0000;fill-opacity:1"
         transform="matrix(0.572554,0,0,0.572554,-53.927257,35.868217)">
        <path
           id="path3285"
           transform="translate(232.7,134.765)"
           d="m 6.84375,-3.265625 c 0.15625,0 0.34375,0 0.34375,-0.1875 C 7.1875,-3.65625 7,-3.65625 6.859375,-3.65625 h -5.96875 c -0.140625,0 -0.328125,0 -0.328125,0.203125 0,0.1875 0.1875,0.1875 0.328125,0.1875 z m 0.015625,1.9375 c 0.140625,0 0.328125,0 0.328125,-0.203125 0,-0.1875 -0.1875,-0.1875 -0.34375,-0.1875 H 0.890625 c -0.140625,0 -0.328125,0 -0.328125,0.1875 0,0.203125 0.1875,0.203125 0.328125,0.203125 z m 0,0"
           style="fill:#ff0000;stroke:none;stroke-width:0"
           inkscape:connector-curvature="0" />
      </g>
      <g
         id="g3291"
         style="fill:#ff0000;fill-opacity:1"
         transform="matrix(0.572554,0,0,0.572554,-53.927257,35.868217)">
        <path
           id="path3289"
           transform="translate(243.21851,134.765)"
           d="m 5.515625,-6.78125 h -5.1875 v 0.3125 H 0.5625 c 0.765625,0 0.796875,0.109375 0.796875,0.46875 v 5.21875 c 0,0.359375 -0.03125,0.46875 -0.796875,0.46875 H 0.328125 V 0 c 0.34375,-0.03125 1.125,-0.03125 1.515625,-0.03125 0.40625,0 1.3125,0 1.671875,0.03125 V -0.3125 H 3.1875 C 2.25,-0.3125 2.25,-0.4375 2.25,-0.78125 v -5.296875 c 0,-0.328125 0.015625,-0.390625 0.484375,-0.390625 h 1.03125 c 1.421875,0 1.625,0.59375 1.78125,1.9375 h 0.25 z m 0,0"
           style="fill:#ff0000;stroke:none;stroke-width:0"
           inkscape:connector-curvature="0" />
      </g>
      <g
         id="g3295"
         style="fill:#ff0000;fill-opacity:1"
         transform="matrix(0.572554,0,0,0.572554,-53.927257,35.868217)">
        <path
           id="path3293"
           transform="translate(249.442,136.259)"
           d="M 3.59375,-2.21875 C 3.59375,-2.984375 3.5,-3.546875 3.1875,-4.03125 2.96875,-4.34375 2.53125,-4.625 1.984375,-4.625 c -1.625,0 -1.625,1.90625 -1.625,2.40625 0,0.5 0,2.359375 1.625,2.359375 1.609375,0 1.609375,-1.859375 1.609375,-2.359375 z M 1.984375,-0.0625 c -0.328125,0 -0.75,-0.1875 -0.890625,-0.75 C 1,-1.21875 1,-1.796875 1,-2.3125 1,-2.828125 1,-3.359375 1.09375,-3.734375 1.25,-4.28125 1.6875,-4.4375 1.984375,-4.4375 c 0.375,0 0.734375,0.234375 0.859375,0.640625 0.109375,0.375 0.125,0.875 0.125,1.484375 0,0.515625 0,1.03125 -0.09375,1.46875 -0.140625,0.640625 -0.609375,0.78125 -0.890625,0.78125 z m 0,0"
           style="fill:#ff0000;stroke:none;stroke-width:0"
           inkscape:connector-curvature="0" />
      </g>
      <g
         id="g3299"
         style="fill:#ff0000;fill-opacity:1"
         transform="matrix(0.572554,0,0,0.572554,-53.927257,35.868217)">
        <path
           id="path3297"
           transform="translate(256.126,134.765)"
           d="m 7.203125,-2.5 c 0,-1.828125 -1.5,-3.3125 -3.328125,-3.3125 -1.84375,0 -3.328125,1.5 -3.328125,3.3125 0,1.84375 1.5,3.328125 3.328125,3.328125 1.84375,0 3.328125,-1.5 3.328125,-3.328125 z M 0.796875,-2.625 C 0.890625,-4.296875 2.1875,-5.484375 3.75,-5.5625 V -2.625 Z M 4,-5.5625 c 1.5625,0.078125 2.84375,1.28125 2.953125,2.9375 H 4 Z M 3.75,0.578125 C 2.203125,0.5 0.890625,-0.671875 0.796875,-2.375 H 3.75 Z M 6.953125,-2.375 C 6.84375,-0.671875 5.53125,0.5 4,0.578125 V -2.375 Z m 0,0"
           style="fill:#ff0000;stroke:none;stroke-width:0"
           inkscape:connector-curvature="0" />
      </g>
      <g
         id="g3303"
         style="fill:#ff0000;fill-opacity:1"
         transform="matrix(0.572554,0,0,0.572554,-53.927257,35.868217)">
        <path
           id="path3301"
           transform="translate(266.088,134.765)"
           d="m 5.515625,-6.78125 h -5.1875 v 0.3125 H 0.5625 c 0.765625,0 0.796875,0.109375 0.796875,0.46875 v 5.21875 c 0,0.359375 -0.03125,0.46875 -0.796875,0.46875 H 0.328125 V 0 c 0.34375,-0.03125 1.125,-0.03125 1.515625,-0.03125 0.40625,0 1.3125,0 1.671875,0.03125 V -0.3125 H 3.1875 C 2.25,-0.3125 2.25,-0.4375 2.25,-0.78125 v -5.296875 c 0,-0.328125 0.015625,-0.390625 0.484375,-0.390625 h 1.03125 c 1.421875,0 1.625,0.59375 1.78125,1.9375 h 0.25 z m 0,0"
           style="fill:#ff0000;stroke:none;stroke-width:0"
           inkscape:connector-curvature="0" />
      </g>
      <g
         id="g3307"
         style="fill:#ff0000;fill-opacity:1"
         transform="matrix(0.572554,0,0,0.572554,-53.927257,35.868217)">
        <path
           id="path3305"
           transform="translate(272.315,136.259)"
           d="m 2.328125,-4.4375 c 0,-0.1875 0,-0.1875 -0.203125,-0.1875 -0.453125,0.4375 -1.078125,0.4375 -1.359375,0.4375 v 0.25 c 0.15625,0 0.625,0 1,-0.1875 v 3.546875 c 0,0.234375 0,0.328125 -0.6875,0.328125 H 0.8125 V 0 c 0.125,0 0.984375,-0.03125 1.234375,-0.03125 0.21875,0 1.09375,0.03125 1.25,0.03125 V -0.25 H 3.03125 c -0.703125,0 -0.703125,-0.09375 -0.703125,-0.328125 z m 0,0"
           style="fill:#ff0000;stroke:none;stroke-width:0"
           inkscape:connector-curvature="0" />
      </g>
      <g
         id="g3311"
         style="fill:#ff0000;fill-opacity:1"
         transform="matrix(0.572554,0,0,0.572554,-53.927257,35.868217)">
        <path
           id="path3309"
           transform="translate(278.998,134.765)"
           d="m 7.203125,-2.5 c 0,-1.828125 -1.5,-3.3125 -3.328125,-3.3125 -1.84375,0 -3.328125,1.5 -3.328125,3.3125 0,1.84375 1.5,3.328125 3.328125,3.328125 1.84375,0 3.328125,-1.5 3.328125,-3.328125 z M 0.796875,-2.625 C 0.890625,-4.296875 2.1875,-5.484375 3.75,-5.5625 V -2.625 Z M 4,-5.5625 c 1.5625,0.078125 2.84375,1.28125 2.953125,2.9375 H 4 Z M 3.75,0.578125 C 2.203125,0.5 0.890625,-0.671875 0.796875,-2.375 H 3.75 Z M 6.953125,-2.375 C 6.84375,-0.671875 5.53125,0.5 4,0.578125 V -2.375 Z m 0,0"
           style="fill:#ff0000;stroke:none;stroke-width:0"
           inkscape:connector-curvature="0" />
      </g>
      <g
         id="g3315"
         style="fill:#ff0000;fill-opacity:1"
         transform="matrix(0.572554,0,0,0.572554,-53.927257,35.868217)">
        <path
           id="path3313"
           transform="translate(288.961,134.765)"
           d="m 5.515625,-6.78125 h -5.1875 v 0.3125 H 0.5625 c 0.765625,0 0.796875,0.109375 0.796875,0.46875 v 5.21875 c 0,0.359375 -0.03125,0.46875 -0.796875,0.46875 H 0.328125 V 0 c 0.34375,-0.03125 1.125,-0.03125 1.515625,-0.03125 0.40625,0 1.3125,0 1.671875,0.03125 V -0.3125 H 3.1875 C 2.25,-0.3125 2.25,-0.4375 2.25,-0.78125 v -5.296875 c 0,-0.328125 0.015625,-0.390625 0.484375,-0.390625 h 1.03125 c 1.421875,0 1.625,0.59375 1.78125,1.9375 h 0.25 z m 0,0"
           style="fill:#ff0000;stroke:none;stroke-width:0"
           inkscape:connector-curvature="0" />
      </g>
      <g
         id="g3319"
         style="fill:#ff0000;fill-opacity:1"
         transform="matrix(0.572554,0,0,0.572554,-53.927257,35.868217)">
        <path
           id="path3317"
           transform="translate(295.187,136.259)"
           d="M 3.515625,-1.265625 H 3.28125 c -0.015625,0.15625 -0.09375,0.5625 -0.1875,0.625 C 3.046875,-0.59375 2.515625,-0.59375 2.40625,-0.59375 H 1.125 c 0.734375,-0.640625 0.984375,-0.84375 1.390625,-1.171875 0.515625,-0.40625 1,-0.84375 1,-1.5 0,-0.84375 -0.734375,-1.359375 -1.625,-1.359375 -0.859375,0 -1.453125,0.609375 -1.453125,1.25 0,0.34375 0.296875,0.390625 0.375,0.390625 0.15625,0 0.359375,-0.125 0.359375,-0.375 0,-0.125 -0.046875,-0.375 -0.40625,-0.375 C 0.984375,-4.21875 1.453125,-4.375 1.78125,-4.375 c 0.703125,0 1.0625,0.546875 1.0625,1.109375 0,0.609375 -0.4375,1.078125 -0.65625,1.328125 L 0.515625,-0.265625 C 0.4375,-0.203125 0.4375,-0.1875 0.4375,0 h 2.875 z m 0,0"
           style="fill:#ff0000;stroke:none;stroke-width:0"
           inkscape:connector-curvature="0" />
      </g>
    </g>
    <g
       style="fill:#ff0000"
       id="g3636"
       transform="translate(-8.9958328,-56.270593)">
      <g
         transform="matrix(0.572554,0,0,0.572554,-53.927257,35.868217)"
         style="fill:#ff0000;fill-opacity:1"
         id="g3630">
        <path
           inkscape:connector-curvature="0"
           style="fill:#ff0000;stroke:none;stroke-width:0"
           d="m 5.515625,-6.78125 h -5.1875 v 0.3125 H 0.5625 c 0.765625,0 0.796875,0.109375 0.796875,0.46875 v 5.21875 c 0,0.359375 -0.03125,0.46875 -0.796875,0.46875 H 0.328125 V 0 c 0.34375,-0.03125 1.125,-0.03125 1.515625,-0.03125 0.40625,0 1.3125,0 1.671875,0.03125 V -0.3125 H 3.1875 C 2.25,-0.3125 2.25,-0.4375 2.25,-0.78125 v -5.296875 c 0,-0.328125 0.015625,-0.390625 0.484375,-0.390625 h 1.03125 c 1.421875,0 1.625,0.59375 1.78125,1.9375 h 0.25 z m 0,0"
           transform="translate(177.039,134.765)"
           id="path3628" />
      </g>
      <g
         transform="matrix(0.572554,0,0,0.572554,-53.927257,35.868217)"
         style="fill:#ff0000;fill-opacity:1"
         id="g3634">
        <path
           inkscape:connector-curvature="0"
           style="fill:#ff0000;stroke:none;stroke-width:0"
           d="M 3.59375,-2.21875 C 3.59375,-2.984375 3.5,-3.546875 3.1875,-4.03125 2.96875,-4.34375 2.53125,-4.625 1.984375,-4.625 c -1.625,0 -1.625,1.90625 -1.625,2.40625 0,0.5 0,2.359375 1.625,2.359375 1.609375,0 1.609375,-1.859375 1.609375,-2.359375 z M 1.984375,-0.0625 c -0.328125,0 -0.75,-0.1875 -0.890625,-0.75 C 1,-1.21875 1,-1.796875 1,-2.3125 1,-2.828125 1,-3.359375 1.09375,-3.734375 1.25,-4.28125 1.6875,-4.4375 1.984375,-4.4375 c 0.375,0 0.734375,0.234375 0.859375,0.640625 0.109375,0.375 0.125,0.875 0.125,1.484375 0,0.515625 0,1.03125 -0.09375,1.46875 -0.140625,0.640625 -0.609375,0.78125 -0.890625,0.78125 z m 0,0"
           transform="translate(183.266,136.259)"
           id="path3632" />
      </g>
    </g>
    <g
       style="fill:#ff0000"
       id="g3646"
       transform="translate(49.124509,-56.190078)">
      <g
         transform="matrix(0.572554,0,0,0.572554,-53.927257,35.868217)"
         style="fill:#ff0000;fill-opacity:1"
         id="g3640">
        <path
           inkscape:connector-curvature="0"
           style="fill:#ff0000;stroke:none;stroke-width:0"
           d="m 5.515625,-6.78125 h -5.1875 v 0.3125 H 0.5625 c 0.765625,0 0.796875,0.109375 0.796875,0.46875 v 5.21875 c 0,0.359375 -0.03125,0.46875 -0.796875,0.46875 H 0.328125 V 0 c 0.34375,-0.03125 1.125,-0.03125 1.515625,-0.03125 0.40625,0 1.3125,0 1.671875,0.03125 V -0.3125 H 3.1875 C 2.25,-0.3125 2.25,-0.4375 2.25,-0.78125 v -5.296875 c 0,-0.328125 0.015625,-0.390625 0.484375,-0.390625 h 1.03125 c 1.421875,0 1.625,0.59375 1.78125,1.9375 h 0.25 z m 0,0"
           transform="translate(191.056,134.765)"
           id="path3638" />
      </g>
      <g
         transform="matrix(0.572554,0,0,0.572554,-53.927257,35.868217)"
         style="fill:#ff0000;fill-opacity:1"
         id="g3644">
        <path
           inkscape:connector-curvature="0"
           style="fill:#ff0000;stroke:none;stroke-width:0"
           d="m 2.328125,-4.4375 c 0,-0.1875 0,-0.1875 -0.203125,-0.1875 -0.453125,0.4375 -1.078125,0.4375 -1.359375,0.4375 v 0.25 c 0.15625,0 0.625,0 1,-0.1875 v 3.546875 c 0,0.234375 0,0.328125 -0.6875,0.328125 H 0.8125 V 0 c 0.125,0 0.984375,-0.03125 1.234375,-0.03125 0.21875,0 1.09375,0.03125 1.25,0.03125 V -0.25 H 3.03125 c -0.703125,0 -0.703125,-0.09375 -0.703125,-0.328125 z m 0,0"
           transform="translate(197.283,136.259)"
           id="path3642" />
      </g>
    </g>
    <g
       id="g3656"
       transform="translate(111.76985,-48.252576)">
      <g
         transform="matrix(0.572554,0,0,0.572554,-53.927257,35.868217)"
         style="fill:#000000;fill-opacity:1"
         id="g3650">
        <path
           inkscape:connector-curvature="0"
           style="stroke:none;stroke-width:0"
           d="m 5.515625,-6.78125 h -5.1875 v 0.3125 H 0.5625 c 0.765625,0 0.796875,0.109375 0.796875,0.46875 v 5.21875 c 0,0.359375 -0.03125,0.46875 -0.796875,0.46875 H 0.328125 V 0 c 0.34375,-0.03125 1.125,-0.03125 1.515625,-0.03125 0.40625,0 1.3125,0 1.671875,0.03125 V -0.3125 H 3.1875 C 2.25,-0.3125 2.25,-0.4375 2.25,-0.78125 v -5.296875 c 0,-0.328125 0.015625,-0.390625 0.484375,-0.390625 h 1.03125 c 1.421875,0 1.625,0.59375 1.78125,1.9375 h 0.25 z m 0,0"
           transform="translate(205.073,134.765)"
           id="path3648" />
      </g>
      <g
         transform="matrix(0.572554,0,0,0.572554,-53.927257,35.868217)"
         style="fill:#000000;fill-opacity:1"
         id="g3654">
        <path
           inkscape:connector-curvature="0"
           style="stroke:none;stroke-width:0"
           d="M 3.515625,-1.265625 H 3.28125 c -0.015625,0.15625 -0.09375,0.5625 -0.1875,0.625 C 3.046875,-0.59375 2.515625,-0.59375 2.40625,-0.59375 H 1.125 c 0.734375,-0.640625 0.984375,-0.84375 1.390625,-1.171875 0.515625,-0.40625 1,-0.84375 1,-1.5 0,-0.84375 -0.734375,-1.359375 -1.625,-1.359375 -0.859375,0 -1.453125,0.609375 -1.453125,1.25 0,0.34375 0.296875,0.390625 0.375,0.390625 0.15625,0 0.359375,-0.125 0.359375,-0.375 0,-0.125 -0.046875,-0.375 -0.40625,-0.375 C 0.984375,-4.21875 1.453125,-4.375 1.78125,-4.375 c 0.703125,0 1.0625,0.546875 1.0625,1.109375 0,0.609375 -0.4375,1.078125 -0.65625,1.328125 L 0.515625,-0.265625 C 0.4375,-0.203125 0.4375,-0.1875 0.4375,0 h 2.875 z m 0,0"
           transform="translate(211.3,136.259)"
           id="path3652" />
      </g>
    </g>
    <g
       style="fill:#ff0000"
       transform="translate(106.47818,-56.190078)"
       id="g3666">
      <g
         id="g3660"
         style="fill:#ff0000;fill-opacity:1"
         transform="matrix(0.572554,0,0,0.572554,-53.927257,35.868217)">
        <path
           id="path3658"
           transform="translate(205.073,134.765)"
           d="m 5.515625,-6.78125 h -5.1875 v 0.3125 H 0.5625 c 0.765625,0 0.796875,0.109375 0.796875,0.46875 v 5.21875 c 0,0.359375 -0.03125,0.46875 -0.796875,0.46875 H 0.328125 V 0 c 0.34375,-0.03125 1.125,-0.03125 1.515625,-0.03125 0.40625,0 1.3125,0 1.671875,0.03125 V -0.3125 H 3.1875 C 2.25,-0.3125 2.25,-0.4375 2.25,-0.78125 v -5.296875 c 0,-0.328125 0.015625,-0.390625 0.484375,-0.390625 h 1.03125 c 1.421875,0 1.625,0.59375 1.78125,1.9375 h 0.25 z m 0,0"
           style="fill:#ff0000;stroke:none;stroke-width:0"
           inkscape:connector-curvature="0" />
      </g>
      <g
         id="g3664"
         style="fill:#ff0000;fill-opacity:1"
         transform="matrix(0.572554,0,0,0.572554,-53.927257,35.868217)">
        <path
           id="path3662"
           transform="translate(211.3,136.259)"
           d="M 3.515625,-1.265625 H 3.28125 c -0.015625,0.15625 -0.09375,0.5625 -0.1875,0.625 C 3.046875,-0.59375 2.515625,-0.59375 2.40625,-0.59375 H 1.125 c 0.734375,-0.640625 0.984375,-0.84375 1.390625,-1.171875 0.515625,-0.40625 1,-0.84375 1,-1.5 0,-0.84375 -0.734375,-1.359375 -1.625,-1.359375 -0.859375,0 -1.453125,0.609375 -1.453125,1.25 0,0.34375 0.296875,0.390625 0.375,0.390625 0.15625,0 0.359375,-0.125 0.359375,-0.375 0,-0.125 -0.046875,-0.375 -0.40625,-0.375 C 0.984375,-4.21875 1.453125,-4.375 1.78125,-4.375 c 0.703125,0 1.0625,0.546875 1.0625,1.109375 0,0.609375 -0.4375,1.078125 -0.65625,1.328125 L 0.515625,-0.265625 C 0.4375,-0.203125 0.4375,-0.1875 0.4375,0 h 2.875 z m 0,0"
           style="fill:#ff0000;stroke:none;stroke-width:0"
           inkscape:connector-curvature="0" />
      </g>
    </g>
    <g
       id="g3676"
       transform="translate(28.487008,-48.252576)">
      <g
         transform="matrix(0.572554,0,0,0.572554,-53.927257,35.868217)"
         style="fill:#000000;fill-opacity:1"
         id="g3670">
        <path
           inkscape:connector-curvature="0"
           style="stroke:none;stroke-width:0"
           d="m 5.515625,-6.78125 h -5.1875 v 0.3125 H 0.5625 c 0.765625,0 0.796875,0.109375 0.796875,0.46875 v 5.21875 c 0,0.359375 -0.03125,0.46875 -0.796875,0.46875 H 0.328125 V 0 c 0.34375,-0.03125 1.125,-0.03125 1.515625,-0.03125 0.40625,0 1.3125,0 1.671875,0.03125 V -0.3125 H 3.1875 C 2.25,-0.3125 2.25,-0.4375 2.25,-0.78125 v -5.296875 c 0,-0.328125 0.015625,-0.390625 0.484375,-0.390625 h 1.03125 c 1.421875,0 1.625,0.59375 1.78125,1.9375 h 0.25 z m 0,0"
           transform="translate(191.056,134.765)"
           id="path3668" />
      </g>
      <g
         transform="matrix(0.572554,0,0,0.572554,-53.927257,35.868217)"
         style="fill:#000000;fill-opacity:1"
         id="g3674">
        <path
           inkscape:connector-curvature="0"
           style="stroke:none;stroke-width:0"
           d="m 2.328125,-4.4375 c 0,-0.1875 0,-0.1875 -0.203125,-0.1875 -0.453125,0.4375 -1.078125,0.4375 -1.359375,0.4375 v 0.25 c 0.15625,0 0.625,0 1,-0.1875 v 3.546875 c 0,0.234375 0,0.328125 -0.6875,0.328125 H 0.8125 V 0 c 0.125,0 0.984375,-0.03125 1.234375,-0.03125 0.21875,0 1.09375,0.03125 1.25,0.03125 V -0.25 H 3.03125 c -0.703125,0 -0.703125,-0.09375 -0.703125,-0.328125 z m 0,0"
           transform="translate(197.283,136.259)"
           id="path3672" />
      </g>
    </g>
    <g
       id="g3686"
       transform="translate(-26.458334,-48.333091)">
      <g
         transform="matrix(0.572554,0,0,0.572554,-53.927257,35.868217)"
         style="fill:#000000;fill-opacity:1"
         id="g3680">
        <path
           inkscape:connector-curvature="0"
           style="stroke:none;stroke-width:0"
           d="m 5.515625,-6.78125 h -5.1875 v 0.3125 H 0.5625 c 0.765625,0 0.796875,0.109375 0.796875,0.46875 v 5.21875 c 0,0.359375 -0.03125,0.46875 -0.796875,0.46875 H 0.328125 V 0 c 0.34375,-0.03125 1.125,-0.03125 1.515625,-0.03125 0.40625,0 1.3125,0 1.671875,0.03125 V -0.3125 H 3.1875 C 2.25,-0.3125 2.25,-0.4375 2.25,-0.78125 v -5.296875 c 0,-0.328125 0.015625,-0.390625 0.484375,-0.390625 h 1.03125 c 1.421875,0 1.625,0.59375 1.78125,1.9375 h 0.25 z m 0,0"
           transform="translate(177.039,134.765)"
           id="path3678" />
      </g>
      <g
         transform="matrix(0.572554,0,0,0.572554,-53.927257,35.868217)"
         style="fill:#000000;fill-opacity:1"
         id="g3684">
        <path
           inkscape:connector-curvature="0"
           style="stroke:none;stroke-width:0"
           d="M 3.59375,-2.21875 C 3.59375,-2.984375 3.5,-3.546875 3.1875,-4.03125 2.96875,-4.34375 2.53125,-4.625 1.984375,-4.625 c -1.625,0 -1.625,1.90625 -1.625,2.40625 0,0.5 0,2.359375 1.625,2.359375 1.609375,0 1.609375,-1.859375 1.609375,-2.359375 z M 1.984375,-0.0625 c -0.328125,0 -0.75,-0.1875 -0.890625,-0.75 C 1,-1.21875 1,-1.796875 1,-2.3125 1,-2.828125 1,-3.359375 1.09375,-3.734375 1.25,-4.28125 1.6875,-4.4375 1.984375,-4.4375 c 0.375,0 0.734375,0.234375 0.859375,0.640625 0.109375,0.375 0.125,0.875 0.125,1.484375 0,0.515625 0,1.03125 -0.09375,1.46875 -0.140625,0.640625 -0.609375,0.78125 -0.890625,0.78125 z m 0,0"
           transform="translate(183.266,136.259)"
           id="path3682" />
      </g>
    </g>
    <g
       style="fill:#ff0000"
       id="g3696"
       transform="translate(42.978173,-68.360913)">
      <g
         transform="matrix(0.572554,0,0,0.572554,-53.927257,35.868217)"
         style="fill:#ff0000;fill-opacity:1"
         id="g3690">
        <path
           inkscape:connector-curvature="0"
           style="fill:#ff0000;stroke:none;stroke-width:0"
           d="m 5.515625,-6.78125 h -5.1875 v 0.3125 H 0.5625 c 0.765625,0 0.796875,0.109375 0.796875,0.46875 v 5.21875 c 0,0.359375 -0.03125,0.46875 -0.796875,0.46875 H 0.328125 V 0 c 0.34375,-0.03125 1.125,-0.03125 1.515625,-0.03125 0.40625,0 1.3125,0 1.671875,0.03125 V -0.3125 H 3.1875 C 2.25,-0.3125 2.25,-0.4375 2.25,-0.78125 v -5.296875 c 0,-0.328125 0.015625,-0.390625 0.484375,-0.390625 h 1.03125 c 1.421875,0 1.625,0.59375 1.78125,1.9375 h 0.25 z m 0,0"
           transform="translate(205.073,134.765)"
           id="path3688" />
      </g>
      <g
         transform="matrix(0.572554,0,0,0.572554,-53.927257,35.868217)"
         style="fill:#ff0000;fill-opacity:1"
         id="g3694">
        <path
           inkscape:connector-curvature="0"
           style="fill:#ff0000;stroke:none;stroke-width:0"
           d="M 3.515625,-1.265625 H 3.28125 c -0.015625,0.15625 -0.09375,0.5625 -0.1875,0.625 C 3.046875,-0.59375 2.515625,-0.59375 2.40625,-0.59375 H 1.125 c 0.734375,-0.640625 0.984375,-0.84375 1.390625,-1.171875 0.515625,-0.40625 1,-0.84375 1,-1.5 0,-0.84375 -0.734375,-1.359375 -1.625,-1.359375 -0.859375,0 -1.453125,0.609375 -1.453125,1.25 0,0.34375 0.296875,0.390625 0.375,0.390625 0.15625,0 0.359375,-0.125 0.359375,-0.375 0,-0.125 -0.046875,-0.375 -0.40625,-0.375 C 0.984375,-4.21875 1.453125,-4.375 1.78125,-4.375 c 0.703125,0 1.0625,0.546875 1.0625,1.109375 0,0.609375 -0.4375,1.078125 -0.65625,1.328125 L 0.515625,-0.265625 C 0.4375,-0.203125 0.4375,-0.1875 0.4375,0 h 2.875 z m 0,0"
           transform="translate(211.3,136.259)"
           id="path3692" />
      </g>
    </g>
    <g
       transform="matrix(0.572554,0,0,0.572554,-70.774719,-10.231678)"
       style="fill:#000000;fill-opacity:1"
       id="g4124">
      <path
         inkscape:connector-curvature="0"
         style="stroke:none;stroke-width:0"
         d="m 0.875,-0.59375 c -0.03125,0.15625 -0.09375,0.390625 -0.09375,0.4375 0,0.171875 0.140625,0.265625 0.296875,0.265625 0.125,0 0.296875,-0.078125 0.375,-0.28125 0,-0.015625 0.125,-0.484375 0.1875,-0.734375 l 0.21875,-0.890625 C 1.90625,-2.03125 1.96875,-2.25 2.03125,-2.46875 c 0.03125,-0.171875 0.109375,-0.46875 0.125,-0.5 0.140625,-0.3125 0.671875,-1.21875 1.625,-1.21875 0.453125,0 0.53125,0.375 0.53125,0.703125 0,0.25 -0.0625,0.53125 -0.140625,0.828125 L 3.890625,-1.5 3.6875,-0.75 c -0.03125,0.203125 -0.125,0.546875 -0.125,0.59375 0,0.171875 0.140625,0.265625 0.28125,0.265625 0.3125,0 0.375,-0.25 0.453125,-0.5625 0.140625,-0.5625 0.515625,-2.015625 0.59375,-2.40625 0.03125,-0.125 0.5625,-1.328125 1.65625,-1.328125 0.421875,0 0.53125,0.34375 0.53125,0.703125 0,0.5625 -0.421875,1.703125 -0.625,2.234375 -0.078125,0.234375 -0.125,0.34375 -0.125,0.546875 0,0.46875 0.34375,0.8125 0.8125,0.8125 0.9375,0 1.3125,-1.453125 1.3125,-1.53125 0,-0.109375 -0.09375,-0.109375 -0.125,-0.109375 -0.09375,0 -0.09375,0.03125 -0.140625,0.1875 -0.15625,0.53125 -0.46875,1.234375 -1.015625,1.234375 -0.171875,0 -0.25,-0.09375 -0.25,-0.328125 0,-0.25 0.09375,-0.484375 0.1875,-0.703125 0.1875,-0.53125 0.609375,-1.625 0.609375,-2.203125 0,-0.640625 -0.40625,-1.0625 -1.15625,-1.0625 -0.734375,0 -1.25,0.4375 -1.625,0.96875 0,-0.125 -0.03125,-0.46875 -0.3125,-0.703125 -0.25,-0.21875 -0.5625,-0.265625 -0.8125,-0.265625 -0.90625,0 -1.390625,0.640625 -1.5625,0.875 -0.046875,-0.578125 -0.46875,-0.875 -0.921875,-0.875 -0.453125,0 -0.640625,0.390625 -0.734375,0.5625 -0.171875,0.359375 -0.296875,0.9375 -0.296875,0.96875 0,0.109375 0.09375,0.109375 0.109375,0.109375 0.109375,0 0.109375,-0.015625 0.171875,-0.234375 0.171875,-0.703125 0.375,-1.1875 0.734375,-1.1875 0.15625,0 0.296875,0.078125 0.296875,0.453125 0,0.21875 -0.03125,0.328125 -0.15625,0.84375 z m 0,0"
         transform="translate(148.712,134.765)"
         id="path4122" />
    </g>
    <g
       transform="matrix(0.572554,0,0,0.572554,-81.34848,-28.439396)"
       style="fill:#ff0000;fill-opacity:1"
       id="g4132">
      <path
         inkscape:connector-curvature="0"
         style="fill:#ff0000;stroke:none;stroke-width:0"
         d="m 2.046875,-3.984375 h 0.9375 c 0.203125,0 0.3125,0 0.3125,-0.203125 0,-0.109375 -0.109375,-0.109375 -0.28125,-0.109375 h -0.875 C 2.5,-5.71875 2.546875,-5.90625 2.546875,-5.96875 c 0,-0.171875 -0.125,-0.265625 -0.296875,-0.265625 -0.03125,0 -0.3125,0 -0.390625,0.359375 L 1.46875,-4.296875 h -0.9375 c -0.203125,0 -0.296875,0 -0.296875,0.1875 0,0.125 0.078125,0.125 0.28125,0.125 h 0.875 C 0.671875,-1.15625 0.625,-0.984375 0.625,-0.8125 0.625,-0.265625 1,0.109375 1.546875,0.109375 2.5625,0.109375 3.125,-1.34375 3.125,-1.421875 3.125,-1.53125 3.046875,-1.53125 3.015625,-1.53125 2.921875,-1.53125 2.90625,-1.5 2.859375,-1.390625 2.4375,-0.34375 1.90625,-0.109375 1.5625,-0.109375 c -0.203125,0 -0.3125,-0.125 -0.3125,-0.453125 0,-0.25 0.03125,-0.3125 0.0625,-0.484375 z m 0,0"
         transform="translate(168.41603,134.765)"
         id="path4130" />
    </g>
    <g
       transform="matrix(0.57255399,0,0,0.57255399,92.214526,-10.034861)"
       style="fill:#000000;fill-opacity:1"
       id="g4128">
      <path
         inkscape:connector-curvature="0"
         style="stroke:none;stroke-width:0"
         d="m 3.953125,-3.78125 c -0.171875,0 -0.296875,0 -0.4375,0.125 -0.171875,0.15625 -0.1875,0.328125 -0.1875,0.390625 0,0.25 0.1875,0.359375 0.375,0.359375 0.28125,0 0.546875,-0.25 0.546875,-0.640625 0,-0.484375 -0.46875,-0.859375 -1.171875,-0.859375 -1.34375,0 -2.671875,1.421875 -2.671875,2.828125 0,0.90625 0.578125,1.6875 1.625,1.6875 1.421875,0 2.25,-1.0625 2.25,-1.171875 0,-0.0625 -0.046875,-0.140625 -0.109375,-0.140625 -0.0625,0 -0.078125,0.03125 -0.140625,0.109375 -0.78125,0.984375 -1.875,0.984375 -1.984375,0.984375 -0.625,0 -0.90625,-0.484375 -0.90625,-1.09375 0,-0.40625 0.203125,-1.375 0.546875,-1.984375 0.3125,-0.578125 0.859375,-1 1.40625,-1 0.328125,0 0.71875,0.125 0.859375,0.40625 z m 0,0"
         transform="translate(160.77671,134.765)"
         id="path4126" />
    </g>
    <g
       id="g6268"
       ns1:jacobian_sqrt="0.572554"
       ns1:alignment="middle center"
       ns1:scale="1.62298669967"
       ns1:preamble="/home/hosein/.config/inkscape/extensions/default_packages.tex"
       ns1:text="$\\Gamma_{1} \\oplus \\Gamma_{2}$"
       ns1:pdfconverter="pdf2svg"
       ns1:texconverter="pdflatex"
       ns1:version="0.8.1"
       transform="matrix(0.572554,0,0,0.572554,-7.3719011,-32.492696)"
       style="fill:#ff0000">
      <g
         id="surface1"
         style="fill:#ff0000">
        <g
           id="g6249"
           style="fill:#ff0000;fill-opacity:1">
          <path
             id="path6247"
             transform="translate(148.712,134.765)"
             d="m 5.515625,-6.78125 h -5.1875 v 0.3125 H 0.5625 c 0.765625,0 0.796875,0.109375 0.796875,0.46875 v 5.21875 c 0,0.359375 -0.03125,0.46875 -0.796875,0.46875 H 0.328125 V 0 c 0.34375,-0.03125 1.125,-0.03125 1.515625,-0.03125 0.40625,0 1.3125,0 1.671875,0.03125 V -0.3125 H 3.1875 C 2.25,-0.3125 2.25,-0.4375 2.25,-0.78125 v -5.296875 c 0,-0.328125 0.015625,-0.390625 0.484375,-0.390625 h 1.03125 c 1.421875,0 1.625,0.59375 1.78125,1.9375 h 0.25 z m 0,0"
             style="stroke:none;stroke-width:0;fill:#ff0000"
             inkscape:connector-curvature="0" />
        </g>
        <g
           id="g6253"
           style="fill:#ff0000;fill-opacity:1">
          <path
             id="path6251"
             transform="translate(154.939,136.259)"
             d="m 2.328125,-4.4375 c 0,-0.1875 0,-0.1875 -0.203125,-0.1875 -0.453125,0.4375 -1.078125,0.4375 -1.359375,0.4375 v 0.25 c 0.15625,0 0.625,0 1,-0.1875 v 3.546875 c 0,0.234375 0,0.328125 -0.6875,0.328125 H 0.8125 V 0 c 0.125,0 0.984375,-0.03125 1.234375,-0.03125 0.21875,0 1.09375,0.03125 1.25,0.03125 V -0.25 H 3.03125 c -0.703125,0 -0.703125,-0.09375 -0.703125,-0.328125 z m 0,0"
             style="stroke:none;stroke-width:0;fill:#ff0000"
             inkscape:connector-curvature="0" />
        </g>
        <g
           id="g6257"
           style="fill:#ff0000;fill-opacity:1">
          <path
             id="path6255"
             transform="translate(161.622,134.765)"
             d="m 7.203125,-2.5 c 0,-1.828125 -1.5,-3.3125 -3.328125,-3.3125 -1.84375,0 -3.328125,1.5 -3.328125,3.3125 0,1.84375 1.5,3.328125 3.328125,3.328125 1.84375,0 3.328125,-1.5 3.328125,-3.328125 z M 0.796875,-2.625 C 0.890625,-4.296875 2.1875,-5.484375 3.75,-5.5625 V -2.625 Z M 4,-5.5625 c 1.5625,0.078125 2.84375,1.28125 2.953125,2.9375 H 4 Z M 3.75,0.578125 C 2.203125,0.5 0.890625,-0.671875 0.796875,-2.375 H 3.75 Z M 6.953125,-2.375 C 6.84375,-0.671875 5.53125,0.5 4,0.578125 V -2.375 Z m 0,0"
             style="stroke:none;stroke-width:0;fill:#ff0000"
             inkscape:connector-curvature="0" />
        </g>
        <g
           id="g6261"
           style="fill:#ff0000;fill-opacity:1">
          <path
             id="path6259"
             transform="translate(171.585,134.765)"
             d="m 5.515625,-6.78125 h -5.1875 v 0.3125 H 0.5625 c 0.765625,0 0.796875,0.109375 0.796875,0.46875 v 5.21875 c 0,0.359375 -0.03125,0.46875 -0.796875,0.46875 H 0.328125 V 0 c 0.34375,-0.03125 1.125,-0.03125 1.515625,-0.03125 0.40625,0 1.3125,0 1.671875,0.03125 V -0.3125 H 3.1875 C 2.25,-0.3125 2.25,-0.4375 2.25,-0.78125 v -5.296875 c 0,-0.328125 0.015625,-0.390625 0.484375,-0.390625 h 1.03125 c 1.421875,0 1.625,0.59375 1.78125,1.9375 h 0.25 z m 0,0"
             style="stroke:none;stroke-width:0;fill:#ff0000"
             inkscape:connector-curvature="0" />
        </g>
        <g
           id="g6265"
           style="fill:#ff0000;fill-opacity:1">
          <path
             id="path6263"
             transform="translate(177.811,136.259)"
             d="M 3.515625,-1.265625 H 3.28125 c -0.015625,0.15625 -0.09375,0.5625 -0.1875,0.625 C 3.046875,-0.59375 2.515625,-0.59375 2.40625,-0.59375 H 1.125 c 0.734375,-0.640625 0.984375,-0.84375 1.390625,-1.171875 0.515625,-0.40625 1,-0.84375 1,-1.5 0,-0.84375 -0.734375,-1.359375 -1.625,-1.359375 -0.859375,0 -1.453125,0.609375 -1.453125,1.25 0,0.34375 0.296875,0.390625 0.375,0.390625 0.15625,0 0.359375,-0.125 0.359375,-0.375 0,-0.125 -0.046875,-0.375 -0.40625,-0.375 C 0.984375,-4.21875 1.453125,-4.375 1.78125,-4.375 c 0.703125,0 1.0625,0.546875 1.0625,1.109375 0,0.609375 -0.4375,1.078125 -0.65625,1.328125 L 0.515625,-0.265625 C 0.4375,-0.203125 0.4375,-0.1875 0.4375,0 h 2.875 z m 0,0"
             style="stroke:none;stroke-width:0;fill:#ff0000"
             inkscape:connector-curvature="0" />
        </g>
      </g>
    </g>
  </g>
</svg>
