<?xml version="1.0" encoding="UTF-8" standalone="no"?>
<!-- Created with Inkscape (http://www.inkscape.org/) -->

<svg
   xmlns:dc="http://purl.org/dc/elements/1.1/"
   xmlns:cc="http://creativecommons.org/ns#"
   xmlns:rdf="http://www.w3.org/1999/02/22-rdf-syntax-ns#"
   xmlns:svg="http://www.w3.org/2000/svg"
   xmlns="http://www.w3.org/2000/svg"
   xmlns:sodipodi="http://sodipodi.sourceforge.net/DTD/sodipodi-0.dtd"
   xmlns:inkscape="http://www.inkscape.org/namespaces/inkscape"
   width="210mm"
   height="297mm"
   viewBox="0 0 210 297"
   version="1.1"
   id="svg3119"
   inkscape:version="0.92.3 (2405546, 2018-03-11)"
   sodipodi:docname="ordinary_bc.svg">
  <defs
     id="defs3113">
    <marker
       inkscape:stockid="Arrow2Mend"
       orient="auto"
       refY="0"
       refX="0"
       id="marker2572"
       style="overflow:visible"
       inkscape:isstock="true">
      <path
         inkscape:connector-curvature="0"
         id="path2570"
         style="fill:#000000;fill-opacity:1;fill-rule:evenodd;stroke:#000000;stroke-width:0.625;stroke-linejoin:round;stroke-opacity:1"
         d="M 8.7185878,4.0337352 -2.2072895,0.01601326 8.7185884,-4.0017078 c -1.7454984,2.3720609 -1.7354408,5.6174519 -6e-7,8.035443 z"
         transform="scale(-0.6)" />
    </marker>
    <marker
       inkscape:isstock="true"
       style="overflow:visible"
       id="marker2542"
       refX="0"
       refY="0"
       orient="auto"
       inkscape:stockid="Arrow2Mend">
      <path
         inkscape:connector-curvature="0"
         transform="scale(-0.6)"
         d="M 8.7185878,4.0337352 -2.2072895,0.01601326 8.7185884,-4.0017078 c -1.7454984,2.3720609 -1.7354408,5.6174519 -6e-7,8.035443 z"
         style="fill:#000000;fill-opacity:1;fill-rule:evenodd;stroke:#000000;stroke-width:0.625;stroke-linejoin:round;stroke-opacity:1"
         id="path2540" />
    </marker>
    <marker
       inkscape:stockid="Arrow2Mend"
       orient="auto"
       refY="0"
       refX="0"
       id="marker2514"
       style="overflow:visible"
       inkscape:isstock="true">
      <path
         inkscape:connector-curvature="0"
         id="path2512"
         style="fill:#000000;fill-opacity:1;fill-rule:evenodd;stroke:#000000;stroke-width:0.625;stroke-linejoin:round;stroke-opacity:1"
         d="M 8.7185878,4.0337352 -2.2072895,0.01601326 8.7185884,-4.0017078 c -1.7454984,2.3720609 -1.7354408,5.6174519 -6e-7,8.035443 z"
         transform="scale(-0.6)" />
    </marker>
  </defs>
  <sodipodi:namedview
     id="base"
     pagecolor="#ffffff"
     bordercolor="#666666"
     borderopacity="1.0"
     inkscape:pageopacity="0.0"
     inkscape:pageshadow="2"
     inkscape:zoom="0.7"
     inkscape:cx="334.76809"
     inkscape:cy="631.48979"
     inkscape:document-units="mm"
     inkscape:current-layer="layer1"
     showgrid="false"
     inkscape:window-width="1299"
     inkscape:window-height="704"
     inkscape:window-x="67"
     inkscape:window-y="27"
     inkscape:window-maximized="1" />
  <metadata
     id="metadata3116">
    <rdf:RDF>
      <cc:Work
         rdf:about="">
        <dc:format>image/svg+xml</dc:format>
        <dc:type
           rdf:resource="http://purl.org/dc/dcmitype/StillImage" />
        <dc:title></dc:title>
      </cc:Work>
    </rdf:RDF>
  </metadata>
  <g
     inkscape:label="Layer 1"
     inkscape:groupmode="layer"
     id="layer1">
    <g
       transform="translate(43.731493,36.759331)"
       id="g3685">
      <rect
         style="opacity:1;fill:none;fill-opacity:1;fill-rule:nonzero;stroke:#000000;stroke-width:0.41161165;stroke-linecap:round;stroke-linejoin:round;stroke-miterlimit:4;stroke-dasharray:none;stroke-dashoffset:0;stroke-opacity:1;paint-order:markers fill stroke"
         id="rect815"
         width="12.32126"
         height="12.32126"
         x="13.213843"
         y="73.427086" />
      <path
         style="fill:none;stroke:#000000;stroke-width:0.26458332px;stroke-linecap:butt;stroke-linejoin:miter;stroke-opacity:1;marker-end:url(#marker2572)"
         d="M 19.377016,93.67084 V 86.262507"
         id="path823"
         inkscape:connector-curvature="0" />
      <path
         inkscape:connector-curvature="0"
         id="path1131"
         d="M 5.3065553,79.590258 H 12.714888"
         style="fill:none;stroke:#000000;stroke-width:0.26458332px;stroke-linecap:butt;stroke-linejoin:miter;stroke-opacity:1;marker-end:url(#marker2542)" />
      <path
         style="fill:none;stroke:#000000;stroke-width:0.26458332px;stroke-linecap:butt;stroke-linejoin:miter;stroke-opacity:1;marker-end:url(#marker2514)"
         d="m 25.414889,79.590258 h 7.408333"
         id="path1245"
         inkscape:connector-curvature="0" />
      <g
         id="g1846"
         style="fill:#000000;fill-opacity:1"
         transform="matrix(0.57255347,0,0,0.57255347,-68.414685,20.849889)">
        <path
           id="path1844"
           transform="translate(148.712,134.765)"
           d="M 5.078125,-4.03125 C 5.0625,-4.0625 5.03125,-4.140625 5.03125,-4.171875 c 0,0 0.171875,-0.140625 0.28125,-0.21875 l 1.75,-1.34375 C 8,-6.4375 8.390625,-6.46875 8.6875,-6.5 8.765625,-6.515625 8.859375,-6.515625 8.859375,-6.703125 8.859375,-6.734375 8.828125,-6.8125 8.75,-6.8125 c -0.21875,0 -0.46875,0.03125 -0.703125,0.03125 -0.359375,0 -0.75,-0.03125 -1.109375,-0.03125 -0.0625,0 -0.1875,0 -0.1875,0.203125 0,0.0625 0.046875,0.09375 0.125,0.109375 0.21875,0.015625 0.296875,0.0625 0.296875,0.203125 0,0.1875 -0.296875,0.421875 -0.359375,0.46875 L 2.9375,-2.84375 3.734375,-6.046875 C 3.8125,-6.40625 3.84375,-6.5 4.5625,-6.5 c 0.25,0 0.34375,0 0.34375,-0.203125 0,-0.078125 -0.078125,-0.109375 -0.140625,-0.109375 -0.28125,0 -1,0.03125 -1.28125,0.03125 C 3.203125,-6.78125 2.5,-6.8125 2.203125,-6.8125 2.140625,-6.8125 2,-6.8125 2,-6.625 2,-6.5 2.09375,-6.5 2.296875,-6.5 c 0.125,0 0.3125,0.015625 0.421875,0.015625 0.15625,0.03125 0.21875,0.046875 0.21875,0.171875 0,0.03125 0,0.0625 -0.03125,0.1875 L 1.5625,-0.78125 c -0.09375,0.390625 -0.109375,0.46875 -0.90625,0.46875 -0.171875,0 -0.28125,0 -0.28125,0.1875 C 0.375,0 0.5,0 0.53125,0 0.8125,0 1.515625,-0.03125 1.796875,-0.03125 2,-0.03125 2.21875,-0.015625 2.4375,-0.015625 2.65625,-0.015625 2.875,0 3.078125,0 3.15625,0 3.28125,0 3.28125,-0.203125 3.28125,-0.3125 3.1875,-0.3125 3,-0.3125 c -0.375,0 -0.640625,0 -0.640625,-0.171875 0,-0.078125 0.046875,-0.296875 0.078125,-0.4375 C 2.578125,-1.453125 2.71875,-1.96875 2.84375,-2.5 l 1.484375,-1.15625 1.15625,2.6875 c 0.125,0.265625 0.125,0.296875 0.125,0.34375 0,0.3125 -0.4375,0.3125 -0.53125,0.3125 -0.109375,0 -0.21875,0 -0.21875,0.203125 C 4.859375,0 4.984375,0 5,0 5.40625,0 5.828125,-0.03125 6.21875,-0.03125 6.4375,-0.03125 6.984375,0 7.203125,0 7.25,0 7.375,0 7.375,-0.203125 7.375,-0.3125 7.265625,-0.3125 7.171875,-0.3125 c -0.40625,0 -0.53125,-0.09375 -0.6875,-0.4375 z m 0,0"
           style="stroke:none;stroke-width:0"
           inkscape:connector-curvature="0" />
      </g>
      <g
         id="g1854"
         style="fill:#000000;fill-opacity:1"
         transform="matrix(0.57255347,0,0,0.57255347,-92.769596,4.3778076)">
        <path
           id="path1852"
           transform="translate(161.764,134.765)"
           d="M 3.015625,-3.15625 H 4.71875 c 1.40625,0 2.796875,-1.03125 2.796875,-2.140625 0,-0.78125 -0.65625,-1.515625 -1.96875,-1.515625 h -3.21875 c -0.1875,0 -0.296875,0 -0.296875,0.1875 0,0.125 0.078125,0.125 0.28125,0.125 0.125,0 0.3125,0.015625 0.421875,0.015625 0.171875,0.03125 0.21875,0.046875 0.21875,0.171875 0,0.03125 0,0.0625 -0.03125,0.1875 l -1.34375,5.34375 c -0.09375,0.390625 -0.109375,0.46875 -0.90625,0.46875 -0.15625,0 -0.265625,0 -0.265625,0.1875 C 0.40625,0 0.515625,0 0.546875,0 0.828125,0 1.53125,-0.03125 1.8125,-0.03125 c 0.21875,0 0.4375,0.015625 0.640625,0.015625 0.21875,0 0.4375,0.015625 0.640625,0.015625 0.078125,0 0.203125,0 0.203125,-0.203125 0,-0.109375 -0.09375,-0.109375 -0.28125,-0.109375 -0.359375,0 -0.640625,0 -0.640625,-0.171875 0,-0.0625 0.015625,-0.109375 0.03125,-0.171875 z M 3.734375,-6.125 C 3.828125,-6.46875 3.84375,-6.5 4.28125,-6.5 h 0.953125 c 0.828125,0 1.359375,0.265625 1.359375,0.953125 0,0.390625 -0.203125,1.25 -0.59375,1.609375 -0.5,0.453125 -1.09375,0.53125 -1.53125,0.53125 H 3.0625 Z m 0,0"
           style="stroke:none;stroke-width:0"
           inkscape:connector-curvature="0" />
      </g>
      <g
         id="g1862"
         style="fill:#000000;fill-opacity:1"
         transform="matrix(0.57255347,0,0,0.57255347,-65.367109,4.3778076)">
        <path
           id="path1860"
           transform="translate(172.86035,134.765)"
           d="m 7.578125,-6.921875 c 0,-0.03125 -0.015625,-0.109375 -0.109375,-0.109375 -0.03125,0 -0.046875,0.015625 -0.15625,0.125 L 6.625,-6.140625 C 6.53125,-6.28125 6.078125,-7.03125 4.96875,-7.03125 2.734375,-7.03125 0.5,-4.828125 0.5,-2.515625 0.5,-0.875 1.671875,0.21875 3.203125,0.21875 c 0.859375,0 1.625,-0.390625 2.15625,-0.859375 0.921875,-0.8125 1.09375,-1.71875 1.09375,-1.75 C 6.453125,-2.5 6.34375,-2.5 6.328125,-2.5 c -0.0625,0 -0.109375,0.03125 -0.125,0.109375 -0.09375,0.28125 -0.328125,1 -1.015625,1.578125 -0.6875,0.546875 -1.3125,0.71875 -1.828125,0.71875 -0.890625,0 -1.953125,-0.515625 -1.953125,-2.0625 0,-0.578125 0.203125,-2.1875 1.203125,-3.359375 0.609375,-0.703125 1.546875,-1.203125 2.4375,-1.203125 1.015625,0 1.609375,0.765625 1.609375,1.921875 0,0.40625 -0.03125,0.40625 -0.03125,0.515625 0,0.09375 0.109375,0.09375 0.140625,0.09375 0.125,0 0.125,-0.015625 0.1875,-0.203125 z m 0,0"
           style="stroke:none;stroke-width:0"
           inkscape:connector-curvature="0" />
      </g>
      <g
         id="g2739"
         transform="matrix(0.52139775,0,0,0.52139775,-35.685,8.1433632)">
        <g
           transform="matrix(0.572553,0,0,0.572553,-72.856143,61.291471)"
           id="g2122"
           style="fill:#000000;fill-opacity:1">
          <path
             inkscape:connector-curvature="0"
             id="path2120"
             transform="translate(299.221,134.765)"
             d="M 7.0625,-2.328125 C 7.078125,-2.375 7.109375,-2.4375 7.109375,-2.46875 c 0,0 0,-0.109375 -0.125,-0.109375 -0.09375,0 -0.109375,0.0625 -0.125,0.125 C 6.203125,-0.984375 5.84375,-0.3125 4.140625,-0.3125 H 2.6875 c -0.140625,0 -0.171875,0 -0.21875,0 -0.109375,-0.015625 -0.140625,-0.03125 -0.140625,-0.109375 0,-0.03125 0,-0.046875 0.046875,-0.21875 L 3.0625,-3.375 h 0.984375 c 0.84375,0 0.84375,0.21875 0.84375,0.46875 0,0.0625 0,0.1875 -0.0625,0.484375 C 4.8125,-2.375 4.796875,-2.34375 4.796875,-2.3125 c 0,0.046875 0.03125,0.109375 0.125,0.109375 C 5,-2.203125 5.03125,-2.25 5.078125,-2.40625 l 0.5625,-2.328125 c 0,-0.0625 -0.046875,-0.109375 -0.125,-0.109375 -0.078125,0 -0.109375,0.0625 -0.125,0.171875 -0.21875,0.765625 -0.390625,1 -1.3125,1 h -0.9375 l 0.59375,-2.40625 C 3.828125,-6.4375 3.84375,-6.46875 4.28125,-6.46875 H 5.6875 c 1.203125,0 1.515625,0.28125 1.515625,1.109375 0,0.234375 0,0.25 -0.046875,0.53125 0,0.046875 -0.015625,0.125 -0.015625,0.171875 0,0.046875 0.03125,0.125 0.125,0.125 0.109375,0 0.125,-0.0625 0.140625,-0.25 L 7.609375,-6.515625 C 7.640625,-6.78125 7.59375,-6.78125 7.34375,-6.78125 H 2.296875 c -0.1875,0 -0.296875,0 -0.296875,0.203125 0,0.109375 0.09375,0.109375 0.28125,0.109375 0.375,0 0.65625,0 0.65625,0.171875 0,0.046875 0,0.0625 -0.0625,0.25 L 1.5625,-0.78125 c -0.09375,0.390625 -0.109375,0.46875 -0.90625,0.46875 -0.171875,0 -0.28125,0 -0.28125,0.1875 C 0.375,0 0.46875,0 0.65625,0 h 5.171875 c 0.234375,0 0.25,-0.015625 0.3125,-0.171875 z m 0,0"
             style="stroke:none;stroke-width:0" />
        </g>
        <g
           transform="matrix(0.572553,0,0,0.572553,-72.856143,61.291471)"
           id="g2126"
           style="fill:#000000;fill-opacity:1">
          <path
             inkscape:connector-curvature="0"
             id="path2124"
             transform="translate(306.575,136.259)"
             d="M 3.984375,-2.796875 C 3.953125,-2.859375 3.9375,-2.875 3.9375,-2.890625 c 0,-0.015625 0.015625,-0.015625 0.171875,-0.125 l 0.703125,-0.5 c 0.921875,-0.640625 1.359375,-0.953125 1.84375,-1 0.078125,0 0.171875,0 0.171875,-0.140625 0,-0.0625 -0.046875,-0.09375 -0.09375,-0.09375 -0.15625,0 -0.328125,0.015625 -0.484375,0.015625 -0.1875,0 -0.65625,-0.03125 -0.84375,-0.03125 -0.046875,0 -0.140625,0 -0.140625,0.15625 0,0.015625 0,0.09375 0.09375,0.09375 0.09375,0.015625 0.1875,0.03125 0.1875,0.109375 0,0.125 -0.21875,0.28125 -0.3125,0.34375 L 2.328125,-2.015625 2.875,-4.21875 c 0.0625,-0.234375 0.078125,-0.296875 0.609375,-0.296875 0.125,0 0.21875,0 0.21875,-0.140625 0,-0.0625 -0.046875,-0.109375 -0.109375,-0.109375 -0.203125,0 -0.71875,0.03125 -0.921875,0.03125 -0.109375,0 -0.359375,0 -0.484375,0 C 2.0625,-4.75 1.890625,-4.765625 1.75,-4.765625 c -0.03125,0 -0.140625,0 -0.140625,0.15625 0,0.09375 0.078125,0.09375 0.234375,0.09375 0.109375,0 0.140625,0 0.265625,0.015625 0.140625,0.015625 0.15625,0.03125 0.15625,0.109375 0,0 0,0.046875 -0.03125,0.140625 l -0.9375,3.703125 C 1.25,-0.3125 1.234375,-0.25 0.6875,-0.25 c -0.125,0 -0.203125,0 -0.203125,0.15625 0,0 0,0.09375 0.109375,0.09375 0.203125,0 0.703125,-0.03125 0.90625,-0.03125 0.109375,0 0.359375,0 0.484375,0.015625 C 2.125,-0.015625 2.296875,0 2.421875,0 2.46875,0 2.578125,0 2.578125,-0.15625 2.578125,-0.25 2.484375,-0.25 2.34375,-0.25 c 0,0 -0.140625,0 -0.265625,-0.015625 C 1.921875,-0.28125 1.921875,-0.296875 1.921875,-0.375 1.921875,-0.421875 2,-0.6875 2.25,-1.703125 l 1.15625,-0.8125 1.015625,1.953125 c 0.046875,0.09375 0.046875,0.09375 0.046875,0.125 0,0.171875 -0.203125,0.1875 -0.328125,0.1875 -0.078125,0 -0.171875,0 -0.171875,0.15625 0,0 0,0.09375 0.109375,0.09375 C 4.28125,0 4.78125,-0.03125 4.96875,-0.03125 5.1875,-0.03125 5.46875,0 5.65625,0 5.75,0 5.796875,-0.046875 5.796875,-0.140625 5.796875,-0.25 5.703125,-0.25 5.640625,-0.25 c -0.125,0 -0.34375,-0.015625 -0.46875,-0.234375 z m 0,0"
             style="stroke:none;stroke-width:0" />
        </g>
        <g
           transform="matrix(0.572553,0,0,0.572553,-72.856143,61.291471)"
           id="g2130"
           style="fill:#000000;fill-opacity:1">
          <path
             inkscape:connector-curvature="0"
             id="path2128"
             transform="translate(314.256,134.765)"
             d="m 3.296875,2.390625 c 0,-0.03125 0,-0.046875 -0.171875,-0.21875 C 1.890625,0.921875 1.5625,-0.96875 1.5625,-2.5 c 0,-1.734375 0.375,-3.46875 1.609375,-4.703125 0.125,-0.125 0.125,-0.140625 0.125,-0.171875 0,-0.078125 -0.03125,-0.109375 -0.09375,-0.109375 -0.109375,0 -1,0.6875 -1.59375,1.953125 -0.5,1.09375 -0.625,2.203125 -0.625,3.03125 0,0.78125 0.109375,1.984375 0.65625,3.125 C 2.25,1.84375 3.09375,2.5 3.203125,2.5 c 0.0625,0 0.09375,-0.03125 0.09375,-0.109375 z m 0,0"
             style="stroke:none;stroke-width:0" />
        </g>
        <g
           transform="matrix(0.572553,0,0,0.572553,-72.856143,61.291471)"
           id="g2134"
           style="fill:#000000;fill-opacity:1">
          <path
             inkscape:connector-curvature="0"
             id="path2132"
             transform="translate(318.13,134.765)"
             d="m 1.90625,-0.53125 c 0,-0.28125 -0.234375,-0.53125 -0.515625,-0.53125 -0.296875,0 -0.53125,0.25 -0.53125,0.53125 C 0.859375,-0.234375 1.09375,0 1.390625,0 1.671875,0 1.90625,-0.234375 1.90625,-0.53125 Z m 0,0"
             style="stroke:none;stroke-width:0" />
        </g>
        <g
           transform="matrix(0.572553,0,0,0.572553,-72.856143,61.291471)"
           id="g2138"
           style="fill:#000000;fill-opacity:1">
          <path
             inkscape:connector-curvature="0"
             id="path2136"
             transform="translate(320.898,134.765)"
             d="m 2.875,-2.5 c 0,-0.765625 -0.109375,-1.96875 -0.65625,-3.109375 -0.59375,-1.21875 -1.453125,-1.875 -1.546875,-1.875 -0.0625,0 -0.109375,0.046875 -0.109375,0.109375 0,0.03125 0,0.046875 0.1875,0.234375 0.984375,0.984375 1.546875,2.5625 1.546875,4.640625 0,1.71875 -0.359375,3.46875 -1.59375,4.71875 C 0.5625,2.34375 0.5625,2.359375 0.5625,2.390625 0.5625,2.453125 0.609375,2.5 0.671875,2.5 0.765625,2.5 1.671875,1.8125 2.25,0.546875 2.765625,-0.546875 2.875,-1.65625 2.875,-2.5 Z m 0,0"
             style="stroke:none;stroke-width:0" />
        </g>
      </g>
    </g>
  </g>
</svg>
