<?xml version="1.0" encoding="UTF-8" standalone="no"?>
<!-- Created with Inkscape (http://www.inkscape.org/) -->

<svg
   xmlns:dc="http://purl.org/dc/elements/1.1/"
   xmlns:cc="http://creativecommons.org/ns#"
   xmlns:rdf="http://www.w3.org/1999/02/22-rdf-syntax-ns#"
   xmlns:svg="http://www.w3.org/2000/svg"
   xmlns="http://www.w3.org/2000/svg"
   xmlns:sodipodi="http://sodipodi.sourceforge.net/DTD/sodipodi-0.dtd"
   xmlns:inkscape="http://www.inkscape.org/namespaces/inkscape"
   width="213.55757mm"
   height="119.08209mm"
   viewBox="0 0 213.55757 119.08209"
   version="1.1"
   id="svg8"
   inkscape:version="0.92.5 (2060ec1f9f, 2020-04-08)"
   sodipodi:docname="KP.svg">
  <defs
     id="defs2">
    <marker
       inkscape:isstock="true"
       style="overflow:visible"
       id="marker7579"
       refX="0"
       refY="0"
       orient="auto"
       inkscape:stockid="Arrow2Mend">
      <path
         transform="scale(-0.6)"
         d="M 8.7185878,4.0337352 -2.2072895,0.01601326 8.7185884,-4.0017078 c -1.7454984,2.3720609 -1.7354408,5.6174519 -6e-7,8.035443 z"
         style="fill:#000000;fill-opacity:1;fill-rule:evenodd;stroke:#000000;stroke-width:0.625;stroke-linejoin:round;stroke-opacity:1"
         id="path7577"
         inkscape:connector-curvature="0" />
    </marker>
    <marker
       inkscape:stockid="Arrow2Mend"
       orient="auto"
       refY="0"
       refX="0"
       id="marker7435"
       style="overflow:visible"
       inkscape:isstock="true"
       inkscape:collect="always">
      <path
         id="path7433"
         style="fill:#000000;fill-opacity:1;fill-rule:evenodd;stroke:#000000;stroke-width:0.625;stroke-linejoin:round;stroke-opacity:1"
         d="M 8.7185878,4.0337352 -2.2072895,0.01601326 8.7185884,-4.0017078 c -1.7454984,2.3720609 -1.7354408,5.6174519 -6e-7,8.035443 z"
         transform="scale(-0.6)"
         inkscape:connector-curvature="0" />
    </marker>
    <marker
       inkscape:isstock="true"
       style="overflow:visible"
       id="marker7309"
       refX="0"
       refY="0"
       orient="auto"
       inkscape:stockid="Arrow2Mend"
       inkscape:collect="always">
      <path
         transform="scale(-0.6)"
         d="M 8.7185878,4.0337352 -2.2072895,0.01601326 8.7185884,-4.0017078 c -1.7454984,2.3720609 -1.7354408,5.6174519 -6e-7,8.035443 z"
         style="fill:#000000;fill-opacity:1;fill-rule:evenodd;stroke:#000000;stroke-width:0.625;stroke-linejoin:round;stroke-opacity:1"
         id="path7307"
         inkscape:connector-curvature="0" />
    </marker>
    <marker
       inkscape:isstock="true"
       style="overflow:visible"
       id="marker5366"
       refX="0"
       refY="0"
       orient="auto"
       inkscape:stockid="Arrow2Mend">
      <path
         transform="scale(-0.6)"
         d="M 8.7185878,4.0337352 -2.2072895,0.01601326 8.7185884,-4.0017078 c -1.7454984,2.3720609 -1.7354408,5.6174519 -6e-7,8.035443 z"
         style="fill:#000000;fill-opacity:1;fill-rule:evenodd;stroke:#000000;stroke-width:0.625;stroke-linejoin:round;stroke-opacity:1"
         id="path5364"
         inkscape:connector-curvature="0" />
    </marker>
    <marker
       inkscape:stockid="Arrow2Mend"
       orient="auto"
       refY="0"
       refX="0"
       id="Arrow2Mend"
       style="overflow:visible"
       inkscape:isstock="true"
       inkscape:collect="always">
      <path
         id="path4799"
         style="fill:#000000;fill-opacity:1;fill-rule:evenodd;stroke:#000000;stroke-width:0.625;stroke-linejoin:round;stroke-opacity:1"
         d="M 8.7185878,4.0337352 -2.2072895,0.01601326 8.7185884,-4.0017078 c -1.7454984,2.3720609 -1.7354408,5.6174519 -6e-7,8.035443 z"
         transform="scale(-0.6)"
         inkscape:connector-curvature="0" />
    </marker>
    <marker
       inkscape:stockid="Arrow1Send"
       orient="auto"
       refY="0"
       refX="0"
       id="Arrow1Send"
       style="overflow:visible"
       inkscape:isstock="true">
      <path
         id="path4787"
         d="M 0,0 5,-5 -12.5,0 5,5 Z"
         style="fill:#000000;fill-opacity:1;fill-rule:evenodd;stroke:#000000;stroke-width:1.00000003pt;stroke-opacity:1"
         transform="matrix(-0.2,0,0,-0.2,-1.2,0)"
         inkscape:connector-curvature="0" />
    </marker>
    <meshgradient
       inkscape:collect="always"
       id="meshgradient9429"
       gradientUnits="userSpaceOnUse"
       x="3.3929651"
       y="92.33448">
      <meshrow
         id="meshrow9431">
        <meshpatch
           id="meshpatch9433">
          <stop
             path="c 5.94939,-20.04  15.5953,-20.04  21.5446,0"
             style="stop-color:#ffffff;stop-opacity:1"
             id="stop9435" />
          <stop
             path="c 5.94939,20.04  5.94939,52.5314  0,72.5714"
             style="stop-color:#ff5555;stop-opacity:1"
             id="stop9437" />
          <stop
             path="c -5.94939,20.04  -15.5953,20.04  -21.5446,2.84217e-14"
             style="stop-color:#ffffff;stop-opacity:1"
             id="stop9439" />
          <stop
             path="c -5.94939,-20.04  -5.94939,-52.5314  -3.55271e-15,-72.5714"
             style="stop-color:#ff5555;stop-opacity:1"
             id="stop9441" />
        </meshpatch>
      </meshrow>
    </meshgradient>
    <meshgradient
       inkscape:collect="always"
       id="meshgradient9443"
       gradientUnits="userSpaceOnUse"
       x="48.901299"
       y="92.33448">
      <meshrow
         id="meshrow9445">
        <meshpatch
           id="meshpatch9447">
          <stop
             path="c 5.94939,-20.04  15.5953,-20.04  21.5446,0"
             style="stop-color:#ffffff;stop-opacity:1"
             id="stop9449" />
          <stop
             path="c 5.94939,20.04  5.94939,52.5314  0,72.5714"
             style="stop-color:#ff5555;stop-opacity:1"
             id="stop9451" />
          <stop
             path="c -5.94939,20.04  -15.5953,20.04  -21.5446,2.84217e-14"
             style="stop-color:#ffffff;stop-opacity:1"
             id="stop9453" />
          <stop
             path="c -5.94939,-20.04  -5.94939,-52.5314  0,-72.5714"
             style="stop-color:#ff5555;stop-opacity:1"
             id="stop9455" />
        </meshpatch>
      </meshrow>
    </meshgradient>
    <meshgradient
       inkscape:collect="always"
       id="meshgradient9457"
       gradientUnits="userSpaceOnUse"
       x="94.40963"
       y="92.33448">
      <meshrow
         id="meshrow9459">
        <meshpatch
           id="meshpatch9461">
          <stop
             path="c 5.94939,-20.04  15.5953,-20.04  21.5446,0"
             style="stop-color:#ffffff;stop-opacity:1"
             id="stop9463" />
          <stop
             path="c 5.94939,20.04  5.94939,52.5314  0,72.5714"
             style="stop-color:#ff5555;stop-opacity:1"
             id="stop9465" />
          <stop
             path="c -5.94939,20.04  -15.5953,20.04  -21.5446,2.84217e-14"
             style="stop-color:#ffffff;stop-opacity:1"
             id="stop9467" />
          <stop
             path="c -5.94939,-20.04  -5.94939,-52.5314  -1.42109e-14,-72.5714"
             style="stop-color:#ff5555;stop-opacity:1"
             id="stop9469" />
        </meshpatch>
      </meshrow>
    </meshgradient>
    <meshgradient
       inkscape:collect="always"
       id="meshgradient9471"
       gradientUnits="userSpaceOnUse"
       x="139.91798"
       y="92.33448">
      <meshrow
         id="meshrow9473">
        <meshpatch
           id="meshpatch9475">
          <stop
             path="c 5.94939,-20.04  15.5953,-20.04  21.5446,0"
             style="stop-color:#ffffff;stop-opacity:1"
             id="stop9477" />
          <stop
             path="c 5.94939,20.04  5.94939,52.5314  0,72.5714"
             style="stop-color:#ff5555;stop-opacity:1"
             id="stop9479" />
          <stop
             path="c -5.94939,20.04  -15.5953,20.04  -21.5446,2.84217e-14"
             style="stop-color:#ffffff;stop-opacity:1"
             id="stop9481" />
          <stop
             path="c -5.94939,-20.04  -5.94939,-52.5314  0,-72.5714"
             style="stop-color:#ff5555;stop-opacity:1"
             id="stop9483" />
        </meshpatch>
      </meshrow>
    </meshgradient>
    <meshgradient
       inkscape:collect="always"
       id="meshgradient9485"
       gradientUnits="userSpaceOnUse"
       x="185.98181"
       y="92.33448">
      <meshrow
         id="meshrow9487">
        <meshpatch
           id="meshpatch9489">
          <stop
             path="c 5.94939,-20.04  15.5953,-20.04  21.5446,0"
             style="stop-color:#ffffff;stop-opacity:1"
             id="stop9491" />
          <stop
             path="c 5.94939,20.04  5.94939,52.5314  0,72.5714"
             style="stop-color:#ff5555;stop-opacity:1"
             id="stop9493" />
          <stop
             path="c -5.94939,20.04  -15.5953,20.04  -21.5446,2.84217e-14"
             style="stop-color:#ffffff;stop-opacity:1"
             id="stop9495" />
          <stop
             path="c -5.94939,-20.04  -5.94939,-52.5314  0,-72.5714"
             style="stop-color:#ff5555;stop-opacity:1"
             id="stop9497" />
        </meshpatch>
      </meshrow>
    </meshgradient>
  </defs>
  <sodipodi:namedview
     id="base"
     pagecolor="#ffffff"
     bordercolor="#666666"
     borderopacity="1.0"
     inkscape:pageopacity="0.0"
     inkscape:pageshadow="2"
     inkscape:zoom="0.98994949"
     inkscape:cx="271.53149"
     inkscape:cy="313.3824"
     inkscape:document-units="mm"
     inkscape:current-layer="layer1"
     showgrid="false"
     inkscape:window-width="1920"
     inkscape:window-height="1043"
     inkscape:window-x="0"
     inkscape:window-y="0"
     inkscape:window-maximized="1"
     fit-margin-top="0"
     fit-margin-left="0"
     fit-margin-right="0"
     fit-margin-bottom="0" />
  <metadata
     id="metadata5">
    <rdf:RDF>
      <cc:Work
         rdf:about="">
        <dc:format>image/svg+xml</dc:format>
        <dc:type
           rdf:resource="http://purl.org/dc/dcmitype/StillImage" />
        <dc:title></dc:title>
      </cc:Work>
    </rdf:RDF>
  </metadata>
  <g
     inkscape:label="Layer 1"
     inkscape:groupmode="layer"
     id="layer1"
     transform="translate(1.3190765,-75.52105)">
    <g
       id="g5631"
       transform="matrix(0.50923335,0,0,0.50923335,61.544557,67.843575)">
      <path
         style="font-style:normal;font-variant:normal;font-weight:normal;font-stretch:normal;letter-spacing:normal;word-spacing:normal;text-anchor:start;fill:#000000;fill-opacity:1;fill-rule:evenodd;stroke:#000000;stroke-width:0;stroke-linecap:butt;stroke-linejoin:miter;stroke-miterlimit:10.43299961;stroke-dasharray:none;stroke-dashoffset:0;stroke-opacity:1"
         inkscape:connector-curvature="0"
         d="m 33.15278,236.99836 0.21,-0.21 c 0.45,-0.45 0.93,-0.957 1.95,-1.032 0.18,-0.015 0.3,-0.015 0.3,-0.288 0,-0.117 -0.06,-0.177 -0.18,-0.177 -0.39,0 -0.84,0.048 -1.23,0.048 -0.48,0 -1.02,-0.048 -1.5,-0.048 -0.09,0 -0.27,0 -0.27,0.285 0,0.165 0.15,0.18 0.21,0.18 0.09,0 0.54,0.027 0.54,0.342 0,0.258 -0.33,0.642 -0.39,0.717 l -3.48,3.9933 -1.65,-4.4403 c -0.09,-0.21 -0.09,-0.237 -0.09,-0.252 0,-0.36 0.75,-0.36 0.9,-0.36 0.21,0 0.36,0 0.36,-0.3 0,-0.165 -0.18,-0.165 -0.24,-0.165 -0.42,0 -1.47,0.048 -1.89,0.048 -0.36,0 -1.29,-0.048 -1.65,-0.048 -0.12,0 -0.3,0 -0.3,0.3 0,0.165 0.15,0.165 0.33,0.165 0.9,0 0.96,0.135 1.11,0.507 l 1.83,4.9203 c 0.03,0.0423 0.06,0.2061 0.06,0.2532 0,0.042 -0.6,2.4516 -0.66,2.7186 -0.21,0.8205 -0.21,0.8673 -1.41,0.8814 -0.3,0 -0.42,0 -0.42,0.3 0,0.1641 0.21,0.1641 0.21,0.1641 0.42,0 1.47,-0.0471 1.89,-0.0471 0.42,0 1.5,0.0471 1.92,0.0471 0.09,0 0.27,0 0.27,-0.3 0,-0.1641 -0.12,-0.1641 -0.42,-0.1641 -0.03,0 -0.3,0 -0.54,-0.0282 -0.33,-0.0327 -0.42,-0.0609 -0.42,-0.2391 0,-0.1077 0.15,-0.6282 0.21,-0.9423 l 0.54,-2.1093 c 0.06,-0.2811 0.06,-0.3282 0.18,-0.4641 z"
         id="path5524" />
      <path
         style="font-style:normal;font-variant:normal;font-weight:normal;font-stretch:normal;letter-spacing:normal;word-spacing:normal;text-anchor:start;fill:#000000;fill-opacity:1;fill-rule:evenodd;stroke:#000000;stroke-width:0;stroke-linecap:butt;stroke-linejoin:miter;stroke-miterlimit:10.43299961;stroke-dasharray:none;stroke-dashoffset:0;stroke-opacity:1"
         inkscape:connector-curvature="0"
         d="m 50.67278,240.61186 0.03,-3e-4 0.06,-3e-4 0.03,-10e-4 0.03,-0.001 v -0.002 l 0.03,-0.002 0.03,-0.002 0.03,-0.003 v -0.004 l 0.03,-0.004 0.03,-0.005 v -0.006 l 0.03,-0.006 0.03,-0.007 v -0.008 l 0.03,-0.009 v -0.0105 l 0.03,-0.0114 v -0.0123 l 0.03,-0.0138 v -0.015 -0.008 -0.008 l 0.03,-0.008 v -0.009 -0.009 -0.01 -0.01 -0.0105 -0.0108 -0.0111 -0.0117 -0.0117 l 0.03,-0.0126 v -0.0126 -0.0132 -0.0138 c 0,-0.3 -0.3,-0.3 -0.51,-0.3 h -8.94 c -0.21,0 -0.51,0 -0.51,0.3 0,0.2955 0.3,0.2955 0.51,0.2955 z"
         id="path5526" />
      <path
         style="font-style:normal;font-variant:normal;font-weight:normal;font-stretch:normal;letter-spacing:normal;word-spacing:normal;text-anchor:start;fill:#000000;fill-opacity:1;fill-rule:evenodd;stroke:#000000;stroke-width:0;stroke-linecap:butt;stroke-linejoin:miter;stroke-miterlimit:10.43299961;stroke-dasharray:none;stroke-dashoffset:0;stroke-opacity:1"
         inkscape:connector-curvature="0"
         d="m 50.67278,243.51346 h 0.03 l 0.03,-3e-4 0.03,-3e-4 0.03,-10e-4 0.03,-0.001 0.03,-0.002 v -0.002 l 0.03,-0.002 0.03,-0.003 v -0.004 l 0.03,-0.004 0.03,-0.005 v -0.006 l 0.03,-0.007 0.03,-0.007 v -0.008 l 0.03,-0.01 v -0.0105 l 0.03,-0.0114 v -0.0126 l 0.03,-0.0141 v -0.007 -0.008 -0.008 -0.008 l 0.03,-0.009 v -0.009 -0.009 -0.01 -0.0102 -0.0105 -0.0111 -0.0114 -0.0117 -0.012 l 0.03,-0.0126 v -0.0132 -0.0132 -0.0138 c 0,-0.3 -0.3,-0.3 -0.51,-0.3 h -8.94 c -0.21,0 -0.51,0 -0.51,0.3 0,0.3 0.3,0.3 0.51,0.3 z"
         id="path5528" />
      <path
         style="font-style:normal;font-variant:normal;font-weight:normal;font-stretch:normal;letter-spacing:normal;word-spacing:normal;text-anchor:start;fill:#000000;fill-opacity:1;fill-rule:evenodd;stroke:#000000;stroke-width:0;stroke-linecap:butt;stroke-linejoin:miter;stroke-miterlimit:10.43299961;stroke-dasharray:none;stroke-dashoffset:0;stroke-opacity:1"
         inkscape:connector-curvature="0"
         d="m 58.65278,241.83976 v -0.9138 -3.6486 h 1.56 c 1.44,0 2.1,1.032 2.1,1.8249 0,0.7923 -0.66,1.8237 -2.1,1.8237 h -1.56 v 0.9138 h 1.86 c 1.74,0 2.82,-1.3452 2.82,-2.7375 0,-1.3869 -1.11,-2.7339 -2.82,-2.7339 h -3.36 c -0.21,0 -0.6,0 -0.6,0.447 0,0.462 0.39,0.462 0.6,0.462 h 0.45 v 7.3095 h -0.45 c -0.24,0 -0.6,0 -0.6,0.4641 0,0.45 0.39,0.45 0.6,0.45 h 1.95 c 0.21,0 0.6,0 0.6,-0.45 0,-0.4641 -0.39,-0.4641 -0.6,-0.4641 h -0.45 z"
         id="path5530" />
      <path
         style="font-style:normal;font-variant:normal;font-weight:normal;font-stretch:normal;letter-spacing:normal;word-spacing:normal;text-anchor:start;fill:#000000;fill-opacity:1;fill-rule:evenodd;stroke:#000000;stroke-width:0;stroke-linecap:butt;stroke-linejoin:miter;stroke-miterlimit:10.43299961;stroke-dasharray:none;stroke-dashoffset:0;stroke-opacity:1"
         inkscape:connector-curvature="0"
         d="m 67.32278,242.72116 v -0.132 -0.1317 l 0.03,-0.1314 v -0.1308 l 0.03,-0.1299 0.03,-0.1287 0.03,-0.1272 0.06,-0.1254 0.03,-0.1236 0.06,-0.1212 0.06,-0.1188 0.06,-0.1161 0.06,-0.1131 0.06,-0.1095 0.09,-0.1062 0.06,-0.102 0.09,-0.0981 0.09,-0.0939 0.12,-0.0888 0.09,-0.0843 0.12,-0.0789 0.09,-0.0735 0.12,-0.0678 0.12,-0.0615 0.15,-0.0555 0.12,-0.0492 0.15,-0.042 0.15,-0.0351 0.15,-0.0279 0.15,-0.0201 0.15,-0.0123 0.18,-0.004 c 0,0.3609 0.27,0.6564 0.63,0.6564 0.33,0 0.63,-0.2391 0.63,-0.6423 0,-0.2952 -0.18,-0.9234 -1.41,-0.9234 -0.78,0 -1.74,0.2673 -2.55,1.2093 v -0.5109 c 0,-0.4593 -0.09,-0.6093 -0.6,-0.6093 h -1.65 c -0.21,0 -0.6,0 -0.6,0.4452 0,0.4641 0.36,0.4641 0.6,0.4641 h 1.23 v 4.6173 h -1.23 c -0.21,0 -0.6,0 -0.6,0.45 0,0.4641 0.36,0.4641 0.6,0.4641 h 3.9 c 0.24,0 0.63,0 0.63,-0.45 0,-0.4641 -0.39,-0.4641 -0.63,-0.4641 h -1.65 z"
         id="path5532" />
      <path
         style="font-style:normal;font-variant:normal;font-weight:normal;font-stretch:normal;letter-spacing:normal;word-spacing:normal;text-anchor:start;fill:#000000;fill-opacity:1;fill-rule:evenodd;stroke:#000000;stroke-width:0;stroke-linecap:butt;stroke-linejoin:miter;stroke-miterlimit:10.43299961;stroke-dasharray:none;stroke-dashoffset:0;stroke-opacity:1"
         inkscape:connector-curvature="0"
         d="m 78.84278,242.27116 v -0.1737 l -0.03,-0.1713 v -0.1686 l -0.03,-0.1659 -0.06,-0.1626 -0.03,-0.1596 -0.06,-0.156 -0.03,-0.1524 -0.06,-0.1485 -0.09,-0.1443 -0.06,-0.1401 -0.09,-0.1359 -0.09,-0.1311 -0.09,-0.126 -0.09,-0.1212 -0.09,-0.1158 -0.12,-0.1104 -0.12,-0.1047 -0.12,-0.099 -0.12,-0.0927 -0.12,-0.0867 -0.12,-0.0798 -0.12,-0.0735 -0.15,-0.0666 -0.15,-0.0594 -0.12,-0.0522 -0.15,-0.0447 -0.15,-0.0369 -0.15,-0.0291 -0.15,-0.021 -0.15,-0.0129 -0.15,-0.004 c -1.68,0 -3.06,1.4811 -3.06,3.3468 0,1.8984 1.41,3.3186 3.06,3.3186 v -0.9093 c -1.11,0 -2.04,-1.125 -2.04,-2.5125 0,-1.3593 0.96,-2.3295 2.04,-2.3295 1.05,0 2.01,0.9702 2.01,2.3295 0,1.3875 -0.93,2.5125 -2.01,2.5125 v 0 0.9093 c 1.62,0 3.06,-1.4343 3.06,-3.3186 z"
         id="path5534" />
      <path
         style="font-style:normal;font-variant:normal;font-weight:normal;font-stretch:normal;letter-spacing:normal;word-spacing:normal;text-anchor:start;fill:#000000;fill-opacity:1;fill-rule:evenodd;stroke:#000000;stroke-width:0;stroke-linecap:butt;stroke-linejoin:miter;stroke-miterlimit:10.43299961;stroke-dasharray:none;stroke-dashoffset:0;stroke-opacity:1"
         inkscape:connector-curvature="0"
         d="m 82.17278,244.83046 0.06,0.057 0.06,0.0543 0.06,0.0516 0.06,0.0489 0.06,0.0462 0.06,0.0435 0.06,0.0414 0.06,0.0387 0.06,0.0366 0.06,0.0342 0.03,0.0321 0.06,0.0297 0.06,0.0279 0.06,0.0258 0.06,0.0237 0.06,0.0219 0.06,0.0201 0.06,0.0183 0.03,0.0165 0.06,0.015 0.06,0.0135 0.06,0.012 0.06,0.0105 0.03,0.009 0.06,0.008 0.06,0.007 0.09,0.01 0.09,0.005 0.09,0.002 -0.03,-0.9093 c -1.17,0 -1.71,-1.317 -1.71,-2.0343 v -1.0923 c 0,-0.8811 0.87,-1.6734 1.83,-1.6734 1.08,0 1.95,1.0923 1.95,2.3907 0,1.4343 -1.05,2.4093 -2.07,2.4093 l 0.03,0.9093 c 1.62,0 3.09,-1.4202 3.09,-3.3186 0,-1.8375 -1.35,-3.3 -2.91,-3.3 -0.72,0 -1.41,0.2673 -1.92,0.7311 0,-0.4359 -0.03,-0.642 -0.6,-0.642 h -1.08 c -0.24,0 -0.6,0 -0.6,0.4641 0,0.4452 0.39,0.4452 0.6,0.4452 h 0.66 v 7.9359 h -0.66 c -0.24,0 -0.6,0 -0.6,0.4641 0,0.45 0.39,0.45 0.6,0.45 h 2.37 c 0.21,0 0.6,0 0.6,-0.45 0,-0.4641 -0.39,-0.4641 -0.63,-0.4641 h -0.66 z"
         id="path5536" />
      <path
         style="font-style:normal;font-variant:normal;font-weight:normal;font-stretch:normal;letter-spacing:normal;word-spacing:normal;text-anchor:start;fill:#000000;fill-opacity:1;fill-rule:evenodd;stroke:#000000;stroke-width:0;stroke-linecap:butt;stroke-linejoin:miter;stroke-miterlimit:10.43299961;stroke-dasharray:none;stroke-dashoffset:0;stroke-opacity:1"
         inkscape:connector-curvature="0"
         d="m 93.00278,245.02276 0.06,0.042 0.03,0.0399 0.03,0.0372 0.03,0.0345 0.06,0.0327 0.03,0.03 0.03,0.0282 0.06,0.0258 0.03,0.024 0.06,0.0222 0.06,0.0201 0.03,0.0186 0.06,0.0168 0.06,0.015 0.06,0.0138 0.03,0.0123 0.06,0.0108 0.06,0.01 0.06,0.008 0.06,0.007 0.12,0.0117 0.09,0.008 0.12,0.005 0.12,0.003 0.12,0.001 0.09,3e-4 c 0.42,0 0.75,0 0.75,-0.4641 0,-0.45 -0.36,-0.45 -0.6,-0.45 -0.63,0 -0.78,-0.0705 -0.9,-0.1173 v -3.2298 c 0,-1.0593 -0.78,-2.3154 -2.94,-2.3154 -0.66,0 -2.16,0 -2.16,1.092 0,0.4455 0.3,0.6846 0.66,0.6846 0.24,0 0.63,-0.1314 0.66,-0.6846 0,-0.1218 0,-0.1359 0.3,-0.1641 0.21,-0.0138 0.42,-0.0138 0.54,-0.0138 1.14,0 1.92,0.4593 1.92,1.5234 v 0.8811 1.2564 c 0,0.342 0,0.6561 -0.57,0.9234 -0.54,0.2577 -1.23,0.2577 -1.35,0.2577 -0.93,0 -1.53,-0.5109 -1.53,-1.092 0,-0.7314 1.29,-1.2846 3.45,-1.3455 v 0 -0.8811 c -2.64,0.042 -4.47,0.792 -4.47,2.2266 0,1.0311 0.93,2.0013 2.46,2.0013 0.54,0 1.47,-0.1029 2.16,-0.567 z"
         id="path5538" />
      <path
         style="font-style:normal;font-variant:normal;font-weight:normal;font-stretch:normal;letter-spacing:normal;word-spacing:normal;text-anchor:start;fill:#000000;fill-opacity:1;fill-rule:evenodd;stroke:#000000;stroke-width:0;stroke-linecap:butt;stroke-linejoin:miter;stroke-miterlimit:10.43299961;stroke-dasharray:none;stroke-dashoffset:0;stroke-opacity:1"
         inkscape:connector-curvature="0"
         d="m 97.53278,243.39136 v 0.004 l 0.03,0.005 v 0.007 0.009 l 0.03,0.0102 0.03,0.0111 v 0.0123 l 0.03,0.0135 0.03,0.0141 0.03,0.015 0.03,0.0153 0.03,0.0162 0.06,0.0165 0.03,0.0165 0.03,0.0168 0.06,0.0168 0.03,0.0168 0.06,0.0165 0.06,0.0162 0.03,0.0159 0.06,0.015 0.06,0.0144 0.06,0.0138 0.06,0.0126 0.06,0.0117 0.06,0.0105 0.06,0.009 0.06,0.008 0.06,0.006 0.06,0.005 0.09,0.003 0.06,9e-4 v -0.8952 c -0.81,0 -1.44,-0.7032 -1.44,-1.4952 0,-0.8532 0.66,-1.5096 1.44,-1.5096 0.81,0 1.44,0.7032 1.44,1.4955 0,0.8529 -0.66,1.5093 -1.44,1.5093 v 0 0.8952 c 1.38,0 2.46,-1.0734 2.46,-2.4045 0,-0.45 -0.12,-0.8814 -0.39,-1.3032 0.33,-0.1782 0.69,-0.2391 0.87,-0.2532 0.09,0.4032 0.45,0.5109 0.57,0.5109 0.27,0 0.6,-0.1827 0.6,-0.6141 0,-0.3468 -0.27,-0.8061 -1.08,-0.8061 -0.18,0 -0.9,0.0141 -1.59,0.5202 -0.24,-0.1641 -0.75,-0.4452 -1.44,-0.4452 -1.41,0 -2.46,1.1202 -2.46,2.3907 0,0.642 0.24,1.1343 0.48,1.4202 -0.18,0.2391 -0.3,0.5673 -0.3,1.0173 0,0.5202 0.21,0.8952 0.33,1.0734 -1.11,0.675 -1.11,1.6875 -1.11,1.8516 h 0.87 c 0,-0.2673 0.15,-0.7455 0.63,-1.0455 0.36,-0.2391 0.48,-0.2391 1.59,-0.2391 1.32,0 3,0 3,1.2846 0,0.6609 -1.11,1.3029 -2.61,1.3029 v 0 c -1.5,0 -2.61,-0.642 -2.61,-1.3029 h -0.87 c 0,1.2891 1.56,2.1984 3.48,2.1984 1.92,0 3.48,-0.9282 3.48,-2.1984 0,-0.5532 -0.27,-1.2984 -1.02,-1.7016 -0.18,-0.1032 -0.81,-0.4359 -2.16,-0.4359 h -1.05 c -0.12,0 -0.33,0 -0.45,-0.0282 -0.21,0 -0.3,0 -0.48,-0.2109 -0.15,-0.2064 -0.18,-0.5064 -0.18,-0.5343 0,-0.0612 0.03,-0.2721 0.09,-0.4221 z"
         id="path5540" />
      <path
         style="font-style:normal;font-variant:normal;font-weight:normal;font-stretch:normal;letter-spacing:normal;word-spacing:normal;text-anchor:start;fill:#000000;fill-opacity:1;fill-rule:evenodd;stroke:#000000;stroke-width:0;stroke-linecap:butt;stroke-linejoin:miter;stroke-miterlimit:10.43299961;stroke-dasharray:none;stroke-dashoffset:0;stroke-opacity:1"
         inkscape:connector-curvature="0"
         d="m 108.72278,245.02276 0.03,0.042 0.03,0.0399 0.03,0.0372 0.03,0.0345 0.06,0.0327 0.03,0.03 0.06,0.0282 0.03,0.0258 0.06,0.024 0.03,0.0222 0.06,0.0201 0.03,0.0186 0.06,0.0168 0.06,0.015 0.06,0.0138 0.06,0.0123 0.03,0.0108 0.06,0.01 0.06,0.008 0.06,0.007 0.12,0.0117 0.12,0.008 0.09,0.005 0.12,0.003 0.12,0.001 0.09,3e-4 c 0.42,0 0.75,0 0.75,-0.4641 0,-0.45 -0.36,-0.45 -0.6,-0.45 -0.63,0 -0.78,-0.0705 -0.87,-0.1173 v -3.2298 c 0,-1.0593 -0.81,-2.3154 -2.97,-2.3154 -0.63,0 -2.16,0 -2.16,1.092 0,0.4455 0.3,0.6846 0.66,0.6846 0.24,0 0.66,-0.1314 0.66,-0.6846 0,-0.1218 0,-0.1359 0.3,-0.1641 0.24,-0.0138 0.42,-0.0138 0.54,-0.0138 1.14,0 1.92,0.4593 1.92,1.5234 v 0.8811 1.2564 c 0,0.342 0,0.6561 -0.57,0.9234 -0.54,0.2577 -1.23,0.2577 -1.35,0.2577 -0.9,0 -1.53,-0.5109 -1.53,-1.092 0,-0.7314 1.29,-1.2846 3.45,-1.3455 v 0 -0.8811 c -2.64,0.042 -4.47,0.792 -4.47,2.2266 0,1.0311 0.93,2.0013 2.46,2.0013 0.54,0 1.47,-0.1029 2.19,-0.567 z"
         id="path5542" />
      <path
         style="font-style:normal;font-variant:normal;font-weight:normal;font-stretch:normal;letter-spacing:normal;word-spacing:normal;text-anchor:start;fill:#000000;fill-opacity:1;fill-rule:evenodd;stroke:#000000;stroke-width:0;stroke-linecap:butt;stroke-linejoin:miter;stroke-miterlimit:10.43299961;stroke-dasharray:none;stroke-dashoffset:0;stroke-opacity:1"
         inkscape:connector-curvature="0"
         d="m 114.42278,239.96956 h 2.43 c 0.24,0 0.6,0 0.6,-0.4452 0,-0.4641 -0.36,-0.4641 -0.6,-0.4641 h -2.43 v -1.2279 c 0,-0.282 0,-0.609 -0.54,-0.609 -0.51,0 -0.51,0.309 -0.51,0.609 v 1.2279 h -1.29 c -0.24,0 -0.63,0 -0.63,0.4641 0,0.4452 0.39,0.4452 0.6,0.4452 h 1.32 v 3.6468 c 0,1.4346 1.02,1.9734 2.1,1.9734 1.11,0 2.34,-0.642 2.34,-1.9734 0,-0.267 0,-0.5811 -0.54,-0.5811 -0.48,0 -0.51,0.3141 -0.51,0.567 0,0.9282 -0.87,1.0782 -1.2,1.0782 -1.14,0 -1.14,-0.7782 -1.14,-1.1532 z"
         id="path5544" />
      <path
         style="font-style:normal;font-variant:normal;font-weight:normal;font-stretch:normal;letter-spacing:normal;word-spacing:normal;text-anchor:start;fill:#000000;fill-opacity:1;fill-rule:evenodd;stroke:#000000;stroke-width:0;stroke-linecap:butt;stroke-linejoin:miter;stroke-miterlimit:10.43299961;stroke-dasharray:none;stroke-dashoffset:0;stroke-opacity:1"
         inkscape:connector-curvature="0"
         d="m 125.28278,242.64616 0.06,-3e-4 0.06,-9e-4 0.03,-9e-4 v -0.001 l 0.03,-0.002 0.03,-0.003 0.03,-0.004 0.03,-0.005 0.03,-0.006 0.03,-0.007 v -0.008 l 0.03,-0.009 0.03,-0.0108 0.03,-0.0123 v -0.0138 l 0.03,-0.0153 v -0.0174 l 0.03,-0.0192 0.03,-0.0213 v -0.0114 -0.012 -0.0126 -0.0132 l 0.03,-0.0135 v -0.0144 -0.015 -0.0153 -0.0162 l 0.03,-0.0168 v -0.0174 -0.0183 -0.0186 -0.0195 -0.0204 -0.0207 -0.0219 -0.0222 -0.0231 -0.024 -0.0249 l 0.03,-0.0255 c 0,-1.7016 -0.96,-3.1686 -2.91,-3.1686 -1.77,0 -3.21,1.4952 -3.21,3.3327 0,1.8234 1.5,3.3327 3.42,3.3327 1.98,0 2.7,-1.3452 2.7,-1.7202 0,-0.4173 -0.45,-0.4173 -0.54,-0.4173 -0.27,0 -0.39,0.0471 -0.48,0.3282 -0.33,0.7641 -1.14,0.9 -1.56,0.9 -1.11,0 -2.25,-0.75 -2.49,-2.0343 l 0.03,-0.8952 c 0.21,-1.0923 1.08,-1.9125 2.13,-1.9125 0.78,0 1.71,0.3702 1.83,1.9125 h -3.96 l -0.03,0.8952 z"
         id="path5546" />
      <path
         style="font-style:normal;font-variant:normal;font-weight:normal;font-stretch:normal;letter-spacing:normal;word-spacing:normal;text-anchor:start;fill:#000000;fill-opacity:1;fill-rule:evenodd;stroke:#000000;stroke-width:0;stroke-linecap:butt;stroke-linejoin:miter;stroke-miterlimit:10.43299961;stroke-dasharray:none;stroke-dashoffset:0;stroke-opacity:1"
         inkscape:connector-curvature="0"
         d="m 133.32278,246.30706 v -0.0207 -0.0195 -0.0189 -0.018 l -0.03,-0.0171 v -0.0165 -0.0159 -0.015 -0.0147 -0.0141 l -0.03,-0.0138 v -0.0132 -0.0129 -0.0129 l -0.03,-0.0123 v -0.0123 l -0.03,-0.0123 v -0.012 -0.012 l -0.03,-0.012 v -0.0123 l -0.03,-0.0123 v -0.0126 l -0.03,-0.0126 -0.03,-0.0132 v -0.0135 l -0.03,-0.0138 -0.03,-0.0144 v -0.015 l -0.03,-0.0153 -0.03,-0.0162 -0.03,-0.0168 c -1.86,-1.2561 -2.52,-3.2436 -2.52,-4.917 0,-1.4955 0.57,-3.5736 2.55,-4.9326 0.24,-0.162 0.36,-0.225 0.36,-0.45 0,-0.117 -0.09,-0.417 -0.48,-0.417 -0.42,0 -3.48,1.974 -3.48,5.7996 0,1.7811 0.69,3.1263 1.23,3.8718 0.78,1.092 1.89,1.9266 2.25,1.9266 0.39,0 0.48,-0.2955 0.48,-0.4173 z"
         id="path5548" />
      <path
         style="font-style:normal;font-variant:normal;font-weight:normal;font-stretch:normal;letter-spacing:normal;word-spacing:normal;text-anchor:start;fill:#000000;fill-opacity:1;fill-rule:evenodd;stroke:#000000;stroke-width:0;stroke-linecap:butt;stroke-linejoin:miter;stroke-miterlimit:10.43299961;stroke-dasharray:none;stroke-dashoffset:0;stroke-opacity:1"
         inkscape:connector-curvature="0"
         d="m 138.75278,240.14776 2.28,-2.8704 c 0.54,0 0.84,0 0.84,-0.462 0,-0.447 -0.39,-0.447 -0.6,-0.447 h -1.32 c -0.24,0 -0.63,0 -0.63,0.465 0,0.444 0.42,0.444 0.63,0.444 l -3.15,3.9765 v -3.9765 h 0.33 c 0.21,0 0.6,0 0.6,-0.444 0,-0.465 -0.36,-0.465 -0.6,-0.465 h -1.5 c -0.21,0 -0.63,0 -0.63,0.447 0,0.462 0.39,0.462 0.63,0.462 h 0.33 v 7.3095 h -0.33 c -0.21,0 -0.63,0 -0.63,0.45 0,0.4641 0.39,0.4641 0.63,0.4641 h 1.5 c 0.21,0 0.6,0 0.6,-0.45 0,-0.4641 -0.36,-0.4641 -0.6,-0.4641 h -0.33 v -1.9875 l 1.38,-1.7484 2.1,3.7359 c -0.21,0 -0.6,0 -0.6,0.45 0,0.4641 0.36,0.4641 0.6,0.4641 h 1.14 c 0.21,0 0.6,0 0.6,-0.45 0,-0.4641 -0.33,-0.4641 -0.78,-0.4641 -0.03,-0.0564 -0.09,-0.1455 -0.09,-0.1782 z"
         id="path5550" />
      <path
         style="font-style:normal;font-variant:normal;font-weight:normal;font-stretch:normal;letter-spacing:normal;word-spacing:normal;text-anchor:start;fill:#000000;fill-opacity:1;fill-rule:evenodd;stroke:#000000;stroke-width:0;stroke-linecap:butt;stroke-linejoin:miter;stroke-miterlimit:10.43299961;stroke-dasharray:none;stroke-dashoffset:0;stroke-opacity:1"
         inkscape:connector-curvature="0"
         d="m 147.72278,240.92596 v -0.1653 -0.1629 -0.1602 l -0.03,-0.1575 v -0.1548 l -0.03,-0.1521 -0.03,-0.1497 v -0.1467 l -0.03,-0.144 -0.03,-0.141 -0.06,-0.1386 -0.03,-0.1353 -0.03,-0.1326 -0.03,-0.1299 -0.06,-0.1266 -0.03,-0.1224 -0.06,-0.123 -0.03,-0.117 -0.06,-0.114 -0.03,-0.111 -0.06,-0.111 -0.06,-0.105 -0.06,-0.102 -0.03,-0.099 -0.06,-0.096 -0.06,-0.09 -0.03,-0.09 -0.06,-0.087 -0.06,-0.081 -0.06,-0.078 -0.03,-0.075 -0.06,-0.075 c -0.78,-1.086 -1.92,-1.926 -2.28,-1.926 -0.36,0 -0.45,0.3 -0.45,0.417 0,0.225 0.18,0.333 0.24,0.375 2.46,1.632 2.67,4.0371 2.67,5.0076 0,1.4952 -0.54,3.5718 -2.58,4.9359 -0.21,0.1452 -0.33,0.2202 -0.33,0.4452 0,0.1218 0.09,0.4173 0.45,0.4173 0.45,0 3.48,-1.9689 3.48,-5.7984 z"
         id="path5552" />
    </g>
    <ellipse
       style="fill:url(#meshgradient9485);fill-opacity:1;stroke:#000000;stroke-width:0.5;stroke-linecap:round;stroke-linejoin:round;stroke-miterlimit:4;stroke-dasharray:none;stroke-dashoffset:0;stroke-opacity:1"
       id="ellipse5895"
       cy="128.62019"
       cx="196.75414"
       ry="51.315746"
       rx="15.234363" />
    <ellipse
       rx="15.234363"
       ry="51.315746"
       cx="150.69031"
       cy="128.62019"
       id="ellipse5885"
       style="fill:url(#meshgradient9471);fill-opacity:1;stroke:#000000;stroke-width:0.5;stroke-linecap:round;stroke-linejoin:round;stroke-miterlimit:4;stroke-dasharray:none;stroke-dashoffset:0;stroke-opacity:1" />
    <ellipse
       style="fill:url(#meshgradient9457);fill-opacity:1;stroke:#000000;stroke-width:0.5;stroke-linecap:round;stroke-linejoin:round;stroke-miterlimit:4;stroke-dasharray:none;stroke-dashoffset:0;stroke-opacity:1"
       id="ellipse4754"
       cy="128.62019"
       cx="105.18195"
       ry="51.315746"
       rx="15.234363" />
    <ellipse
       rx="15.234363"
       ry="51.315746"
       cx="59.673618"
       cy="128.62019"
       id="ellipse4752"
       style="fill:url(#meshgradient9443);fill-opacity:1;stroke:#000000;stroke-width:0.5;stroke-linecap:round;stroke-linejoin:round;stroke-miterlimit:4;stroke-dasharray:none;stroke-dashoffset:0;stroke-opacity:1" />
    <ellipse
       style="fill:url(#meshgradient9429);fill-opacity:1;stroke:#000000;stroke-width:0.5;stroke-linecap:round;stroke-linejoin:round;stroke-miterlimit:4;stroke-dasharray:none;stroke-dashoffset:0;stroke-opacity:1"
       id="path4747"
       cy="128.62019"
       cx="14.165286"
       ry="51.315746"
       rx="15.234363" />
    <ellipse
       ry="27.218893"
       rx="5.8586307"
       cy="140.74004"
       cx="59.132931"
       id="ellipse5641"
       style="fill:#c5ef17;fill-opacity:1;stroke:#000000;stroke-width:0.5;stroke-linecap:round;stroke-linejoin:round;stroke-miterlimit:4;stroke-dasharray:none;stroke-dashoffset:0;stroke-opacity:1" />
    <path
       style="fill:none;stroke:#000000;stroke-width:0.5;stroke-linecap:round;stroke-linejoin:miter;stroke-miterlimit:4;stroke-dasharray:0.50000001, 1.50000004;stroke-dashoffset:0;stroke-opacity:1;marker-end:url(#Arrow2Mend)"
       d="m 20.437029,81.585563 c 3.570408,-6.184128 22.919131,-9.190326 32.109458,0"
       id="path4770"
       inkscape:connector-curvature="0"
       sodipodi:nodetypes="cc" />
    <path
       id="path5518"
       d="m 14.547214,83.351535 -0.01528,-0.0535 v -0.0519 -0.0519 l -0.01528,-0.0504 v -0.0489 l -0.01528,-0.0489 v -0.0474 l -0.01528,-0.0458 v -0.0443 l -0.01528,-0.0443 -0.01528,-0.0412 -0.01528,-0.0412 v -0.0382 l -0.01528,-0.0382 -0.01528,-0.0367 -0.01528,-0.0336 -0.03055,-0.0336 -0.01528,-0.0306 -0.01528,-0.0306 -0.03055,-0.0275 -0.01528,-0.0244 -0.03055,-0.0244 -0.03055,-0.0214 -0.03055,-0.0199 -0.03055,-0.0183 -0.03055,-0.0153 -0.04583,-0.0122 -0.03055,-0.0107 -0.04583,-0.009 -0.04583,-0.006 -0.04583,-0.003 -0.01528,-0.002 h -0.03055 c -0.718019,0 -1.22216,0.51789 -1.22216,0.73024 0,0.055 0.04583,0.055 0.09166,0.055 0.07639,0 0.412479,-0.10083 0.549972,-0.35901 l 0.01528,-0.006 c 0.412479,0 0.519418,0.23374 0.595803,1.01898 l 0.106939,1.1198 c -0.274986,0.14971 -1.298545,0.76843 -1.848517,1.1473 -0.870789,0.61567 -0.886066,0.84482 -0.886066,1.06481 0,0.25971 0.137493,0.42776 0.366648,0.42776 0.229155,0 0.580526,-0.25055 0.580526,-0.36512 0,-0.0382 -0.03055,-0.0458 -0.06111,-0.0535 -0.06111,-0.009 -0.244432,-0.0382 -0.244432,-0.3361 0,-0.20471 0,-0.29637 0.809681,-0.83565 0.473587,-0.30554 0.91662,-0.54844 1.298545,-0.79899 0,0.0137 0.122216,1.15494 0.137493,1.28633 0.06111,0.60191 0.106939,1.103 0.672188,1.103 0.733296,0 1.22216,-0.51789 1.22216,-0.73024 0,-0.0535 -0.04583,-0.0535 -0.09166,-0.0535 -0.07639,0 -0.397202,0.0978 -0.549972,0.35595 -0.01528,0.009 -0.06111,0.009 -0.07639,0.009 -0.427756,0 -0.473587,-0.4797 -0.534695,-1.11828 -0.03055,-0.24443 -0.04583,-0.44151 -0.122216,-1.23438 2.367935,-1.41618 2.367935,-1.68047 2.367935,-2.00129 0,-0.25971 -0.137493,-0.42623 -0.366648,-0.42623 -0.229155,0 -0.580526,0.25971 -0.580526,0.36512 0,0.0443 0.04583,0.055 0.04583,0.055 0.07639,0.006 0.244432,0.0382 0.244432,0.33304 0,0.19096 -0.01528,0.30401 -0.656911,0.74552 -0.229155,0.15277 -0.549972,0.35137 -1.084667,0.67066 z"
       inkscape:connector-curvature="0"
       style="font-style:normal;font-variant:normal;font-weight:normal;font-stretch:normal;letter-spacing:normal;word-spacing:normal;text-anchor:start;fill:#000000;fill-opacity:1;fill-rule:evenodd;stroke:#000000;stroke-width:0;stroke-linecap:butt;stroke-linejoin:miter;stroke-miterlimit:10.43299961;stroke-dasharray:none;stroke-dashoffset:0;stroke-opacity:1" />
    <ellipse
       ry="11.717261"
       rx="5.8586307"
       cy="156.24167"
       cx="11.50793"
       id="path4758"
       style="fill:#c5ef17;fill-opacity:1;stroke:#000000;stroke-width:0.5;stroke-linecap:round;stroke-linejoin:round;stroke-miterlimit:4;stroke-dasharray:none;stroke-dashoffset:0;stroke-opacity:1" />
    <path
       id="path5520"
       d="m 11.844028,155.76986 v -0.003 -0.003 -0.002 -0.003 -0.003 -0.003 -0.005 -0.003 -0.003 l -0.01528,-0.005 v -0.003 -0.003 -0.009 -0.008 -0.008 l -0.01528,-0.008 v -0.003 -0.005 -0.003 -0.003 -0.005 -0.003 -0.003 -0.003 -0.003 -0.003 -0.002 -0.003 c 0,-0.006 0.137493,-0.11458 0.213878,-0.17416 l 1.329099,-1.02814 c 0.718019,-0.52553 1.023559,-0.55456 1.252714,-0.57747 0.06111,-0.008 0.137493,-0.0153 0.137493,-0.15277 0,-0.029 -0.03055,-0.084 -0.09166,-0.084 -0.168047,0 -0.351371,0.0244 -0.534695,0.0244 -0.274986,0 -0.580526,-0.0244 -0.855512,-0.0244 -0.04583,0 -0.137493,0 -0.137493,0.15277 0,0.0519 0.03055,0.0764 0.09166,0.084 0.168047,0.0137 0.229155,0.0519 0.229155,0.15888 0,0.13597 -0.229155,0.31318 -0.274986,0.35137 l -2.963738,2.28238 0.61108,-2.44279 c 0.06111,-0.27346 0.07638,-0.34984 0.641634,-0.34984 0.183324,0 0.259709,0 0.259709,-0.15277 0,-0.0672 -0.06111,-0.084 -0.106939,-0.084 -0.213878,0 -0.76385,0.0244 -0.977728,0.0244 -0.213878,0 -0.7638505,-0.0244 -0.9777285,-0.0244 -0.06111,0 -0.15277,0 -0.15277,0.14513 0,0.0917 0.06111,0.0917 0.213878,0.0917 0.106939,0 0.244432,0.006 0.3360945,0.0137 0.122216,0.0168 0.168047,0.0382 0.168047,0.12221 0,0.0306 -0.01528,0.055 -0.03055,0.14514 l -1.0235596,4.08659 c -0.07638,0.29791 -0.09166,0.35749 -0.702742,0.35749 -0.122216,0 -0.198601,0 -0.198601,0.14665 0,0.0901 0.07639,0.0901 0.106939,0.0901 0.213878,0 0.748573,-0.0244 0.962451,-0.0244 0.1680471,0 0.3360941,0.0107 0.4888641,0.0107 0.168047,0 0.3360945,0.0137 0.5041415,0.0137 0.04583,0 0.15277,0 0.15277,-0.15277 0,-0.084 -0.07639,-0.084 -0.213878,-0.084 -0.2902635,0 -0.5041415,0 -0.5041415,-0.13597 0,-0.055 0.04583,-0.22152 0.07638,-0.33609 0.106939,-0.39415 0.1986015,-0.79746 0.3055405,-1.19314 l 1.130498,-0.88301 0.886066,2.04712 c 0.09166,0.20624 0.09166,0.21999 0.09166,0.26582 0,0.22915 -0.336094,0.23527 -0.397202,0.23527 -0.09166,0 -0.168047,0 -0.168047,0.15277 0,0.084 0.09166,0.084 0.106939,0.084 0.30554,0 0.61108,-0.0244 0.91662,-0.0244 0.168047,0 0.580526,0.0244 0.748573,0.0244 0.04583,0 0.137493,0 0.137493,-0.15277 0,-0.084 -0.07639,-0.084 -0.15277,-0.084 -0.30554,-0.006 -0.412479,-0.0764 -0.519418,-0.34068 z"
       inkscape:connector-curvature="0"
       style="font-style:normal;font-variant:normal;font-weight:normal;font-stretch:normal;letter-spacing:normal;word-spacing:normal;text-anchor:start;fill:#000000;fill-opacity:1;fill-rule:evenodd;stroke:#000000;stroke-width:0;stroke-linecap:butt;stroke-linejoin:miter;stroke-miterlimit:10.43299961;stroke-dasharray:none;stroke-dashoffset:0;stroke-opacity:1" />
    <path
       style="font-style:normal;font-variant:normal;font-weight:normal;font-stretch:normal;letter-spacing:normal;word-spacing:normal;text-anchor:start;fill:#000000;fill-opacity:1;fill-rule:evenodd;stroke:#000000;stroke-width:0;stroke-linecap:butt;stroke-linejoin:miter;stroke-miterlimit:10.43299961;stroke-dasharray:none;stroke-dashoffset:0;stroke-opacity:1"
       inkscape:connector-curvature="0"
       d="m 60.055547,83.351535 -0.01528,-0.0535 v -0.0519 -0.0519 l -0.01528,-0.0504 v -0.0489 l -0.01528,-0.0489 v -0.0474 l -0.01528,-0.0458 v -0.0443 l -0.01528,-0.0443 -0.01528,-0.0412 -0.01528,-0.0412 v -0.0382 l -0.01528,-0.0382 -0.01528,-0.0367 -0.01528,-0.0336 -0.03055,-0.0336 -0.01528,-0.0306 -0.01528,-0.0306 -0.03055,-0.0275 -0.01528,-0.0244 -0.03055,-0.0244 -0.03055,-0.0214 -0.03055,-0.0199 -0.03055,-0.0183 -0.03055,-0.0153 -0.04583,-0.0122 -0.03055,-0.0107 -0.04583,-0.009 -0.04583,-0.006 -0.04583,-0.003 -0.01528,-0.002 h -0.03055 c -0.718019,0 -1.22216,0.51789 -1.22216,0.73024 0,0.055 0.04583,0.055 0.09166,0.055 0.07639,0 0.412479,-0.10083 0.549972,-0.35901 l 0.01528,-0.006 c 0.412479,0 0.519418,0.23374 0.595803,1.01898 l 0.106939,1.1198 c -0.274986,0.14971 -1.298545,0.76843 -1.848517,1.1473 -0.870789,0.61567 -0.886066,0.84482 -0.886066,1.06481 0,0.25971 0.137493,0.42776 0.366648,0.42776 0.229155,0 0.580526,-0.25055 0.580526,-0.36512 0,-0.0382 -0.03055,-0.0458 -0.06111,-0.0535 -0.06111,-0.009 -0.244432,-0.0382 -0.244432,-0.3361 0,-0.20471 0,-0.29637 0.809681,-0.83565 0.473587,-0.30554 0.91662,-0.54844 1.298545,-0.79899 0,0.0137 0.122216,1.15494 0.137493,1.28633 0.06111,0.60191 0.106939,1.103 0.672188,1.103 0.733296,0 1.22216,-0.51789 1.22216,-0.73024 0,-0.0535 -0.04583,-0.0535 -0.09166,-0.0535 -0.07639,0 -0.397202,0.0978 -0.549972,0.35595 -0.01528,0.009 -0.06111,0.009 -0.07639,0.009 -0.427756,0 -0.473587,-0.4797 -0.534695,-1.11828 -0.03055,-0.24443 -0.04583,-0.44151 -0.122216,-1.23438 2.367935,-1.41618 2.367935,-1.68047 2.367935,-2.00129 0,-0.25971 -0.137493,-0.42623 -0.366648,-0.42623 -0.229155,0 -0.580526,0.25971 -0.580526,0.36512 0,0.0443 0.04583,0.055 0.04583,0.055 0.07639,0.006 0.244432,0.0382 0.244432,0.33304 0,0.19096 -0.01528,0.30401 -0.656911,0.74552 -0.229155,0.15277 -0.549972,0.35137 -1.084667,0.67066 z"
       id="path5633" />
    <ellipse
       style="fill:#c5ef17;fill-opacity:1;stroke:#000000;stroke-width:0.5;stroke-linecap:round;stroke-linejoin:round;stroke-miterlimit:4;stroke-dasharray:none;stroke-dashoffset:0;stroke-opacity:1"
       id="ellipse5648"
       cx="107.0252"
       cy="134.0583"
       rx="8.7985954"
       ry="33.900631" />
    <path
       id="path5635"
       d="m 105.56385,83.351535 -0.0153,-0.0535 v -0.0519 -0.0519 l -0.0153,-0.0504 v -0.0489 l -0.0153,-0.0489 v -0.0474 l -0.0153,-0.0458 v -0.0443 l -0.0153,-0.0443 -0.0153,-0.0412 -0.0153,-0.0412 v -0.0382 l -0.0153,-0.0382 -0.0153,-0.0367 -0.0153,-0.0336 -0.0305,-0.0336 -0.0153,-0.0306 -0.0153,-0.0306 -0.0305,-0.0275 -0.0153,-0.0244 -0.0306,-0.0244 -0.0305,-0.0214 -0.0305,-0.0199 -0.0306,-0.0183 -0.0305,-0.0153 -0.0458,-0.0122 -0.0305,-0.0107 -0.0458,-0.009 -0.0458,-0.006 -0.0458,-0.003 -0.0153,-0.002 h -0.0306 c -0.71802,0 -1.22216,0.51789 -1.22216,0.73024 0,0.055 0.0458,0.055 0.0917,0.055 0.0764,0 0.41248,-0.10083 0.54997,-0.35901 l 0.0153,-0.006 c 0.41248,0 0.51942,0.23374 0.5958,1.01898 l 0.10694,1.1198 c -0.27499,0.14971 -1.29854,0.76843 -1.84852,1.1473 -0.87079,0.61567 -0.88606,0.84482 -0.88606,1.06481 0,0.25971 0.13749,0.42776 0.36665,0.42776 0.22915,0 0.58052,-0.25055 0.58052,-0.36512 0,-0.0382 -0.0306,-0.0458 -0.0611,-0.0535 -0.0611,-0.009 -0.24443,-0.0382 -0.24443,-0.3361 0,-0.20471 0,-0.29637 0.80968,-0.83565 0.47359,-0.30554 0.91662,-0.54844 1.29855,-0.79899 0,0.0137 0.12221,1.15494 0.13749,1.28633 0.0611,0.60191 0.10694,1.103 0.67218,1.103 0.7333,0 1.22216,-0.51789 1.22216,-0.73024 0,-0.0535 -0.0458,-0.0535 -0.0917,-0.0535 -0.0764,0 -0.3972,0.0978 -0.54997,0.35595 -0.0153,0.009 -0.0611,0.009 -0.0764,0.009 -0.42775,0 -0.47358,-0.4797 -0.53469,-1.11828 -0.0306,-0.24443 -0.0458,-0.44151 -0.12222,-1.23438 2.36794,-1.41618 2.36794,-1.68047 2.36794,-2.00129 0,-0.25971 -0.1375,-0.42623 -0.36665,-0.42623 -0.22916,0 -0.58053,0.25971 -0.58053,0.36512 0,0.0443 0.0458,0.055 0.0458,0.055 0.0764,0.006 0.24443,0.0382 0.24443,0.33304 0,0.19096 -0.0153,0.30401 -0.65691,0.74552 -0.22915,0.15277 -0.54997,0.35137 -1.08466,0.67066 z"
       inkscape:connector-curvature="0"
       style="font-style:normal;font-variant:normal;font-weight:normal;font-stretch:normal;letter-spacing:normal;word-spacing:normal;text-anchor:start;fill:#000000;fill-opacity:1;fill-rule:evenodd;stroke:#000000;stroke-width:0;stroke-linecap:butt;stroke-linejoin:miter;stroke-miterlimit:10.43299961;stroke-dasharray:none;stroke-dashoffset:0;stroke-opacity:1" />
    <ellipse
       ry="33.900631"
       rx="8.7985954"
       cy="134.0583"
       cx="152.53355"
       id="ellipse5883"
       style="fill:#c5ef17;fill-opacity:1;stroke:#000000;stroke-width:0.5;stroke-linecap:round;stroke-linejoin:round;stroke-miterlimit:4;stroke-dasharray:none;stroke-dashoffset:0;stroke-opacity:1" />
    <path
       style="font-style:normal;font-variant:normal;font-weight:normal;font-stretch:normal;letter-spacing:normal;word-spacing:normal;text-anchor:start;fill:#000000;fill-opacity:1;fill-rule:evenodd;stroke:#000000;stroke-width:0;stroke-linecap:butt;stroke-linejoin:miter;stroke-miterlimit:10.43299961;stroke-dasharray:none;stroke-dashoffset:0;stroke-opacity:1"
       inkscape:connector-curvature="0"
       d="m 151.0722,83.351535 -0.0153,-0.0535 v -0.0519 -0.0519 l -0.0153,-0.0504 v -0.0489 l -0.0153,-0.0489 v -0.0474 l -0.0153,-0.0458 v -0.0443 l -0.0153,-0.0443 -0.0153,-0.0412 -0.0153,-0.0412 v -0.0382 l -0.0153,-0.0382 -0.0153,-0.0367 -0.0153,-0.0336 -0.0305,-0.0336 -0.0153,-0.0306 -0.0153,-0.0306 -0.0305,-0.0275 -0.0153,-0.0244 -0.0306,-0.0244 -0.0305,-0.0214 -0.0305,-0.0199 -0.0306,-0.0183 -0.0305,-0.0153 -0.0458,-0.0122 -0.0305,-0.0107 -0.0458,-0.009 -0.0458,-0.006 -0.0458,-0.003 -0.0153,-0.002 H 150.4 c -0.71802,0 -1.22216,0.51789 -1.22216,0.73024 0,0.055 0.0458,0.055 0.0917,0.055 0.0764,0 0.41248,-0.10083 0.54997,-0.35901 l 0.0153,-0.006 c 0.41248,0 0.51942,0.23374 0.5958,1.01898 l 0.10694,1.1198 c -0.27499,0.14971 -1.29854,0.76843 -1.84852,1.1473 -0.87079,0.61567 -0.88606,0.84482 -0.88606,1.06481 0,0.25971 0.13749,0.42776 0.36665,0.42776 0.22915,0 0.58052,-0.25055 0.58052,-0.36512 0,-0.0382 -0.0306,-0.0458 -0.0611,-0.0535 -0.0611,-0.009 -0.24443,-0.0382 -0.24443,-0.3361 0,-0.20471 0,-0.29637 0.80968,-0.83565 0.47359,-0.30554 0.91662,-0.54844 1.29855,-0.79899 0,0.0137 0.12221,1.15494 0.13749,1.28633 0.0611,0.60191 0.10694,1.103 0.67218,1.103 0.7333,0 1.22216,-0.51789 1.22216,-0.73024 0,-0.0535 -0.0458,-0.0535 -0.0917,-0.0535 -0.0764,0 -0.3972,0.0978 -0.54997,0.35595 -0.0153,0.009 -0.0611,0.009 -0.0764,0.009 -0.42775,0 -0.47358,-0.4797 -0.53469,-1.11828 -0.0306,-0.24443 -0.0458,-0.44151 -0.12222,-1.23438 2.36794,-1.41618 2.36794,-1.68047 2.36794,-2.00129 0,-0.25971 -0.1375,-0.42623 -0.36665,-0.42623 -0.22916,0 -0.58053,0.25971 -0.58053,0.36512 0,0.0443 0.0458,0.055 0.0458,0.055 0.0764,0.006 0.24443,0.0382 0.24443,0.33304 0,0.19096 -0.0153,0.30401 -0.65691,0.74552 -0.22915,0.15277 -0.54997,0.35137 -1.08466,0.67066 z"
       id="path5887" />
    <ellipse
       style="fill:#c5ef17;fill-opacity:1;stroke:#000000;stroke-width:0.5;stroke-linecap:round;stroke-linejoin:round;stroke-miterlimit:4;stroke-dasharray:none;stroke-dashoffset:0;stroke-opacity:1"
       id="ellipse5893"
       cx="198.59738"
       cy="134.0583"
       rx="8.7985954"
       ry="33.900631" />
    <path
       id="path5897"
       d="m 197.13603,83.351535 -0.0153,-0.0535 v -0.0519 -0.0519 l -0.0153,-0.0504 v -0.0489 l -0.0153,-0.0489 v -0.0474 l -0.0153,-0.0458 v -0.0443 l -0.0153,-0.0443 -0.0153,-0.0412 -0.0153,-0.0412 v -0.0382 l -0.0153,-0.0382 -0.0153,-0.0367 -0.0153,-0.0336 -0.0305,-0.0336 -0.0153,-0.0306 -0.0153,-0.0306 -0.0305,-0.0275 -0.0153,-0.0244 -0.0306,-0.0244 -0.0305,-0.0214 -0.0305,-0.0199 -0.0306,-0.0183 -0.0305,-0.0153 -0.0458,-0.0122 -0.0305,-0.0107 -0.0458,-0.009 -0.0458,-0.006 -0.0458,-0.003 -0.0153,-0.002 h -0.0306 c -0.71802,0 -1.22216,0.51789 -1.22216,0.73024 0,0.055 0.0458,0.055 0.0917,0.055 0.0764,0 0.41248,-0.10083 0.54997,-0.35901 l 0.0153,-0.006 c 0.41248,0 0.51942,0.23374 0.5958,1.01898 l 0.10694,1.1198 c -0.27499,0.14971 -1.29854,0.76843 -1.84852,1.1473 -0.87079,0.61567 -0.88606,0.84482 -0.88606,1.06481 0,0.25971 0.13749,0.42776 0.36665,0.42776 0.22915,0 0.58052,-0.25055 0.58052,-0.36512 0,-0.0382 -0.0306,-0.0458 -0.0611,-0.0535 -0.0611,-0.009 -0.24443,-0.0382 -0.24443,-0.3361 0,-0.20471 0,-0.29637 0.80968,-0.83565 0.47359,-0.30554 0.91662,-0.54844 1.29855,-0.79899 0,0.0137 0.12221,1.15494 0.13749,1.28633 0.0611,0.60191 0.10694,1.103 0.67218,1.103 0.7333,0 1.22216,-0.51789 1.22216,-0.73024 0,-0.0535 -0.0458,-0.0535 -0.0917,-0.0535 -0.0764,0 -0.3972,0.0978 -0.54997,0.35595 -0.0153,0.009 -0.0611,0.009 -0.0764,0.009 -0.42775,0 -0.47358,-0.4797 -0.53469,-1.11828 -0.0306,-0.24443 -0.0458,-0.44151 -0.12222,-1.23438 2.36794,-1.41618 2.36794,-1.68047 2.36794,-2.00129 0,-0.25971 -0.1375,-0.42623 -0.36665,-0.42623 -0.22916,0 -0.58053,0.25971 -0.58053,0.36512 0,0.0443 0.0458,0.055 0.0458,0.055 0.0764,0.006 0.24443,0.0382 0.24443,0.33304 0,0.19096 -0.0153,0.30401 -0.65691,0.74552 -0.22915,0.15277 -0.54997,0.35137 -1.08466,0.67066 z"
       inkscape:connector-curvature="0"
       style="font-style:normal;font-variant:normal;font-weight:normal;font-stretch:normal;letter-spacing:normal;word-spacing:normal;text-anchor:start;fill:#000000;fill-opacity:1;fill-rule:evenodd;stroke:#000000;stroke-width:0;stroke-linecap:butt;stroke-linejoin:miter;stroke-miterlimit:10.43299961;stroke-dasharray:none;stroke-dashoffset:0;stroke-opacity:1" />
    <path
       style="fill:none;stroke:#000000;stroke-width:0.40000001;stroke-linecap:round;stroke-linejoin:miter;stroke-miterlimit:4;stroke-dasharray:0.8, 1.6;stroke-dashoffset:0;stroke-opacity:1"
       d="M 11.693042,144.32227 37.658383,127.23303 58.799295,113.31901"
       id="path5993"
       inkscape:connector-curvature="0"
       sodipodi:nodetypes="ccc" />
    <path
       sodipodi:nodetypes="cc"
       inkscape:connector-curvature="0"
       id="path7305"
       d="m 65.945364,81.585563 c 3.570408,-6.184128 22.919131,-9.190326 32.109458,0"
       style="fill:none;stroke:#000000;stroke-width:0.5;stroke-linecap:round;stroke-linejoin:miter;stroke-miterlimit:4;stroke-dasharray:0.50000001, 1.50000004;stroke-dashoffset:0;stroke-opacity:1;marker-end:url(#marker7309)" />
    <path
       style="fill:none;stroke:#000000;stroke-width:0.5;stroke-linecap:round;stroke-linejoin:miter;stroke-miterlimit:4;stroke-dasharray:0.50000001, 1.50000004;stroke-dashoffset:0;stroke-opacity:1;marker-end:url(#marker7435)"
       d="m 111.45372,81.585563 c 3.57041,-6.184128 22.91914,-9.190326 32.10948,0"
       id="path7431"
       inkscape:connector-curvature="0"
       sodipodi:nodetypes="cc" />
    <path
       sodipodi:nodetypes="cc"
       inkscape:connector-curvature="0"
       id="path7575"
       d="m 156.96207,81.585563 c 3.57041,-6.184128 22.91914,-9.190326 32.10948,0"
       style="fill:none;stroke:#000000;stroke-width:0.5;stroke-linecap:round;stroke-linejoin:miter;stroke-miterlimit:4;stroke-dasharray:0.50000001, 1.50000004;stroke-dashoffset:0;stroke-opacity:1;marker-end:url(#marker7579)" />
    <path
       sodipodi:nodetypes="cc"
       inkscape:connector-curvature="0"
       id="path7773"
       d="m 11.693042,168.17258 47.106253,-0.29269"
       style="fill:none;stroke:#000000;stroke-width:0.40000001;stroke-linecap:round;stroke-linejoin:miter;stroke-miterlimit:4;stroke-dasharray:0.8, 1.6;stroke-dashoffset:0;stroke-opacity:1" />
    <path
       style="fill:none;stroke:#000000;stroke-width:0.40000001;stroke-linecap:round;stroke-linejoin:miter;stroke-miterlimit:4;stroke-dasharray:0.8, 1.6;stroke-dashoffset:0;stroke-opacity:1"
       d="M 58.799295,113.31901 107.03948,99.891647"
       id="path7775"
       inkscape:connector-curvature="0"
       sodipodi:nodetypes="cc" />
    <path
       style="fill:none;stroke:#000000;stroke-width:0.40000001;stroke-linecap:round;stroke-linejoin:miter;stroke-miterlimit:4;stroke-dasharray:0.8, 1.6;stroke-dashoffset:0;stroke-opacity:1"
       d="m 58.799295,167.87989 48.175335,0.17503"
       id="path7777"
       inkscape:connector-curvature="0"
       sodipodi:nodetypes="cc" />
    <path
       sodipodi:nodetypes="cc"
       inkscape:connector-curvature="0"
       id="path7779"
       d="m 106.90585,99.891647 45.56748,0.203383"
       style="fill:none;stroke:#000000;stroke-width:0.16500001;stroke-linecap:round;stroke-linejoin:miter;stroke-miterlimit:4;stroke-dasharray:0.66, 0.66;stroke-dashoffset:0;stroke-opacity:1" />
    <path
       style="fill:none;stroke:#000000;stroke-width:0.40000001;stroke-linecap:round;stroke-linejoin:miter;stroke-miterlimit:4;stroke-dasharray:0.8, 1.6;stroke-dashoffset:0;stroke-opacity:1"
       d="m 106.90585,99.891647 45.56748,0.203383"
       id="path7781"
       inkscape:connector-curvature="0"
       sodipodi:nodetypes="cc" />
    <path
       sodipodi:nodetypes="cc"
       inkscape:connector-curvature="0"
       id="path7783"
       d="m 106.90585,167.92739 45.56748,0.20339"
       style="fill:none;stroke:#000000;stroke-width:0.40000001;stroke-linecap:round;stroke-linejoin:miter;stroke-miterlimit:4;stroke-dasharray:0.8, 1.6;stroke-dashoffset:0;stroke-opacity:1" />
    <path
       sodipodi:nodetypes="cc"
       inkscape:connector-curvature="0"
       id="path7793"
       d="m 152.9434,99.891647 45.56748,0.203383"
       style="fill:none;stroke:#000000;stroke-width:0.40000001;stroke-linecap:round;stroke-linejoin:miter;stroke-miterlimit:4;stroke-dasharray:0.8, 1.6;stroke-dashoffset:0;stroke-opacity:1" />
    <path
       style="fill:none;stroke:#000000;stroke-width:0.40000001;stroke-linecap:round;stroke-linejoin:miter;stroke-miterlimit:4;stroke-dasharray:0.8, 1.6;stroke-dashoffset:0;stroke-opacity:1"
       d="m 152.9434,167.92739 45.56748,0.20339"
       id="path7795"
       inkscape:connector-curvature="0"
       sodipodi:nodetypes="cc" />
    <path
       id="path5522"
       d="m 200.1098,132.32814 0.10694,-0.10847 c 0.22916,-0.22916 0.47359,-0.48581 0.99301,-0.524 0.0917,-0.008 0.15277,-0.008 0.15277,-0.14666 0,-0.0596 -0.0306,-0.0901 -0.0917,-0.0901 -0.1986,0 -0.42776,0.0245 -0.62636,0.0245 -0.24443,0 -0.51942,-0.0245 -0.76385,-0.0245 -0.0458,0 -0.13749,0 -0.13749,0.14514 0,0.084 0.0764,0.0917 0.10694,0.0917 0.0611,0 0.27498,0.0138 0.27498,0.17416 0,0.13138 -0.16804,0.32692 -0.1986,0.36512 l -1.77213,2.03336 -0.84023,-2.26099 c -0.0458,-0.10694 -0.0458,-0.12069 -0.0458,-0.12833 0,-0.18332 0.38192,-0.18332 0.44303,-0.18332 0.12221,0 0.1986,0 0.1986,-0.15277 0,-0.084 -0.0917,-0.084 -0.12222,-0.084 -0.21387,0 -0.74857,0.0245 -0.96245,0.0245 -0.18332,0 -0.65691,-0.0245 -0.85551,-0.0245 -0.0306,0 -0.13749,0 -0.13749,0.15277 0,0.084 0.0764,0.084 0.18332,0.084 0.44303,0 0.47359,0.0687 0.54997,0.25665 l 0.9319,2.50696 c 0.0153,0.0214 0.0306,0.10541 0.0306,0.12832 0,0.0214 -0.30554,1.24966 -0.33609,1.38563 -0.10694,0.41706 -0.10694,0.4415 -0.71802,0.44761 -0.15277,0 -0.21388,0 -0.21388,0.15277 0,0.084 0.0917,0.084 0.10694,0.084 0.21388,0 0.74857,-0.0245 0.96245,-0.0245 0.21388,0 0.76385,0.0245 0.97773,0.0245 0.0458,0 0.13749,0 0.13749,-0.15277 0,-0.084 -0.0611,-0.084 -0.21388,-0.084 0,0 -0.15277,0 -0.27498,-0.0137 -0.16805,-0.0168 -0.21388,-0.0306 -0.21388,-0.12221 0,-0.055 0.0764,-0.31929 0.10694,-0.4797 l 0.25971,-1.07397 c 0.0458,-0.14361 0.0458,-0.16652 0.12221,-0.2368 z"
       inkscape:connector-curvature="0"
       style="font-style:normal;font-variant:normal;font-weight:normal;font-stretch:normal;letter-spacing:normal;word-spacing:normal;text-anchor:start;fill:#000000;fill-opacity:1;fill-rule:evenodd;stroke:#000000;stroke-width:0;stroke-linecap:butt;stroke-linejoin:miter;stroke-miterlimit:10.43299961;stroke-dasharray:none;stroke-dashoffset:0;stroke-opacity:1" />
  </g>
</svg>
