<?xml version="1.0" encoding="UTF-8" standalone="no"?>
<!-- Created with Inkscape (http://www.inkscape.org/) -->

<svg
   xmlns:dc="http://purl.org/dc/elements/1.1/"
   xmlns:cc="http://creativecommons.org/ns#"
   xmlns:rdf="http://www.w3.org/1999/02/22-rdf-syntax-ns#"
   xmlns:svg="http://www.w3.org/2000/svg"
   xmlns="http://www.w3.org/2000/svg"
   xmlns:sodipodi="http://sodipodi.sourceforge.net/DTD/sodipodi-0.dtd"
   xmlns:inkscape="http://www.inkscape.org/namespaces/inkscape"
   width="213.55757mm"
   height="119.08209mm"
   viewBox="0 0 213.55757 119.08209"
   version="1.1"
   id="svg8"
   sodipodi:docname="KP2.svg"
   inkscape:version="0.92.5 (2060ec1f9f, 2020-04-08)">
  <defs
     id="defs2">
    <marker
       inkscape:isstock="true"
       style="overflow:visible"
       id="marker7579"
       refX="0"
       refY="0"
       orient="auto"
       inkscape:stockid="Arrow2Mend">
      <path
         transform="scale(-0.6)"
         d="M 8.7185878,4.0337352 -2.2072895,0.01601326 8.7185884,-4.0017078 c -1.7454984,2.3720609 -1.7354408,5.6174519 -6e-7,8.035443 z"
         style="fill:#000000;fill-opacity:1;fill-rule:evenodd;stroke:#000000;stroke-width:0.625;stroke-linejoin:round;stroke-opacity:1"
         id="path7577"
         inkscape:connector-curvature="0" />
    </marker>
    <marker
       inkscape:isstock="true"
       style="overflow:visible"
       id="marker7309"
       refX="0"
       refY="0"
       orient="auto"
       inkscape:stockid="Arrow2Mend"
       inkscape:collect="always">
      <path
         transform="scale(-0.6)"
         d="M 8.7185878,4.0337352 -2.2072895,0.01601326 8.7185884,-4.0017078 c -1.7454984,2.3720609 -1.7354408,5.6174519 -6e-7,8.035443 z"
         style="fill:#000000;fill-opacity:1;fill-rule:evenodd;stroke:#000000;stroke-width:0.625;stroke-linejoin:round;stroke-opacity:1"
         id="path7307"
         inkscape:connector-curvature="0" />
    </marker>
    <marker
       inkscape:isstock="true"
       style="overflow:visible"
       id="marker5366"
       refX="0"
       refY="0"
       orient="auto"
       inkscape:stockid="Arrow2Mend">
      <path
         transform="scale(-0.6)"
         d="M 8.7185878,4.0337352 -2.2072895,0.01601326 8.7185884,-4.0017078 c -1.7454984,2.3720609 -1.7354408,5.6174519 -6e-7,8.035443 z"
         style="fill:#000000;fill-opacity:1;fill-rule:evenodd;stroke:#000000;stroke-width:0.625;stroke-linejoin:round;stroke-opacity:1"
         id="path5364"
         inkscape:connector-curvature="0" />
    </marker>
    <marker
       inkscape:stockid="Arrow2Mend"
       orient="auto"
       refY="0"
       refX="0"
       id="Arrow2Mend"
       style="overflow:visible"
       inkscape:isstock="true"
       inkscape:collect="always">
      <path
         id="path4799"
         style="fill:#000000;fill-opacity:1;fill-rule:evenodd;stroke:#000000;stroke-width:0.625;stroke-linejoin:round;stroke-opacity:1"
         d="M 8.7185878,4.0337352 -2.2072895,0.01601326 8.7185884,-4.0017078 c -1.7454984,2.3720609 -1.7354408,5.6174519 -6e-7,8.035443 z"
         transform="scale(-0.6)"
         inkscape:connector-curvature="0" />
    </marker>
    <marker
       inkscape:stockid="Arrow1Send"
       orient="auto"
       refY="0"
       refX="0"
       id="Arrow1Send"
       style="overflow:visible"
       inkscape:isstock="true">
      <path
         id="path4787"
         d="M 0,0 5,-5 -12.5,0 5,5 Z"
         style="fill:#000000;fill-opacity:1;fill-rule:evenodd;stroke:#000000;stroke-width:1.00000003pt;stroke-opacity:1"
         transform="matrix(-0.2,0,0,-0.2,-1.2,0)"
         inkscape:connector-curvature="0" />
    </marker>
    <meshgradient
       inkscape:collect="always"
       id="meshgradient9429"
       gradientUnits="userSpaceOnUse"
       x="3.3929651"
       y="92.33448">
      <meshrow
         id="meshrow9431">
        <meshpatch
           id="meshpatch9433">
          <stop
             path="c 5.94939,-20.04  15.5953,-20.04  21.5446,0"
             style="stop-color:#ffffff;stop-opacity:1"
             id="stop9435" />
          <stop
             path="c 5.94939,20.04  5.94939,52.5314  0,72.5714"
             style="stop-color:#ff5555;stop-opacity:1"
             id="stop9437" />
          <stop
             path="c -5.94939,20.04  -15.5953,20.04  -21.5446,2.84217e-14"
             style="stop-color:#ffffff;stop-opacity:1"
             id="stop9439" />
          <stop
             path="c -5.94939,-20.04  -5.94939,-52.5314  -3.55271e-15,-72.5714"
             style="stop-color:#ff5555;stop-opacity:1"
             id="stop9441" />
        </meshpatch>
      </meshrow>
    </meshgradient>
    <meshgradient
       inkscape:collect="always"
       id="meshgradient9443"
       gradientUnits="userSpaceOnUse"
       x="48.901299"
       y="92.33448">
      <meshrow
         id="meshrow9445">
        <meshpatch
           id="meshpatch9447">
          <stop
             path="c 5.94939,-20.04  15.5953,-20.04  21.5446,0"
             style="stop-color:#ffffff;stop-opacity:1"
             id="stop9449" />
          <stop
             path="c 5.94939,20.04  5.94939,52.5314  0,72.5714"
             style="stop-color:#ff5555;stop-opacity:1"
             id="stop9451" />
          <stop
             path="c -5.94939,20.04  -15.5953,20.04  -21.5446,2.84217e-14"
             style="stop-color:#ffffff;stop-opacity:1"
             id="stop9453" />
          <stop
             path="c -5.94939,-20.04  -5.94939,-52.5314  0,-72.5714"
             style="stop-color:#ff5555;stop-opacity:1"
             id="stop9455" />
        </meshpatch>
      </meshrow>
    </meshgradient>
    <meshgradient
       inkscape:collect="always"
       id="meshgradient9457"
       gradientUnits="userSpaceOnUse"
       x="94.40963"
       y="92.33448">
      <meshrow
         id="meshrow9459">
        <meshpatch
           id="meshpatch9461">
          <stop
             path="c 5.94939,-20.04  15.5953,-20.04  21.5446,0"
             style="stop-color:#ffffff;stop-opacity:1"
             id="stop9463" />
          <stop
             path="c 5.94939,20.04  5.94939,52.5314  0,72.5714"
             style="stop-color:#ff5555;stop-opacity:1"
             id="stop9465" />
          <stop
             path="c -5.94939,20.04  -15.5953,20.04  -21.5446,2.84217e-14"
             style="stop-color:#ffffff;stop-opacity:1"
             id="stop9467" />
          <stop
             path="c -5.94939,-20.04  -5.94939,-52.5314  -1.42109e-14,-72.5714"
             style="stop-color:#ff5555;stop-opacity:1"
             id="stop9469" />
        </meshpatch>
      </meshrow>
    </meshgradient>
  </defs>
  <sodipodi:namedview
     id="base"
     pagecolor="#ffffff"
     bordercolor="#666666"
     borderopacity="1.0"
     inkscape:pageopacity="0.0"
     inkscape:pageshadow="2"
     inkscape:zoom="0.49497475"
     inkscape:cx="432.81211"
     inkscape:cy="258.11793"
     inkscape:document-units="mm"
     inkscape:current-layer="layer1"
     showgrid="false"
     inkscape:window-width="1920"
     inkscape:window-height="1043"
     inkscape:window-x="0"
     inkscape:window-y="0"
     inkscape:window-maximized="1"
     fit-margin-top="0"
     fit-margin-left="0"
     fit-margin-right="0"
     fit-margin-bottom="0" />
  <metadata
     id="metadata5">
    <rdf:RDF>
      <cc:Work
         rdf:about="">
        <dc:format>image/svg+xml</dc:format>
        <dc:type
           rdf:resource="http://purl.org/dc/dcmitype/StillImage" />
        <dc:title></dc:title>
      </cc:Work>
    </rdf:RDF>
  </metadata>
  <g
     inkscape:label="Layer 1"
     inkscape:groupmode="layer"
     id="layer1"
     transform="translate(1.3190765,-75.52105)">
    <ellipse
       style="fill:url(#meshgradient9457);fill-opacity:1;stroke:#000000;stroke-width:0.5;stroke-linecap:round;stroke-linejoin:round;stroke-miterlimit:4;stroke-dasharray:none;stroke-dashoffset:0;stroke-opacity:1"
       id="ellipse4754"
       cy="128.62019"
       cx="105.18195"
       ry="51.315746"
       rx="15.234363" />
    <ellipse
       rx="15.234363"
       ry="51.315746"
       cx="59.673618"
       cy="128.62019"
       id="ellipse4752"
       style="fill:url(#meshgradient9443);fill-opacity:1;stroke:#000000;stroke-width:0.5;stroke-linecap:round;stroke-linejoin:round;stroke-miterlimit:4;stroke-dasharray:none;stroke-dashoffset:0;stroke-opacity:1" />
    <ellipse
       style="fill:url(#meshgradient9429);fill-opacity:1;stroke:#000000;stroke-width:0.5;stroke-linecap:round;stroke-linejoin:round;stroke-miterlimit:4;stroke-dasharray:none;stroke-dashoffset:0;stroke-opacity:1"
       id="path4747"
       cy="128.62019"
       cx="14.165286"
       ry="51.315746"
       rx="15.234363" />
    <ellipse
       ry="27.218893"
       rx="5.8586307"
       cy="140.74004"
       cx="59.132931"
       id="ellipse5641"
       style="fill:#c5ef17;fill-opacity:1;stroke:#000000;stroke-width:0.5;stroke-linecap:round;stroke-linejoin:round;stroke-miterlimit:4;stroke-dasharray:none;stroke-dashoffset:0;stroke-opacity:1" />
    <path
       style="fill:none;stroke:#000000;stroke-width:0.5;stroke-linecap:round;stroke-linejoin:miter;stroke-miterlimit:4;stroke-dasharray:0.50000001, 1.50000004;stroke-dashoffset:0;stroke-opacity:1;marker-end:url(#Arrow2Mend)"
       d="m 20.437029,81.585563 c 3.570408,-6.184128 22.919131,-9.190326 32.109458,0"
       id="path4770"
       inkscape:connector-curvature="0"
       sodipodi:nodetypes="cc" />
    <path
       id="path5518"
       d="m 14.547214,83.351535 -0.01528,-0.0535 v -0.0519 -0.0519 l -0.01528,-0.0504 v -0.0489 l -0.01528,-0.0489 v -0.0474 l -0.01528,-0.0458 v -0.0443 l -0.01528,-0.0443 -0.01528,-0.0412 -0.01528,-0.0412 v -0.0382 l -0.01528,-0.0382 -0.01528,-0.0367 -0.01528,-0.0336 -0.03055,-0.0336 -0.01528,-0.0306 -0.01528,-0.0306 -0.03055,-0.0275 -0.01528,-0.0244 -0.03055,-0.0244 -0.03055,-0.0214 -0.03055,-0.0199 -0.03055,-0.0183 -0.03055,-0.0153 -0.04583,-0.0122 -0.03055,-0.0107 -0.04583,-0.009 -0.04583,-0.006 -0.04583,-0.003 -0.01528,-0.002 h -0.03055 c -0.718019,0 -1.22216,0.51789 -1.22216,0.73024 0,0.055 0.04583,0.055 0.09166,0.055 0.07639,0 0.412479,-0.10083 0.549972,-0.35901 l 0.01528,-0.006 c 0.412479,0 0.519418,0.23374 0.595803,1.01898 l 0.106939,1.1198 c -0.274986,0.14971 -1.298545,0.76843 -1.848517,1.1473 -0.870789,0.61567 -0.886066,0.84482 -0.886066,1.06481 0,0.25971 0.137493,0.42776 0.366648,0.42776 0.229155,0 0.580526,-0.25055 0.580526,-0.36512 0,-0.0382 -0.03055,-0.0458 -0.06111,-0.0535 -0.06111,-0.009 -0.244432,-0.0382 -0.244432,-0.3361 0,-0.20471 0,-0.29637 0.809681,-0.83565 0.473587,-0.30554 0.91662,-0.54844 1.298545,-0.79899 0,0.0137 0.122216,1.15494 0.137493,1.28633 0.06111,0.60191 0.106939,1.103 0.672188,1.103 0.733296,0 1.22216,-0.51789 1.22216,-0.73024 0,-0.0535 -0.04583,-0.0535 -0.09166,-0.0535 -0.07639,0 -0.397202,0.0978 -0.549972,0.35595 -0.01528,0.009 -0.06111,0.009 -0.07639,0.009 -0.427756,0 -0.473587,-0.4797 -0.534695,-1.11828 -0.03055,-0.24443 -0.04583,-0.44151 -0.122216,-1.23438 2.367935,-1.41618 2.367935,-1.68047 2.367935,-2.00129 0,-0.25971 -0.137493,-0.42623 -0.366648,-0.42623 -0.229155,0 -0.580526,0.25971 -0.580526,0.36512 0,0.0443 0.04583,0.055 0.04583,0.055 0.07639,0.006 0.244432,0.0382 0.244432,0.33304 0,0.19096 -0.01528,0.30401 -0.656911,0.74552 -0.229155,0.15277 -0.549972,0.35137 -1.084667,0.67066 z"
       inkscape:connector-curvature="0"
       style="font-style:normal;font-variant:normal;font-weight:normal;font-stretch:normal;letter-spacing:normal;word-spacing:normal;text-anchor:start;fill:#000000;fill-opacity:1;fill-rule:evenodd;stroke:#000000;stroke-width:0;stroke-linecap:butt;stroke-linejoin:miter;stroke-miterlimit:10.43299961;stroke-dasharray:none;stroke-dashoffset:0;stroke-opacity:1" />
    <ellipse
       ry="11.717261"
       rx="5.8586307"
       cy="156.24167"
       cx="11.50793"
       id="path4758"
       style="fill:#c5ef17;fill-opacity:1;stroke:#000000;stroke-width:0.5;stroke-linecap:round;stroke-linejoin:round;stroke-miterlimit:4;stroke-dasharray:none;stroke-dashoffset:0;stroke-opacity:1" />
    <path
       id="path5520"
       d="m 11.844028,155.76986 v -0.003 -0.003 -0.002 -0.003 -0.003 -0.003 -0.005 -0.003 -0.003 l -0.01528,-0.005 v -0.003 -0.003 -0.009 -0.008 -0.008 l -0.01528,-0.008 v -0.003 -0.005 -0.003 -0.003 -0.005 -0.003 -0.003 -0.003 -0.003 -0.003 -0.002 -0.003 c 0,-0.006 0.137493,-0.11458 0.213878,-0.17416 l 1.329099,-1.02814 c 0.718019,-0.52553 1.023559,-0.55456 1.252714,-0.57747 0.06111,-0.008 0.137493,-0.0153 0.137493,-0.15277 0,-0.029 -0.03055,-0.084 -0.09166,-0.084 -0.168047,0 -0.351371,0.0244 -0.534695,0.0244 -0.274986,0 -0.580526,-0.0244 -0.855512,-0.0244 -0.04583,0 -0.137493,0 -0.137493,0.15277 0,0.0519 0.03055,0.0764 0.09166,0.084 0.168047,0.0137 0.229155,0.0519 0.229155,0.15888 0,0.13597 -0.229155,0.31318 -0.274986,0.35137 l -2.963738,2.28238 0.61108,-2.44279 c 0.06111,-0.27346 0.07638,-0.34984 0.641634,-0.34984 0.183324,0 0.259709,0 0.259709,-0.15277 0,-0.0672 -0.06111,-0.084 -0.106939,-0.084 -0.213878,0 -0.76385,0.0244 -0.977728,0.0244 -0.213878,0 -0.7638505,-0.0244 -0.9777285,-0.0244 -0.06111,0 -0.15277,0 -0.15277,0.14513 0,0.0917 0.06111,0.0917 0.213878,0.0917 0.106939,0 0.244432,0.006 0.3360945,0.0137 0.122216,0.0168 0.168047,0.0382 0.168047,0.12221 0,0.0306 -0.01528,0.055 -0.03055,0.14514 l -1.0235596,4.08659 c -0.07638,0.29791 -0.09166,0.35749 -0.702742,0.35749 -0.122216,0 -0.198601,0 -0.198601,0.14665 0,0.0901 0.07639,0.0901 0.106939,0.0901 0.213878,0 0.748573,-0.0244 0.962451,-0.0244 0.1680471,0 0.3360941,0.0107 0.4888641,0.0107 0.168047,0 0.3360945,0.0137 0.5041415,0.0137 0.04583,0 0.15277,0 0.15277,-0.15277 0,-0.084 -0.07639,-0.084 -0.213878,-0.084 -0.2902635,0 -0.5041415,0 -0.5041415,-0.13597 0,-0.055 0.04583,-0.22152 0.07638,-0.33609 0.106939,-0.39415 0.1986015,-0.79746 0.3055405,-1.19314 l 1.130498,-0.88301 0.886066,2.04712 c 0.09166,0.20624 0.09166,0.21999 0.09166,0.26582 0,0.22915 -0.336094,0.23527 -0.397202,0.23527 -0.09166,0 -0.168047,0 -0.168047,0.15277 0,0.084 0.09166,0.084 0.106939,0.084 0.30554,0 0.61108,-0.0244 0.91662,-0.0244 0.168047,0 0.580526,0.0244 0.748573,0.0244 0.04583,0 0.137493,0 0.137493,-0.15277 0,-0.084 -0.07639,-0.084 -0.15277,-0.084 -0.30554,-0.006 -0.412479,-0.0764 -0.519418,-0.34068 z"
       inkscape:connector-curvature="0"
       style="font-style:normal;font-variant:normal;font-weight:normal;font-stretch:normal;letter-spacing:normal;word-spacing:normal;text-anchor:start;fill:#000000;fill-opacity:1;fill-rule:evenodd;stroke:#000000;stroke-width:0;stroke-linecap:butt;stroke-linejoin:miter;stroke-miterlimit:10.43299961;stroke-dasharray:none;stroke-dashoffset:0;stroke-opacity:1" />
    <path
       style="font-style:normal;font-variant:normal;font-weight:normal;font-stretch:normal;letter-spacing:normal;word-spacing:normal;text-anchor:start;fill:#000000;fill-opacity:1;fill-rule:evenodd;stroke:#000000;stroke-width:0;stroke-linecap:butt;stroke-linejoin:miter;stroke-miterlimit:10.43299961;stroke-dasharray:none;stroke-dashoffset:0;stroke-opacity:1"
       inkscape:connector-curvature="0"
       d="m 60.055547,83.351535 -0.01528,-0.0535 v -0.0519 -0.0519 l -0.01528,-0.0504 v -0.0489 l -0.01528,-0.0489 v -0.0474 l -0.01528,-0.0458 v -0.0443 l -0.01528,-0.0443 -0.01528,-0.0412 -0.01528,-0.0412 v -0.0382 l -0.01528,-0.0382 -0.01528,-0.0367 -0.01528,-0.0336 -0.03055,-0.0336 -0.01528,-0.0306 -0.01528,-0.0306 -0.03055,-0.0275 -0.01528,-0.0244 -0.03055,-0.0244 -0.03055,-0.0214 -0.03055,-0.0199 -0.03055,-0.0183 -0.03055,-0.0153 -0.04583,-0.0122 -0.03055,-0.0107 -0.04583,-0.009 -0.04583,-0.006 -0.04583,-0.003 -0.01528,-0.002 h -0.03055 c -0.718019,0 -1.22216,0.51789 -1.22216,0.73024 0,0.055 0.04583,0.055 0.09166,0.055 0.07639,0 0.412479,-0.10083 0.549972,-0.35901 l 0.01528,-0.006 c 0.412479,0 0.519418,0.23374 0.595803,1.01898 l 0.106939,1.1198 c -0.274986,0.14971 -1.298545,0.76843 -1.848517,1.1473 -0.870789,0.61567 -0.886066,0.84482 -0.886066,1.06481 0,0.25971 0.137493,0.42776 0.366648,0.42776 0.229155,0 0.580526,-0.25055 0.580526,-0.36512 0,-0.0382 -0.03055,-0.0458 -0.06111,-0.0535 -0.06111,-0.009 -0.244432,-0.0382 -0.244432,-0.3361 0,-0.20471 0,-0.29637 0.809681,-0.83565 0.473587,-0.30554 0.91662,-0.54844 1.298545,-0.79899 0,0.0137 0.122216,1.15494 0.137493,1.28633 0.06111,0.60191 0.106939,1.103 0.672188,1.103 0.733296,0 1.22216,-0.51789 1.22216,-0.73024 0,-0.0535 -0.04583,-0.0535 -0.09166,-0.0535 -0.07639,0 -0.397202,0.0978 -0.549972,0.35595 -0.01528,0.009 -0.06111,0.009 -0.07639,0.009 -0.427756,0 -0.473587,-0.4797 -0.534695,-1.11828 -0.03055,-0.24443 -0.04583,-0.44151 -0.122216,-1.23438 2.367935,-1.41618 2.367935,-1.68047 2.367935,-2.00129 0,-0.25971 -0.137493,-0.42623 -0.366648,-0.42623 -0.229155,0 -0.580526,0.25971 -0.580526,0.36512 0,0.0443 0.04583,0.055 0.04583,0.055 0.07639,0.006 0.244432,0.0382 0.244432,0.33304 0,0.19096 -0.01528,0.30401 -0.656911,0.74552 -0.229155,0.15277 -0.549972,0.35137 -1.084667,0.67066 z"
       id="path5633" />
    <ellipse
       style="fill:#c5ef17;fill-opacity:1;stroke:#000000;stroke-width:0.5;stroke-linecap:round;stroke-linejoin:round;stroke-miterlimit:4;stroke-dasharray:none;stroke-dashoffset:0;stroke-opacity:1"
       id="ellipse5648"
       cx="107.0252"
       cy="134.0583"
       rx="8.7985954"
       ry="33.900631" />
    <path
       id="path5635"
       d="m 105.56385,83.351535 -0.0153,-0.0535 v -0.0519 -0.0519 l -0.0153,-0.0504 v -0.0489 l -0.0153,-0.0489 v -0.0474 l -0.0153,-0.0458 v -0.0443 l -0.0153,-0.0443 -0.0153,-0.0412 -0.0153,-0.0412 v -0.0382 l -0.0153,-0.0382 -0.0153,-0.0367 -0.0153,-0.0336 -0.0305,-0.0336 -0.0153,-0.0306 -0.0153,-0.0306 -0.0305,-0.0275 -0.0153,-0.0244 -0.0306,-0.0244 -0.0305,-0.0214 -0.0305,-0.0199 -0.0306,-0.0183 -0.0305,-0.0153 -0.0458,-0.0122 -0.0305,-0.0107 -0.0458,-0.009 -0.0458,-0.006 -0.0458,-0.003 -0.0153,-0.002 h -0.0306 c -0.71802,0 -1.22216,0.51789 -1.22216,0.73024 0,0.055 0.0458,0.055 0.0917,0.055 0.0764,0 0.41248,-0.10083 0.54997,-0.35901 l 0.0153,-0.006 c 0.41248,0 0.51942,0.23374 0.5958,1.01898 l 0.10694,1.1198 c -0.27499,0.14971 -1.29854,0.76843 -1.84852,1.1473 -0.87079,0.61567 -0.88606,0.84482 -0.88606,1.06481 0,0.25971 0.13749,0.42776 0.36665,0.42776 0.22915,0 0.58052,-0.25055 0.58052,-0.36512 0,-0.0382 -0.0306,-0.0458 -0.0611,-0.0535 -0.0611,-0.009 -0.24443,-0.0382 -0.24443,-0.3361 0,-0.20471 0,-0.29637 0.80968,-0.83565 0.47359,-0.30554 0.91662,-0.54844 1.29855,-0.79899 0,0.0137 0.12221,1.15494 0.13749,1.28633 0.0611,0.60191 0.10694,1.103 0.67218,1.103 0.7333,0 1.22216,-0.51789 1.22216,-0.73024 0,-0.0535 -0.0458,-0.0535 -0.0917,-0.0535 -0.0764,0 -0.3972,0.0978 -0.54997,0.35595 -0.0153,0.009 -0.0611,0.009 -0.0764,0.009 -0.42775,0 -0.47358,-0.4797 -0.53469,-1.11828 -0.0306,-0.24443 -0.0458,-0.44151 -0.12222,-1.23438 2.36794,-1.41618 2.36794,-1.68047 2.36794,-2.00129 0,-0.25971 -0.1375,-0.42623 -0.36665,-0.42623 -0.22916,0 -0.58053,0.25971 -0.58053,0.36512 0,0.0443 0.0458,0.055 0.0458,0.055 0.0764,0.006 0.24443,0.0382 0.24443,0.33304 0,0.19096 -0.0153,0.30401 -0.65691,0.74552 -0.22915,0.15277 -0.54997,0.35137 -1.08466,0.67066 z"
       inkscape:connector-curvature="0"
       style="font-style:normal;font-variant:normal;font-weight:normal;font-stretch:normal;letter-spacing:normal;word-spacing:normal;text-anchor:start;fill:#000000;fill-opacity:1;fill-rule:evenodd;stroke:#000000;stroke-width:0;stroke-linecap:butt;stroke-linejoin:miter;stroke-miterlimit:10.43299961;stroke-dasharray:none;stroke-dashoffset:0;stroke-opacity:1" />
    <path
       style="fill:none;stroke:#000000;stroke-width:0.40000001;stroke-linecap:round;stroke-linejoin:miter;stroke-miterlimit:4;stroke-dasharray:0.8, 1.6;stroke-dashoffset:0;stroke-opacity:1"
       d="M 11.693042,144.32227 37.658383,127.23303 58.799295,113.31901"
       id="path5993"
       inkscape:connector-curvature="0"
       sodipodi:nodetypes="ccc" />
    <path
       sodipodi:nodetypes="cc"
       inkscape:connector-curvature="0"
       id="path7305"
       d="m 65.945364,81.585563 c 3.570408,-6.184128 22.919131,-9.190326 32.109458,0"
       style="fill:none;stroke:#000000;stroke-width:0.5;stroke-linecap:round;stroke-linejoin:miter;stroke-miterlimit:4;stroke-dasharray:0.50000001, 1.50000004;stroke-dashoffset:0;stroke-opacity:1;marker-end:url(#marker7309)" />
    <path
       sodipodi:nodetypes="cc"
       inkscape:connector-curvature="0"
       id="path7773"
       d="m 11.693042,168.17258 47.106253,-0.29269"
       style="fill:none;stroke:#000000;stroke-width:0.40000001;stroke-linecap:round;stroke-linejoin:miter;stroke-miterlimit:4;stroke-dasharray:0.8, 1.6;stroke-dashoffset:0;stroke-opacity:1" />
    <path
       style="fill:none;stroke:#000000;stroke-width:0.40000001;stroke-linecap:round;stroke-linejoin:miter;stroke-miterlimit:4;stroke-dasharray:0.8, 1.6;stroke-dashoffset:0;stroke-opacity:1"
       d="M 58.799295,113.31901 107.03948,99.891647"
       id="path7775"
       inkscape:connector-curvature="0"
       sodipodi:nodetypes="cc" />
    <path
       style="fill:none;stroke:#000000;stroke-width:0.40000001;stroke-linecap:round;stroke-linejoin:miter;stroke-miterlimit:4;stroke-dasharray:0.8, 1.6;stroke-dashoffset:0;stroke-opacity:1"
       d="m 58.799295,167.87989 48.175335,0.17503"
       id="path7777"
       inkscape:connector-curvature="0"
       sodipodi:nodetypes="cc" />
  </g>
</svg>
