<?xml version="1.0" encoding="UTF-8" standalone="no"?>
<!-- Created with Inkscape (http://www.inkscape.org/) -->

<svg
   xmlns:dc="http://purl.org/dc/elements/1.1/"
   xmlns:cc="http://creativecommons.org/ns#"
   xmlns:rdf="http://www.w3.org/1999/02/22-rdf-syntax-ns#"
   xmlns:svg="http://www.w3.org/2000/svg"
   xmlns="http://www.w3.org/2000/svg"
   xmlns:sodipodi="http://sodipodi.sourceforge.net/DTD/sodipodi-0.dtd"
   xmlns:inkscape="http://www.inkscape.org/namespaces/inkscape"
   width="213.55757mm"
   height="119.08209mm"
   viewBox="0 0 213.55757 119.08209"
   version="1.1"
   id="svg8"
   sodipodi:docname="KP5.svg"
   inkscape:version="0.92.5 (2060ec1f9f, 2020-04-08)">
  <defs
     id="defs2">
    <marker
       inkscape:isstock="true"
       style="overflow:visible"
       id="marker7579"
       refX="0"
       refY="0"
       orient="auto"
       inkscape:stockid="Arrow2Mend">
      <path
         transform="scale(-0.6)"
         d="M 8.7185878,4.0337352 -2.2072895,0.01601326 8.7185884,-4.0017078 c -1.7454984,2.3720609 -1.7354408,5.6174519 -6e-7,8.035443 z"
         style="fill:#000000;fill-opacity:1;fill-rule:evenodd;stroke:#000000;stroke-width:0.625;stroke-linejoin:round;stroke-opacity:1"
         id="path7577"
         inkscape:connector-curvature="0" />
    </marker>
    <marker
       inkscape:stockid="Arrow2Mend"
       orient="auto"
       refY="0"
       refX="0"
       id="marker7435"
       style="overflow:visible"
       inkscape:isstock="true"
       inkscape:collect="always">
      <path
         id="path7433"
         style="fill:#000000;fill-opacity:1;fill-rule:evenodd;stroke:#000000;stroke-width:0.625;stroke-linejoin:round;stroke-opacity:1"
         d="M 8.7185878,4.0337352 -2.2072895,0.01601326 8.7185884,-4.0017078 c -1.7454984,2.3720609 -1.7354408,5.6174519 -6e-7,8.035443 z"
         transform="scale(-0.6)"
         inkscape:connector-curvature="0" />
    </marker>
    <marker
       inkscape:isstock="true"
       style="overflow:visible"
       id="marker7309"
       refX="0"
       refY="0"
       orient="auto"
       inkscape:stockid="Arrow2Mend"
       inkscape:collect="always">
      <path
         transform="scale(-0.6)"
         d="M 8.7185878,4.0337352 -2.2072895,0.01601326 8.7185884,-4.0017078 c -1.7454984,2.3720609 -1.7354408,5.6174519 -6e-7,8.035443 z"
         style="fill:#000000;fill-opacity:1;fill-rule:evenodd;stroke:#000000;stroke-width:0.625;stroke-linejoin:round;stroke-opacity:1"
         id="path7307"
         inkscape:connector-curvature="0" />
    </marker>
    <marker
       inkscape:isstock="true"
       style="overflow:visible"
       id="marker5366"
       refX="0"
       refY="0"
       orient="auto"
       inkscape:stockid="Arrow2Mend">
      <path
         transform="scale(-0.6)"
         d="M 8.7185878,4.0337352 -2.2072895,0.01601326 8.7185884,-4.0017078 c -1.7454984,2.3720609 -1.7354408,5.6174519 -6e-7,8.035443 z"
         style="fill:#000000;fill-opacity:1;fill-rule:evenodd;stroke:#000000;stroke-width:0.625;stroke-linejoin:round;stroke-opacity:1"
         id="path5364"
         inkscape:connector-curvature="0" />
    </marker>
    <marker
       inkscape:stockid="Arrow2Mend"
       orient="auto"
       refY="0"
       refX="0"
       id="Arrow2Mend"
       style="overflow:visible"
       inkscape:isstock="true"
       inkscape:collect="always">
      <path
         id="path4799"
         style="fill:#000000;fill-opacity:1;fill-rule:evenodd;stroke:#000000;stroke-width:0.625;stroke-linejoin:round;stroke-opacity:1"
         d="M 8.7185878,4.0337352 -2.2072895,0.01601326 8.7185884,-4.0017078 c -1.7454984,2.3720609 -1.7354408,5.6174519 -6e-7,8.035443 z"
         transform="scale(-0.6)"
         inkscape:connector-curvature="0" />
    </marker>
    <marker
       inkscape:stockid="Arrow1Send"
       orient="auto"
       refY="0"
       refX="0"
       id="Arrow1Send"
       style="overflow:visible"
       inkscape:isstock="true">
      <path
         id="path4787"
         d="M 0,0 5,-5 -12.5,0 5,5 Z"
         style="fill:#000000;fill-opacity:1;fill-rule:evenodd;stroke:#000000;stroke-width:1.00000003pt;stroke-opacity:1"
         transform="matrix(-0.2,0,0,-0.2,-1.2,0)"
         inkscape:connector-curvature="0" />
    </marker>
    <meshgradient
       inkscape:collect="always"
       id="meshgradient9429"
       gradientUnits="userSpaceOnUse"
       x="3.3929651"
       y="92.33448">
      <meshrow
         id="meshrow9431">
        <meshpatch
           id="meshpatch9433">
          <stop
             path="c 5.94939,-20.04  15.5953,-20.04  21.5446,0"
             style="stop-color:#ffffff;stop-opacity:1"
             id="stop9435" />
          <stop
             path="c 5.94939,20.04  5.94939,52.5314  0,72.5714"
             style="stop-color:#ff5555;stop-opacity:1"
             id="stop9437" />
          <stop
             path="c -5.94939,20.04  -15.5953,20.04  -21.5446,2.84217e-14"
             style="stop-color:#ffffff;stop-opacity:1"
             id="stop9439" />
          <stop
             path="c -5.94939,-20.04  -5.94939,-52.5314  -3.55271e-15,-72.5714"
             style="stop-color:#ff5555;stop-opacity:1"
             id="stop9441" />
        </meshpatch>
      </meshrow>
    </meshgradient>
    <meshgradient
       inkscape:collect="always"
       id="meshgradient9443"
       gradientUnits="userSpaceOnUse"
       x="48.901299"
       y="92.33448">
      <meshrow
         id="meshrow9445">
        <meshpatch
           id="meshpatch9447">
          <stop
             path="c 5.94939,-20.04  15.5953,-20.04  21.5446,0"
             style="stop-color:#ffffff;stop-opacity:1"
             id="stop9449" />
          <stop
             path="c 5.94939,20.04  5.94939,52.5314  0,72.5714"
             style="stop-color:#ff5555;stop-opacity:1"
             id="stop9451" />
          <stop
             path="c -5.94939,20.04  -15.5953,20.04  -21.5446,2.84217e-14"
             style="stop-color:#ffffff;stop-opacity:1"
             id="stop9453" />
          <stop
             path="c -5.94939,-20.04  -5.94939,-52.5314  0,-72.5714"
             style="stop-color:#ff5555;stop-opacity:1"
             id="stop9455" />
        </meshpatch>
      </meshrow>
    </meshgradient>
    <meshgradient
       inkscape:collect="always"
       id="meshgradient9457"
       gradientUnits="userSpaceOnUse"
       x="94.40963"
       y="92.33448">
      <meshrow
         id="meshrow9459">
        <meshpatch
           id="meshpatch9461">
          <stop
             path="c 5.94939,-20.04  15.5953,-20.04  21.5446,0"
             style="stop-color:#ffffff;stop-opacity:1"
             id="stop9463" />
          <stop
             path="c 5.94939,20.04  5.94939,52.5314  0,72.5714"
             style="stop-color:#ff5555;stop-opacity:1"
             id="stop9465" />
          <stop
             path="c -5.94939,20.04  -15.5953,20.04  -21.5446,2.84217e-14"
             style="stop-color:#ffffff;stop-opacity:1"
             id="stop9467" />
          <stop
             path="c -5.94939,-20.04  -5.94939,-52.5314  -1.42109e-14,-72.5714"
             style="stop-color:#ff5555;stop-opacity:1"
             id="stop9469" />
        </meshpatch>
      </meshrow>
    </meshgradient>
    <meshgradient
       inkscape:collect="always"
       id="meshgradient9485"
       gradientUnits="userSpaceOnUse"
       x="185.98181"
       y="92.33448"
       gradientTransform="translate(-46.063828)">
      <meshrow
         id="meshrow9487">
        <meshpatch
           id="meshpatch9489">
          <stop
             path="c 5.94939,-20.04  15.5953,-20.04  21.5446,0"
             style="stop-color:#ffffff;stop-opacity:1"
             id="stop9491" />
          <stop
             path="c 5.94939,20.04  5.94939,52.5314  0,72.5714"
             style="stop-color:#ff5555;stop-opacity:1"
             id="stop9493" />
          <stop
             path="c -5.94939,20.04  -15.5953,20.04  -21.5446,2.84217e-14"
             style="stop-color:#ffffff;stop-opacity:1"
             id="stop9495" />
          <stop
             path="c -5.94939,-20.04  -5.94939,-52.5314  0,-72.5714"
             style="stop-color:#ff5555;stop-opacity:1"
             id="stop9497" />
        </meshpatch>
      </meshrow>
    </meshgradient>
    <meshgradient
       inkscape:collect="always"
       id="meshgradient4974"
       gradientUnits="userSpaceOnUse"
       x="139.91798"
       y="92.33448">
      <meshrow
         id="meshrow4986">
        <meshpatch
           id="meshpatch4984">
          <stop
             id="stop4976"
             style="stop-color:#ffffff;stop-opacity:1"
             path="c 5.94939,-20.04  15.5953,-20.04  21.5446,0" />
          <stop
             id="stop4978"
             style="stop-color:#ff5555;stop-opacity:1"
             path="c 5.94939,20.04  5.94939,52.5314  0,72.5714" />
          <stop
             id="stop4980"
             style="stop-color:#ffffff;stop-opacity:1"
             path="c -5.94939,20.04  -15.5953,20.04  -21.5446,2.84217e-14" />
          <stop
             id="stop4982"
             style="stop-color:#ff5555;stop-opacity:1"
             path="c -5.94939,-20.04  -5.94939,-52.5314  0,-72.5714" />
        </meshpatch>
      </meshrow>
    </meshgradient>
  </defs>
  <sodipodi:namedview
     id="base"
     pagecolor="#ffffff"
     bordercolor="#666666"
     borderopacity="1.0"
     inkscape:pageopacity="0.0"
     inkscape:pageshadow="2"
     inkscape:zoom="0.7"
     inkscape:cx="652.75498"
     inkscape:cy="130.19324"
     inkscape:document-units="mm"
     inkscape:current-layer="layer1"
     showgrid="false"
     inkscape:window-width="1848"
     inkscape:window-height="1016"
     inkscape:window-x="72"
     inkscape:window-y="27"
     inkscape:window-maximized="1"
     fit-margin-top="0"
     fit-margin-left="0"
     fit-margin-right="0"
     fit-margin-bottom="0" />
  <metadata
     id="metadata5">
    <rdf:RDF>
      <cc:Work
         rdf:about="">
        <dc:format>image/svg+xml</dc:format>
        <dc:type
           rdf:resource="http://purl.org/dc/dcmitype/StillImage" />
        <dc:title></dc:title>
      </cc:Work>
    </rdf:RDF>
  </metadata>
  <g
     inkscape:label="Layer 1"
     inkscape:groupmode="layer"
     id="layer1"
     transform="translate(1.3190765,-75.52105)">
    <rect
       style="fill:#ffff00;fill-opacity:1;stroke:none;stroke-width:0.40000001;stroke-linecap:round;stroke-linejoin:round;stroke-miterlimit:4;stroke-dasharray:0.8, 0.8;stroke-dashoffset:0;stroke-opacity:1"
       id="rect5057"
       width="74.083336"
       height="10.583333"
       x="68.418045"
       y="182.32428"
       rx="1.5051829"
       ry="1.5051829" />
    <ellipse
       style="fill:url(#meshgradient9457);fill-opacity:1;stroke:#000000;stroke-width:0.5;stroke-linecap:round;stroke-linejoin:round;stroke-miterlimit:4;stroke-dasharray:none;stroke-dashoffset:0;stroke-opacity:1"
       id="ellipse4754"
       cy="128.62019"
       cx="105.18195"
       ry="51.315746"
       rx="15.234363" />
    <ellipse
       rx="15.234363"
       ry="51.315746"
       cx="59.673618"
       cy="128.62019"
       id="ellipse4752"
       style="fill:url(#meshgradient9443);fill-opacity:1;stroke:#000000;stroke-width:0.5;stroke-linecap:round;stroke-linejoin:round;stroke-miterlimit:4;stroke-dasharray:none;stroke-dashoffset:0;stroke-opacity:1" />
    <ellipse
       style="fill:url(#meshgradient9429);fill-opacity:1;stroke:#000000;stroke-width:0.5;stroke-linecap:round;stroke-linejoin:round;stroke-miterlimit:4;stroke-dasharray:none;stroke-dashoffset:0;stroke-opacity:1"
       id="path4747"
       cy="128.62019"
       cx="14.165286"
       ry="51.315746"
       rx="15.234363" />
    <ellipse
       ry="27.218893"
       rx="5.8586307"
       cy="140.74004"
       cx="59.132931"
       id="ellipse5641"
       style="fill:#c5ef17;fill-opacity:1;stroke:#000000;stroke-width:0.5;stroke-linecap:round;stroke-linejoin:round;stroke-miterlimit:4;stroke-dasharray:none;stroke-dashoffset:0;stroke-opacity:1" />
    <path
       style="fill:none;stroke:#000000;stroke-width:0.5;stroke-linecap:round;stroke-linejoin:miter;stroke-miterlimit:4;stroke-dasharray:0.50000001, 1.50000004;stroke-dashoffset:0;stroke-opacity:1;marker-end:url(#Arrow2Mend)"
       d="m 20.437029,81.585563 c 3.570408,-6.184128 22.919131,-9.190326 32.109458,0"
       id="path4770"
       inkscape:connector-curvature="0"
       sodipodi:nodetypes="cc" />
    <path
       id="path5518"
       d="m 14.547214,83.351535 -0.01528,-0.0535 v -0.0519 -0.0519 l -0.01528,-0.0504 v -0.0489 l -0.01528,-0.0489 v -0.0474 l -0.01528,-0.0458 v -0.0443 l -0.01528,-0.0443 -0.01528,-0.0412 -0.01528,-0.0412 v -0.0382 l -0.01528,-0.0382 -0.01528,-0.0367 -0.01528,-0.0336 -0.03055,-0.0336 -0.01528,-0.0306 -0.01528,-0.0306 -0.03055,-0.0275 -0.01528,-0.0244 -0.03055,-0.0244 -0.03055,-0.0214 -0.03055,-0.0199 -0.03055,-0.0183 -0.03055,-0.0153 -0.04583,-0.0122 -0.03055,-0.0107 -0.04583,-0.009 -0.04583,-0.006 -0.04583,-0.003 -0.01528,-0.002 h -0.03055 c -0.718019,0 -1.22216,0.51789 -1.22216,0.73024 0,0.055 0.04583,0.055 0.09166,0.055 0.07639,0 0.412479,-0.10083 0.549972,-0.35901 l 0.01528,-0.006 c 0.412479,0 0.519418,0.23374 0.595803,1.01898 l 0.106939,1.1198 c -0.274986,0.14971 -1.298545,0.76843 -1.848517,1.1473 -0.870789,0.61567 -0.886066,0.84482 -0.886066,1.06481 0,0.25971 0.137493,0.42776 0.366648,0.42776 0.229155,0 0.580526,-0.25055 0.580526,-0.36512 0,-0.0382 -0.03055,-0.0458 -0.06111,-0.0535 -0.06111,-0.009 -0.244432,-0.0382 -0.244432,-0.3361 0,-0.20471 0,-0.29637 0.809681,-0.83565 0.473587,-0.30554 0.91662,-0.54844 1.298545,-0.79899 0,0.0137 0.122216,1.15494 0.137493,1.28633 0.06111,0.60191 0.106939,1.103 0.672188,1.103 0.733296,0 1.22216,-0.51789 1.22216,-0.73024 0,-0.0535 -0.04583,-0.0535 -0.09166,-0.0535 -0.07639,0 -0.397202,0.0978 -0.549972,0.35595 -0.01528,0.009 -0.06111,0.009 -0.07639,0.009 -0.427756,0 -0.473587,-0.4797 -0.534695,-1.11828 -0.03055,-0.24443 -0.04583,-0.44151 -0.122216,-1.23438 2.367935,-1.41618 2.367935,-1.68047 2.367935,-2.00129 0,-0.25971 -0.137493,-0.42623 -0.366648,-0.42623 -0.229155,0 -0.580526,0.25971 -0.580526,0.36512 0,0.0443 0.04583,0.055 0.04583,0.055 0.07639,0.006 0.244432,0.0382 0.244432,0.33304 0,0.19096 -0.01528,0.30401 -0.656911,0.74552 -0.229155,0.15277 -0.549972,0.35137 -1.084667,0.67066 z"
       inkscape:connector-curvature="0"
       style="font-style:normal;font-variant:normal;font-weight:normal;font-stretch:normal;letter-spacing:normal;word-spacing:normal;text-anchor:start;fill:#000000;fill-opacity:1;fill-rule:evenodd;stroke:#000000;stroke-width:0;stroke-linecap:butt;stroke-linejoin:miter;stroke-miterlimit:10.43299961;stroke-dasharray:none;stroke-dashoffset:0;stroke-opacity:1" />
    <ellipse
       ry="11.717261"
       rx="5.8586307"
       cy="156.24167"
       cx="11.50793"
       id="path4758"
       style="fill:#c5ef17;fill-opacity:1;stroke:#000000;stroke-width:0.5;stroke-linecap:round;stroke-linejoin:round;stroke-miterlimit:4;stroke-dasharray:none;stroke-dashoffset:0;stroke-opacity:1" />
    <path
       id="path5520"
       d="m 11.844028,155.76986 v -0.003 -0.003 -0.002 -0.003 -0.003 -0.003 -0.005 -0.003 -0.003 l -0.01528,-0.005 v -0.003 -0.003 -0.009 -0.008 -0.008 l -0.01528,-0.008 v -0.003 -0.005 -0.003 -0.003 -0.005 -0.003 -0.003 -0.003 -0.003 -0.003 -0.002 -0.003 c 0,-0.006 0.137493,-0.11458 0.213878,-0.17416 l 1.329099,-1.02814 c 0.718019,-0.52553 1.023559,-0.55456 1.252714,-0.57747 0.06111,-0.008 0.137493,-0.0153 0.137493,-0.15277 0,-0.029 -0.03055,-0.084 -0.09166,-0.084 -0.168047,0 -0.351371,0.0244 -0.534695,0.0244 -0.274986,0 -0.580526,-0.0244 -0.855512,-0.0244 -0.04583,0 -0.137493,0 -0.137493,0.15277 0,0.0519 0.03055,0.0764 0.09166,0.084 0.168047,0.0137 0.229155,0.0519 0.229155,0.15888 0,0.13597 -0.229155,0.31318 -0.274986,0.35137 l -2.963738,2.28238 0.61108,-2.44279 c 0.06111,-0.27346 0.07638,-0.34984 0.641634,-0.34984 0.183324,0 0.259709,0 0.259709,-0.15277 0,-0.0672 -0.06111,-0.084 -0.106939,-0.084 -0.213878,0 -0.76385,0.0244 -0.977728,0.0244 -0.213878,0 -0.7638505,-0.0244 -0.9777285,-0.0244 -0.06111,0 -0.15277,0 -0.15277,0.14513 0,0.0917 0.06111,0.0917 0.213878,0.0917 0.106939,0 0.244432,0.006 0.3360945,0.0137 0.122216,0.0168 0.168047,0.0382 0.168047,0.12221 0,0.0306 -0.01528,0.055 -0.03055,0.14514 l -1.0235596,4.08659 c -0.07638,0.29791 -0.09166,0.35749 -0.702742,0.35749 -0.122216,0 -0.198601,0 -0.198601,0.14665 0,0.0901 0.07639,0.0901 0.106939,0.0901 0.213878,0 0.748573,-0.0244 0.962451,-0.0244 0.1680471,0 0.3360941,0.0107 0.4888641,0.0107 0.168047,0 0.3360945,0.0137 0.5041415,0.0137 0.04583,0 0.15277,0 0.15277,-0.15277 0,-0.084 -0.07639,-0.084 -0.213878,-0.084 -0.2902635,0 -0.5041415,0 -0.5041415,-0.13597 0,-0.055 0.04583,-0.22152 0.07638,-0.33609 0.106939,-0.39415 0.1986015,-0.79746 0.3055405,-1.19314 l 1.130498,-0.88301 0.886066,2.04712 c 0.09166,0.20624 0.09166,0.21999 0.09166,0.26582 0,0.22915 -0.336094,0.23527 -0.397202,0.23527 -0.09166,0 -0.168047,0 -0.168047,0.15277 0,0.084 0.09166,0.084 0.106939,0.084 0.30554,0 0.61108,-0.0244 0.91662,-0.0244 0.168047,0 0.580526,0.0244 0.748573,0.0244 0.04583,0 0.137493,0 0.137493,-0.15277 0,-0.084 -0.07639,-0.084 -0.15277,-0.084 -0.30554,-0.006 -0.412479,-0.0764 -0.519418,-0.34068 z"
       inkscape:connector-curvature="0"
       style="font-style:normal;font-variant:normal;font-weight:normal;font-stretch:normal;letter-spacing:normal;word-spacing:normal;text-anchor:start;fill:#000000;fill-opacity:1;fill-rule:evenodd;stroke:#000000;stroke-width:0;stroke-linecap:butt;stroke-linejoin:miter;stroke-miterlimit:10.43299961;stroke-dasharray:none;stroke-dashoffset:0;stroke-opacity:1" />
    <path
       style="font-style:normal;font-variant:normal;font-weight:normal;font-stretch:normal;letter-spacing:normal;word-spacing:normal;text-anchor:start;fill:#000000;fill-opacity:1;fill-rule:evenodd;stroke:#000000;stroke-width:0;stroke-linecap:butt;stroke-linejoin:miter;stroke-miterlimit:10.43299961;stroke-dasharray:none;stroke-dashoffset:0;stroke-opacity:1"
       inkscape:connector-curvature="0"
       d="m 60.055547,83.351535 -0.01528,-0.0535 v -0.0519 -0.0519 l -0.01528,-0.0504 v -0.0489 l -0.01528,-0.0489 v -0.0474 l -0.01528,-0.0458 v -0.0443 l -0.01528,-0.0443 -0.01528,-0.0412 -0.01528,-0.0412 v -0.0382 l -0.01528,-0.0382 -0.01528,-0.0367 -0.01528,-0.0336 -0.03055,-0.0336 -0.01528,-0.0306 -0.01528,-0.0306 -0.03055,-0.0275 -0.01528,-0.0244 -0.03055,-0.0244 -0.03055,-0.0214 -0.03055,-0.0199 -0.03055,-0.0183 -0.03055,-0.0153 -0.04583,-0.0122 -0.03055,-0.0107 -0.04583,-0.009 -0.04583,-0.006 -0.04583,-0.003 -0.01528,-0.002 h -0.03055 c -0.718019,0 -1.22216,0.51789 -1.22216,0.73024 0,0.055 0.04583,0.055 0.09166,0.055 0.07639,0 0.412479,-0.10083 0.549972,-0.35901 l 0.01528,-0.006 c 0.412479,0 0.519418,0.23374 0.595803,1.01898 l 0.106939,1.1198 c -0.274986,0.14971 -1.298545,0.76843 -1.848517,1.1473 -0.870789,0.61567 -0.886066,0.84482 -0.886066,1.06481 0,0.25971 0.137493,0.42776 0.366648,0.42776 0.229155,0 0.580526,-0.25055 0.580526,-0.36512 0,-0.0382 -0.03055,-0.0458 -0.06111,-0.0535 -0.06111,-0.009 -0.244432,-0.0382 -0.244432,-0.3361 0,-0.20471 0,-0.29637 0.809681,-0.83565 0.473587,-0.30554 0.91662,-0.54844 1.298545,-0.79899 0,0.0137 0.122216,1.15494 0.137493,1.28633 0.06111,0.60191 0.106939,1.103 0.672188,1.103 0.733296,0 1.22216,-0.51789 1.22216,-0.73024 0,-0.0535 -0.04583,-0.0535 -0.09166,-0.0535 -0.07639,0 -0.397202,0.0978 -0.549972,0.35595 -0.01528,0.009 -0.06111,0.009 -0.07639,0.009 -0.427756,0 -0.473587,-0.4797 -0.534695,-1.11828 -0.03055,-0.24443 -0.04583,-0.44151 -0.122216,-1.23438 2.367935,-1.41618 2.367935,-1.68047 2.367935,-2.00129 0,-0.25971 -0.137493,-0.42623 -0.366648,-0.42623 -0.229155,0 -0.580526,0.25971 -0.580526,0.36512 0,0.0443 0.04583,0.055 0.04583,0.055 0.07639,0.006 0.244432,0.0382 0.244432,0.33304 0,0.19096 -0.01528,0.30401 -0.656911,0.74552 -0.229155,0.15277 -0.549972,0.35137 -1.084667,0.67066 z"
       id="path5633" />
    <ellipse
       style="fill:#c5ef17;fill-opacity:1;stroke:#000000;stroke-width:0.5;stroke-linecap:round;stroke-linejoin:round;stroke-miterlimit:4;stroke-dasharray:none;stroke-dashoffset:0;stroke-opacity:1"
       id="ellipse5648"
       cx="107.0252"
       cy="134.0583"
       rx="8.7985954"
       ry="33.900631" />
    <path
       id="path5635"
       d="m 105.56385,83.351535 -0.0153,-0.0535 v -0.0519 -0.0519 l -0.0153,-0.0504 v -0.0489 l -0.0153,-0.0489 v -0.0474 l -0.0153,-0.0458 v -0.0443 l -0.0153,-0.0443 -0.0153,-0.0412 -0.0153,-0.0412 v -0.0382 l -0.0153,-0.0382 -0.0153,-0.0367 -0.0153,-0.0336 -0.0305,-0.0336 -0.0153,-0.0306 -0.0153,-0.0306 -0.0305,-0.0275 -0.0153,-0.0244 -0.0306,-0.0244 -0.0305,-0.0214 -0.0305,-0.0199 -0.0306,-0.0183 -0.0305,-0.0153 -0.0458,-0.0122 -0.0305,-0.0107 -0.0458,-0.009 -0.0458,-0.006 -0.0458,-0.003 -0.0153,-0.002 h -0.0306 c -0.71802,0 -1.22216,0.51789 -1.22216,0.73024 0,0.055 0.0458,0.055 0.0917,0.055 0.0764,0 0.41248,-0.10083 0.54997,-0.35901 l 0.0153,-0.006 c 0.41248,0 0.51942,0.23374 0.5958,1.01898 l 0.10694,1.1198 c -0.27499,0.14971 -1.29854,0.76843 -1.84852,1.1473 -0.87079,0.61567 -0.88606,0.84482 -0.88606,1.06481 0,0.25971 0.13749,0.42776 0.36665,0.42776 0.22915,0 0.58052,-0.25055 0.58052,-0.36512 0,-0.0382 -0.0306,-0.0458 -0.0611,-0.0535 -0.0611,-0.009 -0.24443,-0.0382 -0.24443,-0.3361 0,-0.20471 0,-0.29637 0.80968,-0.83565 0.47359,-0.30554 0.91662,-0.54844 1.29855,-0.79899 0,0.0137 0.12221,1.15494 0.13749,1.28633 0.0611,0.60191 0.10694,1.103 0.67218,1.103 0.7333,0 1.22216,-0.51789 1.22216,-0.73024 0,-0.0535 -0.0458,-0.0535 -0.0917,-0.0535 -0.0764,0 -0.3972,0.0978 -0.54997,0.35595 -0.0153,0.009 -0.0611,0.009 -0.0764,0.009 -0.42775,0 -0.47358,-0.4797 -0.53469,-1.11828 -0.0306,-0.24443 -0.0458,-0.44151 -0.12222,-1.23438 2.36794,-1.41618 2.36794,-1.68047 2.36794,-2.00129 0,-0.25971 -0.1375,-0.42623 -0.36665,-0.42623 -0.22916,0 -0.58053,0.25971 -0.58053,0.36512 0,0.0443 0.0458,0.055 0.0458,0.055 0.0764,0.006 0.24443,0.0382 0.24443,0.33304 0,0.19096 -0.0153,0.30401 -0.65691,0.74552 -0.22915,0.15277 -0.54997,0.35137 -1.08466,0.67066 z"
       inkscape:connector-curvature="0"
       style="font-style:normal;font-variant:normal;font-weight:normal;font-stretch:normal;letter-spacing:normal;word-spacing:normal;text-anchor:start;fill:#000000;fill-opacity:1;fill-rule:evenodd;stroke:#000000;stroke-width:0;stroke-linecap:butt;stroke-linejoin:miter;stroke-miterlimit:10.43299961;stroke-dasharray:none;stroke-dashoffset:0;stroke-opacity:1" />
    <path
       id="path5897"
       d="m 197.13603,83.351535 -0.0153,-0.0535 v -0.0519 -0.0519 l -0.0153,-0.0504 v -0.0489 l -0.0153,-0.0489 v -0.0474 l -0.0153,-0.0458 v -0.0443 l -0.0153,-0.0443 -0.0153,-0.0412 -0.0153,-0.0412 v -0.0382 l -0.0153,-0.0382 -0.0153,-0.0367 -0.0153,-0.0336 -0.0305,-0.0336 -0.0153,-0.0306 -0.0153,-0.0306 -0.0305,-0.0275 -0.0153,-0.0244 -0.0306,-0.0244 -0.0305,-0.0214 -0.0305,-0.0199 -0.0306,-0.0183 -0.0305,-0.0153 -0.0458,-0.0122 -0.0305,-0.0107 -0.0458,-0.009 -0.0458,-0.006 -0.0458,-0.003 -0.0153,-0.002 h -0.0306 c -0.71802,0 -1.22216,0.51789 -1.22216,0.73024 0,0.055 0.0458,0.055 0.0917,0.055 0.0764,0 0.41248,-0.10083 0.54997,-0.35901 l 0.0153,-0.006 c 0.41248,0 0.51942,0.23374 0.5958,1.01898 l 0.10694,1.1198 c -0.27499,0.14971 -1.29854,0.76843 -1.84852,1.1473 -0.87079,0.61567 -0.88606,0.84482 -0.88606,1.06481 0,0.25971 0.13749,0.42776 0.36665,0.42776 0.22915,0 0.58052,-0.25055 0.58052,-0.36512 0,-0.0382 -0.0306,-0.0458 -0.0611,-0.0535 -0.0611,-0.009 -0.24443,-0.0382 -0.24443,-0.3361 0,-0.20471 0,-0.29637 0.80968,-0.83565 0.47359,-0.30554 0.91662,-0.54844 1.29855,-0.79899 0,0.0137 0.12221,1.15494 0.13749,1.28633 0.0611,0.60191 0.10694,1.103 0.67218,1.103 0.7333,0 1.22216,-0.51789 1.22216,-0.73024 0,-0.0535 -0.0458,-0.0535 -0.0917,-0.0535 -0.0764,0 -0.3972,0.0978 -0.54997,0.35595 -0.0153,0.009 -0.0611,0.009 -0.0764,0.009 -0.42775,0 -0.47358,-0.4797 -0.53469,-1.11828 -0.0306,-0.24443 -0.0458,-0.44151 -0.12222,-1.23438 2.36794,-1.41618 2.36794,-1.68047 2.36794,-2.00129 0,-0.25971 -0.1375,-0.42623 -0.36665,-0.42623 -0.22916,0 -0.58053,0.25971 -0.58053,0.36512 0,0.0443 0.0458,0.055 0.0458,0.055 0.0764,0.006 0.24443,0.0382 0.24443,0.33304 0,0.19096 -0.0153,0.30401 -0.65691,0.74552 -0.22915,0.15277 -0.54997,0.35137 -1.08466,0.67066 z"
       inkscape:connector-curvature="0"
       style="font-style:normal;font-variant:normal;font-weight:normal;font-stretch:normal;letter-spacing:normal;word-spacing:normal;text-anchor:start;fill:#000000;fill-opacity:1;fill-rule:evenodd;stroke:#000000;stroke-width:0;stroke-linecap:butt;stroke-linejoin:miter;stroke-miterlimit:10.43299961;stroke-dasharray:none;stroke-dashoffset:0;stroke-opacity:1" />
    <path
       style="fill:none;stroke:#000000;stroke-width:0.40000001;stroke-linecap:round;stroke-linejoin:miter;stroke-miterlimit:4;stroke-dasharray:0.8, 1.6;stroke-dashoffset:0;stroke-opacity:1"
       d="M 11.693042,144.32227 37.658383,127.23303 58.799295,113.31901"
       id="path5993"
       inkscape:connector-curvature="0"
       sodipodi:nodetypes="ccc" />
    <path
       sodipodi:nodetypes="cc"
       inkscape:connector-curvature="0"
       id="path7305"
       d="m 65.945364,81.585563 c 3.570408,-6.184128 22.919131,-9.190326 32.109458,0"
       style="fill:none;stroke:#000000;stroke-width:0.5;stroke-linecap:round;stroke-linejoin:miter;stroke-miterlimit:4;stroke-dasharray:0.50000001, 1.50000004;stroke-dashoffset:0;stroke-opacity:1;marker-end:url(#marker7309)" />
    <path
       style="fill:none;stroke:#000000;stroke-width:0.5;stroke-linecap:round;stroke-linejoin:miter;stroke-miterlimit:4;stroke-dasharray:0.50000001, 1.50000004;stroke-dashoffset:0;stroke-opacity:1;marker-end:url(#marker7435)"
       d="m 111.45372,81.585563 c 3.57041,-6.184128 22.91914,-9.190326 32.10948,0"
       id="path7431"
       inkscape:connector-curvature="0"
       sodipodi:nodetypes="cc" />
    <path
       sodipodi:nodetypes="cc"
       inkscape:connector-curvature="0"
       id="path7575"
       d="m 156.96207,81.585563 c 3.57041,-6.184128 22.91914,-9.190326 32.10948,0"
       style="fill:none;stroke:#000000;stroke-width:0.5;stroke-linecap:round;stroke-linejoin:miter;stroke-miterlimit:4;stroke-dasharray:0.50000001, 1.50000004;stroke-dashoffset:0;stroke-opacity:1;marker-end:url(#marker7579)" />
    <path
       sodipodi:nodetypes="cc"
       inkscape:connector-curvature="0"
       id="path7773"
       d="m 11.693042,168.17258 47.106253,-0.29269"
       style="fill:none;stroke:#000000;stroke-width:0.40000001;stroke-linecap:round;stroke-linejoin:miter;stroke-miterlimit:4;stroke-dasharray:0.8, 1.6;stroke-dashoffset:0;stroke-opacity:1" />
    <path
       style="fill:none;stroke:#000000;stroke-width:0.40000001;stroke-linecap:round;stroke-linejoin:miter;stroke-miterlimit:4;stroke-dasharray:0.8, 1.6;stroke-dashoffset:0;stroke-opacity:1"
       d="M 58.799295,113.31901 107.03948,99.891647"
       id="path7775"
       inkscape:connector-curvature="0"
       sodipodi:nodetypes="cc" />
    <path
       style="fill:none;stroke:#000000;stroke-width:0.40000001;stroke-linecap:round;stroke-linejoin:miter;stroke-miterlimit:4;stroke-dasharray:0.8, 1.6;stroke-dashoffset:0;stroke-opacity:1"
       d="m 58.799295,167.87989 48.175335,0.17503"
       id="path7777"
       inkscape:connector-curvature="0"
       sodipodi:nodetypes="cc" />
    <g
       id="g5036"
       transform="translate(-75.460006,88.502004)">
      <g
         word-spacing="normal"
         letter-spacing="normal"
         font-size-adjust="none"
         font-stretch="normal"
         font-weight="normal"
         font-variant="normal"
         font-style="normal"
         stroke-miterlimit="10.433"
         xml:space="preserve"
         transform="matrix(0.17011727,0,0,-0.17011727,-29.770522,160.16818)"
         id="content"
         style="font-style:normal;font-variant:normal;font-weight:normal;font-stretch:normal;letter-spacing:normal;word-spacing:normal;text-anchor:start;fill:none;fill-opacity:1;fill-rule:evenodd;stroke:#000000;stroke-linecap:butt;stroke-linejoin:miter;stroke-miterlimit:10.43299961;stroke-dasharray:none;stroke-dashoffset:0;stroke-opacity:1"><path
           id="path5005"
           d="m 1056.7,374.79 0.7,0.7 c 1.5,1.5 3.1,3.19 6.5,3.44 0.6,0.04 1,0.04 1,0.95 0,0.39 -0.2,0.59 -0.6,0.59 -1.3,0 -2.8,-0.15 -4.1,-0.15 -1.6,0 -3.4,0.15 -5,0.15 -0.3,0 -0.9,0 -0.9,-0.95 0,-0.55 0.5,-0.59 0.7,-0.59 0.3,0 1.8,-0.1 1.8,-1.14 0,-0.86 -1.1,-2.15 -1.3,-2.4 l -11.6,-13.31 -5.5,14.8 c -0.3,0.7 -0.3,0.8 -0.3,0.84 0,1.21 2.5,1.21 3,1.21 0.7,0 1.2,0 1.2,1 0,0.54 -0.6,0.54 -0.8,0.54 -1.4,0 -4.9,-0.15 -6.3,-0.15 -1.2,0 -4.3,0.15 -5.5,0.15 -0.4,0 -1,0 -1,-1 0,-0.54 0.5,-0.54 1.1,-0.54 3,0 3.2,-0.46 3.7,-1.69 l 6.1,-16.41 c 0.1,-0.14 0.2,-0.69 0.2,-0.84 0,-0.14 -2,-8.17 -2.2,-9.06 -0.7,-2.74 -0.7,-2.89 -4.7,-2.94 -1,0 -1.4,0 -1.4,-1 0,-0.55 0.7,-0.55 0.7,-0.55 1.4,0 4.9,0.16 6.3,0.16 1.4,0 5,-0.16 6.4,-0.16 0.3,0 0.9,0 0.9,1 0,0.55 -0.4,0.55 -1.4,0.55 -0.1,0 -1,0 -1.8,0.09 -1.1,0.11 -1.4,0.21 -1.4,0.8 0,0.36 0.5,2.09 0.7,3.14 l 1.8,7.03 c 0.2,0.94 0.2,1.09 0.6,1.55 z"
           inkscape:connector-curvature="0"
           style="fill:#000000;stroke-width:0" /><path
           id="path5007"
           d="m 1114.9,362.74 h 0.2 0.1 0.2 l 0.1,0.01 v 0 l 0.1,0.01 0.1,0.01 v 0.01 l 0.1,0.01 0.1,0.01 v 0.02 l 0.1,0.02 0.1,0.02 v 0.03 l 0.1,0.02 v 0.03 l 0.1,0.04 0.1,0.04 v 0.04 0.04 l 0.1,0.05 v 0.03 0.03 0.03 0.03 l 0.1,0.03 v 0.03 0.03 0.04 0.03 0.04 0.04 0.04 0.04 0.04 0.05 0.04 c 0,1 -0.9,1 -1.6,1 h -29.8 c -0.8,0 -1.7,0 -1.7,-1 0,-0.98 0.9,-0.98 1.7,-0.98 z"
           inkscape:connector-curvature="0"
           style="fill:#000000;stroke-width:0" /><path
           id="path5009"
           d="m 1115,353.07 h 0.1 v 0 h 0.2 0.1 l 0.1,0.01 v 0 l 0.1,0.01 0.1,0.01 0.1,0.01 v 0.01 l 0.1,0.01 0.1,0.02 v 0.02 l 0.1,0.02 v 0.03 l 0.1,0.02 0.1,0.04 v 0.03 l 0.1,0.04 v 0.04 0.05 l 0.1,0.02 v 0.03 0.02 0.03 0.03 0.03 l 0.1,0.03 v 0.04 0.03 0.04 0.03 0.04 0.04 0.04 0.04 0.05 0.04 0.05 c 0,1 -0.9,1 -1.7,1 h -29.7 c -0.8,0 -1.7,0 -1.7,-1 0,-1 0.9,-1 1.7,-1 z"
           inkscape:connector-curvature="0"
           style="fill:#000000;stroke-width:0" /><path
           id="path5011"
           d="m 1141.5,358.64 v 3.05 12.16 h 5.3 c 4.8,0 7,-3.44 7,-6.08 0,-2.64 -2.2,-6.08 -7,-6.08 h -5.3 v -3.05 h 6.3 c 5.8,0 9.4,4.49 9.4,9.13 0,4.62 -3.7,9.11 -9.4,9.11 h -11.2 c -0.7,0 -2,0 -2,-1.49 0,-1.54 1.3,-1.54 2,-1.54 h 1.5 v -24.36 h -1.5 c -0.8,0 -2,0 -2,-1.55 0,-1.5 1.3,-1.5 2,-1.5 h 6.4 c 0.8,0 2.1,0 2.1,1.5 0,1.55 -1.3,1.55 -2.1,1.55 h -1.5 z"
           inkscape:connector-curvature="0"
           style="fill:#000000;stroke-width:0" /><path
           id="path5013"
           d="m 1170.5,355.71 v 0.44 0.44 l 0.1,0.43 v 0.44 l 0.1,0.43 0.1,0.43 0.1,0.43 0.2,0.41 0.1,0.42 0.2,0.4 0.1,0.4 0.2,0.38 0.3,0.38 0.2,0.37 0.2,0.35 0.3,0.34 0.3,0.33 0.3,0.31 0.3,0.3 0.4,0.28 0.3,0.26 0.4,0.24 0.4,0.23 0.4,0.21 0.4,0.18 0.5,0.16 0.5,0.14 0.4,0.12 0.5,0.09 0.6,0.07 0.5,0.04 0.6,0.02 c 0,-1.21 0.9,-2.19 2.1,-2.19 1.1,0 2.1,0.8 2.1,2.14 0,0.98 -0.6,3.08 -4.7,3.08 -2.6,0 -5.8,-0.89 -8.5,-4.03 v 1.7 c 0,1.53 -0.3,2.03 -2,2.03 h -5.5 c -0.7,0 -2,0 -2,-1.48 0,-1.55 1.2,-1.55 2,-1.55 h 4.1 v -15.39 h -4.1 c -0.7,0 -2,0 -2,-1.5 0,-1.55 1.2,-1.55 2,-1.55 h 13 c 0.8,0 2.1,0 2.1,1.5 0,1.55 -1.3,1.55 -2.1,1.55 h -5.5 z"
           inkscape:connector-curvature="0"
           style="fill:#000000;stroke-width:0" /><path
           id="path5015"
           d="m 1208.9,357.21 -0.1,0.58 v 0.57 l -0.1,0.56 v 0.55 l -0.2,0.54 -0.1,0.54 -0.2,0.52 -0.2,0.5 -0.2,0.5 -0.2,0.48 -0.2,0.47 -0.3,0.45 -0.3,0.44 -0.3,0.42 -0.3,0.4 -0.4,0.39 -0.3,0.37 -0.4,0.34 -0.4,0.33 -0.4,0.31 -0.4,0.29 -0.4,0.27 -0.5,0.24 -0.4,0.22 -0.5,0.2 -0.4,0.18 -0.5,0.15 -0.5,0.12 -0.5,0.1 -0.5,0.07 -0.5,0.04 -0.6,0.01 c -5.5,0 -10.2,-4.93 -10.2,-11.15 0,-6.33 4.8,-11.07 10.2,-11.07 v 3.04 c -3.7,0 -6.7,3.75 -6.7,8.37 0,4.53 3.2,7.77 6.7,7.77 3.6,0 6.8,-3.24 6.8,-7.77 0,-4.62 -3.1,-8.37 -6.8,-8.37 v 0 -3.04 c 5.5,0 10.3,4.79 10.3,11.07 z"
           inkscape:connector-curvature="0"
           style="fill:#000000;stroke-width:0" /><path
           id="path5017"
           d="m 1220,348.68 0.2,-0.19 0.2,-0.18 0.2,-0.18 0.2,-0.16 0.2,-0.15 0.2,-0.15 0.2,-0.14 0.2,-0.13 0.1,-0.12 0.2,-0.11 0.2,-0.11 0.2,-0.1 0.2,-0.09 0.2,-0.09 0.2,-0.08 0.2,-0.07 0.2,-0.07 0.1,-0.06 0.2,-0.05 0.2,-0.05 0.2,-0.05 0.2,-0.04 0.1,-0.03 0.2,-0.03 0.2,-0.03 0.1,-0.02 0.4,-0.03 0.3,-0.02 0.3,-0.01 -0.1,3.04 c -3.9,0 -5.7,4.39 -5.7,6.78 v 3.64 c 0,2.94 2.9,5.58 6,5.58 3.7,0 6.6,-3.64 6.6,-7.97 0,-4.78 -3.5,-8.03 -6.9,-8.03 l 0.1,-3.04 c 5.4,0 10.3,4.74 10.3,11.07 0,6.12 -4.5,11 -9.8,11 -2.4,0 -4.6,-0.89 -6.3,-2.44 0,1.45 -0.1,2.14 -2,2.14 h -3.6 c -0.8,0 -2.1,0 -2.1,-1.55 0,-1.48 1.3,-1.48 2,-1.48 h 2.3 v -26.45 h -2.2 c -0.8,0 -2.1,0 -2.1,-1.55 0,-1.5 1.3,-1.5 2,-1.5 h 8 c 0.6,0 1.9,0 1.9,1.5 0,1.55 -1.2,1.55 -2,1.55 h -2.2 z"
           inkscape:connector-curvature="0"
           style="fill:#000000;stroke-width:0" /><path
           id="path5019"
           d="m 1256.1,348.04 0.1,-0.15 0.2,-0.13 0.1,-0.12 0.1,-0.12 0.1,-0.11 0.2,-0.1 0.1,-0.09 0.2,-0.09 0.1,-0.08 0.2,-0.07 0.2,-0.07 0.1,-0.06 0.2,-0.06 0.2,-0.05 0.1,-0.04 0.2,-0.04 0.2,-0.04 0.2,-0.03 0.2,-0.03 0.2,-0.02 0.3,-0.04 0.4,-0.03 0.4,-0.01 0.4,-0.01 0.4,-0.01 h 0.3 c 1.4,0 2.5,0 2.5,1.55 0,1.5 -1.2,1.5 -2,1.5 -2.1,0 -2.6,0.23 -3,0.39 v 10.76 c 0,3.54 -2.7,7.72 -9.8,7.72 -2.2,0 -7.3,0 -7.3,-3.64 0,-1.48 1.1,-2.28 2.3,-2.28 0.7,0 2.1,0.44 2.2,2.28 0,0.41 0,0.46 1,0.55 0.7,0.05 1.4,0.05 1.8,0.05 3.8,0 6.4,-1.53 6.4,-5.08 v -2.94 -4.19 c 0,-1.14 0,-2.18 -1.9,-3.07 -1.8,-0.86 -4.1,-0.86 -4.5,-0.86 -3.1,0 -5.1,1.7 -5.1,3.64 0,2.43 4.3,4.28 11.5,4.48 v 0 2.94 c -8.8,-0.14 -15,-2.64 -15,-7.42 0,-3.44 3.2,-6.68 8.3,-6.68 1.8,0 4.9,0.35 7.2,1.9 z"
           inkscape:connector-curvature="0"
           style="fill:#000000;stroke-width:0" /><path
           id="path5021"
           d="m 1271.2,353.47 v -0.01 -0.02 l 0.1,-0.02 v -0.03 l 0.1,-0.04 v -0.03 l 0.1,-0.04 0.1,-0.05 0.1,-0.05 0.1,-0.05 0.1,-0.05 0.1,-0.05 0.2,-0.06 0.1,-0.05 0.1,-0.06 0.2,-0.05 0.1,-0.06 0.2,-0.05 0.1,-0.06 0.2,-0.05 0.2,-0.05 0.2,-0.05 0.2,-0.04 0.2,-0.05 0.2,-0.04 0.2,-0.03 0.2,-0.03 0.2,-0.03 0.2,-0.02 0.2,-0.01 0.2,-0.01 0.3,-0.01 v 2.99 c -2.7,0 -4.8,2.34 -4.8,4.98 0,2.85 2.2,5.03 4.8,5.03 2.7,0 4.7,-2.34 4.7,-4.98 0,-2.85 -2.1,-5.03 -4.7,-5.03 v 0 -2.99 c 4.5,0 8.2,3.58 8.2,8.02 0,1.5 -0.5,2.94 -1.3,4.34 1,0.6 2.2,0.8 2.9,0.85 0.3,-1.35 1.4,-1.71 1.9,-1.71 0.9,0 2,0.61 2,2.05 0,1.16 -0.9,2.69 -3.6,2.69 -0.6,0 -3,-0.05 -5.3,-1.74 -0.8,0.55 -2.5,1.49 -4.8,1.49 -4.7,0 -8.3,-3.74 -8.3,-7.97 0,-2.14 0.9,-3.78 1.6,-4.74 -0.5,-0.79 -1,-1.89 -1,-3.39 0,-1.73 0.8,-2.98 1.2,-3.57 -3.7,-2.25 -3.7,-5.63 -3.7,-6.18 h 2.9 c 0,0.89 0.4,2.49 2,3.49 1.3,0.79 1.7,0.79 5.4,0.79 4.4,0 10,0 10,-4.28 0,-2.2 -3.7,-4.34 -8.7,-4.34 v 0 c -5,0 -8.7,2.14 -8.7,4.34 h -2.9 c 0,-4.29 5.2,-7.32 11.6,-7.32 6.4,0 11.6,3.09 11.6,7.32 0,1.85 -0.9,4.33 -3.4,5.68 -0.7,0.34 -2.8,1.45 -7.2,1.45 h -3.5 c -0.4,0 -1.1,0 -1.5,0.09 -0.7,0 -1,0 -1.6,0.71 -0.6,0.68 -0.6,1.68 -0.6,1.78 0,0.2 0.1,0.9 0.3,1.4 z"
           inkscape:connector-curvature="0"
           style="fill:#000000;stroke-width:0" /><path
           id="path5023"
           d="m 1308.4,348.04 0.2,-0.15 0.1,-0.13 0.1,-0.12 0.1,-0.12 0.1,-0.11 0.2,-0.1 0.1,-0.09 0.2,-0.09 0.1,-0.08 0.2,-0.07 0.2,-0.07 0.1,-0.06 0.2,-0.06 0.2,-0.05 0.2,-0.04 0.1,-0.04 0.2,-0.04 0.2,-0.03 0.2,-0.03 0.2,-0.02 0.4,-0.04 0.3,-0.03 0.4,-0.01 0.4,-0.01 0.4,-0.01 h 0.3 c 1.4,0 2.5,0 2.5,1.55 0,1.5 -1.2,1.5 -2,1.5 -2.1,0 -2.6,0.23 -3,0.39 v 10.76 c 0,3.54 -2.6,7.72 -9.8,7.72 -2.2,0 -7.3,0 -7.3,-3.64 0,-1.48 1.1,-2.28 2.3,-2.28 0.7,0 2.1,0.44 2.2,2.28 0,0.41 0,0.46 1,0.55 0.7,0.05 1.4,0.05 1.8,0.05 3.8,0 6.4,-1.53 6.4,-5.08 v -2.94 -4.19 c 0,-1.14 0,-2.18 -1.9,-3.07 -1.8,-0.86 -4.1,-0.86 -4.5,-0.86 -3.1,0 -5.1,1.7 -5.1,3.64 0,2.43 4.3,4.28 11.5,4.48 v 0 2.94 c -8.8,-0.14 -15,-2.64 -15,-7.42 0,-3.44 3.2,-6.68 8.3,-6.68 1.8,0 4.9,0.35 7.2,1.9 z"
           inkscape:connector-curvature="0"
           style="fill:#000000;stroke-width:0" /><path
           id="path5025"
           d="m 1327.4,364.88 h 8.2 c 0.8,0 2,0 2,1.48 0,1.55 -1.2,1.55 -2,1.55 h -8.2 V 372 c 0,0.94 0,2.04 -1.7,2.04 -1.7,0 -1.7,-1.04 -1.7,-2.04 v -4.09 h -4.3 c -0.8,0 -2.1,0 -2.1,-1.55 0,-1.48 1.3,-1.48 2,-1.48 h 4.4 v -12.16 c 0,-4.78 3.4,-6.58 7,-6.58 3.7,0 7.8,2.15 7.8,6.58 0,0.89 0,1.94 -1.8,1.94 -1.6,0 -1.7,-1.05 -1.7,-1.89 -0.1,-3.09 -2.9,-3.59 -4,-3.59 -3.9,0 -3.9,2.59 -3.9,3.84 z"
           inkscape:connector-curvature="0"
           style="fill:#000000;stroke-width:0" /><path
           id="path5027"
           d="m 1363.7,355.96 h 0.1 0.2 0.1 l 0.1,0.01 0.1,0.01 0.1,0.01 0.1,0.01 0.1,0.01 0.1,0.02 v 0.02 l 0.1,0.03 0.1,0.03 0.1,0.04 v 0.04 l 0.1,0.04 0.1,0.06 v 0.05 l 0.1,0.07 v 0.07 l 0.1,0.04 v 0.04 0.04 0.04 l 0.1,0.05 v 0.04 0.05 0.06 0.05 0.06 l 0.1,0.05 v 0.06 0.07 0.06 0.07 0.07 0.07 0.08 0.07 0.08 0.09 0.08 c 0,5.67 -3.2,10.56 -9.6,10.56 -6,0 -10.7,-4.98 -10.7,-11.11 0,-6.07 5,-11.11 11.4,-11.11 6.6,0 8.9,4.49 8.9,5.74 0,1.39 -1.4,1.39 -1.7,1.39 -0.9,0 -1.3,-0.16 -1.6,-1.09 -1.1,-2.55 -3.8,-3 -5.2,-3 -3.8,0 -7.5,2.5 -8.3,6.78 l 0.1,2.98 c 0.7,3.64 3.6,6.38 7.1,6.38 2.6,0 5.7,-1.24 6.1,-6.38 h -13.2 l -0.1,-2.98 z"
           inkscape:connector-curvature="0"
           style="fill:#000000;stroke-width:0" /><path
           id="path5029"
           d="m 1385.2,334.49 v 0.02 0.03 0.01 0.02 0.01 0.02 0.02 l -0.1,0.01 v 0.02 0.02 0.03 0.02 0.02 0.03 l -0.1,0.03 v 0.03 0.04 0.03 l -0.1,0.02 v 0.02 0.02 0.02 0.02 0.03 l -0.1,0.02 v 0.02 0.03 0.03 l -0.1,0.02 v 0.03 0.03 0.03 l -0.1,0.03 v 0.03 0.03 l -0.1,0.03 v 0.04 0.03 l -0.1,0.04 v 0.04 0.03 l -0.1,0.04 c -6.2,6.28 -7.8,15.69 -7.8,23.31 0,8.68 1.9,17.35 8,23.57 0.7,0.61 0.7,0.7 0.7,0.86 0,0.34 -0.2,0.48 -0.5,0.48 -0.5,0 -5,-3.37 -7.9,-9.7 -2.6,-5.49 -3.2,-11.02 -3.2,-15.21 0,-3.89 0.6,-9.9 3.3,-15.54 3,-6.13 7.3,-9.36 7.8,-9.36 0.3,0 0.5,0.14 0.5,0.5 z"
           inkscape:connector-curvature="0"
           style="fill:#000000;stroke-width:0" /><path
           id="path5031"
           d="m 1413.4,366.57 v 0.01 l -0.1,0.02 v 0.02 0.01 0.02 0.03 0.02 0.02 0.02 0.03 0.02 0.03 l -0.1,0.05 v 0.05 0.05 0.05 0.02 0.03 l -0.1,0.02 v 0.03 0.02 0.02 0.02 0.02 0.02 0.02 0.01 0.02 c 0,0.05 0.9,0.75 1.5,1.14 l 8.7,6.73 c 4.6,3.44 6.6,3.63 8.1,3.79 0.4,0.04 0.9,0.09 0.9,1 0,0.18 -0.2,0.54 -0.5,0.54 -1.2,0 -2.4,-0.15 -3.6,-0.15 -1.8,0 -3.7,0.15 -5.5,0.15 -0.4,0 -1,0 -1,-1 0,-0.34 0.3,-0.5 0.6,-0.54 1.1,-0.1 1.6,-0.35 1.6,-1.05 0,-0.89 -1.5,-2.05 -1.8,-2.3 l -19.5,-14.94 4,15.99 c 0.5,1.8 0.6,2.3 4.2,2.3 1.3,0 1.7,0 1.7,1 0,0.43 -0.4,0.54 -0.7,0.54 -1.4,0 -5,-0.15 -6.4,-0.15 -1.4,0 -5,0.15 -6.4,0.15 -0.3,0 -1,0 -1,-0.95 0,-0.59 0.5,-0.59 1.4,-0.59 0.7,0 1.6,-0.05 2.2,-0.1 0.8,-0.11 1.1,-0.25 1.1,-0.79 0,-0.21 -0.1,-0.36 -0.2,-0.96 l -6.7,-26.75 c -0.5,-1.95 -0.6,-2.34 -4.5,-2.34 -0.9,0 -1.4,0 -1.4,-0.95 0,-0.6 0.6,-0.6 0.7,-0.6 1.4,0 5,0.16 6.4,0.16 1,0 2.1,-0.06 3.2,-0.06 1,0 2.1,-0.1 3.2,-0.1 0.4,0 1,0 1,1 0,0.55 -0.5,0.55 -1.4,0.55 -1.8,0 -3.2,0 -3.2,0.89 0,0.36 0.3,1.45 0.4,2.2 0.7,2.58 1.4,5.22 2,7.81 l 7.4,5.79 5.8,-13.41 c 0.6,-1.34 0.6,-1.44 0.6,-1.73 0,-1.5 -2.1,-1.55 -2.6,-1.55 -0.5,0 -1.1,0 -1.1,-1 0,-0.55 0.6,-0.55 0.7,-0.55 2,0 4.1,0.16 6.1,0.16 1.1,0 3.8,-0.16 4.9,-0.16 0.2,0 0.9,0 0.9,1 0,0.55 -0.6,0.55 -1,0.55 -2.1,0.05 -2.7,0.5 -3.5,2.23 z"
           inkscape:connector-curvature="0"
           style="fill:#000000;stroke-width:0" /><path
           id="path5033"
           d="m 1448.3,358.89 v 0.38 0.38 0.39 0.41 0.84 l -0.1,0.88 -0.1,0.92 -0.1,0.95 -0.1,0.98 -0.2,1 -0.2,1.02 -0.2,1.04 -0.3,1.05 -0.3,1.06 -0.3,1.06 -0.4,1.07 -0.2,0.53 -0.2,0.53 -0.3,0.53 -0.2,0.53 c -3,6.13 -7.3,9.36 -7.8,9.36 -0.3,0 -0.5,-0.19 -0.5,-0.48 0,-0.16 0,-0.25 0.9,-1.16 4.9,-4.92 7.8,-12.84 7.8,-23.27 0,-8.51 -1.9,-17.28 -8.1,-23.56 -0.6,-0.59 -0.6,-0.7 -0.6,-0.84 0,-0.3 0.2,-0.5 0.5,-0.5 0.5,0 5,3.39 7.9,9.72 2.6,5.47 3.1,11 3.1,15.18 z"
           inkscape:connector-curvature="0"
           style="fill:#000000;stroke-width:0" /></g>    </g>
    <g
       id="g4919">
      <ellipse
         rx="15.234363"
         ry="51.315746"
         cx="150.69031"
         cy="128.62019"
         id="ellipse5895"
         style="fill:url(#meshgradient9485);fill-opacity:1;stroke:#000000;stroke-width:0.5;stroke-linecap:round;stroke-linejoin:round;stroke-miterlimit:4;stroke-dasharray:none;stroke-dashoffset:0;stroke-opacity:1" />
      <g
         id="g4962">
        <ellipse
           id="ellipse5883"
           style="fill:#c5ef17;fill-opacity:1;stroke:#000000;stroke-width:0.5;stroke-linecap:round;stroke-linejoin:round;stroke-miterlimit:4;stroke-dasharray:none;stroke-dashoffset:0;stroke-opacity:1"
           ry="40.983273"
           rx="9.8676739"
           cy="134.0583"
           cx="152.53355" />
        <path
           style="font-style:normal;font-variant:normal;font-weight:normal;font-stretch:normal;letter-spacing:normal;word-spacing:normal;text-anchor:start;fill:#000000;fill-opacity:1;fill-rule:evenodd;stroke:#000000;stroke-width:0;stroke-linecap:butt;stroke-linejoin:miter;stroke-miterlimit:10.43299961;stroke-dasharray:none;stroke-dashoffset:0;stroke-opacity:1"
           inkscape:connector-curvature="0"
           d="m 151.0722,83.351535 -0.0153,-0.0535 v -0.0519 -0.0519 l -0.0153,-0.0504 v -0.0489 l -0.0153,-0.0489 v -0.0474 l -0.0153,-0.0458 v -0.0443 l -0.0153,-0.0443 -0.0153,-0.0412 -0.0153,-0.0412 v -0.0382 l -0.0153,-0.0382 -0.0153,-0.0367 -0.0153,-0.0336 -0.0305,-0.0336 -0.0153,-0.0306 -0.0153,-0.0306 -0.0305,-0.0275 -0.0153,-0.0244 -0.0306,-0.0244 -0.0305,-0.0214 -0.0305,-0.0199 -0.0306,-0.0183 -0.0305,-0.0153 -0.0458,-0.0122 -0.0305,-0.0107 -0.0458,-0.009 -0.0458,-0.006 -0.0458,-0.003 -0.0153,-0.002 H 150.4 c -0.71802,0 -1.22216,0.51789 -1.22216,0.73024 0,0.055 0.0458,0.055 0.0917,0.055 0.0764,0 0.41248,-0.10083 0.54997,-0.35901 l 0.0153,-0.006 c 0.41248,0 0.51942,0.23374 0.5958,1.01898 l 0.10694,1.1198 c -0.27499,0.14971 -1.29854,0.76843 -1.84852,1.1473 -0.87079,0.61567 -0.88606,0.84482 -0.88606,1.06481 0,0.25971 0.13749,0.42776 0.36665,0.42776 0.22915,0 0.58052,-0.25055 0.58052,-0.36512 0,-0.0382 -0.0306,-0.0458 -0.0611,-0.0535 -0.0611,-0.009 -0.24443,-0.0382 -0.24443,-0.3361 0,-0.20471 0,-0.29637 0.80968,-0.83565 0.47359,-0.30554 0.91662,-0.54844 1.29855,-0.79899 0,0.0137 0.12221,1.15494 0.13749,1.28633 0.0611,0.60191 0.10694,1.103 0.67218,1.103 0.7333,0 1.22216,-0.51789 1.22216,-0.73024 0,-0.0535 -0.0458,-0.0535 -0.0917,-0.0535 -0.0764,0 -0.3972,0.0978 -0.54997,0.35595 -0.0153,0.009 -0.0611,0.009 -0.0764,0.009 -0.42775,0 -0.47358,-0.4797 -0.53469,-1.11828 -0.0306,-0.24443 -0.0458,-0.44151 -0.12222,-1.23438 2.36794,-1.41618 2.36794,-1.68047 2.36794,-2.00129 0,-0.25971 -0.1375,-0.42623 -0.36665,-0.42623 -0.22916,0 -0.58053,0.25971 -0.58053,0.36512 0,0.0443 0.0458,0.055 0.0458,0.055 0.0764,0.006 0.24443,0.0382 0.24443,0.33304 0,0.19096 -0.0153,0.30401 -0.65691,0.74552 -0.22915,0.15277 -0.54997,0.35137 -1.08466,0.67066 z"
           id="path5887" />
        <path
           style="font-style:normal;font-variant:normal;font-weight:normal;font-stretch:normal;letter-spacing:normal;word-spacing:normal;text-anchor:start;fill:#000000;fill-opacity:1;fill-rule:evenodd;stroke:#000000;stroke-width:0;stroke-linecap:butt;stroke-linejoin:miter;stroke-miterlimit:10.43299961;stroke-dasharray:none;stroke-dashoffset:0;stroke-opacity:1"
           inkscape:connector-curvature="0"
           d="m 154.04597,132.32814 0.10694,-0.10847 c 0.22916,-0.22916 0.47359,-0.48581 0.99301,-0.524 0.0917,-0.008 0.15277,-0.008 0.15277,-0.14666 0,-0.0596 -0.0306,-0.0901 -0.0917,-0.0901 -0.1986,0 -0.42776,0.0245 -0.62636,0.0245 -0.24443,0 -0.51942,-0.0245 -0.76385,-0.0245 -0.0458,0 -0.13749,0 -0.13749,0.14514 0,0.084 0.0764,0.0917 0.10694,0.0917 0.0611,0 0.27498,0.0138 0.27498,0.17416 0,0.13138 -0.16804,0.32692 -0.1986,0.36512 l -1.77213,2.03336 -0.84023,-2.26099 c -0.0458,-0.10694 -0.0458,-0.12069 -0.0458,-0.12833 0,-0.18332 0.38192,-0.18332 0.44303,-0.18332 0.12221,0 0.1986,0 0.1986,-0.15277 0,-0.084 -0.0917,-0.084 -0.12222,-0.084 -0.21387,0 -0.74857,0.0245 -0.96245,0.0245 -0.18332,0 -0.65691,-0.0245 -0.85551,-0.0245 -0.0306,0 -0.13749,0 -0.13749,0.15277 0,0.084 0.0764,0.084 0.18332,0.084 0.44303,0 0.47359,0.0687 0.54997,0.25665 l 0.9319,2.50696 c 0.0153,0.0214 0.0306,0.10541 0.0306,0.12832 0,0.0214 -0.30554,1.24966 -0.33609,1.38563 -0.10694,0.41706 -0.10694,0.4415 -0.71802,0.44761 -0.15277,0 -0.21388,0 -0.21388,0.15277 0,0.084 0.0917,0.084 0.10694,0.084 0.21388,0 0.74857,-0.0245 0.96245,-0.0245 0.21388,0 0.76385,0.0245 0.97773,0.0245 0.0458,0 0.13749,0 0.13749,-0.15277 0,-0.084 -0.0611,-0.084 -0.21388,-0.084 0,0 -0.15277,0 -0.27498,-0.0137 -0.16805,-0.0168 -0.21388,-0.0306 -0.21388,-0.12221 0,-0.055 0.0764,-0.31929 0.10694,-0.4797 l 0.25971,-1.07397 c 0.0458,-0.14361 0.0458,-0.16652 0.12221,-0.2368 z"
           id="path4911" />
      </g>
    </g>
    <g
       id="g4972"
       transform="translate(46.063828)">
      <ellipse
         rx="15.234363"
         ry="51.315746"
         cx="150.69031"
         cy="128.62019"
         id="ellipse4964"
         style="fill:url(#meshgradient4974);fill-opacity:1;stroke:#000000;stroke-width:0.5;stroke-linecap:round;stroke-linejoin:round;stroke-miterlimit:4;stroke-dasharray:none;stroke-dashoffset:0;stroke-opacity:1" />
      <ellipse
         id="ellipse4966"
         style="fill:#c5ef17;fill-opacity:1;stroke:#000000;stroke-width:0.5;stroke-linecap:round;stroke-linejoin:round;stroke-miterlimit:4;stroke-dasharray:none;stroke-dashoffset:0;stroke-opacity:1"
         ry="40.983273"
         rx="9.8676739"
         cy="134.0583"
         cx="152.53355" />
      <path
         style="font-style:normal;font-variant:normal;font-weight:normal;font-stretch:normal;letter-spacing:normal;word-spacing:normal;text-anchor:start;fill:#000000;fill-opacity:1;fill-rule:evenodd;stroke:#000000;stroke-width:0;stroke-linecap:butt;stroke-linejoin:miter;stroke-miterlimit:10.43299961;stroke-dasharray:none;stroke-dashoffset:0;stroke-opacity:1"
         inkscape:connector-curvature="0"
         d="m 151.0722,83.351535 -0.0153,-0.0535 v -0.0519 -0.0519 l -0.0153,-0.0504 v -0.0489 l -0.0153,-0.0489 v -0.0474 l -0.0153,-0.0458 v -0.0443 l -0.0153,-0.0443 -0.0153,-0.0412 -0.0153,-0.0412 v -0.0382 l -0.0153,-0.0382 -0.0153,-0.0367 -0.0153,-0.0336 -0.0305,-0.0336 -0.0153,-0.0306 -0.0153,-0.0306 -0.0305,-0.0275 -0.0153,-0.0244 -0.0306,-0.0244 -0.0305,-0.0214 -0.0305,-0.0199 -0.0306,-0.0183 -0.0305,-0.0153 -0.0458,-0.0122 -0.0305,-0.0107 -0.0458,-0.009 -0.0458,-0.006 -0.0458,-0.003 -0.0153,-0.002 H 150.4 c -0.71802,0 -1.22216,0.51789 -1.22216,0.73024 0,0.055 0.0458,0.055 0.0917,0.055 0.0764,0 0.41248,-0.10083 0.54997,-0.35901 l 0.0153,-0.006 c 0.41248,0 0.51942,0.23374 0.5958,1.01898 l 0.10694,1.1198 c -0.27499,0.14971 -1.29854,0.76843 -1.84852,1.1473 -0.87079,0.61567 -0.88606,0.84482 -0.88606,1.06481 0,0.25971 0.13749,0.42776 0.36665,0.42776 0.22915,0 0.58052,-0.25055 0.58052,-0.36512 0,-0.0382 -0.0306,-0.0458 -0.0611,-0.0535 -0.0611,-0.009 -0.24443,-0.0382 -0.24443,-0.3361 0,-0.20471 0,-0.29637 0.80968,-0.83565 0.47359,-0.30554 0.91662,-0.54844 1.29855,-0.79899 0,0.0137 0.12221,1.15494 0.13749,1.28633 0.0611,0.60191 0.10694,1.103 0.67218,1.103 0.7333,0 1.22216,-0.51789 1.22216,-0.73024 0,-0.0535 -0.0458,-0.0535 -0.0917,-0.0535 -0.0764,0 -0.3972,0.0978 -0.54997,0.35595 -0.0153,0.009 -0.0611,0.009 -0.0764,0.009 -0.42775,0 -0.47358,-0.4797 -0.53469,-1.11828 -0.0306,-0.24443 -0.0458,-0.44151 -0.12222,-1.23438 2.36794,-1.41618 2.36794,-1.68047 2.36794,-2.00129 0,-0.25971 -0.1375,-0.42623 -0.36665,-0.42623 -0.22916,0 -0.58053,0.25971 -0.58053,0.36512 0,0.0443 0.0458,0.055 0.0458,0.055 0.0764,0.006 0.24443,0.0382 0.24443,0.33304 0,0.19096 -0.0153,0.30401 -0.65691,0.74552 -0.22915,0.15277 -0.54997,0.35137 -1.08466,0.67066 z"
         id="path4968" />
      <path
         style="font-style:normal;font-variant:normal;font-weight:normal;font-stretch:normal;letter-spacing:normal;word-spacing:normal;text-anchor:start;fill:#000000;fill-opacity:1;fill-rule:evenodd;stroke:#000000;stroke-width:0;stroke-linecap:butt;stroke-linejoin:miter;stroke-miterlimit:10.43299961;stroke-dasharray:none;stroke-dashoffset:0;stroke-opacity:1"
         inkscape:connector-curvature="0"
         d="m 154.04597,132.32814 0.10694,-0.10847 c 0.22916,-0.22916 0.47359,-0.48581 0.99301,-0.524 0.0917,-0.008 0.15277,-0.008 0.15277,-0.14666 0,-0.0596 -0.0306,-0.0901 -0.0917,-0.0901 -0.1986,0 -0.42776,0.0245 -0.62636,0.0245 -0.24443,0 -0.51942,-0.0245 -0.76385,-0.0245 -0.0458,0 -0.13749,0 -0.13749,0.14514 0,0.084 0.0764,0.0917 0.10694,0.0917 0.0611,0 0.27498,0.0138 0.27498,0.17416 0,0.13138 -0.16804,0.32692 -0.1986,0.36512 l -1.77213,2.03336 -0.84023,-2.26099 c -0.0458,-0.10694 -0.0458,-0.12069 -0.0458,-0.12833 0,-0.18332 0.38192,-0.18332 0.44303,-0.18332 0.12221,0 0.1986,0 0.1986,-0.15277 0,-0.084 -0.0917,-0.084 -0.12222,-0.084 -0.21387,0 -0.74857,0.0245 -0.96245,0.0245 -0.18332,0 -0.65691,-0.0245 -0.85551,-0.0245 -0.0306,0 -0.13749,0 -0.13749,0.15277 0,0.084 0.0764,0.084 0.18332,0.084 0.44303,0 0.47359,0.0687 0.54997,0.25665 l 0.9319,2.50696 c 0.0153,0.0214 0.0306,0.10541 0.0306,0.12832 0,0.0214 -0.30554,1.24966 -0.33609,1.38563 -0.10694,0.41706 -0.10694,0.4415 -0.71802,0.44761 -0.15277,0 -0.21388,0 -0.21388,0.15277 0,0.084 0.0917,0.084 0.10694,0.084 0.21388,0 0.74857,-0.0245 0.96245,-0.0245 0.21388,0 0.76385,0.0245 0.97773,0.0245 0.0458,0 0.13749,0 0.13749,-0.15277 0,-0.084 -0.0611,-0.084 -0.21388,-0.084 0,0 -0.15277,0 -0.27498,-0.0137 -0.16805,-0.0168 -0.21388,-0.0306 -0.21388,-0.12221 0,-0.055 0.0764,-0.31929 0.10694,-0.4797 l 0.25971,-1.07397 c 0.0458,-0.14361 0.0458,-0.16652 0.12221,-0.2368 z"
         id="path4970" />
    </g>
    <path
       sodipodi:nodetypes="cc"
       inkscape:connector-curvature="0"
       id="path7793"
       d="m 152.9434,92.942639 45.56748,0.203383"
       style="fill:none;stroke:#000000;stroke-width:0.40000001;stroke-linecap:round;stroke-linejoin:miter;stroke-miterlimit:4;stroke-dasharray:0.8, 1.6;stroke-dashoffset:0;stroke-opacity:1" />
    <path
       style="fill:none;stroke:#000000;stroke-width:0.40000001;stroke-linecap:round;stroke-linejoin:miter;stroke-miterlimit:4;stroke-dasharray:0.8, 1.6;stroke-dashoffset:0;stroke-opacity:1"
       d="m 152.9434,174.74276 45.56748,0.20339"
       id="path7795"
       inkscape:connector-curvature="0"
       sodipodi:nodetypes="cc" />
    <path
       sodipodi:nodetypes="cc"
       inkscape:connector-curvature="0"
       id="path7783"
       d="m 106.90585,167.92739 45.96838,7.01876"
       style="fill:none;stroke:#000000;stroke-width:0.40000001;stroke-linecap:round;stroke-linejoin:miter;stroke-miterlimit:4;stroke-dasharray:0.8, 1.6;stroke-dashoffset:0;stroke-opacity:1" />
    <path
       style="fill:none;stroke:#000000;stroke-width:0.40000001;stroke-linecap:round;stroke-linejoin:miter;stroke-miterlimit:4;stroke-dasharray:0.8, 1.6;stroke-dashoffset:0;stroke-opacity:1"
       d="m 106.90585,99.891647 45.56748,-6.61199"
       id="path7781"
       inkscape:connector-curvature="0"
       sodipodi:nodetypes="cc" />
  </g>
</svg>
