<?xml version="1.0" encoding="UTF-8" standalone="no"?>
<!-- Created with Inkscape (http://www.inkscape.org/) -->

<svg
   version="1.1"
   id="svg1"
   width="387.67191"
   height="80.557465"
   viewBox="0 0 387.67191 80.557468"
   sodipodi:docname="qarmav2_full_round.svg"
   inkscape:version="1.3 (1:1.3+202307231459+0e150ed6c4)"
   xmlns:inkscape="http://www.inkscape.org/namespaces/inkscape"
   xmlns:sodipodi="http://sodipodi.sourceforge.net/DTD/sodipodi-0.dtd"
   xmlns="http://www.w3.org/2000/svg"
   xmlns:svg="http://www.w3.org/2000/svg"
   xmlns:ns1="http://www.iki.fi/pav/software/textext/">
  <sodipodi:namedview
     id="namedview1"
     pagecolor="#ffffff"
     bordercolor="#000000"
     borderopacity="0.25"
     inkscape:showpageshadow="2"
     inkscape:pageopacity="0.0"
     inkscape:pagecheckerboard="0"
     inkscape:deskcolor="#d1d1d1"
     inkscape:zoom="4.1905727"
     inkscape:cx="196.63183"
     inkscape:cy="35.79463"
     inkscape:window-width="2490"
     inkscape:window-height="1376"
     inkscape:window-x="0"
     inkscape:window-y="0"
     inkscape:window-maximized="1"
     inkscape:current-layer="g1">
    <inkscape:page
       x="0"
       y="0"
       inkscape:label="1"
       id="page1"
       width="387.67191"
       height="80.557465"
       margin="0"
       bleed="0" />
  </sodipodi:namedview>
  <defs
     id="defs1">
    <defs
       id="id-9cfc1b1a-9db9-4fba-8105-bebcfad3e388">
      <g
         id="id-3f9ca2df-a753-44be-b2a8-dbd356630061">
        <symbol
           overflow="visible"
           id="id-665a775c-1a5c-4c52-9389-de987596ed8b">
          <path
             style="stroke:none;stroke-width:0"
             d=""
             id="id-5d24092c-23e3-4892-a7da-6323850f9b7f" />
        </symbol>
        <symbol
           overflow="visible"
           id="id-144577cc-0a43-44c6-a7a3-ee68e5d4d410">
          <path
             style="stroke:none;stroke-width:0"
             d="m 3.953125,-3.78125 c -0.171875,0 -0.296875,0 -0.4375,0.125 -0.171875,0.15625 -0.1875,0.328125 -0.1875,0.390625 0,0.25 0.1875,0.359375 0.375,0.359375 0.28125,0 0.546875,-0.25 0.546875,-0.640625 0,-0.484375 -0.46875,-0.859375 -1.171875,-0.859375 -1.34375,0 -2.671875,1.421875 -2.671875,2.828125 0,0.90625 0.578125,1.6875 1.625,1.6875 1.421875,0 2.25,-1.0625 2.25,-1.171875 0,-0.0625 -0.046875,-0.140625 -0.109375,-0.140625 -0.0625,0 -0.078125,0.03125 -0.140625,0.109375 -0.78125,0.984375 -1.875,0.984375 -1.984375,0.984375 -0.625,0 -0.90625,-0.484375 -0.90625,-1.09375 0,-0.40625 0.203125,-1.375 0.546875,-1.984375 0.3125,-0.578125 0.859375,-1 1.40625,-1 0.328125,0 0.71875,0.125 0.859375,0.40625 z m 0,0"
             id="id-4437e213-3044-4e0d-84c0-6dfaeb9e8ea5" />
        </symbol>
        <symbol
           overflow="visible"
           id="id-fbf6d94a-3e28-4b3f-a399-6bd3dba3ef8c">
          <path
             style="stroke:none;stroke-width:0"
             d="m 2.859375,-6.8125 c 0,0 0,-0.109375 -0.125,-0.109375 -0.234375,0 -0.953125,0.078125 -1.21875,0.109375 -0.078125,0 -0.1875,0.015625 -0.1875,0.1875 0,0.125 0.09375,0.125 0.234375,0.125 0.484375,0 0.5,0.0625 0.5,0.171875 L 2.03125,-6.125 0.59375,-0.390625 c -0.046875,0.140625 -0.046875,0.15625 -0.046875,0.21875 0,0.234375 0.203125,0.28125 0.296875,0.28125 0.125,0 0.265625,-0.09375 0.328125,-0.203125 0.046875,-0.09375 0.5,-1.9375 0.5625,-2.1875 0.34375,0.03125 1.15625,0.1875 1.15625,0.84375 0,0.078125 0,0.109375 -0.03125,0.21875 -0.015625,0.109375 -0.03125,0.234375 -0.03125,0.34375 0,0.578125 0.390625,0.984375 0.90625,0.984375 0.296875,0 0.578125,-0.15625 0.796875,-0.53125 0.25,-0.4375 0.359375,-0.984375 0.359375,-1 0,-0.109375 -0.09375,-0.109375 -0.125,-0.109375 -0.09375,0 -0.109375,0.046875 -0.140625,0.1875 -0.203125,0.71875 -0.421875,1.234375 -0.859375,1.234375 -0.203125,0 -0.328125,-0.109375 -0.328125,-0.46875 0,-0.171875 0.046875,-0.40625 0.078125,-0.5625 C 3.5625,-1.3125 3.5625,-1.34375 3.5625,-1.453125 3.5625,-2.09375 2.9375,-2.375 2.078125,-2.5 2.390625,-2.671875 2.71875,-2.984375 2.9375,-3.234375 3.421875,-3.765625 3.875,-4.1875 4.359375,-4.1875 c 0.0625,0 0.078125,0 0.09375,0.015625 0.125,0.015625 0.125,0.015625 0.21875,0.078125 0.015625,0 0.015625,0.015625 0.03125,0.03125 -0.46875,0.03125 -0.5625,0.421875 -0.5625,0.546875 0,0.15625 0.109375,0.34375 0.375,0.34375 0.265625,0 0.546875,-0.21875 0.546875,-0.609375 0,-0.296875 -0.234375,-0.625 -0.671875,-0.625 -0.28125,0 -0.734375,0.078125 -1.453125,0.875 -0.34375,0.375 -0.734375,0.78125 -1.109375,0.921875 z m 0,0"
             id="id-468c8c94-82a5-4d9c-b747-81841117930a" />
        </symbol>
        <symbol
           overflow="visible"
           id="id-7833ee57-ed6a-4a04-9b5a-6723fa73b33b">
          <path
             style="stroke:none;stroke-width:0"
             d="m 2.046875,-3.984375 h 0.9375 c 0.203125,0 0.3125,0 0.3125,-0.203125 0,-0.109375 -0.109375,-0.109375 -0.28125,-0.109375 h -0.875 C 2.5,-5.71875 2.546875,-5.90625 2.546875,-5.96875 c 0,-0.171875 -0.125,-0.265625 -0.296875,-0.265625 -0.03125,0 -0.3125,0 -0.390625,0.359375 L 1.46875,-4.296875 h -0.9375 c -0.203125,0 -0.296875,0 -0.296875,0.1875 0,0.125 0.078125,0.125 0.28125,0.125 h 0.875 C 0.671875,-1.15625 0.625,-0.984375 0.625,-0.8125 0.625,-0.265625 1,0.109375 1.546875,0.109375 2.5625,0.109375 3.125,-1.34375 3.125,-1.421875 3.125,-1.53125 3.046875,-1.53125 3.015625,-1.53125 2.921875,-1.53125 2.90625,-1.5 2.859375,-1.390625 2.4375,-0.34375 1.90625,-0.109375 1.5625,-0.109375 c -0.203125,0 -0.3125,-0.125 -0.3125,-0.453125 0,-0.25 0.03125,-0.3125 0.0625,-0.484375 z m 0,0"
             id="id-c65b98ad-6e6f-4261-b9a4-bde7191d5242" />
        </symbol>
        <symbol
           overflow="visible"
           id="id-9a8f828d-adff-44b6-ad5c-2018b5891071">
          <path
             style="stroke:none;stroke-width:0"
             d=""
             id="id-e70ab8b8-c57a-4fa6-b3bd-78f668f3e1c3" />
        </symbol>
        <symbol
           overflow="visible"
           id="id-3aa8882a-afa8-4316-8d05-dd34062b9b2a">
          <path
             style="stroke:none;stroke-width:0"
             d="m 2.265625,-4.359375 c 0,-0.109375 -0.09375,-0.265625 -0.28125,-0.265625 -0.1875,0 -0.390625,0.1875 -0.390625,0.390625 0,0.109375 0.078125,0.265625 0.28125,0.265625 0.1875,0 0.390625,-0.203125 0.390625,-0.390625 z M 0.84375,-0.8125 c -0.03125,0.09375 -0.0625,0.171875 -0.0625,0.296875 0,0.328125 0.265625,0.578125 0.65625,0.578125 0.6875,0 1,-0.953125 1,-1.0625 0,-0.09375 -0.09375,-0.09375 -0.109375,-0.09375 -0.09375,0 -0.109375,0.046875 -0.140625,0.125 -0.15625,0.5625 -0.453125,0.84375 -0.734375,0.84375 -0.140625,0 -0.171875,-0.09375 -0.171875,-0.25 0,-0.15625 0.046875,-0.28125 0.109375,-0.4375 C 1.46875,-1 1.546875,-1.1875 1.609375,-1.375 1.671875,-1.546875 1.9375,-2.171875 1.953125,-2.265625 1.984375,-2.328125 2,-2.40625 2,-2.484375 2,-2.8125 1.71875,-3.078125 1.34375,-3.078125 0.640625,-3.078125 0.328125,-2.125 0.328125,-2 c 0,0.078125 0.09375,0.078125 0.125,0.078125 0.09375,0 0.09375,-0.03125 0.125,-0.109375 C 0.75,-2.625 1.0625,-2.875 1.3125,-2.875 c 0.109375,0 0.171875,0.046875 0.171875,0.234375 0,0.171875 -0.03125,0.265625 -0.203125,0.703125 z m 0,0"
             id="id-a8e109a9-011d-4d43-affd-99c957a50782" />
        </symbol>
      </g>
    </defs>
  </defs>
  <g
     id="g1"
     inkscape:groupmode="layer"
     inkscape:label="1"
     transform="translate(-197.816, -876.05)">
    <g
       id="g224" />
    <g
       id="g460" />
    <path
       id="path501"
       d="m 202.78516,924.48437 c 0,-0.0469 -0.0469,-0.0937 -0.10938,-0.0937 -0.0937,0 -0.10937,0.0625 -0.14062,0.14063 -0.29688,0.96875 -0.9375,1.42187 -1.4375,1.42187 -0.375,0 -0.59375,-0.28125 -0.59375,-0.73437 0,-0.25 0.0469,-0.42188 0.21875,-1.14063 l 0.39062,-1.5 c 0.15625,-0.65625 0.53125,-1.14062 1.04688,-1.14062 0,0 0.32812,0 0.5625,0.14062 -0.35938,0.0625 -0.48438,0.32813 -0.48438,0.53125 0,0.26563 0.20313,0.35938 0.35938,0.35938 0.32812,0 0.5625,-0.29688 0.5625,-0.59375 0,-0.45313 -0.53125,-0.65625 -1,-0.65625 -0.65625,0 -1.03125,0.65625 -1.14063,0.85937 -0.25,-0.82812 -0.9375,-0.85937 -1.125,-0.85937 -1.125,0 -1.71875,1.4375 -1.71875,1.67187 0,0.0469 0.0469,0.10938 0.125,0.10938 0.0781,0 0.10938,-0.0781 0.125,-0.10938 0.375,-1.23437 1.10938,-1.45312 1.4375,-1.45312 0.48438,0 0.59375,0.45312 0.59375,0.71875 0,0.25 -0.0781,0.5 -0.20312,1.03125 l -0.375,1.5 c -0.15625,0.65625 -0.48438,1.26562 -1.0625,1.26562 -0.0625,0 -0.32813,0 -0.5625,-0.14062 0.39062,-0.0781 0.48437,-0.40625 0.48437,-0.54688 0,-0.21875 -0.17187,-0.34375 -0.375,-0.34375 -0.26562,0 -0.54687,0.23438 -0.54687,0.57813 0,0.46875 0.51562,0.67187 0.98437,0.67187 0.53125,0 0.90625,-0.42187 1.14063,-0.875 0.17187,0.65625 0.71875,0.875 1.125,0.875 1.125,0 1.71875,-1.4375 1.71875,-1.6875 z m 0,0"
       style="fill:#000000;fill-opacity:1;fill-rule:nonzero;stroke:none;stroke-width:1.33333" />
    <path
       id="path502"
       d="m 176.027,-692.484 c 0,2.312 -1.879,4.187 -4.191,4.187 -2.313,0 -4.188,-1.875 -4.188,-4.187 0,-2.313 1.875,-4.188 4.188,-4.188 2.312,0 4.191,1.875 4.191,4.188 z"
       style="fill:#ffffff;fill-opacity:1;fill-rule:nonzero;stroke:#000000;stroke-width:0.458281;stroke-linecap:butt;stroke-linejoin:miter;stroke-miterlimit:10;stroke-dasharray:none;stroke-opacity:1"
       transform="scale(1.3333333,-1.3333333)" />
    <path
       id="path503"
       d="m 171.836,-688.273 v -8.422"
       style="fill:none;stroke:#000000;stroke-width:0.458281;stroke-linecap:butt;stroke-linejoin:miter;stroke-miterlimit:10;stroke-dasharray:none;stroke-opacity:1"
       transform="scale(1.3333333,-1.3333333)" />
    <path
       id="path504"
       d="m 176.047,-692.484 h -8.422"
       style="fill:none;stroke:#000000;stroke-width:0.458281;stroke-linecap:butt;stroke-linejoin:miter;stroke-miterlimit:10;stroke-dasharray:none;stroke-opacity:1"
       transform="scale(1.3333333,-1.3333333)" />
    <path
       id="path505"
       d="m 199.242,-685.965 h -8.457 c -1.265,0 -2.293,-1.027 -2.293,-2.293 v -8.453 c 0,-1.266 1.028,-2.293 2.293,-2.293 h 8.457 c 1.266,0 2.293,1.027 2.293,2.293 v 8.453 c 0,1.266 -1.027,2.293 -2.293,2.293 z"
       style="fill:none;stroke:#000000;stroke-width:0.458281;stroke-linecap:butt;stroke-linejoin:miter;stroke-miterlimit:10;stroke-dasharray:none;stroke-opacity:1"
       transform="scale(1.3333333,-1.3333333)" />
    <path
       id="path506"
       d="m 4.1137409,-3.3751914 c 0,-0.1757812 -0.1523437,-0.1757812 -0.3046875,-0.1757812 H 1.5473347 c -0.1992188,0 -0.46875,0 -0.85546876,0.3984375 -0.2109375,0.234375 -0.48046875,0.6796875 -0.48046875,0.7265625 0,0.046875 0.046875,0.070312 0.09375,0.070312 0.0585938,0 0.0703125,-0.023437 0.10546875,-0.082031 0.43359375,-0.6679687 0.85546876,-0.6679687 1.06640626,-0.6679687 h 0.6796875 l -0.8554688,2.82421873 c -0.035156,0.12890625 -0.035156,0.140625 -0.035156,0.1640625 0,0.09375 0.058594,0.2109375 0.2226562,0.2109375 0.2578125,0 0.2929688,-0.22265625 0.3164063,-0.3515625 l 0.5625,-2.84765623 h 1.3710937 c 0.1054688,0 0.375,0 0.3749998,-0.2695311 z m 0,0"
       style="fill:#000000;fill-opacity:1;fill-rule:nonzero;stroke:none"
       aria-label="τ"
       transform="matrix(1.3333333,0,0,1.3333333,257.06579,925.67994)" />
    <path
       id="path507"
       d="m 225.168,-685.965 h -9.477 c -1.265,0 -2.289,-1.027 -2.289,-2.293 v -8.453 c 0,-1.266 1.024,-2.293 2.289,-2.293 h 9.477 c 1.266,0 2.293,1.027 2.293,2.293 v 8.453 c 0,1.266 -1.027,2.293 -2.293,2.293 z"
       style="fill:none;stroke:#000000;stroke-width:0.458281;stroke-linecap:butt;stroke-linejoin:miter;stroke-miterlimit:10;stroke-dasharray:none;stroke-opacity:1"
       transform="scale(1.3333333,-1.3333333)" />
    <path
       id="path508"
       d="m 8.4029238,-5.5549601 c 0,-0.082031 -0.058594,-0.082031 -0.2226563,-0.082031 h -0.984375 c -0.2109375,0 -0.2109375,0.011719 -0.3046875,0.140625 L 3.8794863,-0.73855387 3.2583925,-5.4494914 c -0.023437,-0.1875 -0.035156,-0.1875 -0.2460937,-0.1875 H 1.9927675 c -0.1640625,0 -0.234375,0 -0.234375,0.1640625 0,0.082031 0.070312,0.082031 0.1992188,0.082031 0.5039062,0 0.5039062,0.058594 0.5039062,0.1523437 0,0 0,0.070312 -0.035156,0.1875 L 1.371674,-0.84402292 c -0.1054688,0.3984375 -0.2929688,0.57421875 -0.84375005,0.609375 -0.0234375,0 -0.12890625,0 -0.12890625,0.140625 0,0.093749995 0.0820313,0.093749995 0.1171875,0.093749995 l 0.75,-0.011718745 h 0.3984375 c 0.1054688,0 0.2460938,0.011718745 0.3632813,0.011718745 0.058594,0 0.1523437,0 0.1523437,-0.152343745 0,-0.0820313 -0.082031,-0.0820313 -0.1171875,-0.0820313 -0.2695312,-0.0117188 -0.5390625,-0.0585938 -0.5390625,-0.36328125 0,-0.0820313 0,-0.0820313 0.035156,-0.19921875 L 2.6958925,-5.3440226 h 0.011719 l 0.6796875,5.12109373 c 0.023437,0.19921875 0.035156,0.222656245 0.1054687,0.222656245 0.09375,0 0.140625,-0.070312495 0.1757813,-0.140624995 L 6.984955,-5.3908976 h 0.011719 l -1.1953125,4.78124998 c -0.070312,0.29296875 -0.09375,0.375 -0.6679688,0.375 -0.1523437,0 -0.2460937,0 -0.2460937,0.140625 0,0.093749995 0.082031,0.093749995 0.1289062,0.093749995 0.140625,0 0.3046875,-0.011718745 0.4453125,-0.011718745 H 6.434174 c 0.140625,0 0.3164062,0.011718745 0.4570312,0.011718745 0.058594,0 0.1523438,0 0.1523438,-0.152343745 0,-0.0820313 -0.070312,-0.0820313 -0.1992188,-0.0820313 -0.5039062,0 -0.5039062,-0.0703125 -0.5039062,-0.15234375 0,0 0,-0.0703125 0.023437,-0.12890625 l 1.125,-4.51171873 c 0.082031,-0.28125 0.09375,-0.3632812 0.6796875,-0.3632812 0.1523437,0 0.234375,0 0.2343753,-0.1640625 z m 0,0"
       style="fill:#000000;fill-opacity:1;fill-rule:nonzero;stroke:none"
       aria-label="M"
       transform="matrix(1.3333333,0,0,1.3333333,288.12423,927.07068)" />
    <path
       id="path509"
       d="m 250.078,-685.965 h -8.457 c -1.266,0 -2.293,-1.027 -2.293,-2.293 v -8.453 c 0,-1.266 1.027,-2.293 2.293,-2.293 h 8.457 c 1.266,0 2.289,1.027 2.289,2.293 v 8.453 c 0,1.266 -1.023,2.293 -2.289,2.293 z"
       style="fill:none;stroke:#000000;stroke-width:0.458281;stroke-linecap:butt;stroke-linejoin:miter;stroke-miterlimit:10;stroke-dasharray:none;stroke-opacity:1"
       transform="scale(1.3333333,-1.3333333)" />
    <path
       id="path510"
       d="m 4.4516769,-1.8869914 c 0,-0.3515625 -0.082031,-0.65625 -0.3984375,-0.9609375 C 3.8891769,-3.0237101 3.7368331,-3.0588664 2.9751144,-3.2580851 2.4243331,-3.4104289 2.3540206,-3.4338664 2.2016769,-3.5627726 2.0610519,-3.7033976 1.9555831,-3.9026164 1.9555831,-4.1838664 c 0,-0.6914062 0.703125,-1.40625 1.4882813,-1.40625 0.8085937,0 1.1835937,0.5039063 1.1835937,1.2890625 0,0.2109375 -0.046875,0.4335938 -0.046875,0.46875 0,0.070312 0.070312,0.070312 0.09375,0.070312 0.082031,0 0.082031,-0.023437 0.1171875,-0.1523437 l 0.4453125,-1.8164063 c 0,-0.082031 -0.070312,-0.082031 -0.070312,-0.082031 -0.035156,0 -0.046875,0.011719 -0.140625,0.140625 l -0.398438,0.4921878 C 4.3579269,-5.7190226 3.8071456,-5.8127726 3.4673019,-5.8127726 c -1.0546875,0 -2.0039063,0.9609375 -2.0039063,1.8984375 0,0.609375 0.375,0.9726562 0.7734375,1.1132812 0.09375,0.035156 0.5859375,0.1640625 0.8320313,0.2226563 0.421875,0.1171875 0.5273437,0.1523437 0.703125,0.3398437 0.035156,0.035156 0.1992187,0.2226563 0.1992187,0.609375 0,0.77343753 -0.7148437,1.55859378 -1.5351562,1.55859378 -0.6796875,0 -1.4296875,-0.28125 -1.4296875,-1.20703128 0,-0.1523437 0.035156,-0.3515625 0.058594,-0.4335937 0,-0.035156 0.011719,-0.082031 0.011719,-0.082031 0,-0.035156 -0.023437,-0.082031 -0.09375,-0.082031 -0.0703125,0 -0.0820313,0.023437 -0.10546875,0.1640625 l -0.421875,1.68749998 -0.0351563,0.1171875 c 0,0.08203125 0.0820312,0.08203125 0.0820312,0.08203125 0.0351563,0 0.0351563,-0.0117188 0.140625,-0.12890625 L 1.0180831,-0.45730387 c 0.1992188,0.3046875 0.6328125,0.6328125 1.3945313,0.6328125 1.0664062,0 2.0390625,-1.03125 2.0390625,-2.06250003 z m 0,0"
       style="fill:#000000;fill-opacity:1;fill-rule:nonzero;stroke:none"
       aria-label="S"
       transform="matrix(1.3333333,0,0,1.3333333,324.16599,927.07068)" />
    <path
       id="path511"
       d="m 274.984,-685.965 h -8.457 c -1.265,0 -2.293,-1.027 -2.293,-2.293 v -8.453 c 0,-1.266 1.028,-2.293 2.293,-2.293 h 8.457 c 1.266,0 2.289,1.027 2.289,2.293 v 8.453 c 0,1.266 -1.023,2.293 -2.289,2.293 z"
       style="fill:none;stroke:#000000;stroke-width:0.458281;stroke-linecap:butt;stroke-linejoin:miter;stroke-miterlimit:10;stroke-dasharray:none;stroke-opacity:1"
       transform="scale(1.3333333,-1.3333333)" />
    <path
       id="path512"
       d="m 363.96484,926.86719 c 0,-0.10937 -0.10937,-0.10937 -0.20312,-0.10937 -0.65625,-0.0156 -0.6875,-0.0781 -0.875,-0.48438 l -1.45313,-3.40625 1.40625,-1.5 0.45313,-0.48437 c 0.48437,-0.5 0.92187,-0.95313 1.8125,-1 0.10937,-0.0156 0.21875,-0.0156 0.21875,-0.20313 0,-0.125 -0.0937,-0.125 -0.14063,-0.125 -0.15625,0 -0.32812,0.0312 -0.46875,0.0312 h -0.51562 c -0.34375,0 -0.73438,-0.0312 -1.07813,-0.0312 -0.0781,0 -0.20312,0 -0.20312,0.20313 0,0.10937 0.0781,0.125 0.14062,0.125 0.17188,0.0156 0.35938,0.10937 0.35938,0.3125 l -0.0156,0.0156 c 0,0.0781 -0.0312,0.1875 -0.14062,0.32813 l -1.9375,2.0625 -1.03125,-2.40625 c 0.14062,-0.26563 0.46875,-0.3125 0.60937,-0.3125 0.0625,0 0.1875,-0.0156 0.1875,-0.20313 0,-0.125 -0.0937,-0.125 -0.17187,-0.125 -0.1875,0 -0.40625,0.0312 -0.59375,0.0312 h -0.625 l -1.17188,-0.0312 c -0.0937,0 -0.20312,0 -0.20312,0.21875 0,0.10938 0.10937,0.10938 0.25,0.10938 0.64062,0 0.67187,0.10937 0.78125,0.375 l 1.3125,3.04687 -2.39063,2.5625 c -0.39062,0.42188 -0.85937,0.84375 -1.67187,0.89063 -0.14063,0 -0.21875,0 -0.21875,0.20312 0,0.0312 0,0.10938 0.125,0.10938 0.15625,0 0.3125,-0.0156 0.46875,-0.0156 h 0.51562 c 0.35938,0 0.75,0.0156 1.07813,0.0156 0.0781,0 0.21875,0 0.21875,-0.20313 0,-0.10937 -0.0781,-0.10937 -0.14063,-0.10937 -0.21875,-0.0312 -0.375,-0.15625 -0.375,-0.32813 0,-0.1875 0.14063,-0.3125 0.45313,-0.64062 l 0.98437,-1.07813 1.0625,-1.125 1.15625,2.70313 c 0.0156,0.0156 0.0625,0.14062 0.0625,0.14062 0,0.10938 -0.25,0.29688 -0.59375,0.32813 -0.0781,0 -0.1875,0 -0.1875,0.20312 0,0.10938 0.10937,0.10938 0.15625,0.10938 0.1875,0 0.40625,-0.0156 0.59375,-0.0156 h 1.21875 c 0.1875,0 0.40625,0.0156 0.59375,0.0156 0.0781,0 0.1875,0 0.1875,-0.20313 z m 32.23437,-5.08594 c 0.0156,-0.0469 0.0469,-0.125 0.0469,-0.1875 0,-0.15625 -0.14062,-0.26562 -0.29687,-0.26562 -0.10937,0 -0.34375,0.0312 -0.42187,0.375 l -0.8125,3.21875 c -0.0625,0.20312 -0.0625,0.23437 -0.14063,0.34375 -0.23437,0.3125 -0.59375,0.6875 -1.125,0.6875 -0.60937,0 -0.67187,-0.60938 -0.67187,-0.90625 0,-0.625 0.29687,-1.46875 0.59374,-2.26563 0.125,-0.3125 0.1875,-0.46875 0.1875,-0.6875 0,-0.46875 -0.32812,-0.875 -0.85937,-0.875 -1.01563,0 -1.42187,1.59375 -1.42187,1.67188 0,0.0469 0.0469,0.10937 0.125,0.10937 0.0937,0 0.10937,-0.0469 0.15624,-0.20312 0.26563,-0.92188 0.67188,-1.35938 1.10938,-1.35938 0.0937,0 0.28125,0 0.28125,0.35938 0,0.28125 -0.125,0.60937 -0.28125,1.01562 -0.54688,1.45313 -0.54688,1.8125 -0.54688,2.07813 0,1.04687 0.75,1.28125 1.29688,1.28125 0.32812,0 0.71875,-0.0937 1.10938,-0.5 -0.15626,0.65625 -0.26563,1.07812 -0.65626,1.625 -0.29687,0.42187 -0.71874,0.79687 -1.26562,0.79687 -0.125,0 -0.65625,-0.0312 -0.82812,-0.53125 0.0469,0 0.10937,0 0.10937,0 0.34375,0 0.5625,-0.28125 0.5625,-0.53125 0,-0.25 -0.21875,-0.34375 -0.375,-0.34375 -0.1875,0 -0.5625,0.14063 -0.5625,0.67188 0,0.5625 0.46875,0.95312 1.09375,0.95312 1.10937,0 2.21875,-1.01562 2.51562,-2.23437 z m 0,0"
       style="fill:#000000;fill-opacity:1;fill-rule:nonzero;stroke:none;stroke-width:1.33333" />
    <path
       id="path515"
       d="m 171.836,-666.223 v -19.449"
       style="fill:none;stroke:#000000;stroke-width:0.343712;stroke-linecap:butt;stroke-linejoin:miter;stroke-miterlimit:10;stroke-dasharray:none;stroke-opacity:1"
       transform="scale(1.3333333,-1.3333333)" />
    <path
       id="path516"
       d="m 171.836,688.043 c 0.133,-0.703 0.527,-1.844 0.988,-2.633 h -1.976 c 0.461,0.789 0.855,1.93 0.988,2.633"
       style="fill:#000000;fill-opacity:1;fill-rule:nonzero;stroke:none"
       transform="scale(1.3333333)" />
    <path
       id="path517"
       d="m 185.227,-676.305 -9.047,-10.929"
       style="fill:none;stroke:#000000;stroke-width:0.343712;stroke-linecap:butt;stroke-linejoin:miter;stroke-miterlimit:10;stroke-dasharray:none;stroke-opacity:1"
       transform="scale(1.3333333,-1.3333333)" />
    <path
       id="path518"
       d="m 174.668,689.062 c 0.547,-0.457 1.582,-1.085 2.441,-1.398 l -1.523,-1.262 c -0.148,0.903 -0.574,2.036 -0.918,2.66"
       style="fill:#000000;fill-opacity:1;fill-rule:nonzero;stroke:none"
       transform="scale(1.3333333)" />
    <path
       id="path519"
       d="m 171.836,-708.965 v 9.668"
       style="fill:none;stroke:#000000;stroke-width:0.343712;stroke-linecap:butt;stroke-linejoin:miter;stroke-miterlimit:10;stroke-dasharray:none;stroke-opacity:1"
       transform="scale(1.3333333,-1.3333333)" />
    <path
       id="path520"
       d="m 171.836,696.926 c -0.133,0.703 -0.527,1.844 -0.988,2.633 h 1.976 c -0.461,-0.789 -0.855,-1.93 -0.988,-2.633"
       style="fill:#000000;fill-opacity:1;fill-rule:nonzero;stroke:none"
       transform="scale(1.3333333)" />
    <path
       id="path521"
       d="m 155.523,-692.484 h 9.5"
       style="fill:none;stroke:#000000;stroke-width:0.343712;stroke-linecap:butt;stroke-linejoin:miter;stroke-miterlimit:10;stroke-dasharray:none;stroke-opacity:1"
       transform="scale(1.3333333,-1.3333333)" />
    <path
       id="path522"
       d="m 167.395,692.484 c -0.7,-0.132 -1.844,-0.527 -2.633,-0.988 v 1.977 c 0.789,-0.461 1.933,-0.856 2.633,-0.989"
       style="fill:#000000;fill-opacity:1;fill-rule:nonzero;stroke:none"
       transform="scale(1.3333333)" />
    <path
       id="path523"
       d="m 176.277,-692.484 h 9.618"
       style="fill:none;stroke:#000000;stroke-width:0.343712;stroke-linecap:butt;stroke-linejoin:miter;stroke-miterlimit:10;stroke-dasharray:none;stroke-opacity:1"
       transform="scale(1.3333333,-1.3333333)" />
    <path
       id="path524"
       d="m 188.266,692.484 c -0.704,-0.132 -1.844,-0.527 -2.637,-0.988 v 1.977 c 0.793,-0.461 1.933,-0.856 2.637,-0.989"
       style="fill:#000000;fill-opacity:1;fill-rule:nonzero;stroke:none"
       transform="scale(1.3333333)" />
    <path
       id="path525"
       d="m 201.762,-692.484 h 9.039"
       style="fill:none;stroke:#000000;stroke-width:0.343712;stroke-linecap:butt;stroke-linejoin:miter;stroke-miterlimit:10;stroke-dasharray:none;stroke-opacity:1"
       transform="scale(1.3333333,-1.3333333)" />
    <path
       id="path526"
       d="m 213.172,692.484 c -0.703,-0.132 -1.844,-0.527 -2.637,-0.988 v 1.977 c 0.793,-0.461 1.934,-0.856 2.637,-0.989"
       style="fill:#000000;fill-opacity:1;fill-rule:nonzero;stroke:none"
       transform="scale(1.3333333)" />
    <path
       id="path527"
       d="m 227.691,-692.484 h 9.036"
       style="fill:none;stroke:#000000;stroke-width:0.343712;stroke-linecap:butt;stroke-linejoin:miter;stroke-miterlimit:10;stroke-dasharray:none;stroke-opacity:1"
       transform="scale(1.3333333,-1.3333333)" />
    <path
       id="path528"
       d="m 239.102,692.484 c -0.704,-0.132 -1.848,-0.527 -2.637,-0.988 v 1.977 c 0.789,-0.461 1.933,-0.856 2.637,-0.989"
       style="fill:#000000;fill-opacity:1;fill-rule:nonzero;stroke:none"
       transform="scale(1.3333333)" />
    <path
       id="path529"
       d="m 262.379,-700.863 c -0.43,0.215 -0.719,0.715 -0.719,1.433 v 5.512 c 0,0.719 -0.285,1.219 -0.715,1.434 0.43,0.214 0.715,0.714 0.715,1.433 v 5.512 c 0,0.719 0.289,1.219 0.719,1.434"
       style="fill:none;stroke:#000000;stroke-width:0.458281;stroke-linecap:butt;stroke-linejoin:miter;stroke-miterlimit:10;stroke-dasharray:none;stroke-opacity:1"
       transform="scale(1.3333333,-1.3333333)" />
    <path
       id="path530"
       d="m 279.137,-684.105 c 0.429,-0.215 0.715,-0.715 0.715,-1.434 v -5.512 c 0,-0.719 0.285,-1.219 0.714,-1.433 -0.429,-0.215 -0.714,-0.715 -0.714,-1.434 v -5.512 c 0,-0.718 -0.286,-1.218 -0.715,-1.433"
       style="fill:none;stroke:#000000;stroke-width:0.458281;stroke-linecap:butt;stroke-linejoin:miter;stroke-miterlimit:10;stroke-dasharray:none;stroke-opacity:1"
       transform="scale(1.3333333,-1.3333333)" />
    <path
       id="path531"
       d="m 252.598,-692.484 h 5.777"
       style="fill:none;stroke:#000000;stroke-width:0.343712;stroke-linecap:butt;stroke-linejoin:miter;stroke-miterlimit:10;stroke-dasharray:none;stroke-opacity:1"
       transform="scale(1.3333333,-1.3333333)" />
    <path
       id="path532"
       d="m 260.746,692.484 c -0.703,-0.132 -1.844,-0.527 -2.633,-0.988 v 1.977 c 0.789,-0.461 1.93,-0.856 2.633,-0.989"
       style="fill:#000000;fill-opacity:1;fill-rule:nonzero;stroke:none"
       transform="scale(1.3333333)" />
    <path
       id="path533"
       d="m 280.766,-692.484 h 7.293"
       style="fill:none;stroke:#000000;stroke-width:0.343712;stroke-linecap:butt;stroke-linejoin:miter;stroke-miterlimit:10;stroke-dasharray:none;stroke-opacity:1"
       transform="scale(1.3333333,-1.3333333)" />
    <path
       id="path534"
       d="m 290.43,692.484 c -0.703,-0.132 -1.844,-0.527 -2.633,-0.988 v 1.977 c 0.789,-0.461 1.93,-0.856 2.633,-0.989"
       style="fill:#000000;fill-opacity:1;fill-rule:nonzero;stroke:none"
       transform="scale(1.3333333)" />
    <path
       id="path537"
       d="m 459.80469,924.48437 c 0,-0.0469 -0.0469,-0.0937 -0.10937,-0.0937 -0.0937,0 -0.10938,0.0625 -0.14063,0.14063 -0.29687,0.96875 -0.9375,1.42187 -1.4375,1.42187 -0.375,0 -0.59375,-0.28125 -0.59375,-0.73437 0,-0.25 0.0469,-0.42188 0.21875,-1.14063 l 0.39063,-1.5 c 0.15625,-0.65625 0.53125,-1.14062 1.04687,-1.14062 0,0 0.32813,0 0.5625,0.14062 -0.35937,0.0625 -0.48437,0.32813 -0.48437,0.53125 0,0.26563 0.20312,0.35938 0.35937,0.35938 0.32813,0 0.5625,-0.29688 0.5625,-0.59375 0,-0.45313 -0.53125,-0.65625 -1,-0.65625 -0.65625,0 -1.03125,0.65625 -1.14062,0.85937 -0.25,-0.82812 -0.9375,-0.85937 -1.125,-0.85937 -1.125,0 -1.71875,1.4375 -1.71875,1.67187 0,0.0469 0.0469,0.10938 0.125,0.10938 0.0781,0 0.10937,-0.0781 0.125,-0.10938 0.375,-1.23437 1.10937,-1.45312 1.4375,-1.45312 0.48437,0 0.59375,0.45312 0.59375,0.71875 0,0.25 -0.0781,0.5 -0.20313,1.03125 l -0.375,1.5 c -0.15625,0.65625 -0.48437,1.26562 -1.0625,1.26562 -0.0625,0 -0.32812,0 -0.5625,-0.14062 0.39063,-0.0781 0.48438,-0.40625 0.48438,-0.54688 0,-0.21875 -0.17188,-0.34375 -0.375,-0.34375 -0.26563,0 -0.54688,0.23438 -0.54688,0.57813 0,0.46875 0.51563,0.67187 0.98438,0.67187 0.53125,0 0.90625,-0.42187 1.14062,-0.875 0.17188,0.65625 0.71875,0.875 1.125,0.875 1.125,0 1.71875,-1.4375 1.71875,-1.6875 z m 0,0"
       style="fill:#000000;fill-opacity:1;fill-rule:nonzero;stroke:none;stroke-width:1.33333" />
    <path
       id="path538"
       d="m 368.789,-692.484 c 0,2.312 -1.875,4.187 -4.187,4.187 -2.313,0 -4.188,-1.875 -4.188,-4.187 0,-2.313 1.875,-4.188 4.188,-4.188 2.312,0 4.187,1.875 4.187,4.188 z"
       style="fill:#ffffff;fill-opacity:1;fill-rule:nonzero;stroke:#000000;stroke-width:0.458281;stroke-linecap:butt;stroke-linejoin:miter;stroke-miterlimit:10;stroke-dasharray:none;stroke-opacity:1"
       transform="scale(1.3333333,-1.3333333)" />
    <path
       id="path539"
       d="m 364.602,-688.273 v -8.422"
       style="fill:none;stroke:#000000;stroke-width:0.458281;stroke-linecap:butt;stroke-linejoin:miter;stroke-miterlimit:10;stroke-dasharray:none;stroke-opacity:1"
       transform="scale(1.3333333,-1.3333333)" />
    <path
       id="path540"
       d="m 368.812,-692.484 h -8.421"
       style="fill:none;stroke:#000000;stroke-width:0.458281;stroke-linecap:butt;stroke-linejoin:miter;stroke-miterlimit:10;stroke-dasharray:none;stroke-opacity:1"
       transform="scale(1.3333333,-1.3333333)" />
    <path
       id="path541"
       d="m 392.008,-685.965 h -8.457 c -1.266,0 -2.293,-1.027 -2.293,-2.293 v -8.453 c 0,-1.266 1.027,-2.293 2.293,-2.293 h 8.457 c 1.265,0 2.289,1.027 2.289,2.293 v 8.453 c 0,1.266 -1.024,2.293 -2.289,2.293 z"
       style="fill:none;stroke:#000000;stroke-width:0.458281;stroke-linecap:butt;stroke-linejoin:miter;stroke-miterlimit:10;stroke-dasharray:none;stroke-opacity:1"
       transform="scale(1.3333333,-1.3333333)" />
    <path
       id="path542"
       d="m 5.2969784,-4.5354289 c 0,0.421875 -0.2109375,1.6289063 -1.875,1.6289063 H 2.4961972 l 0.5390625,-2.1679688 c 0.070312,-0.3046875 0.1054687,-0.3164062 0.4335937,-0.3164062 h 0.5859375 c 0.7148438,0 1.2421875,0.2109375 1.2421875,0.8554687 z m 0.8085938,3.77343753 c 0,-0.0585938 -0.046875,-0.0820313 -0.09375,-0.0820313 -0.058594,0 -0.082031,0.046875 -0.09375,0.1171875 -0.1992188,0.5859375 -0.5390625,0.73828125 -0.75,0.73828125 -0.1992188,0 -0.328125,-0.09375 -0.328125,-0.46875 0,-0.19921875 0.09375,-0.94921878 0.1054687,-0.98437508 0.035156,-0.3046875 0.035156,-0.3398437 0.035156,-0.4101562 0,-0.5976563 -0.4804688,-0.8554688 -0.796875,-0.9492188 1.0195312,-0.2226562 1.828125,-0.890625 1.828125,-1.5937499 0,-0.6445313 -0.65625,-1.2421875 -1.8046875,-1.2421875 h -2.238281 c -0.1640625,0 -0.234375,0 -0.234375,0.1640625 0,0.082031 0.058594,0.082031 0.2109375,0.082031 0.4921875,0 0.4921875,0.058594 0.4921875,0.1523437 0,0 0,0.070312 -0.023437,0.1875 l -1.1132812,4.44140623 c -0.082031,0.29296875 -0.09375,0.375 -0.66796876,0.375 -0.1875,0 -0.24609375,0 -0.24609375,0.15234375 0,0.082031245 0.09375,0.082031245 0.1171875,0.082031245 0.15234375,0 0.31640625,-0.011718745 0.48046875,-0.011718745 H 1.9571347 c 0.1523437,0 0.3164062,0.011718745 0.46875,0.011718745 0.070312,0 0.1523437,0 0.1523437,-0.152343745 0,-0.0820313 -0.070312,-0.0820313 -0.1992187,-0.0820313 -0.4921875,0 -0.4921875,-0.0703125 -0.4921875,-0.15234375 0,0 0,-0.0703125 0.011719,-0.12890625 l 0.550781,-2.22656208 h 0.9960937 c 0.7734375,0 0.9257813,0.5039062 0.9257813,0.7734375 0,0.1171875 -0.082031,0.4453125 -0.140625,0.65625 -0.09375,0.37499998 -0.1171875,0.46874998 -0.1171875,0.63281248 0,0.5859375 0.4804687,0.85546875 1.03125,0.85546875 0.6679687,0 0.9609375,-0.8203125 0.9609375,-0.9375 z m 0,0"
       style="fill:#000000;fill-opacity:1;fill-rule:nonzero;stroke:none"
       aria-label="R"
       transform="matrix(1.3333333,0,0,1.3333333,512.89439,927.07068)" />
    <path
       id="path543"
       d="m 416.914,-685.965 h -8.457 c -1.266,0 -2.289,-1.027 -2.289,-2.293 v -8.453 c 0,-1.266 1.023,-2.293 2.289,-2.293 h 8.457 c 1.266,0 2.293,1.027 2.293,2.293 v 8.453 c 0,1.266 -1.027,2.293 -2.293,2.293 z"
       style="fill:none;stroke:#000000;stroke-width:0.458281;stroke-linecap:butt;stroke-linejoin:miter;stroke-miterlimit:10;stroke-dasharray:none;stroke-opacity:1"
       transform="scale(1.3333333,-1.3333333)" />
    <path
       id="path544"
       d="m 553.20703,926.86719 c 0,-0.10937 -0.10937,-0.10937 -0.20312,-0.10937 -0.65625,-0.0156 -0.6875,-0.0781 -0.875,-0.48438 l -1.45313,-3.40625 1.40625,-1.5 0.45313,-0.48437 c 0.48437,-0.5 0.92187,-0.95313 1.8125,-1 0.10937,-0.0156 0.21875,-0.0156 0.21875,-0.20313 0,-0.125 -0.0937,-0.125 -0.14063,-0.125 -0.15625,0 -0.32812,0.0312 -0.46875,0.0312 h -0.51562 c -0.34375,0 -0.73438,-0.0312 -1.07813,-0.0312 -0.0781,0 -0.20312,0 -0.20312,0.20313 0,0.10937 0.0781,0.125 0.14062,0.125 0.17188,0.0156 0.35938,0.10937 0.35938,0.3125 l -0.0156,0.0156 c 0,0.0781 -0.0312,0.1875 -0.14062,0.32813 l -1.9375,2.0625 -1.03125,-2.40625 c 0.14062,-0.26563 0.46875,-0.3125 0.60937,-0.3125 0.0625,0 0.1875,-0.0156 0.1875,-0.20313 0,-0.125 -0.0937,-0.125 -0.17187,-0.125 -0.1875,0 -0.40625,0.0312 -0.59375,0.0312 h -0.625 l -1.17188,-0.0312 c -0.0937,0 -0.20312,0 -0.20312,0.21875 0,0.10938 0.10937,0.10938 0.25,0.10938 0.64062,0 0.67187,0.10937 0.78125,0.375 l 1.3125,3.04687 -2.39063,2.5625 c -0.39062,0.42188 -0.85937,0.84375 -1.67187,0.89063 -0.14063,0 -0.21875,0 -0.21875,0.20312 0,0.0312 0,0.10938 0.125,0.10938 0.15625,0 0.3125,-0.0156 0.46875,-0.0156 h 0.51562 c 0.35938,0 0.75,0.0156 1.07813,0.0156 0.0781,0 0.21875,0 0.21875,-0.20313 0,-0.10937 -0.0781,-0.10937 -0.14063,-0.10937 -0.21875,-0.0312 -0.375,-0.15625 -0.375,-0.32813 0,-0.1875 0.14063,-0.3125 0.45313,-0.64062 l 0.98437,-1.07813 1.0625,-1.125 1.15625,2.70313 c 0.0156,0.0156 0.0625,0.14062 0.0625,0.14062 0,0.10938 -0.25,0.29688 -0.59375,0.32813 -0.0781,0 -0.1875,0 -0.1875,0.20312 0,0.10938 0.10938,0.10938 0.15625,0.10938 0.1875,0 0.40625,-0.0156 0.59375,-0.0156 h 1.21875 c 0.1875,0 0.40625,0.0156 0.59375,0.0156 0.0781,0 0.1875,0 0.1875,-0.20313 z m 32.23438,-5.08594 c 0.0156,-0.0469 0.0469,-0.125 0.0469,-0.1875 0,-0.15625 -0.14063,-0.26562 -0.29688,-0.26562 -0.10937,0 -0.34375,0.0312 -0.42187,0.375 l -0.8125,3.21875 c -0.0625,0.20312 -0.0625,0.23437 -0.14063,0.34375 -0.23437,0.3125 -0.59375,0.6875 -1.125,0.6875 -0.60937,0 -0.67187,-0.60938 -0.67187,-0.90625 0,-0.625 0.29687,-1.46875 0.59375,-2.26563 0.125,-0.3125 0.1875,-0.46875 0.1875,-0.6875 0,-0.46875 -0.32813,-0.875 -0.85938,-0.875 -1.01562,0 -1.42187,1.59375 -1.42187,1.67188 0,0.0469 0.0469,0.10937 0.125,0.10937 0.0937,0 0.10937,-0.0469 0.15625,-0.20312 0.26562,-0.92188 0.67187,-1.35938 1.10937,-1.35938 0.0937,0 0.28125,0 0.28125,0.35938 0,0.28125 -0.125,0.60937 -0.28125,1.01562 -0.54687,1.45313 -0.54687,1.8125 -0.54687,2.07813 0,1.04687 0.75,1.28125 1.29687,1.28125 0.32813,0 0.71875,-0.0937 1.10938,-0.5 -0.15625,0.65625 -0.26563,1.07812 -0.65625,1.625 -0.29688,0.42187 -0.71875,0.79687 -1.26563,0.79687 -0.125,0 -0.65625,-0.0312 -0.82812,-0.53125 0.0469,0 0.10937,0 0.10937,0 0.34375,0 0.5625,-0.28125 0.5625,-0.53125 0,-0.25 -0.21875,-0.34375 -0.375,-0.34375 -0.1875,0 -0.5625,0.14063 -0.5625,0.67188 0,0.5625 0.46875,0.95312 1.09375,0.95312 1.10938,0 2.21875,-1.01562 2.51563,-2.23437 z m 0,0"
       style="fill:#000000;fill-opacity:1;fill-rule:nonzero;stroke:none;stroke-width:1.33333" />
    <path
       id="path547"
       d="m 364.602,-666.223 v -19.449"
       style="fill:none;stroke:#000000;stroke-width:0.343712;stroke-linecap:butt;stroke-linejoin:miter;stroke-miterlimit:10;stroke-dasharray:none;stroke-opacity:1"
       transform="scale(1.3333333,-1.3333333)" />
    <path
       id="path548"
       d="m 364.602,688.043 c 0.132,-0.703 0.527,-1.844 0.988,-2.633 h -1.977 c 0.461,0.789 0.856,1.93 0.989,2.633"
       style="fill:#000000;fill-opacity:1;fill-rule:nonzero;stroke:none"
       transform="scale(1.3333333)" />
    <path
       id="path549"
       d="m 377.988,-676.305 -9.043,-10.929"
       style="fill:none;stroke:#000000;stroke-width:0.343712;stroke-linecap:butt;stroke-linejoin:miter;stroke-miterlimit:10;stroke-dasharray:none;stroke-opacity:1"
       transform="scale(1.3333333,-1.3333333)" />
    <path
       id="path550"
       d="m 367.434,689.062 c 0.546,-0.457 1.582,-1.085 2.441,-1.398 l -1.523,-1.262 c -0.149,0.903 -0.575,2.036 -0.918,2.66"
       style="fill:#000000;fill-opacity:1;fill-rule:nonzero;stroke:none"
       transform="scale(1.3333333)" />
    <path
       id="path551"
       d="m 364.602,-708.965 v 9.668"
       style="fill:none;stroke:#000000;stroke-width:0.343712;stroke-linecap:butt;stroke-linejoin:miter;stroke-miterlimit:10;stroke-dasharray:none;stroke-opacity:1"
       transform="scale(1.3333333,-1.3333333)" />
    <path
       id="path552"
       d="m 364.602,696.926 c -0.133,0.703 -0.528,1.844 -0.989,2.633 h 1.977 c -0.461,-0.789 -0.856,-1.93 -0.988,-2.633"
       style="fill:#000000;fill-opacity:1;fill-rule:nonzero;stroke:none"
       transform="scale(1.3333333)" />
    <path
       id="path553"
       d="m 348.289,-692.484 h 9.5"
       style="fill:none;stroke:#000000;stroke-width:0.343712;stroke-linecap:butt;stroke-linejoin:miter;stroke-miterlimit:10;stroke-dasharray:none;stroke-opacity:1"
       transform="scale(1.3333333,-1.3333333)" />
    <path
       id="path554"
       d="m 360.16,692.484 c -0.703,-0.132 -1.844,-0.527 -2.633,-0.988 v 1.977 c 0.789,-0.461 1.93,-0.856 2.633,-0.989"
       style="fill:#000000;fill-opacity:1;fill-rule:nonzero;stroke:none"
       transform="scale(1.3333333)" />
    <path
       id="path555"
       d="m 369.043,-692.484 h 9.617"
       style="fill:none;stroke:#000000;stroke-width:0.343712;stroke-linecap:butt;stroke-linejoin:miter;stroke-miterlimit:10;stroke-dasharray:none;stroke-opacity:1"
       transform="scale(1.3333333,-1.3333333)" />
    <path
       id="path556"
       d="m 381.031,692.484 c -0.703,-0.132 -1.847,-0.527 -2.636,-0.988 v 1.977 c 0.789,-0.461 1.933,-0.856 2.636,-0.989"
       style="fill:#000000;fill-opacity:1;fill-rule:nonzero;stroke:none"
       transform="scale(1.3333333)" />
    <path
       id="path557"
       d="m 404.309,-700.863 c -0.43,0.215 -0.719,0.715 -0.719,1.433 v 5.512 c 0,0.719 -0.285,1.219 -0.715,1.434 0.43,0.214 0.715,0.714 0.715,1.433 v 5.512 c 0,0.719 0.289,1.219 0.719,1.434"
       style="fill:none;stroke:#000000;stroke-width:0.458281;stroke-linecap:butt;stroke-linejoin:miter;stroke-miterlimit:10;stroke-dasharray:none;stroke-opacity:1"
       transform="scale(1.3333333,-1.3333333)" />
    <path
       id="path558"
       d="m 421.066,-684.105 c 0.43,-0.215 0.715,-0.715 0.715,-1.434 v -5.512 c 0,-0.719 0.285,-1.219 0.715,-1.433 -0.43,-0.215 -0.715,-0.715 -0.715,-1.434 v -5.512 c 0,-0.718 -0.285,-1.218 -0.715,-1.433"
       style="fill:none;stroke:#000000;stroke-width:0.458281;stroke-linecap:butt;stroke-linejoin:miter;stroke-miterlimit:10;stroke-dasharray:none;stroke-opacity:1"
       transform="scale(1.3333333,-1.3333333)" />
    <path
       id="path559"
       d="m 394.527,-692.484 h 5.778"
       style="fill:none;stroke:#000000;stroke-width:0.343712;stroke-linecap:butt;stroke-linejoin:miter;stroke-miterlimit:10;stroke-dasharray:none;stroke-opacity:1"
       transform="scale(1.3333333,-1.3333333)" />
    <path
       id="path560"
       d="m 402.676,692.484 c -0.699,-0.132 -1.844,-0.527 -2.633,-0.988 v 1.977 c 0.789,-0.461 1.934,-0.856 2.633,-0.989"
       style="fill:#000000;fill-opacity:1;fill-rule:nonzero;stroke:none"
       transform="scale(1.3333333)" />
    <path
       id="path561"
       d="m 422.695,-692.484 h 7.293"
       style="fill:none;stroke:#000000;stroke-width:0.343712;stroke-linecap:butt;stroke-linejoin:miter;stroke-miterlimit:10;stroke-dasharray:none;stroke-opacity:1"
       transform="scale(1.3333333,-1.3333333)" />
    <path
       id="path562"
       d="m 432.359,692.484 c -0.703,-0.132 -1.843,-0.527 -2.632,-0.988 v 1.977 c 0.789,-0.461 1.929,-0.856 2.632,-0.989"
       style="fill:#000000;fill-opacity:1;fill-rule:nonzero;stroke:none"
       transform="scale(1.3333333)" />
    <g
       id="g587"
       transform="translate(-2.509572,-46.73475)">
      <g
         style="fill:#000000;fill-opacity:1"
         id="id-49f0132a-370a-4f60-88c9-1bed27fbd72b"
         transform="matrix(1.1105661,0,0,1.1105661,-71.93668,780.9648)">
        <g
           transform="translate(290.78,146.72)"
           id="g2405">
          <path
             style="stroke:none;stroke-width:0"
             d="m 3.953125,-3.78125 c -0.171875,0 -0.296875,0 -0.4375,0.125 -0.171875,0.15625 -0.1875,0.328125 -0.1875,0.390625 0,0.25 0.1875,0.359375 0.375,0.359375 0.28125,0 0.546875,-0.25 0.546875,-0.640625 0,-0.484375 -0.46875,-0.859375 -1.171875,-0.859375 -1.34375,0 -2.671875,1.421875 -2.671875,2.828125 0,0.90625 0.578125,1.6875 1.625,1.6875 1.421875,0 2.25,-1.0625 2.25,-1.171875 0,-0.0625 -0.046875,-0.140625 -0.109375,-0.140625 -0.0625,0 -0.078125,0.03125 -0.140625,0.109375 -0.78125,0.984375 -1.875,0.984375 -1.984375,0.984375 -0.625,0 -0.90625,-0.484375 -0.90625,-1.09375 0,-0.40625 0.203125,-1.375 0.546875,-1.984375 0.3125,-0.578125 0.859375,-1 1.40625,-1 0.328125,0 0.71875,0.125 0.859375,0.40625 z m 0,0"
             id="id-c354536c-7260-405a-8f8e-5ec5b6cf677c" />
        </g>
      </g>
      <g
         style="fill:#000000;fill-opacity:1"
         id="id-3f08399a-1efd-45dd-abc1-0032c4a03640"
         transform="matrix(1.1105661,0,0,1.1105661,-71.93668,780.9648)">
        <g
           transform="translate(295.091,148.214)"
           id="g7677">
          <path
             style="stroke:none;stroke-width:0"
             d="m 2.265625,-4.359375 c 0,-0.109375 -0.09375,-0.265625 -0.28125,-0.265625 -0.1875,0 -0.390625,0.1875 -0.390625,0.390625 0,0.109375 0.078125,0.265625 0.28125,0.265625 0.1875,0 0.390625,-0.203125 0.390625,-0.390625 z M 0.84375,-0.8125 c -0.03125,0.09375 -0.0625,0.171875 -0.0625,0.296875 0,0.328125 0.265625,0.578125 0.65625,0.578125 0.6875,0 1,-0.953125 1,-1.0625 0,-0.09375 -0.09375,-0.09375 -0.109375,-0.09375 -0.09375,0 -0.109375,0.046875 -0.140625,0.125 -0.15625,0.5625 -0.453125,0.84375 -0.734375,0.84375 -0.140625,0 -0.171875,-0.09375 -0.171875,-0.25 0,-0.15625 0.046875,-0.28125 0.109375,-0.4375 C 1.46875,-1 1.546875,-1.1875 1.609375,-1.375 1.671875,-1.546875 1.9375,-2.171875 1.953125,-2.265625 1.984375,-2.328125 2,-2.40625 2,-2.484375 2,-2.8125 1.71875,-3.078125 1.34375,-3.078125 0.640625,-3.078125 0.328125,-2.125 0.328125,-2 c 0,0.078125 0.09375,0.078125 0.125,0.078125 0.09375,0 0.09375,-0.03125 0.125,-0.109375 C 0.75,-2.625 1.0625,-2.875 1.3125,-2.875 c 0.109375,0 0.171875,0.046875 0.171875,0.234375 0,0.171875 -0.03125,0.265625 -0.203125,0.703125 z m 0,0"
             id="id-21ba0438-bab6-4a78-8805-0c625a716ba9" />
        </g>
      </g>
    </g>
    <g
       id="g586"
       transform="translate(-38.784455,-60.169931)">
      <g
         style="fill:#000000;fill-opacity:1"
         id="id-8ee70d9d-9583-458e-8cfd-26f4dae3392a"
         transform="matrix(1.1105661,0,0,1.1105661,-71.93668,780.9648)">
        <g
           transform="translate(301.729,146.72)"
           id="g8119">
          <path
             style="stroke:none;stroke-width:0"
             d="m 2.859375,-6.8125 c 0,0 0,-0.109375 -0.125,-0.109375 -0.234375,0 -0.953125,0.078125 -1.21875,0.109375 -0.078125,0 -0.1875,0.015625 -0.1875,0.1875 0,0.125 0.09375,0.125 0.234375,0.125 0.484375,0 0.5,0.0625 0.5,0.171875 L 2.03125,-6.125 0.59375,-0.390625 c -0.046875,0.140625 -0.046875,0.15625 -0.046875,0.21875 0,0.234375 0.203125,0.28125 0.296875,0.28125 0.125,0 0.265625,-0.09375 0.328125,-0.203125 0.046875,-0.09375 0.5,-1.9375 0.5625,-2.1875 0.34375,0.03125 1.15625,0.1875 1.15625,0.84375 0,0.078125 0,0.109375 -0.03125,0.21875 -0.015625,0.109375 -0.03125,0.234375 -0.03125,0.34375 0,0.578125 0.390625,0.984375 0.90625,0.984375 0.296875,0 0.578125,-0.15625 0.796875,-0.53125 0.25,-0.4375 0.359375,-0.984375 0.359375,-1 0,-0.109375 -0.09375,-0.109375 -0.125,-0.109375 -0.09375,0 -0.109375,0.046875 -0.140625,0.1875 -0.203125,0.71875 -0.421875,1.234375 -0.859375,1.234375 -0.203125,0 -0.328125,-0.109375 -0.328125,-0.46875 0,-0.171875 0.046875,-0.40625 0.078125,-0.5625 C 3.5625,-1.3125 3.5625,-1.34375 3.5625,-1.453125 3.5625,-2.09375 2.9375,-2.375 2.078125,-2.5 2.390625,-2.671875 2.71875,-2.984375 2.9375,-3.234375 3.421875,-3.765625 3.875,-4.1875 4.359375,-4.1875 c 0.0625,0 0.078125,0 0.09375,0.015625 0.125,0.015625 0.125,0.015625 0.21875,0.078125 0.015625,0 0.015625,0.015625 0.03125,0.03125 -0.46875,0.03125 -0.5625,0.421875 -0.5625,0.546875 0,0.15625 0.109375,0.34375 0.375,0.34375 0.265625,0 0.546875,-0.21875 0.546875,-0.609375 0,-0.296875 -0.234375,-0.625 -0.671875,-0.625 -0.28125,0 -0.734375,0.078125 -1.453125,0.875 -0.34375,0.375 -0.734375,0.78125 -1.109375,0.921875 z m 0,0"
             id="id-2c322f85-bb88-4582-8aca-7030af0249dc" />
        </g>
      </g>
      <g
         style="fill:#000000;fill-opacity:1"
         id="id-a031b93c-a9a9-43d6-a576-809515e00f35"
         transform="matrix(1.1105661,0,0,1.1105661,-71.93668,780.9648)">
        <g
           transform="translate(306.916,148.214)"
           id="g8920">
          <path
             style="stroke:none;stroke-width:0"
             d="m 2.265625,-4.359375 c 0,-0.109375 -0.09375,-0.265625 -0.28125,-0.265625 -0.1875,0 -0.390625,0.1875 -0.390625,0.390625 0,0.109375 0.078125,0.265625 0.28125,0.265625 0.1875,0 0.390625,-0.203125 0.390625,-0.390625 z M 0.84375,-0.8125 c -0.03125,0.09375 -0.0625,0.171875 -0.0625,0.296875 0,0.328125 0.265625,0.578125 0.65625,0.578125 0.6875,0 1,-0.953125 1,-1.0625 0,-0.09375 -0.09375,-0.09375 -0.109375,-0.09375 -0.09375,0 -0.109375,0.046875 -0.140625,0.125 -0.15625,0.5625 -0.453125,0.84375 -0.734375,0.84375 -0.140625,0 -0.171875,-0.09375 -0.171875,-0.25 0,-0.15625 0.046875,-0.28125 0.109375,-0.4375 C 1.46875,-1 1.546875,-1.1875 1.609375,-1.375 1.671875,-1.546875 1.9375,-2.171875 1.953125,-2.265625 1.984375,-2.328125 2,-2.40625 2,-2.484375 2,-2.8125 1.71875,-3.078125 1.34375,-3.078125 0.640625,-3.078125 0.328125,-2.125 0.328125,-2 c 0,0.078125 0.09375,0.078125 0.125,0.078125 0.09375,0 0.09375,-0.03125 0.125,-0.109375 C 0.75,-2.625 1.0625,-2.875 1.3125,-2.875 c 0.109375,0 0.171875,0.046875 0.171875,0.234375 0,0.171875 -0.03125,0.265625 -0.203125,0.703125 z m 0,0"
             id="id-38ab231f-0cc4-4648-bcb6-b0d9a15202ac" />
        </g>
      </g>
    </g>
    <g
       id="g585"
       transform="translate(-50.836518,10.971737)">
      <g
         style="fill:#000000;fill-opacity:1"
         id="id-091c108f-c277-4dc4-9855-c7a6104c69da"
         transform="matrix(1.1105661,0,0,1.1105661,-71.93668,780.9648)">
        <g
           transform="translate(313.553,146.72)"
           id="g2355">
          <path
             style="stroke:none;stroke-width:0"
             d="m 2.046875,-3.984375 h 0.9375 c 0.203125,0 0.3125,0 0.3125,-0.203125 0,-0.109375 -0.109375,-0.109375 -0.28125,-0.109375 h -0.875 C 2.5,-5.71875 2.546875,-5.90625 2.546875,-5.96875 c 0,-0.171875 -0.125,-0.265625 -0.296875,-0.265625 -0.03125,0 -0.3125,0 -0.390625,0.359375 L 1.46875,-4.296875 h -0.9375 c -0.203125,0 -0.296875,0 -0.296875,0.1875 0,0.125 0.078125,0.125 0.28125,0.125 h 0.875 C 0.671875,-1.15625 0.625,-0.984375 0.625,-0.8125 0.625,-0.265625 1,0.109375 1.546875,0.109375 2.5625,0.109375 3.125,-1.34375 3.125,-1.421875 3.125,-1.53125 3.046875,-1.53125 3.015625,-1.53125 2.921875,-1.53125 2.90625,-1.5 2.859375,-1.390625 2.4375,-0.34375 1.90625,-0.109375 1.5625,-0.109375 c -0.203125,0 -0.3125,-0.125 -0.3125,-0.453125 0,-0.25 0.03125,-0.3125 0.0625,-0.484375 z m 0,0"
             id="id-ef06e6c7-de87-4340-9869-a4dcf0a5f4a0" />
        </g>
      </g>
      <g
         style="fill:#000000;fill-opacity:1"
         id="id-577545fe-0ade-4e20-9ad4-0a5272c2a034"
         transform="matrix(1.1105661,0,0,1.1105661,-71.93668,780.9648)">
        <g
           transform="translate(317.151,148.214)"
           id="g7936">
          <path
             style="stroke:none;stroke-width:0"
             d="m 2.265625,-4.359375 c 0,-0.109375 -0.09375,-0.265625 -0.28125,-0.265625 -0.1875,0 -0.390625,0.1875 -0.390625,0.390625 0,0.109375 0.078125,0.265625 0.28125,0.265625 0.1875,0 0.390625,-0.203125 0.390625,-0.390625 z M 0.84375,-0.8125 c -0.03125,0.09375 -0.0625,0.171875 -0.0625,0.296875 0,0.328125 0.265625,0.578125 0.65625,0.578125 0.6875,0 1,-0.953125 1,-1.0625 0,-0.09375 -0.09375,-0.09375 -0.109375,-0.09375 -0.09375,0 -0.109375,0.046875 -0.140625,0.125 -0.15625,0.5625 -0.453125,0.84375 -0.734375,0.84375 -0.140625,0 -0.171875,-0.09375 -0.171875,-0.25 0,-0.15625 0.046875,-0.28125 0.109375,-0.4375 C 1.46875,-1 1.546875,-1.1875 1.609375,-1.375 1.671875,-1.546875 1.9375,-2.171875 1.953125,-2.265625 1.984375,-2.328125 2,-2.40625 2,-2.484375 2,-2.8125 1.71875,-3.078125 1.34375,-3.078125 0.640625,-3.078125 0.328125,-2.125 0.328125,-2 c 0,0.078125 0.09375,0.078125 0.125,0.078125 0.09375,0 0.09375,-0.03125 0.125,-0.109375 C 0.75,-2.625 1.0625,-2.875 1.3125,-2.875 c 0.109375,0 0.171875,0.046875 0.171875,0.234375 0,0.171875 -0.03125,0.265625 -0.203125,0.703125 z m 0,0"
             id="id-9eb80d13-1bba-47c3-9af2-82f95ace5757" />
        </g>
      </g>
    </g>
    <g
       id="g592"
       transform="translate(254.51387,-46.73475)">
      <g
         style="fill:#000000;fill-opacity:1"
         id="g589"
         transform="matrix(1.1105661,0,0,1.1105661,-71.93668,780.9648)">
        <g
           transform="translate(290.78,146.72)"
           id="g588">
          <path
             style="stroke:none;stroke-width:0"
             d="m 3.953125,-3.78125 c -0.171875,0 -0.296875,0 -0.4375,0.125 -0.171875,0.15625 -0.1875,0.328125 -0.1875,0.390625 0,0.25 0.1875,0.359375 0.375,0.359375 0.28125,0 0.546875,-0.25 0.546875,-0.640625 0,-0.484375 -0.46875,-0.859375 -1.171875,-0.859375 -1.34375,0 -2.671875,1.421875 -2.671875,2.828125 0,0.90625 0.578125,1.6875 1.625,1.6875 1.421875,0 2.25,-1.0625 2.25,-1.171875 0,-0.0625 -0.046875,-0.140625 -0.109375,-0.140625 -0.0625,0 -0.078125,0.03125 -0.140625,0.109375 -0.78125,0.984375 -1.875,0.984375 -1.984375,0.984375 -0.625,0 -0.90625,-0.484375 -0.90625,-1.09375 0,-0.40625 0.203125,-1.375 0.546875,-1.984375 0.3125,-0.578125 0.859375,-1 1.40625,-1 0.328125,0 0.71875,0.125 0.859375,0.40625 z m 0,0"
             id="path587" />
        </g>
      </g>
      <g
         style="fill:#000000;fill-opacity:1"
         id="g591"
         transform="matrix(1.1105661,0,0,1.1105661,-71.93668,780.9648)">
        <g
           transform="translate(295.091,148.214)"
           id="g590">
          <path
             style="stroke:none;stroke-width:0"
             d="m 2.265625,-4.359375 c 0,-0.109375 -0.09375,-0.265625 -0.28125,-0.265625 -0.1875,0 -0.390625,0.1875 -0.390625,0.390625 0,0.109375 0.078125,0.265625 0.28125,0.265625 0.1875,0 0.390625,-0.203125 0.390625,-0.390625 z M 0.84375,-0.8125 c -0.03125,0.09375 -0.0625,0.171875 -0.0625,0.296875 0,0.328125 0.265625,0.578125 0.65625,0.578125 0.6875,0 1,-0.953125 1,-1.0625 0,-0.09375 -0.09375,-0.09375 -0.109375,-0.09375 -0.09375,0 -0.109375,0.046875 -0.140625,0.125 -0.15625,0.5625 -0.453125,0.84375 -0.734375,0.84375 -0.140625,0 -0.171875,-0.09375 -0.171875,-0.25 0,-0.15625 0.046875,-0.28125 0.109375,-0.4375 C 1.46875,-1 1.546875,-1.1875 1.609375,-1.375 1.671875,-1.546875 1.9375,-2.171875 1.953125,-2.265625 1.984375,-2.328125 2,-2.40625 2,-2.484375 2,-2.8125 1.71875,-3.078125 1.34375,-3.078125 0.640625,-3.078125 0.328125,-2.125 0.328125,-2 c 0,0.078125 0.09375,0.078125 0.125,0.078125 0.09375,0 0.09375,-0.03125 0.125,-0.109375 C 0.75,-2.625 1.0625,-2.875 1.3125,-2.875 c 0.109375,0 0.171875,0.046875 0.171875,0.234375 0,0.171875 -0.03125,0.265625 -0.203125,0.703125 z m 0,0"
             id="path589" />
        </g>
      </g>
    </g>
    <g
       id="g597"
       transform="translate(218.23508,-60.169901)">
      <g
         style="fill:#000000;fill-opacity:1"
         id="g594"
         transform="matrix(1.1105661,0,0,1.1105661,-71.93668,780.9648)">
        <g
           transform="translate(301.729,146.72)"
           id="g593">
          <path
             style="stroke:none;stroke-width:0"
             d="m 2.859375,-6.8125 c 0,0 0,-0.109375 -0.125,-0.109375 -0.234375,0 -0.953125,0.078125 -1.21875,0.109375 -0.078125,0 -0.1875,0.015625 -0.1875,0.1875 0,0.125 0.09375,0.125 0.234375,0.125 0.484375,0 0.5,0.0625 0.5,0.171875 L 2.03125,-6.125 0.59375,-0.390625 c -0.046875,0.140625 -0.046875,0.15625 -0.046875,0.21875 0,0.234375 0.203125,0.28125 0.296875,0.28125 0.125,0 0.265625,-0.09375 0.328125,-0.203125 0.046875,-0.09375 0.5,-1.9375 0.5625,-2.1875 0.34375,0.03125 1.15625,0.1875 1.15625,0.84375 0,0.078125 0,0.109375 -0.03125,0.21875 -0.015625,0.109375 -0.03125,0.234375 -0.03125,0.34375 0,0.578125 0.390625,0.984375 0.90625,0.984375 0.296875,0 0.578125,-0.15625 0.796875,-0.53125 0.25,-0.4375 0.359375,-0.984375 0.359375,-1 0,-0.109375 -0.09375,-0.109375 -0.125,-0.109375 -0.09375,0 -0.109375,0.046875 -0.140625,0.1875 -0.203125,0.71875 -0.421875,1.234375 -0.859375,1.234375 -0.203125,0 -0.328125,-0.109375 -0.328125,-0.46875 0,-0.171875 0.046875,-0.40625 0.078125,-0.5625 C 3.5625,-1.3125 3.5625,-1.34375 3.5625,-1.453125 3.5625,-2.09375 2.9375,-2.375 2.078125,-2.5 2.390625,-2.671875 2.71875,-2.984375 2.9375,-3.234375 3.421875,-3.765625 3.875,-4.1875 4.359375,-4.1875 c 0.0625,0 0.078125,0 0.09375,0.015625 0.125,0.015625 0.125,0.015625 0.21875,0.078125 0.015625,0 0.015625,0.015625 0.03125,0.03125 -0.46875,0.03125 -0.5625,0.421875 -0.5625,0.546875 0,0.15625 0.109375,0.34375 0.375,0.34375 0.265625,0 0.546875,-0.21875 0.546875,-0.609375 0,-0.296875 -0.234375,-0.625 -0.671875,-0.625 -0.28125,0 -0.734375,0.078125 -1.453125,0.875 -0.34375,0.375 -0.734375,0.78125 -1.109375,0.921875 z m 0,0"
             id="path592" />
        </g>
      </g>
      <g
         style="fill:#000000;fill-opacity:1"
         id="g596"
         transform="matrix(1.1105661,0,0,1.1105661,-71.93668,780.9648)">
        <g
           transform="translate(306.916,148.214)"
           id="g595">
          <path
             style="stroke:none;stroke-width:0"
             d="m 2.265625,-4.359375 c 0,-0.109375 -0.09375,-0.265625 -0.28125,-0.265625 -0.1875,0 -0.390625,0.1875 -0.390625,0.390625 0,0.109375 0.078125,0.265625 0.28125,0.265625 0.1875,0 0.390625,-0.203125 0.390625,-0.390625 z M 0.84375,-0.8125 c -0.03125,0.09375 -0.0625,0.171875 -0.0625,0.296875 0,0.328125 0.265625,0.578125 0.65625,0.578125 0.6875,0 1,-0.953125 1,-1.0625 0,-0.09375 -0.09375,-0.09375 -0.109375,-0.09375 -0.09375,0 -0.109375,0.046875 -0.140625,0.125 -0.15625,0.5625 -0.453125,0.84375 -0.734375,0.84375 -0.140625,0 -0.171875,-0.09375 -0.171875,-0.25 0,-0.15625 0.046875,-0.28125 0.109375,-0.4375 C 1.46875,-1 1.546875,-1.1875 1.609375,-1.375 1.671875,-1.546875 1.9375,-2.171875 1.953125,-2.265625 1.984375,-2.328125 2,-2.40625 2,-2.484375 2,-2.8125 1.71875,-3.078125 1.34375,-3.078125 0.640625,-3.078125 0.328125,-2.125 0.328125,-2 c 0,0.078125 0.09375,0.078125 0.125,0.078125 0.09375,0 0.09375,-0.03125 0.125,-0.109375 C 0.75,-2.625 1.0625,-2.875 1.3125,-2.875 c 0.109375,0 0.171875,0.046875 0.171875,0.234375 0,0.171875 -0.03125,0.265625 -0.203125,0.703125 z m 0,0"
             id="path594" />
        </g>
      </g>
    </g>
    <g
       id="g602"
       transform="translate(206.18302,10.971737)">
      <g
         style="fill:#000000;fill-opacity:1"
         id="g599"
         transform="matrix(1.1105661,0,0,1.1105661,-71.93668,780.9648)">
        <g
           transform="translate(313.553,146.72)"
           id="g598">
          <path
             style="stroke:none;stroke-width:0"
             d="m 2.046875,-3.984375 h 0.9375 c 0.203125,0 0.3125,0 0.3125,-0.203125 0,-0.109375 -0.109375,-0.109375 -0.28125,-0.109375 h -0.875 C 2.5,-5.71875 2.546875,-5.90625 2.546875,-5.96875 c 0,-0.171875 -0.125,-0.265625 -0.296875,-0.265625 -0.03125,0 -0.3125,0 -0.390625,0.359375 L 1.46875,-4.296875 h -0.9375 c -0.203125,0 -0.296875,0 -0.296875,0.1875 0,0.125 0.078125,0.125 0.28125,0.125 h 0.875 C 0.671875,-1.15625 0.625,-0.984375 0.625,-0.8125 0.625,-0.265625 1,0.109375 1.546875,0.109375 2.5625,0.109375 3.125,-1.34375 3.125,-1.421875 3.125,-1.53125 3.046875,-1.53125 3.015625,-1.53125 2.921875,-1.53125 2.90625,-1.5 2.859375,-1.390625 2.4375,-0.34375 1.90625,-0.109375 1.5625,-0.109375 c -0.203125,0 -0.3125,-0.125 -0.3125,-0.453125 0,-0.25 0.03125,-0.3125 0.0625,-0.484375 z m 0,0"
             id="path597" />
        </g>
      </g>
      <g
         style="fill:#000000;fill-opacity:1"
         id="g601"
         transform="matrix(1.1105661,0,0,1.1105661,-71.93668,780.9648)">
        <g
           transform="translate(317.151,148.214)"
           id="g600">
          <path
             style="stroke:none;stroke-width:0"
             d="m 2.265625,-4.359375 c 0,-0.109375 -0.09375,-0.265625 -0.28125,-0.265625 -0.1875,0 -0.390625,0.1875 -0.390625,0.390625 0,0.109375 0.078125,0.265625 0.28125,0.265625 0.1875,0 0.390625,-0.203125 0.390625,-0.390625 z M 0.84375,-0.8125 c -0.03125,0.09375 -0.0625,0.171875 -0.0625,0.296875 0,0.328125 0.265625,0.578125 0.65625,0.578125 0.6875,0 1,-0.953125 1,-1.0625 0,-0.09375 -0.09375,-0.09375 -0.109375,-0.09375 -0.09375,0 -0.109375,0.046875 -0.140625,0.125 -0.15625,0.5625 -0.453125,0.84375 -0.734375,0.84375 -0.140625,0 -0.171875,-0.09375 -0.171875,-0.25 0,-0.15625 0.046875,-0.28125 0.109375,-0.4375 C 1.46875,-1 1.546875,-1.1875 1.609375,-1.375 1.671875,-1.546875 1.9375,-2.171875 1.953125,-2.265625 1.984375,-2.328125 2,-2.40625 2,-2.484375 2,-2.8125 1.71875,-3.078125 1.34375,-3.078125 0.640625,-3.078125 0.328125,-2.125 0.328125,-2 c 0,0.078125 0.09375,0.078125 0.125,0.078125 0.09375,0 0.09375,-0.03125 0.125,-0.109375 C 0.75,-2.625 1.0625,-2.875 1.3125,-2.875 c 0.109375,0 0.171875,0.046875 0.171875,0.234375 0,0.171875 -0.03125,0.265625 -0.203125,0.703125 z m 0,0"
             id="path599" />
        </g>
      </g>
    </g>
    <g
       transform="matrix(1.7452523,0,0,1.7452523,419.40078,917.78943)"
       ns1:version="1.9.0"
       ns1:texconverter="pdflatex"
       ns1:pdfconverter="inkscape"
       ns1:text="\\[\\equiv\\]"
       ns1:preamble="/home/hhadipour/.config/inkscape/extensions/textext/default_packages.tex"
       ns1:scale="1.0"
       ns1:alignment="middle center"
       ns1:stroke-to-path="0"
       ns1:inkscapeversion="1.3"
       id="g3169"
       ns1:jacobian_sqrt="1.33333">
      <defs
         id="id-87012e61-96e9-4508-8bac-e2fe95ab7bb4">
        <g
           id="id-bdfdec3d-c13f-434a-b27d-a66279d0dbe8">
          <symbol
             overflow="visible"
             id="id-4c1b8a03-a131-4390-87d7-c63b4905a596">
            <path
               style="stroke:none;stroke-width:0"
               d=""
               id="id-69b5c4f0-0f44-428c-a53c-afe4f24fe96d" />
          </symbol>
          <symbol
             overflow="visible"
             id="id-211be5b1-27a9-4386-81ee-fa410f3ca983">
            <path
               style="stroke:none;stroke-width:0"
               d="m 6.84375,-4.234375 c 0.171875,0 0.359375,0 0.359375,-0.1875 C 7.203125,-4.625 7.015625,-4.625 6.84375,-4.625 H 0.890625 c -0.15625,0 -0.34375,0 -0.34375,0.203125 0,0.1875 0.203125,0.1875 0.359375,0.1875 z m 0,3.875 c 0.171875,0 0.359375,0 0.359375,-0.203125 0,-0.1875 -0.1875,-0.1875 -0.359375,-0.1875 h -5.9375 c -0.15625,0 -0.359375,0 -0.359375,0.1875 0,0.203125 0.1875,0.203125 0.34375,0.203125 z m 0,-1.9375 c 0.171875,0 0.359375,0 0.359375,-0.203125 0,-0.1875 -0.1875,-0.1875 -0.359375,-0.1875 H 0.890625 c -0.15625,0 -0.34375,0 -0.34375,0.1875 0,0.203125 0.1875,0.203125 0.34375,0.203125 z m 0,0"
               id="id-e02de1f8-c124-4ae5-8cd5-5e8b2acf225c" />
          </symbol>
        </g>
      </defs>
      <g
         id="id-0cf63c1e-b6b5-4dff-97cb-3c5786d809f1"
         transform="translate(-302.297,-142.095)">
        <g
           style="fill:#000000;fill-opacity:1"
           id="id-41a57d82-fec2-48f2-b4ba-031f510d8827">
          <g
             transform="translate(301.75,146.72)"
             id="g5046">
            <path
               style="stroke:none;stroke-width:0"
               d="m 6.84375,-4.234375 c 0.171875,0 0.359375,0 0.359375,-0.1875 C 7.203125,-4.625 7.015625,-4.625 6.84375,-4.625 H 0.890625 c -0.15625,0 -0.34375,0 -0.34375,0.203125 0,0.1875 0.203125,0.1875 0.359375,0.1875 z m 0,3.875 c 0.171875,0 0.359375,0 0.359375,-0.203125 0,-0.1875 -0.1875,-0.1875 -0.359375,-0.1875 h -5.9375 c -0.15625,0 -0.359375,0 -0.359375,0.1875 0,0.203125 0.1875,0.203125 0.34375,0.203125 z m 0,-1.9375 c 0.171875,0 0.359375,0 0.359375,-0.203125 0,-0.1875 -0.1875,-0.1875 -0.359375,-0.1875 H 0.890625 c -0.15625,0 -0.34375,0 -0.34375,0.1875 0,0.203125 0.1875,0.203125 0.34375,0.203125 z m 0,0"
               id="id-8b5b2323-911d-4059-b1e3-bd93a11c3ad9" />
          </g>
        </g>
      </g>
    </g>
  </g>
</svg>
