<?xml version="1.0" encoding="UTF-8" standalone="no"?>
<!-- Created with Inkscape (http://www.inkscape.org/) -->

<svg
   version="1.1"
   id="svg1"
   width="424.92188"
   height="82.347656"
   viewBox="0 0 424.92188 82.34766"
   sodipodi:docname="reflector_construction.svg"
   inkscape:version="1.3 (1:1.3+202307231459+0e150ed6c4)"
   xmlns:inkscape="http://www.inkscape.org/namespaces/inkscape"
   xmlns:sodipodi="http://sodipodi.sourceforge.net/DTD/sodipodi-0.dtd"
   xmlns="http://www.w3.org/2000/svg"
   xmlns:svg="http://www.w3.org/2000/svg"
   xmlns:ns2="http://www.iki.fi/pav/software/textext/">
  <sodipodi:namedview
     id="namedview1"
     pagecolor="#ffffff"
     bordercolor="#000000"
     borderopacity="0.25"
     inkscape:showpageshadow="2"
     inkscape:pageopacity="0.0"
     inkscape:pagecheckerboard="0"
     inkscape:deskcolor="#d1d1d1"
     inkscape:zoom="2.9016436"
     inkscape:cx="219.18612"
     inkscape:cy="96.152402"
     inkscape:window-width="1850"
     inkscape:window-height="1016"
     inkscape:window-x="0"
     inkscape:window-y="0"
     inkscape:window-maximized="1"
     inkscape:current-layer="g1">
    <inkscape:page
       x="0"
       y="0"
       inkscape:label="1"
       id="page1"
       width="424.92188"
       height="82.347656"
       margin="0"
       bleed="0" />
  </sodipodi:namedview>
  <defs
     id="defs1" />
  <g
     id="g1"
     inkscape:groupmode="layer"
     inkscape:label="1"
     transform="translate(-184.512, -231.32)">
    <g
       transform="matrix(1.0668575,0,0,1.0668575,535.89268,268.52571)"
       ns2:version="1.9.0"
       ns2:texconverter="pdflatex"
       ns2:pdfconverter="inkscape"
       ns2:text="$\\bar{S}$"
       ns2:preamble="/home/hhadipour/.config/inkscape/extensions/textext/default_packages.tex"
       ns2:scale="1.0"
       ns2:alignment="middle center"
       ns2:stroke-to-path="0"
       ns2:inkscapeversion="1.3"
       id="g6947"
       ns2:jacobian_sqrt="1.33333">
      <defs
         id="id-8ca1490a-440d-460b-b369-2fef843a104c">
        <g
           id="id-9963718e-3ef9-4a4f-b82f-121dd236f89b">
          <symbol
             overflow="visible"
             id="id-0f0a3af0-abc5-4015-b5ca-559efd8a7b5b">
            <path
               style="stroke:none;stroke-width:0"
               d=""
               id="id-7fee6098-a5b3-411a-9962-03b141b392ae" />
          </symbol>
          <symbol
             overflow="visible"
             id="id-8ec78b35-c140-4e24-bbd9-d8f0937debda">
            <path
               style="stroke:none;stroke-width:0"
               d="M 4.28125,-5.578125 V -5.875 H 0.6875 v 0.296875 z m 0,0"
               id="id-57ba9fb1-2b92-4d09-a64a-5a364ced815b" />
          </symbol>
          <symbol
             overflow="visible"
             id="id-d5ae1221-e670-482a-b5e6-8aceed2b913b">
            <path
               style="stroke:none;stroke-width:0"
               d=""
               id="id-f00089cd-9a94-48bf-89e1-78d27a3222bf" />
          </symbol>
          <symbol
             overflow="visible"
             id="id-d73f56b7-64ac-482c-bfe7-f27fcb49d856">
            <path
               style="stroke:none;stroke-width:0"
               d="m 6.4375,-6.921875 c 0,-0.03125 -0.03125,-0.109375 -0.125,-0.109375 -0.046875,0 -0.046875,0.015625 -0.171875,0.15625 L 5.65625,-6.3125 c -0.25,-0.46875 -0.765625,-0.71875 -1.421875,-0.71875 -1.265625,0 -2.453125,1.15625 -2.453125,2.359375 0,0.796875 0.515625,1.265625 1.03125,1.40625 l 1.0625,0.28125 c 0.375,0.09375 0.921875,0.25 0.921875,1.0625 0,0.890625 -0.8125,1.828125 -1.796875,1.828125 -0.640625,0 -1.75,-0.21875 -1.75,-1.453125 0,-0.234375 0.0625,-0.484375 0.0625,-0.53125 0.015625,-0.046875 0.015625,-0.0625 0.015625,-0.078125 0,-0.09375 -0.0625,-0.109375 -0.109375,-0.109375 -0.046875,0 -0.078125,0.015625 -0.109375,0.046875 -0.03125,0.03125 -0.59375,2.3125 -0.59375,2.34375 0,0.046875 0.046875,0.09375 0.109375,0.09375 0.046875,0 0.0625,-0.015625 0.1875,-0.15625 L 1.296875,-0.5 c 0.421875,0.578125 1.109375,0.71875 1.6875,0.71875 1.359375,0 2.53125,-1.328125 2.53125,-2.5625 0,-0.6875 -0.34375,-1.03125 -0.484375,-1.171875 C 4.796875,-3.734375 4.640625,-3.78125 3.765625,-4 3.53125,-4.0625 3.1875,-4.171875 3.09375,-4.1875 2.828125,-4.28125 2.484375,-4.5625 2.484375,-5.09375 c 0,-0.8125 0.796875,-1.65625 1.75,-1.65625 0.8125,0 1.421875,0.4375 1.421875,1.546875 0,0.3125 -0.03125,0.5 -0.03125,0.5625 0,0 0,0.09375 0.109375,0.09375 0.109375,0 0.125,-0.03125 0.15625,-0.203125 z m 0,0"
               id="id-a5b41026-9c39-4d02-bb08-372d4f8256cd" />
          </symbol>
        </g>
      </defs>
      <g
         id="id-40126442-046e-4576-afa8-a4a7f663ce7c"
         transform="translate(-149.228,-126.371)">
        <g
           style="fill:#000000;fill-opacity:1"
           id="id-9f9c2378-7076-41ef-acca-07b4a102f84a">
          <g
             transform="translate(150.394,132.246)"
             id="g7128">
            <path
               style="stroke:none;stroke-width:0"
               d="M 4.28125,-5.578125 V -5.875 H 0.6875 v 0.296875 z m 0,0"
               id="id-ac790eaf-81a2-47fd-b239-d0511688c5f1" />
          </g>
        </g>
        <g
           style="fill:#000000;fill-opacity:1"
           id="id-d223f4e5-62ea-455d-a90d-c3e10119ba1a">
          <g
             transform="translate(148.712,134.765)"
             id="g3246">
            <path
               style="stroke:none;stroke-width:0"
               d="m 6.4375,-6.921875 c 0,-0.03125 -0.03125,-0.109375 -0.125,-0.109375 -0.046875,0 -0.046875,0.015625 -0.171875,0.15625 L 5.65625,-6.3125 c -0.25,-0.46875 -0.765625,-0.71875 -1.421875,-0.71875 -1.265625,0 -2.453125,1.15625 -2.453125,2.359375 0,0.796875 0.515625,1.265625 1.03125,1.40625 l 1.0625,0.28125 c 0.375,0.09375 0.921875,0.25 0.921875,1.0625 0,0.890625 -0.8125,1.828125 -1.796875,1.828125 -0.640625,0 -1.75,-0.21875 -1.75,-1.453125 0,-0.234375 0.0625,-0.484375 0.0625,-0.53125 0.015625,-0.046875 0.015625,-0.0625 0.015625,-0.078125 0,-0.09375 -0.0625,-0.109375 -0.109375,-0.109375 -0.046875,0 -0.078125,0.015625 -0.109375,0.046875 -0.03125,0.03125 -0.59375,2.3125 -0.59375,2.34375 0,0.046875 0.046875,0.09375 0.109375,0.09375 0.046875,0 0.0625,-0.015625 0.1875,-0.15625 L 1.296875,-0.5 c 0.421875,0.578125 1.109375,0.71875 1.6875,0.71875 1.359375,0 2.53125,-1.328125 2.53125,-2.5625 0,-0.6875 -0.34375,-1.03125 -0.484375,-1.171875 C 4.796875,-3.734375 4.640625,-3.78125 3.765625,-4 3.53125,-4.0625 3.1875,-4.171875 3.09375,-4.1875 2.828125,-4.28125 2.484375,-4.5625 2.484375,-5.09375 c 0,-0.8125 0.796875,-1.65625 1.75,-1.65625 0.8125,0 1.421875,0.4375 1.421875,1.546875 0,0.3125 -0.03125,0.5 -0.03125,0.5625 0,0 0,0.09375 0.109375,0.09375 0.109375,0 0.125,-0.03125 0.15625,-0.203125 z m 0,0"
               id="id-96eb33d8-6ed3-4b81-9ca2-19c82335d121" />
          </g>
        </g>
      </g>
    </g>
    <g
       id="g2" />
    <g
       id="g5" />
    <path
       id="path20"
       d="m 5.9650878,-0.1519445 c 0,-0.0820313 -0.070312,-0.0820313 -0.1523437,-0.0820313 -0.3046875,-0.0117188 -0.421875,-0.0820312 -0.5390625,-0.375 L 4.1252441,-3.3277257 c -0.011719,-0.035156 -0.046875,-0.09375 -0.046875,-0.1171875 0,0 0.011719,-0.023437 0.1523437,-0.1289063 l 0.796875,-0.6210937 c 1.1132813,-0.8671875 1.4765625,-1.1484375 2.0390625,-1.1953125 0.058594,-0.011719 0.140625,-0.011719 0.140625,-0.1523438 0,-0.046875 -0.023437,-0.09375 -0.082031,-0.09375 -0.09375,0 -0.1992188,0.023437 -0.28125,0.023437 H 6.5275878 c -0.2578125,0 -0.5273437,-0.023437 -0.7734375,-0.023437 -0.058594,0 -0.1640625,0 -0.1640625,0.1523438 0,0.082031 0.058594,0.09375 0.1054688,0.09375 0.09375,0 0.1992187,0.035156 0.1992187,0.1523437 0,0.1640625 -0.2460937,0.3632813 -0.3046875,0.4101563 l -3.234375,2.5195312 0.6796875,-2.71875 c 0.070312,-0.28125 0.09375,-0.3632812 0.6796875,-0.3632812 0.1523438,0 0.234375,0 0.234375,-0.1640625 0,-0.082031 -0.09375,-0.082031 -0.1289062,-0.082031 -0.1523438,0 -0.328125,0.023437 -0.4804688,0.023437 H 2.3674316 c -0.1523438,0 -0.328125,-0.023437 -0.4804688,-0.023437 -0.058594,0 -0.1523437,0 -0.1523437,0.1640625 0,0.082031 0.070312,0.082031 0.1992187,0.082031 0.5039063,0 0.5039063,0.058594 0.5039063,0.1523437 0,0 0,0.070312 -0.035156,0.1875 l -1.1132812,4.44140625 c -0.082031,0.29296875 -0.09375,0.375 -0.66796879,0.375 -0.1640625,0 -0.24609375,0 -0.24609375,0.140625 0,0.09375 0.0820313,0.09375 0.12890625,0.09375 0.15234375,0 0.31640625,-0.01171875 0.48046875,-0.01171875 H 1.9455566 c 0.1640625,0 0.328125,0.01171875 0.4921875,0.01171875 0.058594,0 0.1523437,0 0.1523437,-0.15234375 0,-0.0820313 -0.070312,-0.0820313 -0.1992187,-0.0820313 -0.5039063,0 -0.5039063,-0.0703125 -0.5039063,-0.15234375 0,-0.0585938 0.046875,-0.26953125 0.082031,-0.3984375 l 0.328125,-1.27734375 1.2539062,-0.984375 1.0078125,2.390625 c 0.023437,0.0585938 0.046875,0.10546875 0.046875,0.1640625 0,0.24609375 -0.328125,0.2578125 -0.4101562,0.2578125 -0.070312,0 -0.1523438,0 -0.1523438,0.15234375 0,0.08203125 0.09375,0.08203125 0.1171875,0.08203125 0.28125,0 0.5976563,-0.01171875 0.8789063,-0.01171875 h 0.3984375 c 0.1171875,0 0.2578125,0.01171875 0.3867187,0.01171875 0.046875,0 0.140625,0 0.1406253,-0.1523437 z m 0,0"
       style="fill:#000000;fill-opacity:1;fill-rule:nonzero;stroke:none"
       aria-label="K"
       transform="matrix(1.3333333,0,0,1.3333333,214.82389,241.04634)" />
    <path
       id="path21"
       d="m 1.8994503,1.3708024 c 0,-0.011719 0,-0.023437 -0.09375,-0.1171875 -0.7265625,-0.72656253 -0.90234374,-1.80468753 -0.90234374,-2.6835938 0,-0.9960937 0.21093754,-1.9921875 0.92578124,-2.71875 0.070312,-0.058594 0.070312,-0.070312 0.070312,-0.09375 0,-0.035156 -0.023437,-0.058594 -0.058594,-0.058594 -0.058594,0 -0.5742188,0.3984375 -0.91406254,1.125 -0.29296875,0.6210937 -0.36328125,1.265625 -0.36328125,1.7460937 0,0.44531252 0.0703125,1.13671877 0.38671875,1.78125002 C 1.2900753,1.0543961 1.7822628,1.4293961 1.8408566,1.4293961 c 0.035156,0 0.058594,-0.011719 0.058594,-0.058594 z m 2.9589844,-3.1992188 c 0,-0.46875 -0.035156,-0.9257812 -0.234375,-1.3476562 -0.2578125,-0.5507813 -0.7265625,-0.6445313 -0.9726563,-0.6445313 -0.3398437,0 -0.7617187,0.1523438 -0.9960937,0.6914063 -0.1757813,0.3867187 -0.2109375,0.8320312 -0.2109375,1.3007812 0,0.421875 0.023437,0.93750002 0.2578125,1.37109377 0.2460937,0.46875 0.6679687,0.5859375 0.9492187,0.5859375 0.3046875,0 0.7382813,-0.128906245 0.9960938,-0.66796875 0.1757812,-0.3984375 0.2109375,-0.84375002 0.2109375,-1.28906252 z m -0.4804688,-0.070312 c 0,0.421875 0,0.8203125 -0.058594,1.18359377 -0.082031,0.5390625 -0.4101563,0.714843755 -0.6679688,0.714843755 -0.2226562,0 -0.5625,-0.140625005 -0.6679687,-0.691406255 -0.058594,-0.35156247 -0.058594,-0.86718747 -0.058594,-1.20703127 0,-0.375 0,-0.75 0.046875,-1.0546875 0.1054688,-0.6914062 0.5390625,-0.7382812 0.6796875,-0.7382812 0.1875,0 0.5625,0.1054687 0.6679688,0.6679687 0.058594,0.328125 0.058594,0.7617188 0.058594,1.125 z m 2.3613282,0.46875 c 0,-0.4453125 -0.058594,-1.1484375 -0.375,-1.7929687 -0.3398438,-0.703125 -0.8320313,-1.078125 -0.890625,-1.078125 -0.035156,0 -0.058594,0.023437 -0.058594,0.058594 0,0.023437 0,0.035156 0.1054688,0.1289063 0.5625,0.5742187 0.890625,1.4882812 0.890625,2.6835937 0,0.97265627 -0.2109375,1.98046877 -0.9257813,2.7070313 -0.070312,0.070312 -0.070312,0.082031 -0.070312,0.09375 0,0.035156 0.023437,0.058594 0.058594,0.058594 0.058594,0 0.5742187,-0.3867187 0.9140625,-1.11328123 0.28125,-0.6328125 0.3515625,-1.265625 0.351562,-1.74609437 z m 0,0"
       style="fill:#000000;fill-opacity:1;fill-rule:nonzero;stroke:none"
       aria-label="(0)"
       transform="matrix(1.3333333,0,0,1.3333333,224.77599,237.05508)" />
    <path
       id="path22"
       d="m 5.9634987,-0.1519445 c 0,-0.0820313 -0.070312,-0.0820313 -0.1523437,-0.0820313 -0.3046875,-0.0117188 -0.421875,-0.0820312 -0.5390625,-0.375 L 4.123655,-3.3277257 c -0.011719,-0.035156 -0.046875,-0.09375 -0.046875,-0.1171875 0,0 0.011719,-0.023437 0.1523437,-0.1289063 l 0.796875,-0.6210937 c 1.1132813,-0.8671875 1.4765625,-1.1484375 2.0390625,-1.1953125 0.058594,-0.011719 0.140625,-0.011719 0.140625,-0.1523438 0,-0.046875 -0.023437,-0.09375 -0.082031,-0.09375 -0.09375,0 -0.1992188,0.023437 -0.28125,0.023437 H 6.5259987 c -0.2578125,0 -0.5273437,-0.023437 -0.7734375,-0.023437 -0.058594,0 -0.1640625,0 -0.1640625,0.1523438 0,0.082031 0.058594,0.09375 0.1054688,0.09375 0.09375,0 0.1992187,0.035156 0.1992187,0.1523437 0,0.1640625 -0.2460937,0.3632813 -0.3046875,0.4101563 l -3.234375,2.5195312 0.6796875,-2.71875 c 0.070312,-0.28125 0.09375,-0.3632812 0.6796875,-0.3632812 0.1523438,0 0.234375,0 0.234375,-0.1640625 0,-0.082031 -0.09375,-0.082031 -0.1289062,-0.082031 -0.1523438,0 -0.328125,0.023437 -0.4804688,0.023437 H 2.3658425 c -0.1523438,0 -0.328125,-0.023437 -0.4804688,-0.023437 -0.058594,0 -0.1523437,0 -0.1523437,0.1640625 0,0.082031 0.070312,0.082031 0.1992187,0.082031 0.5039063,0 0.5039063,0.058594 0.5039063,0.1523437 0,0 0,0.070312 -0.035156,0.1875 l -1.1132812,4.44140625 c -0.082031,0.29296875 -0.09375,0.375 -0.66796875,0.375 -0.1640625,0 -0.24609375,0 -0.24609375,0.140625 0,0.09375 0.0820313,0.09375 0.12890625,0.09375 0.15234375,0 0.31640625,-0.01171875 0.48046875,-0.01171875 h 0.9609375 c 0.1640625,0 0.328125,0.01171875 0.4921875,0.01171875 0.058594,0 0.1523437,0 0.1523437,-0.15234375 0,-0.0820313 -0.070312,-0.0820313 -0.1992187,-0.0820313 -0.5039063,0 -0.5039063,-0.0703125 -0.5039063,-0.15234375 0,-0.0585938 0.046875,-0.26953125 0.082031,-0.3984375 l 0.328125,-1.27734375 1.2539062,-0.984375 1.0078125,2.390625 c 0.023437,0.0585938 0.046875,0.10546875 0.046875,0.1640625 0,0.24609375 -0.328125,0.2578125 -0.4101562,0.2578125 -0.070312,0 -0.1523438,0 -0.1523438,0.15234375 0,0.08203125 0.09375,0.08203125 0.1171875,0.08203125 0.28125,0 0.5976563,-0.01171875 0.8789063,-0.01171875 H 5.436155 c 0.1171875,0 0.2578125,0.01171875 0.3867187,0.01171875 0.046875,0 0.140625,0 0.140625,-0.1523437 z m 0,0"
       style="fill:#000000;fill-opacity:1;fill-rule:nonzero;stroke:none"
       aria-label="K"
       transform="matrix(1.3333333,0,0,1.3333333,311.18929,241.04634)" />
    <path
       id="path23"
       d="m 1.8972863,1.3708024 c 0,-0.011719 0,-0.023437 -0.09375,-0.1171875 -0.7265625,-0.72656253 -0.9023438,-1.80468753 -0.9023438,-2.6835938 0,-0.9960937 0.2109375,-1.9921875 0.9257813,-2.71875 0.070312,-0.058594 0.070312,-0.070312 0.070312,-0.09375 0,-0.035156 -0.023437,-0.058594 -0.058594,-0.058594 -0.058594,0 -0.5742187,0.3984375 -0.9140625,1.125 -0.29296875,0.6210937 -0.36328125,1.265625 -0.36328125,1.7460937 0,0.44531252 0.0703125,1.13671877 0.38671875,1.78125002 0.3398438,0.70312498 0.8320313,1.07812498 0.890625,1.07812498 0.035156,0 0.058594,-0.011719 0.058594,-0.058593 z M 4.6248253,-2.91375e-4 V -0.17607263 h -0.1875 c -0.515625,0 -0.5273437,-0.0703125 -0.5273437,-0.28125 V -3.6682601 c 0,-0.140625 0,-0.1523438 -0.1289063,-0.1523438 -0.3632812,0.375 -0.8671875,0.375 -1.0429687,0.375 v 0.1757813 c 0.1054687,0 0.4453125,0 0.75,-0.1523438 v 2.96484377 c 0,0.2109375 -0.023437,0.28125 -0.5390625,0.28125 h -0.1875 v 0.175781255 c 0.2109375,-0.011718755 0.703125,-0.011718755 0.9375,-0.011718755 0.2226562,0 0.7265625,0 0.9257812,0.011718755 z M 6.7400597,-1.4299789 c 0,-0.4453125 -0.058594,-1.1484375 -0.375,-1.7929687 -0.3398438,-0.703125 -0.8320313,-1.078125 -0.890625,-1.078125 -0.035156,0 -0.058594,0.023437 -0.058594,0.058594 0,0.023437 0,0.035156 0.1054688,0.1289063 0.5625,0.5742187 0.890625,1.4882812 0.890625,2.6835937 0,0.97265627 -0.2109375,1.98046877 -0.9257813,2.7070313 -0.070312,0.070312 -0.070312,0.082031 -0.070312,0.09375 0,0.035156 0.023437,0.058594 0.058594,0.058594 0.058594,0 0.5742187,-0.3867187 0.9140625,-1.11328123 0.28125,-0.6328125 0.3515625,-1.265625 0.351562,-1.74609437 z m 0,0"
       style="fill:#000000;fill-opacity:1;fill-rule:nonzero;stroke:none"
       aria-label="(1)"
       transform="matrix(1.3333333,0,0,1.3333333,321.14216,237.05508)" />
    <path
       id="path24"
       d="m 5.9649066,-0.1519445 c 0,-0.0820313 -0.070312,-0.0820313 -0.1523438,-0.0820313 -0.3046875,-0.0117188 -0.421875,-0.0820312 -0.5390625,-0.375 L 4.1250628,-3.3277257 c -0.011719,-0.035156 -0.046875,-0.09375 -0.046875,-0.1171875 0,0 0.011719,-0.023437 0.1523438,-0.1289063 l 0.796875,-0.6210937 c 1.1132812,-0.8671875 1.4765625,-1.1484375 2.0390625,-1.1953125 0.058594,-0.011719 0.140625,-0.011719 0.140625,-0.1523438 0,-0.046875 -0.023437,-0.09375 -0.082031,-0.09375 -0.09375,0 -0.1992187,0.023437 -0.28125,0.023437 H 6.5274066 c -0.2578125,0 -0.5273438,-0.023437 -0.7734375,-0.023437 -0.058594,0 -0.1640625,0 -0.1640625,0.1523438 0,0.082031 0.058594,0.09375 0.1054687,0.09375 0.09375,0 0.1992188,0.035156 0.1992188,0.1523437 0,0.1640625 -0.2460938,0.3632813 -0.3046875,0.4101563 l -3.234375,2.5195312 0.6796875,-2.71875 c 0.070312,-0.28125 0.09375,-0.3632812 0.6796875,-0.3632812 0.1523437,0 0.234375,0 0.234375,-0.1640625 0,-0.082031 -0.09375,-0.082031 -0.1289063,-0.082031 -0.1523437,0 -0.328125,0.023437 -0.4804687,0.023437 H 2.3672503 c -0.1523437,0 -0.328125,-0.023437 -0.4804687,-0.023437 -0.058594,0 -0.1523438,0 -0.1523438,0.1640625 0,0.082031 0.070312,0.082031 0.1992188,0.082031 0.5039062,0 0.5039062,0.058594 0.5039062,0.1523437 0,0 0,0.070312 -0.035156,0.1875 l -1.1132813,4.44140625 c -0.082031,0.29296875 -0.09375,0.375 -0.66796874,0.375 -0.1640625,0 -0.24609375,0 -0.24609375,0.140625 0,0.09375 0.0820313,0.09375 0.12890625,0.09375 0.15234375,0 0.31640625,-0.01171875 0.48046875,-0.01171875 H 1.9453753 c 0.1640625,0 0.328125,0.01171875 0.4921875,0.01171875 0.058594,0 0.1523438,0 0.1523438,-0.15234375 0,-0.0820313 -0.070312,-0.0820313 -0.1992188,-0.0820313 -0.5039062,0 -0.5039062,-0.0703125 -0.5039062,-0.15234375 0,-0.0585938 0.046875,-0.26953125 0.082031,-0.3984375 l 0.328125,-1.27734375 1.2539063,-0.984375 1.0078125,2.390625 c 0.023437,0.0585938 0.046875,0.10546875 0.046875,0.1640625 0,0.24609375 -0.328125,0.2578125 -0.4101563,0.2578125 -0.070312,0 -0.1523437,0 -0.1523437,0.15234375 0,0.08203125 0.09375,0.08203125 0.1171875,0.08203125 0.28125,0 0.5976562,-0.01171875 0.8789062,-0.01171875 h 0.3984375 c 0.1171875,0 0.2578125,0.01171875 0.3867188,0.01171875 0.046875,0 0.140625,0 0.1406252,-0.1523437 z m 0,0"
       style="fill:#000000;fill-opacity:1;fill-rule:nonzero;stroke:none"
       aria-label="K"
       transform="matrix(1.3333333,0,0,1.3333333,386.77726,241.04634)" />
    <path
       id="path25"
       d="m 1.8992691,1.3708024 c 0,-0.011719 0,-0.023437 -0.09375,-0.1171875 -0.7265625,-0.72656253 -0.90234379,-1.80468753 -0.90234379,-2.6835938 0,-0.9960937 0.21093749,-1.9921875 0.92578129,-2.71875 0.070312,-0.058594 0.070312,-0.070312 0.070312,-0.09375 0,-0.035156 -0.023437,-0.058594 -0.058594,-0.058594 -0.058594,0 -0.5742187,0.3984375 -0.91406249,1.125 -0.29296875,0.6210937 -0.36328125,1.265625 -0.36328125,1.7460937 0,0.44531252 0.0703125,1.13671877 0.38671875,1.78125002 C 1.2898941,1.0543961 1.7820816,1.4293961 1.8406753,1.4293961 c 0.035156,0 0.058594,-0.011719 0.058594,-0.058594 z M 4.7996597,-0.99638513 H 4.6473159 c -0.023437,0.17578125 -0.070312,0.421875 -0.1171875,0.50390625 -0.046875,0.046875 -0.421875,0.046875 -0.5507812,0.046875 h -1.03125 l 0.609375,-0.58593752 c 0.890625,-0.796875 1.2421875,-1.1015625 1.2421875,-1.6757812 0,-0.65625 -0.515625,-1.1132813 -1.21875,-1.1132813 -0.6445313,0 -1.078125,0.5273438 -1.078125,1.0429688 0,0.3164062 0.2929687,0.3164062 0.3046875,0.3164062 0.1054687,0 0.3046875,-0.070312 0.3046875,-0.3046875 0,-0.140625 -0.1054688,-0.2929687 -0.3046875,-0.2929687 -0.046875,0 -0.058594,0 -0.070312,0 0.1289062,-0.3632813 0.4335937,-0.5859375 0.7734375,-0.5859375 0.515625,0 0.7617187,0.46875 0.7617187,0.9375 0,0.4570312 -0.28125,0.9140625 -0.5976562,1.265625 l -1.1015625,1.23046872 c -0.070312,0.0585938 -0.070312,0.0703125 -0.070312,0.210937505 H 4.6355972 Z M 6.7391128,-1.4299789 c 0,-0.4453125 -0.058594,-1.1484375 -0.375,-1.7929687 -0.3398437,-0.703125 -0.8320312,-1.078125 -0.890625,-1.078125 -0.035156,0 -0.058594,0.023437 -0.058594,0.058594 0,0.023437 0,0.035156 0.1054687,0.1289063 0.5625,0.5742187 0.890625,1.4882812 0.890625,2.6835937 0,0.97265627 -0.2109375,1.98046877 -0.9257812,2.7070313 -0.070312,0.070312 -0.070312,0.082031 -0.070312,0.09375 0,0.035156 0.023437,0.058594 0.058594,0.058594 0.058594,0 0.5742188,-0.3867187 0.9140625,-1.11328123 0.28125,-0.6328125 0.3515625,-1.265625 0.351562,-1.74609437 z m 0,0"
       style="fill:#000000;fill-opacity:1;fill-rule:nonzero;stroke:none"
       aria-label="(2)"
       transform="matrix(1.3333333,0,0,1.3333333,396.72936,237.05508)" />
    <path
       id="path26"
       d="m 5.9639597,-0.1519445 c 0,-0.0820313 -0.070312,-0.0820313 -0.1523438,-0.0820313 -0.3046875,-0.0117188 -0.421875,-0.0820312 -0.5390625,-0.375 L 4.1241159,-3.3277257 c -0.011719,-0.035156 -0.046875,-0.09375 -0.046875,-0.1171875 0,0 0.011719,-0.023437 0.1523438,-0.1289063 l 0.796875,-0.6210937 c 1.1132812,-0.8671875 1.4765625,-1.1484375 2.0390625,-1.1953125 0.058594,-0.011719 0.140625,-0.011719 0.140625,-0.1523438 0,-0.046875 -0.023437,-0.09375 -0.082031,-0.09375 -0.09375,0 -0.1992187,0.023437 -0.28125,0.023437 H 6.5264597 c -0.2578125,0 -0.5273438,-0.023437 -0.7734375,-0.023437 -0.058594,0 -0.1640625,0 -0.1640625,0.1523438 0,0.082031 0.058594,0.09375 0.1054687,0.09375 0.09375,0 0.1992188,0.035156 0.1992188,0.1523437 0,0.1640625 -0.2460938,0.3632813 -0.3046875,0.4101563 l -3.234375,2.5195312 0.6796875,-2.71875 c 0.070312,-0.28125 0.09375,-0.3632812 0.6796875,-0.3632812 0.1523437,0 0.234375,0 0.234375,-0.1640625 0,-0.082031 -0.09375,-0.082031 -0.1289063,-0.082031 -0.1523437,0 -0.328125,0.023437 -0.4804687,0.023437 H 2.3663034 c -0.1523437,0 -0.328125,-0.023437 -0.4804687,-0.023437 -0.058594,0 -0.1523438,0 -0.1523438,0.1640625 0,0.082031 0.070312,0.082031 0.1992188,0.082031 0.5039062,0 0.5039062,0.058594 0.5039062,0.1523437 0,0 0,0.070312 -0.035156,0.1875 l -1.1132813,4.44140625 c -0.082031,0.29296875 -0.09375,0.375 -0.66796871,0.375 -0.1640625,0 -0.24609375,0 -0.24609375,0.140625 0,0.09375 0.0820313,0.09375 0.12890625,0.09375 0.15234375,0 0.31640625,-0.01171875 0.48046875,-0.01171875 H 1.9444284 c 0.1640625,0 0.328125,0.01171875 0.4921875,0.01171875 0.058594,0 0.1523438,0 0.1523438,-0.15234375 0,-0.0820313 -0.070312,-0.0820313 -0.1992188,-0.0820313 -0.5039062,0 -0.5039062,-0.0703125 -0.5039062,-0.15234375 0,-0.0585938 0.046875,-0.26953125 0.082031,-0.3984375 l 0.328125,-1.27734375 1.2539063,-0.984375 1.0078125,2.390625 c 0.023437,0.0585938 0.046875,0.10546875 0.046875,0.1640625 0,0.24609375 -0.328125,0.2578125 -0.4101563,0.2578125 -0.070312,0 -0.1523437,0 -0.1523437,0.15234375 0,0.08203125 0.09375,0.08203125 0.1171875,0.08203125 0.28125,0 0.5976562,-0.01171875 0.8789062,-0.01171875 h 0.3984375 c 0.1171875,0 0.2578125,0.01171875 0.3867188,0.01171875 0.046875,0 0.140625,0 0.1406252,-0.1523437 z m 0,0"
       style="fill:#000000;fill-opacity:1;fill-rule:nonzero;stroke:none"
       aria-label="K"
       transform="matrix(1.3333333,0,0,1.3333333,462.36446,241.04634)" />
    <path
       id="path27"
       d="m 1.8983222,1.3708024 c 0,-0.011719 0,-0.023437 -0.09375,-0.1171875 -0.7265625,-0.72656253 -0.90234376,-1.80468753 -0.90234376,-2.6835938 0,-0.9960937 0.21093746,-1.9921875 0.92578126,-2.71875 0.070312,-0.058594 0.070312,-0.070312 0.070312,-0.09375 0,-0.035156 -0.023437,-0.058594 -0.058594,-0.058594 -0.058594,0 -0.5742187,0.3984375 -0.91406246,1.125 -0.29296875,0.6210937 -0.36328125,1.265625 -0.36328125,1.7460937 0,0.44531252 0.0703125,1.13671877 0.38671875,1.78125002 C 1.2889472,1.0543961 1.7811347,1.4293961 1.8397284,1.4293961 c 0.035156,0 0.058594,-0.011719 0.058594,-0.058594 z m 2.9384766,-2.35546878 c 0,-0.46875002 -0.3515625,-0.91406252 -0.9492188,-1.03125002 0.46875,-0.1523437 0.796875,-0.5625 0.796875,-1.0078125 0,-0.46875 -0.5039062,-0.796875 -1.0546875,-0.796875 -0.5742187,0 -1.0078125,0.3515625 -1.0078125,0.7851563 0,0.1875 0.1171875,0.2929687 0.2929688,0.2929687 0.1757812,0 0.2929687,-0.1171875 0.2929687,-0.2929687 0,-0.28125 -0.2695312,-0.28125 -0.3632812,-0.28125 0.1757812,-0.28125 0.5625,-0.3515625 0.7617187,-0.3515625 0.234375,0 0.5507813,0.1171875 0.5507813,0.6328125 0,0.070312 -0.011719,0.4101562 -0.1523438,0.65625 -0.1757812,0.28125 -0.375,0.2929687 -0.515625,0.2929687 -0.046875,0.011719 -0.1875,0.023437 -0.2226562,0.023437 -0.046875,0 -0.082031,0.011719 -0.082031,0.070312 0,0.058594 0.035156,0.058594 0.1289063,0.058594 h 0.2578125 c 0.46875,0 0.6796875,0.3867187 0.6796875,0.94921872 0,0.78515625 -0.3984375,0.94921875 -0.6445313,0.94921875 -0.2460937,0 -0.6796875,-0.09375 -0.8789062,-0.43359375 0.1992187,0.0234375 0.375,-0.09375 0.375,-0.31640625 0,-0.2109375 -0.1523438,-0.31640627 -0.3164063,-0.31640627 -0.140625,0 -0.3164062,0.070312 -0.3164062,0.32812502 0,0.515625 0.5273437,0.90234375 1.1484375,0.90234375 0.703125,0 1.21875,-0.52734375 1.2187497,-1.11328045 z M 6.7381659,-1.4299789 c 0,-0.4453125 -0.058594,-1.1484375 -0.375,-1.7929687 -0.3398437,-0.703125 -0.8320312,-1.078125 -0.890625,-1.078125 -0.035156,0 -0.058594,0.023437 -0.058594,0.058594 0,0.023437 0,0.035156 0.1054687,0.1289063 0.5625,0.5742187 0.890625,1.4882812 0.890625,2.6835937 0,0.97265627 -0.2109375,1.98046877 -0.9257812,2.7070313 -0.070312,0.070312 -0.070312,0.082031 -0.070312,0.09375 0,0.035156 0.023437,0.058594 0.058594,0.058594 0.058594,0 0.5742188,-0.3867187 0.9140625,-1.11328123 0.28125,-0.6328125 0.3515625,-1.265625 0.351562,-1.74609437 z m 0,0"
       style="fill:#000000;fill-opacity:1;fill-rule:nonzero;stroke:none"
       aria-label="(3)"
       transform="matrix(1.3333333,0,0,1.3333333,472.31656,237.05508)" />
    <path
       id="path28"
       d="m 5.9653003,-0.1519445 c 0,-0.0820313 -0.070312,-0.0820313 -0.1523437,-0.0820313 -0.3046875,-0.0117188 -0.421875,-0.0820312 -0.5390625,-0.375 L 4.1254566,-3.3277257 c -0.011719,-0.035156 -0.046875,-0.09375 -0.046875,-0.1171875 0,0 0.011719,-0.023437 0.1523437,-0.1289063 l 0.796875,-0.6210937 c 1.1132813,-0.8671875 1.4765625,-1.1484375 2.0390625,-1.1953125 0.058594,-0.011719 0.140625,-0.011719 0.140625,-0.1523438 0,-0.046875 -0.023437,-0.09375 -0.082031,-0.09375 -0.09375,0 -0.1992188,0.023437 -0.28125,0.023437 H 6.5278003 c -0.2578125,0 -0.5273437,-0.023437 -0.7734375,-0.023437 -0.058594,0 -0.1640625,0 -0.1640625,0.1523438 0,0.082031 0.058594,0.09375 0.1054688,0.09375 0.09375,0 0.1992187,0.035156 0.1992187,0.1523437 0,0.1640625 -0.2460937,0.3632813 -0.3046875,0.4101563 l -3.234375,2.5195312 0.6796875,-2.71875 c 0.070312,-0.28125 0.09375,-0.3632812 0.6796875,-0.3632812 0.1523438,0 0.234375,0 0.234375,-0.1640625 0,-0.082031 -0.09375,-0.082031 -0.1289062,-0.082031 -0.1523438,0 -0.328125,0.023437 -0.4804688,0.023437 H 2.3676441 c -0.1523438,0 -0.328125,-0.023437 -0.4804688,-0.023437 -0.058594,0 -0.1523437,0 -0.1523437,0.1640625 0,0.082031 0.070312,0.082031 0.1992187,0.082031 0.5039063,0 0.5039063,0.058594 0.5039063,0.1523437 0,0 0,0.070312 -0.035156,0.1875 l -1.1132812,4.44140625 c -0.082031,0.29296875 -0.09375,0.375 -0.66796879,0.375 -0.1640625,0 -0.24609375,0 -0.24609375,0.140625 0,0.09375 0.0820313,0.09375 0.12890625,0.09375 0.15234375,0 0.31640625,-0.01171875 0.48046875,-0.01171875 H 1.9457691 c 0.1640625,0 0.328125,0.01171875 0.4921875,0.01171875 0.058594,0 0.1523437,0 0.1523437,-0.15234375 0,-0.0820313 -0.070312,-0.0820313 -0.1992187,-0.0820313 -0.5039063,0 -0.5039063,-0.0703125 -0.5039063,-0.15234375 0,-0.0585938 0.046875,-0.26953125 0.082031,-0.3984375 l 0.328125,-1.27734375 1.2539062,-0.984375 1.0078125,2.390625 c 0.023437,0.0585938 0.046875,0.10546875 0.046875,0.1640625 0,0.24609375 -0.328125,0.2578125 -0.4101562,0.2578125 -0.070312,0 -0.1523438,0 -0.1523438,0.15234375 0,0.08203125 0.09375,0.08203125 0.1171875,0.08203125 0.28125,0 0.5976563,-0.01171875 0.8789063,-0.01171875 h 0.3984375 c 0.1171875,0 0.2578125,0.01171875 0.3867187,0.01171875 0.046875,0 0.140625,0 0.1406253,-0.1523437 z m 0,0"
       style="fill:#000000;fill-opacity:1;fill-rule:nonzero;stroke:none"
       aria-label="K"
       transform="matrix(1.3333333,0,0,1.3333333,558.72986,241.04634)" />
    <path
       id="path29"
       d="m 1.8996628,1.3708024 c 0,-0.011719 0,-0.023437 -0.09375,-0.1171875 -0.7265625,-0.72656253 -0.90234374,-1.80468753 -0.90234374,-2.6835938 0,-0.9960937 0.21093754,-1.9921875 0.92578124,-2.71875 0.070312,-0.058594 0.070312,-0.070312 0.070312,-0.09375 0,-0.035156 -0.023437,-0.058594 -0.058594,-0.058594 -0.058594,0 -0.5742188,0.3984375 -0.91406254,1.125 -0.29296875,0.6210937 -0.36328125,1.265625 -0.36328125,1.7460937 0,0.44531252 0.0703125,1.13671877 0.38671875,1.78125002 C 1.2902878,1.0543961 1.7824753,1.4293961 1.8410691,1.4293961 c 0.035156,0 0.058594,-0.011719 0.058594,-0.058594 z M 4.9172409,-0.94951013 V -1.1252914 H 4.3430222 v -2.6015625 c 0,-0.1171875 0,-0.1523437 -0.082031,-0.1523437 -0.058594,0 -0.070312,0 -0.1171875,0.070312 l -1.7578125,2.6835937 v 0.17578127 h 1.5234375 v 0.50390625 c 0,0.19921875 -0.011719,0.26953125 -0.4335937,0.26953125 H 3.3469284 v 0.175781255 c 0.234375,-0.011718755 0.5390625,-0.011718755 0.7734375,-0.011718755 0.2460938,0 0.5507813,0 0.7851563,0.011718755 V -0.17607263 H 4.7883347 c -0.4335938,0 -0.4453125,-0.0703125 -0.4453125,-0.26953125 V -0.94951013 Z M 3.9445847,-1.1252914 h -1.40625 l 1.40625,-2.1328125 z m 2.7949219,-0.3046875 c 0,-0.4453125 -0.058594,-1.1484375 -0.375,-1.7929687 -0.3398438,-0.703125 -0.8320313,-1.078125 -0.890625,-1.078125 -0.035156,0 -0.058594,0.023437 -0.058594,0.058594 0,0.023437 0,0.035156 0.1054688,0.1289063 0.5625,0.5742187 0.890625,1.4882812 0.890625,2.6835937 0,0.97265627 -0.2109375,1.98046877 -0.9257813,2.7070313 -0.070312,0.070312 -0.070312,0.082031 -0.070312,0.09375 0,0.035156 0.023437,0.058594 0.058594,0.058594 0.058594,0 0.5742187,-0.3867187 0.9140625,-1.11328123 0.28125,-0.6328125 0.3515625,-1.265625 0.351562,-1.74609437 z m 0,0"
       style="fill:#000000;fill-opacity:1;fill-rule:nonzero;stroke:none"
       aria-label="(4)"
       transform="matrix(1.3333333,0,0,1.3333333,568.68196,237.05508)" />
    <path
       id="path30"
       d="m 6.1059441,-4.4067367 c 0,-0.6445312 -0.5507813,-1.2304687 -1.5820313,-1.2304687 H 1.9692253 c -0.1523437,0 -0.2226562,0 -0.2226562,0.1640625 0,0.082031 0.070312,0.082031 0.1875,0.082031 0.5039062,0 0.5039062,0.058594 0.5039062,0.1523438 0,0 0,0.070312 -0.023437,0.1875 l -1.1132812,4.44140621 c -0.082031,0.29296875 -0.09375,0.375 -0.66796879,0.375 -0.1640625,0 -0.24609375,0 -0.24609375,0.140625 0,0.0937500025 0.0703125,0.0937500025 0.12890625,0.0937500025 0.15234375,0 0.31640625,-0.0117187525 0.46875,-0.0117187525 H 1.9575066 c 0.1523437,0 0.328125,0.0117187525 0.4804687,0.0117187525 0.070312,0 0.1640625,0 0.1640625,-0.1523437525 0,-0.0820313 -0.082031,-0.0820313 -0.1992187,-0.0820313 -0.4921875,0 -0.5039063,-0.0585938 -0.5039063,-0.140625 0,-0.046875 0.011719,-0.10546875 0.011719,-0.140625 L 2.4379753,-2.6254867 h 1.3945313 c 1.1367187,0 2.2734375,-0.84375 2.2734375,-1.78125 z M 5.4145378,-4.5825179 c 0,0.2226562 -0.1054687,0.9140625 -0.4921875,1.3007812 -0.140625,0.140625 -0.5273437,0.4570313 -1.2890625,0.4570313 H 2.4731316 l 0.5625,-2.25 c 0.070312,-0.3046875 0.1054687,-0.3164063 0.4335937,-0.3164063 h 0.8085938 c 0.6210937,0 1.1367187,0.1875 1.1367187,0.8085938 z m 0,0"
       style="fill:#000000;fill-opacity:1;fill-rule:nonzero;stroke:none"
       aria-label="P"
       transform="matrix(1.3333333,0,0,1.3333333,183.99546,277.49674)" />
    <path
       id="path31"
       d="m 172.84,-205.305 c 0,2.313 -1.875,4.188 -4.188,4.188 -2.312,0 -4.187,-1.875 -4.187,-4.188 0,-2.312 1.875,-4.187 4.187,-4.187 2.313,0 4.188,1.875 4.188,4.187 z"
       style="fill:#ffffff;fill-opacity:1;fill-rule:nonzero;stroke:#000000;stroke-width:0.458281;stroke-linecap:butt;stroke-linejoin:miter;stroke-miterlimit:10;stroke-dasharray:none;stroke-opacity:1"
       transform="scale(1.3333333,-1.3333333)" />
    <path
       id="path32"
       d="m 168.652,-201.094 v -8.422"
       style="fill:none;stroke:#000000;stroke-width:0.458281;stroke-linecap:butt;stroke-linejoin:miter;stroke-miterlimit:10;stroke-dasharray:none;stroke-opacity:1"
       transform="scale(1.3333333,-1.3333333)" />
    <path
       id="path33"
       d="m 172.863,-205.305 h -8.422"
       style="fill:none;stroke:#000000;stroke-width:0.458281;stroke-linecap:butt;stroke-linejoin:miter;stroke-miterlimit:10;stroke-dasharray:none;stroke-opacity:1"
       transform="scale(1.3333333,-1.3333333)" />
    <path
       id="path34"
       d="m 194.172,-198.602 h -6.25 c -1.266,0 -2.293,-1.023 -2.293,-2.289 v -8.828 c 0,-1.265 1.027,-2.289 2.293,-2.289 h 6.25 c 1.266,0 2.289,1.024 2.289,2.289 v 8.828 c 0,1.266 -1.023,2.289 -2.289,2.289 z"
       style="fill:none;stroke:#000000;stroke-width:0.458281;stroke-linecap:butt;stroke-linejoin:miter;stroke-miterlimit:10;stroke-dasharray:none;stroke-opacity:1"
       transform="scale(1.3333333,-1.3333333)" />
    <path
       id="path35"
       d="m 4.4516925,-1.8872054 c 0,-0.3515625 -0.082031,-0.65625 -0.3984375,-0.9609375 C 3.8891925,-3.0239242 3.7368487,-3.0590804 2.97513,-3.2582992 2.4243487,-3.4106429 2.3540362,-3.4340804 2.2016925,-3.5629867 2.0610675,-3.7036117 1.9555987,-3.9028304 1.9555987,-4.1840804 c 0,-0.6914063 0.703125,-1.40625 1.4882813,-1.40625 0.8085937,0 1.1835937,0.5039062 1.1835937,1.2890625 0,0.2109375 -0.046875,0.4335937 -0.046875,0.46875 0,0.070312 0.070312,0.070312 0.09375,0.070312 0.082031,0 0.082031,-0.023437 0.1171875,-0.1523438 l 0.4453125,-1.8164062 c 0,-0.082031 -0.070312,-0.082031 -0.070312,-0.082031 -0.035156,0 -0.046875,0.011719 -0.140625,0.140625 l -0.398438,0.4921877 C 4.3579425,-5.7192367 3.8071612,-5.8129867 3.4673175,-5.8129867 c -1.0546875,0 -2.0039063,0.9609375 -2.0039063,1.8984375 0,0.609375 0.375,0.9726563 0.7734375,1.1132813 0.09375,0.035156 0.5859375,0.1640625 0.8320313,0.2226562 0.421875,0.1171875 0.5273437,0.1523438 0.703125,0.3398438 0.035156,0.035156 0.1992187,0.2226562 0.1992187,0.609375 0,0.77343746 -0.7148437,1.55859371 -1.5351562,1.55859371 -0.6796875,0 -1.4296875,-0.28125 -1.4296875,-1.20703121 0,-0.1523438 0.035156,-0.3515625 0.058594,-0.4335938 0,-0.035156 0.011719,-0.082031 0.011719,-0.082031 0,-0.035156 -0.023437,-0.082031 -0.09375,-0.082031 -0.0703125,0 -0.0820313,0.023437 -0.10546875,0.1640625 l -0.421875,1.68750001 -0.0351563,0.1171875 c 0,0.08203125 0.0820313,0.08203125 0.0820313,0.08203125 0.0351563,0 0.0351563,-0.0117188 0.140625,-0.12890625 L 1.0180987,-0.45751794 c 0.1992188,0.3046875 0.6328125,0.6328125 1.3945313,0.6328125 1.0664062,0 2.0390625,-1.03125 2.0390625,-2.06249996 z m 0,0"
       style="fill:#000000;fill-opacity:1;fill-rule:nonzero;stroke:none"
       aria-label="S"
       transform="matrix(1.3333333,0,0,1.3333333,251.09566,277.49674)" />
    <path
       id="path36"
       d="m 271.234,-197.156 h -60.613 c -1.266,0 -2.293,-1.024 -2.293,-2.289 v -11.719 c 0,-1.266 1.027,-2.289 2.293,-2.289 h 60.613 c 1.266,0 2.293,1.023 2.293,2.289 v 11.719 c 0,1.265 -1.027,2.289 -2.293,2.289 z"
       style="fill:none;stroke:#000000;stroke-width:0.458281;stroke-linecap:butt;stroke-linejoin:miter;stroke-miterlimit:10;stroke-dasharray:none;stroke-opacity:1"
       transform="scale(1.3333333,-1.3333333)" />
    <path
       id="path37"
       d="m 7.0895784,-4.7569445 0.2109375,-1.7226562 c 0,-0.035156 0.011719,-0.1523438 0.011719,-0.1523438 0,-0.1054687 -0.082031,-0.1054687 -0.2578125,-0.1054687 h -4.699219 c -0.1875,0 -0.28125,0 -0.28125,0.1757812 0,0.1054688 0.070312,0.1054688 0.234375,0.1054688 0.609375,0 0.609375,0.070312 0.609375,0.1757812 0,0.046875 -0.011719,0.09375 -0.035156,0.1992188 l -1.3359375,5.34374995 c -0.09375,0.3515625 -0.1054688,0.4453125 -0.80859376,0.4453125 -0.1875,0 -0.28125,0 -0.28125,0.1875 0,0.10546875 0.0820313,0.10546875 0.15234375,0.10546875 0.1875,0 0.38671875,-0.0234375 0.57421871,-0.0234375 h 1.2773438 c 0.2226562,0 0.4570312,0.0234375 0.6796875,0.0234375 0.082031,0 0.2109375,0 0.2109375,-0.17578125 0,-0.1171875 -0.058594,-0.1171875 -0.28125,-0.1171875 -0.7851563,0 -0.796875,-0.0585938 -0.796875,-0.2109375 0,-0.046875 0.011719,-0.12890625 0.035156,-0.19921875 l 0.6328125,-2.5195312 h 0.9492188 c 0.75,0 0.8085937,0.1640625 0.8085937,0.4453125 0,0.1289062 -0.011719,0.2695312 -0.070312,0.4921875 -0.011719,0.035156 -0.023437,0.1054687 -0.023437,0.1054687 0,0.070312 0.035156,0.1054688 0.1054688,0.1054688 0.082031,0 0.09375,-0.035156 0.1289062,-0.1992188 l 0.5742188,-2.296875 c 0,-0.046875 -0.023437,-0.1054687 -0.09375,-0.1054687 -0.09375,0 -0.1054688,0.046875 -0.140625,0.2109375 -0.2109375,0.7382812 -0.4101563,0.9492187 -1.265625,0.9492187 H 3.0114534 l 0.6445313,-2.5664062 c 0.082031,-0.3398438 0.1054687,-0.375 0.515625,-0.375 h 1.3242187 c 1.2421875,0 1.4179688,0.3632812 1.4179688,1.0664062 0,0.058594 0,0.28125 -0.035156,0.5390625 -0.011719,0.035156 -0.023437,0.1640625 -0.023437,0.2109375 0,0.070312 0.046875,0.1054688 0.1054688,0.1054688 0.070312,0 0.1054687,-0.035156 0.1289054,-0.2226563 z m 0,0"
       style="fill:#000000;fill-opacity:1;fill-rule:nonzero;stroke:none"
       aria-label="F"
       transform="matrix(1.3333333,0,0,1.3333333,303.37926,278.24884)" />
    <g
       id="g37"
       aria-label="=R"
       transform="matrix(1.3333333,0,0,1.3333333,315.33466,276.87344)">
      <path
         id="path38"
         d="m 5.8368956,-2.8230507 c 0,-0.1523438 -0.140625,-0.1523438 -0.2695312,-0.1523438 H 0.71580188 c -0.1171875,0 -0.26953125,0 -0.26953125,0.1523438 0,0.1523437 0.140625,0.1523437 0.26953125,0.1523437 H 5.5673644 c 0.1171875,0 0.2695312,0 0.2695312,-0.1523437 z m 0,1.5351562 c 0,-0.1523437 -0.140625,-0.1523437 -0.2695312,-0.1523437 H 0.71580188 c -0.1171875,0 -0.26953125,0 -0.26953125,0.140625 0,0.1640625 0.140625,0.1640625 0.26953125,0.1640625 H 5.5673644 c 0.1171875,0 0.2695312,0 0.2695312,-0.1523438 z m 0,0"
         style="fill:#000000;fill-opacity:1;fill-rule:nonzero;stroke:none" />
      <path
         id="path39"
         d="m 13.85838,-4.5339882 c 0,0.421875 -0.210937,1.6289062 -1.875,1.6289062 h -0.925781 l 0.539062,-2.1679687 c 0.07031,-0.3046875 0.105469,-0.3164063 0.433594,-0.3164063 h 0.585938 c 0.714843,0 1.242187,0.2109375 1.242187,0.8554688 z m 0.808594,3.77343745 c 0,-0.0585938 -0.04687,-0.0820313 -0.09375,-0.0820313 -0.05859,0 -0.08203,0.046875 -0.09375,0.1171875 -0.199219,0.5859375 -0.539063,0.73828125 -0.75,0.73828125 -0.199219,0 -0.328125,-0.09375 -0.328125,-0.46875 0,-0.19921875 0.09375,-0.9492187 0.105469,-0.9843749 0.03516,-0.3046875 0.03516,-0.3398438 0.03516,-0.4101563 0,-0.5976562 -0.480469,-0.8554687 -0.796875,-0.9492187 1.019531,-0.2226564 1.828125,-0.890625 1.828125,-1.59375 0,-0.6445313 -0.65625,-1.2421875 -1.804688,-1.2421875 h -2.238281 c -0.164062,0 -0.234375,0 -0.234375,0.1640625 0,0.082031 0.05859,0.082031 0.210938,0.082031 0.492187,0 0.492187,0.058594 0.492187,0.1523438 0,0 0,0.070312 -0.02344,0.1875 L 9.8622863,-0.608207 c -0.082031,0.29296875 -0.09375,0.375 -0.6679688,0.375 -0.1875,0 -0.2460937,0 -0.2460937,0.15234375 0,0.08203125 0.09375,0.08203125 0.1171875,0.08203125 0.1523437,0 0.3164062,-0.01171875 0.4804687,-0.01171875 h 0.972656 c 0.152344,0 0.316407,0.01171875 0.46875,0.01171875 0.07031,0 0.152344,0 0.152344,-0.15234375 0,-0.0820313 -0.07031,-0.0820313 -0.199219,-0.0820313 -0.492187,0 -0.492187,-0.0703125 -0.492187,-0.15234375 0,0 0,-0.0703125 0.01172,-0.12890625 l 0.550781,-2.22656255 h 0.996094 c 0.773437,0 0.925781,0.5039064 0.925781,0.7734376 0,0.1171875 -0.08203,0.4453125 -0.140625,0.65625 -0.09375,0.37499995 -0.117188,0.46874995 -0.117188,0.63281245 0,0.5859375 0.480469,0.85546875 1.03125,0.85546875 0.667969,0 0.960938,-0.8203125 0.960938,-0.9375 z m 0,0"
         style="fill:#000000;fill-opacity:1;fill-rule:nonzero;stroke:none" />
    </g>
    <path
       id="path40"
       d="m 2.4965394,-2.1557726 c 0,-0.1992188 -0.1757813,-0.375 -0.46875,-0.375 -0.375,0 -0.6328125,0.28125 -0.7382813,0.4453125 -0.046875,-0.2578125 -0.2460937,-0.4453125 -0.51562497,-0.4453125 -0.26953125,0 -0.375,0.2226562 -0.43359375,0.328125 -0.09375,0.1875 -0.17578125,0.5390625 -0.17578125,0.5507812 0,0.058594 0.0703125,0.058594 0.0703125,0.058594 0.0585937,0 0.0585937,0 0.09375,-0.1289063 0.10546875,-0.4101562 0.2109375,-0.6796875 0.421875,-0.6796875 0.09375,0 0.17578125,0.046875 0.17578125,0.2578125 0,0.1171875 -0.0117188,0.1875 -0.09375,0.4804688 l -0.328125,1.32421873 c -0.0117188,0.0820313 -0.046875,0.22265625 -0.046875,0.24609375 0,0.10546875 0.0703125,0.15234375 0.1640625,0.15234375 0.0703125,0 0.1640625,-0.046875 0.2109375,-0.15234375 0.0117188,-0.0234375 0.21093752,-0.80859375 0.22265622,-0.91406248 l 0.1875,-0.7382813 c 0.023437,-0.082031 0.1875,-0.3398437 0.3164063,-0.46875 0.046875,-0.046875 0.2226562,-0.1875 0.46875,-0.1875 0.140625,0 0.234375,0.058594 0.234375,0.058594 -0.1757813,0.035156 -0.2929688,0.1757812 -0.2929688,0.3164062 0,0.09375 0.058594,0.1992188 0.2109375,0.1992188 0.1640625,0 0.3164063,-0.1289063 0.3164063,-0.3281254 z m 0,0"
       style="fill:#000000;fill-opacity:1;fill-rule:nonzero;stroke:none"
       aria-label="r"
       transform="matrix(1.3333333,0,0,1.3333333,335.05409,272.88218)" />
    <path
       id="path41"
       d="m 307.551,-198.602 h -19.867 c -1.266,0 -2.289,-1.023 -2.289,-2.289 v -8.828 c 0,-1.265 1.023,-2.289 2.289,-2.289 h 19.867 c 1.265,0 2.293,1.024 2.293,2.289 v 8.828 c 0,1.266 -1.028,2.289 -2.293,2.289 z"
       style="fill:none;stroke:#000000;stroke-width:0.458281;stroke-linecap:butt;stroke-linejoin:miter;stroke-miterlimit:10;stroke-dasharray:none;stroke-opacity:1"
       transform="scale(1.3333333,-1.3333333)" />
    <path
       id="path42"
       d="m 6.9958706,-2.5889757 c 0,-0.09375 -0.1054687,-0.09375 -0.1289062,-0.09375 -0.1757813,0 -0.3632813,0.023437 -0.5390625,0.023437 H 5.7888394 l -1.2539063,-0.023437 c -0.09375,0 -0.2109375,0 -0.2109375,0.1757812 0,0.1054688 0.082031,0.1171875 0.082031,0.1171875 h 0.2460937 c 0.7851563,0 0.7851563,0.070312 0.7851563,0.2226563 0,0 -0.1875,1.0078125 -0.375,1.3007812 -0.375,0.5625 -1.1601563,0.78515625 -1.7460938,0.78515625 -0.7617187,0 -2.0039062,-0.3984375 -2.0039062,-2.10937495 0,-0.65625 0.2460937,-2.1796875 1.2070312,-3.2929688 0.6210938,-0.7148437 1.5351563,-1.1953125 2.4140625,-1.1953125 1.171875,0 1.5820313,0.9960938 1.5820313,1.9101563 0,0.1523437 -0.035156,0.375 -0.035156,0.515625 0,0.082031 0.09375,0.082031 0.1289063,0.082031 0.1054687,0 0.1171875,-0.011719 0.1523437,-0.1875 l 0.6210938,-2.5195312 c 0,-0.09375 -0.082031,-0.09375 -0.082031,-0.09375 0,0 -0.058594,0 -0.140625,0.1054687 L 6.4802456,-6.046007 C 6.4216519,-6.1280382 6.2341519,-6.4796007 5.8474331,-6.702257 5.4138394,-6.9717882 4.9919644,-6.9717882 4.8396206,-6.9717882 c -2.1210937,0 -4.34765622,2.15625 -4.34765622,4.5 0,1.6289062 1.13671872,2.6835937 2.61328122,2.6835937 0.7148438,0 1.6171875,-0.24609375 2.109375,-0.8671875 0.1171875,0.375 0.328125,0.64453125 0.3984375,0.64453125 0.046875,0 0.070312,-0.0234375 0.070312,-0.0234375 0.011719,-0.0234375 0.09375,-0.375 0.140625,-0.55078125 l 0.1523438,-0.6328125 0.1875,-0.7617187 c 0.1054687,-0.375 0.1289062,-0.4101563 0.6679687,-0.4101563 0.035156,0 0.1640625,0 0.164063,-0.1992187 z m 0,0"
       style="fill:#000000;fill-opacity:1;fill-rule:nonzero;stroke:none"
       aria-label="G"
       transform="matrix(1.3333333,0,0,1.3333333,391.72686,278.24884)" />
    <path
       id="path43"
       d="M 384.617,-197.156 H 324 c -1.266,0 -2.289,-1.024 -2.289,-2.289 v -11.719 c 0,-1.266 1.023,-2.289 2.289,-2.289 h 60.617 c 1.266,0 2.289,1.023 2.289,2.289 v 11.719 c 0,1.265 -1.023,2.289 -2.289,2.289 z"
       style="fill:none;stroke:#000000;stroke-width:0.458281;stroke-linecap:butt;stroke-linejoin:miter;stroke-miterlimit:10;stroke-dasharray:none;stroke-opacity:1"
       transform="scale(1.3333333,-1.3333333)" />
    <path
       id="path44"
       d="m 342.199,-201.773 h 6.668"
       style="fill:none;stroke:#000000;stroke-width:0.22885;stroke-linecap:butt;stroke-linejoin:miter;stroke-miterlimit:10;stroke-dasharray:none;stroke-opacity:1"
       transform="scale(1.3333333,-1.3333333)" />
    <path
       id="path45"
       d="m 7.0906144,-4.7586039 0.2109375,-1.7226562 c 0,-0.035156 0.011719,-0.1523438 0.011719,-0.1523438 0,-0.1054687 -0.082031,-0.1054687 -0.2578125,-0.1054687 h -4.699219 c -0.1875,0 -0.28125,0 -0.28125,0.1757812 0,0.1054688 0.070312,0.1054688 0.234375,0.1054688 0.609375,0 0.609375,0.070312 0.609375,0.1757812 0,0.046875 -0.011719,0.09375 -0.035156,0.1992188 l -1.3359375,5.34374997 c -0.09375,0.3515625 -0.1054687,0.4453125 -0.80859372,0.4453125 -0.1875,0 -0.28125,0 -0.28125,0.1875 0,0.105468755 0.0820313,0.105468755 0.15234375,0.105468755 0.1875,0 0.38671875,-0.023437505 0.57421877,-0.023437505 h 1.2773437 c 0.2226563,0 0.4570313,0.023437505 0.6796875,0.023437505 0.082031,0 0.2109375,0 0.2109375,-0.175781255 0,-0.1171875 -0.058594,-0.1171875 -0.28125,-0.1171875 -0.7851562,0 -0.796875,-0.0585938 -0.796875,-0.2109375 0,-0.046875 0.011719,-0.12890625 0.035156,-0.19921875 L 2.9421769,-3.2234476 h 0.9492187 c 0.75,0 0.8085938,0.1640625 0.8085938,0.4453125 0,0.1289062 -0.011719,0.2695312 -0.070312,0.4921875 -0.011719,0.035156 -0.023437,0.1054687 -0.023437,0.1054687 0,0.070312 0.035156,0.1054688 0.1054687,0.1054688 0.082031,0 0.09375,-0.035156 0.1289063,-0.1992188 l 0.5742187,-2.296875 c 0,-0.046875 -0.023437,-0.1054687 -0.09375,-0.1054687 -0.09375,0 -0.1054687,0.046875 -0.140625,0.2109375 -0.2109375,0.7382812 -0.4101562,0.9492187 -1.265625,0.9492187 H 3.0124894 l 0.6445312,-2.5664062 c 0.082031,-0.3398438 0.1054688,-0.375 0.515625,-0.375 h 1.3242188 c 1.2421875,0 1.4179687,0.3632812 1.4179687,1.0664062 0,0.058594 0,0.28125 -0.035156,0.5390625 -0.011719,0.035156 -0.023437,0.1640625 -0.023437,0.2109375 0,0.070312 0.046875,0.1054688 0.1054687,0.1054688 0.070312,0 0.1054688,-0.035156 0.1289056,-0.2226563 z m 0,0"
       style="fill:#000000;fill-opacity:1;fill-rule:nonzero;stroke:none"
       aria-label="F"
       transform="matrix(1.3333333,0,0,1.3333333,454.55366,279.11824)" />
    <path
       id="path46"
       d="m 5.8373566,-2.8247101 c 0,-0.1523438 -0.140625,-0.1523438 -0.2695313,-0.1523438 H 0.71626281 c -0.1171875,0 -0.26953125,0 -0.26953125,0.1523438 0,0.1523437 0.140625,0.1523437 0.26953125,0.1523437 H 5.5678253 c 0.1171875,0 0.2695313,0 0.2695313,-0.1523437 z m 0,1.5351562 c 0,-0.1523437 -0.140625,-0.1523437 -0.2695313,-0.1523437 H 0.71626281 c -0.1171875,0 -0.26953125,0 -0.26953125,0.140625 0,0.1640625 0.140625,0.1640625 0.26953125,0.1640625 H 5.5678253 c 0.1171875,0 0.2695313,0 0.2695313,-0.1523438 z m 0,0"
       style="fill:#000000;fill-opacity:1;fill-rule:nonzero;stroke:none"
       aria-label="="
       transform="matrix(1.3333333,0,0,1.3333333,466.50983,277.74284)" />
    <path
       id="path47"
       d="m 359.863,-201.867 h 4.75"
       style="fill:none;stroke:#000000;stroke-width:0.22885;stroke-linecap:butt;stroke-linejoin:miter;stroke-miterlimit:10;stroke-dasharray:none;stroke-opacity:1"
       transform="scale(1.3333333,-1.3333333)" />
    <path
       id="path48"
       d="m 5.2967347,-4.5356476 c 0,0.421875 -0.2109375,1.6289062 -1.875,1.6289062 H 2.4959534 l 0.5390625,-2.1679687 c 0.070312,-0.3046875 0.1054688,-0.3164063 0.4335938,-0.3164063 h 0.5859375 c 0.7148437,0 1.2421875,0.2109375 1.2421875,0.8554688 z m 0.8085937,3.77343748 c 0,-0.0585938 -0.046875,-0.0820313 -0.09375,-0.0820313 -0.058594,0 -0.082031,0.046875 -0.09375,0.1171875 -0.1992187,0.5859375 -0.5390625,0.73828125 -0.75,0.73828125 -0.1992187,0 -0.328125,-0.09375 -0.328125,-0.46875 0,-0.19921875 0.09375,-0.94921873 0.1054688,-0.98437493 0.035156,-0.3046875 0.035156,-0.3398438 0.035156,-0.4101563 0,-0.5976562 -0.4804687,-0.8554687 -0.796875,-0.9492187 1.0195313,-0.2226563 1.828125,-0.890625 1.828125,-1.59375 0,-0.6445313 -0.65625,-1.2421875 -1.8046875,-1.2421875 h -2.238281 c -0.1640625,0 -0.234375,0 -0.234375,0.1640625 0,0.082031 0.058594,0.082031 0.2109375,0.082031 0.4921875,0 0.4921875,0.058594 0.4921875,0.1523438 0,0 0,0.070312 -0.023437,0.1875 l -1.1132813,4.44140618 c -0.082031,0.29296875 -0.09375,0.375 -0.66796871,0.375 -0.1875,0 -0.24609375,0 -0.24609375,0.15234375 0,0.082031245 0.09375,0.082031245 0.1171875,0.082031245 0.15234375,0 0.31640625,-0.011718745 0.48046875,-0.011718745 H 1.9568909 c 0.1523438,0 0.3164063,0.011718745 0.46875,0.011718745 0.070312,0 0.1523438,0 0.1523438,-0.152343745 0,-0.0820313 -0.070312,-0.0820313 -0.1992188,-0.0820313 -0.4921875,0 -0.4921875,-0.0703125 -0.4921875,-0.15234375 0,0 0,-0.0703125 0.011719,-0.12890625 l 0.550781,-2.22656223 h 0.9960938 c 0.7734375,0 0.9257812,0.5039063 0.9257812,0.7734375 0,0.1171875 -0.082031,0.4453125 -0.140625,0.65625 -0.09375,0.37500003 -0.1171875,0.46875003 -0.1171875,0.63281253 0,0.5859375 0.4804688,0.85546875 1.03125,0.85546875 0.6679688,0 0.9609375,-0.8203125 0.9609375,-0.9375 z m 0,0"
       style="fill:#000000;fill-opacity:1;fill-rule:nonzero;stroke:none"
       aria-label="R"
       transform="matrix(1.3333333,0,0,1.3333333,477.94159,277.74284)" />
    <path
       id="path49"
       d="m 2.4970003,-2.1563789 c 0,-0.1992187 -0.1757812,-0.375 -0.46875,-0.375 -0.375,0 -0.6328125,0.28125 -0.7382812,0.4453125 -0.046875,-0.2578125 -0.2460938,-0.4453125 -0.51562504,-0.4453125 -0.26953125,0 -0.375,0.2226563 -0.43359375,0.328125 -0.09375,0.1875 -0.17578125,0.5390625 -0.17578125,0.5507813 0,0.058594 0.0703125,0.058594 0.0703125,0.058594 0.0585938,0 0.0585938,0 0.09375,-0.1289062 0.10546875,-0.4101563 0.2109375,-0.6796875 0.421875,-0.6796875 0.09375,0 0.17578125,0.046875 0.17578125,0.2578125 0,0.1171875 -0.0117188,0.1875 -0.09375,0.4804687 l -0.328125,1.32421878 c -0.0117188,0.0820313 -0.046875,0.22265625 -0.046875,0.24609375 0,0.10546875 0.0703125,0.15234375 0.1640625,0.15234375 0.0703125,0 0.1640625,-0.046875 0.2109375,-0.15234375 0.0117188,-0.0234375 0.21093749,-0.80859375 0.22265629,-0.91406253 l 0.1875,-0.7382812 c 0.023437,-0.082031 0.1875,-0.3398438 0.3164062,-0.46875 0.046875,-0.046875 0.2226563,-0.1875 0.46875,-0.1875 0.140625,0 0.234375,0.058594 0.234375,0.058594 -0.1757812,0.035156 -0.2929687,0.1757813 -0.2929687,0.3164063 0,0.09375 0.058594,0.1992187 0.2109375,0.1992187 0.1640625,0 0.3164062,-0.1289062 0.3164062,-0.3281256 z m 0,0"
       style="fill:#000000;fill-opacity:1;fill-rule:nonzero;stroke:none"
       aria-label="r"
       transform="matrix(1.3333333,0,0,1.3333333,486.22926,271.64861)" />
    <path
       id="path50"
       d="m 407.316,-198.602 h -6.25 c -1.265,0 -2.293,-1.023 -2.293,-2.289 v -8.828 c 0,-1.265 1.028,-2.289 2.293,-2.289 h 6.25 c 1.266,0 2.289,1.024 2.289,2.289 v 8.828 c 0,1.266 -1.023,2.289 -2.289,2.289 z"
       style="fill:none;stroke:#000000;stroke-width:0.458281;stroke-linecap:butt;stroke-linejoin:miter;stroke-miterlimit:10;stroke-dasharray:none;stroke-opacity:1"
       transform="scale(1.3333333,-1.3333333)" />
    <path
       id="path52"
       d="m 430.77,-205.305 c 0,2.313 -1.875,4.188 -4.188,4.188 -2.312,0 -4.187,-1.875 -4.187,-4.188 0,-2.312 1.875,-4.187 4.187,-4.187 2.313,0 4.188,1.875 4.188,4.187 z"
       style="fill:#ffffff;fill-opacity:1;fill-rule:nonzero;stroke:#000000;stroke-width:0.458281;stroke-linecap:butt;stroke-linejoin:miter;stroke-miterlimit:10;stroke-dasharray:none;stroke-opacity:1"
       transform="scale(1.3333333,-1.3333333)" />
    <path
       id="path53"
       d="m 426.582,-201.094 v -8.422"
       style="fill:none;stroke:#000000;stroke-width:0.458281;stroke-linecap:butt;stroke-linejoin:miter;stroke-miterlimit:10;stroke-dasharray:none;stroke-opacity:1"
       transform="scale(1.3333333,-1.3333333)" />
    <path
       id="path54"
       d="m 430.793,-205.305 h -8.422"
       style="fill:none;stroke:#000000;stroke-width:0.458281;stroke-linecap:butt;stroke-linejoin:miter;stroke-miterlimit:10;stroke-dasharray:none;stroke-opacity:1"
       transform="scale(1.3333333,-1.3333333)" />
    <path
       id="path55"
       d="m 5.2261003,-1.9809554 c 0,-0.070312 -0.058594,-0.070312 -0.082031,-0.070312 -0.082031,0 -0.082031,0.046875 -0.1054688,0.082031 -0.375,1.28906251 -1.4882812,1.89843751 -2.3203125,1.89843751 -0.8671875,0 -1.6289062,-0.5625 -1.6289062,-1.72265621 0,-0.2695313 0.082031,-1.6992188 1.0195312,-2.7890625 0.4453125,-0.5273438 1.21875,-0.984375 2.0039063,-0.984375 0.9140625,0 1.3125,0.75 1.3125,1.59375 0,0.2109375 -0.023437,0.3867187 -0.023437,0.421875 0,0.082031 0.082031,0.082031 0.1054687,0.082031 0.09375,0 0.1054688,-0.011719 0.140625,-0.1640625 l 0.515625,-2.0976562 c 0,-0.082031 -0.070312,-0.082031 -0.070312,-0.082031 0,0 -0.058594,0 -0.1171875,0.082031 l -0.5742187,0.703125 C 5.108914,-5.5317366 4.6636015,-5.8129866 4.0425078,-5.8129866 c -1.78125,0 -3.63281254,1.8164063 -3.63281254,3.75 0,1.38281251 0.97265624,2.23828126 2.16796874,2.23828126 0.6679688,0 1.2421875,-0.28125 1.7226563,-0.69140625 0.7148425,-0.59765631 0.92578,-1.39453131 0.92578,-1.46484381 z M -211.26609,23.202638 l 0.2461,-1.464843 c 0.0117,-0.07031 0.0117,-0.08203 0.0117,-0.117188 0,-0.08203 -0.0469,-0.08203 -0.21094,-0.08203 h -4.51172 c -0.1875,0 -0.19922,0 -0.24609,0.152344 l -0.50391,1.488281 c -0.0117,0.01172 -0.0352,0.117187 -0.0352,0.117187 0,0.03516 0.0352,0.08203 0.082,0.08203 0.0703,0 0.082,-0.03516 0.11719,-0.140625 0.33985,-0.996094 0.51563,-1.464844 1.61719,-1.464844 h 0.55078 c 0.19922,0 0.28125,0 0.28125,0.09375 0,0.02344 0,0.03516 -0.0469,0.1875 l -1.10157,4.429687 c -0.082,0.328125 -0.0937,0.410157 -0.97265,0.410157 -0.21094,0 -0.26953,0 -0.26953,0.152343 0,0.08203 0.0937,0.08203 0.14062,0.08203 0.19922,0 0.42188,-0.01172 0.62109,-0.01172 h 1.28907 c 0.21093,0 0.43359,0.01172 0.63281,0.01172 0.0937,0 0.17578,0 0.17578,-0.152344 0,-0.08203 -0.0586,-0.08203 -0.26953,-0.08203 -0.75,0 -0.75,-0.08203 -0.75,-0.199219 0,0 0,-0.07031 0.0352,-0.199219 l 1.11328,-4.394531 c 0.0469,-0.199219 0.0586,-0.28125 0.1875,-0.304688 0.0586,-0.02344 0.33984,-0.02344 0.5039,-0.02344 0.83203,0 1.21875,0.03516 1.21875,0.679687 0,0.117188 -0.0352,0.433594 -0.082,0.738282 l -0.0117,0.105468 c 0,0.02344 0.0352,0.08203 0.082,0.08203 0.082,0 0.082,-0.04687 0.10547,-0.175782 z m 0,0"
       style="fill:#000000;fill-opacity:1;fill-rule:nonzero;stroke:none"
       aria-label="C&#10;T"
       transform="matrix(1.3333333,0,0,1.3333333,601.21546,277.49674)" />
    <path
       id="path56"
       d="m 1.8989769,1.3697477 c 0,-0.011719 0,-0.023437 -0.09375,-0.1171875 -0.7265625,-0.72656251 -0.90234377,-1.80468751 -0.90234377,-2.6835938 0,-0.9960937 0.21093747,-1.9921875 0.92578127,-2.71875 0.070312,-0.058594 0.070312,-0.070312 0.070312,-0.09375 0,-0.035156 -0.023437,-0.058594 -0.058594,-0.058594 -0.058594,0 -0.5742187,0.3984375 -0.91406247,1.125 -0.29296875,0.6210937 -0.36328125,1.265625 -0.36328125,1.7460937 0,0.44531254 0.0703125,1.13671879 0.38671875,1.78125004 C 1.2896019,1.0533414 1.7817894,1.4283414 1.8403831,1.4283414 c 0.035156,0 0.058594,-0.011719 0.058594,-0.058594 z m 2.9589844,-3.1992188 c 0,-0.46875 -0.035156,-0.9257812 -0.234375,-1.3476562 C 4.3657738,-3.7279086 3.8970238,-3.8216586 3.65093,-3.8216586 c -0.3398437,0 -0.7617187,0.1523438 -0.9960937,0.6914063 -0.1757813,0.3867187 -0.2109375,0.8320312 -0.2109375,1.3007812 0,0.421875 0.023437,0.93750004 0.2578125,1.37109379 0.2460937,0.46875 0.6679687,0.5859375 0.9492187,0.5859375 0.3046875,0 0.7382813,-0.12890625 0.9960938,-0.66796875 0.1757812,-0.3984375 0.2109375,-0.84375004 0.2109375,-1.28906254 z m -0.4804688,-0.070312 c 0,0.421875 0,0.8203125 -0.058594,1.18359379 -0.082031,0.5390625 -0.4101563,0.71484375 -0.6679688,0.71484375 -0.2226562,0 -0.5625,-0.140625 -0.6679687,-0.69140625 C 2.924367,-1.0443143 2.924367,-1.5599393 2.924367,-1.8997831 c 0,-0.375 0,-0.75 0.046875,-1.0546875 0.1054688,-0.6914062 0.5390625,-0.7382812 0.6796875,-0.7382812 0.1875,0 0.5625,0.1054687 0.6679688,0.6679687 0.058594,0.328125 0.058594,0.7617188 0.058594,1.125 z m 2.3613281,0.46875 c 0,-0.4453125 -0.058594,-1.1484375 -0.375,-1.7929687 -0.3398437,-0.703125 -0.8320312,-1.078125 -0.890625,-1.078125 -0.035156,0 -0.058594,0.023437 -0.058594,0.058594 0,0.023437 0,0.035156 0.1054687,0.1289063 0.5625,0.5742187 0.890625,1.4882812 0.890625,2.6835937 0,0.97265629 -0.2109375,1.98046879 -0.9257812,2.7070313 -0.070312,0.070312 -0.070312,0.082031 -0.070312,0.09375 0,0.035156 0.023437,0.058594 0.058594,0.058594 0.058594,0 0.5742188,-0.3867187 0.9140625,-1.11328121 0.28125,-0.6328125 0.3515625,-1.265625 0.351562,-1.74609439 z m 0,0"
       style="fill:#000000;fill-opacity:1;fill-rule:nonzero;stroke:none"
       aria-label="(0)"
       transform="matrix(1.3333333,0,0,1.3333333,320.06959,309.67758)" />
    <path
       id="path57"
       d="m 5.4501488,-3.9264367 0.2460937,-1.4648437 c 0.011719,-0.070312 0.011719,-0.082031 0.011719,-0.1171875 0,-0.082031 -0.046875,-0.082031 -0.2109375,-0.082031 H 0.985305 c -0.1875,0 -0.19921875,0 -0.24609375,0.1523438 L 0.235305,-3.9498742 c -0.0117188,0.011719 -0.0351563,0.1171875 -0.0351563,0.1171875 0,0.035156 0.0351563,0.082031 0.0820313,0.082031 0.0703125,0 0.0820313,-0.035156 0.1171875,-0.140625 0.33984375,-0.9960938 0.515625,-1.4648438 1.6171875,-1.4648438 h 0.5507813 c 0.1992187,0 0.28125,0 0.28125,0.09375 0,0.023437 0,0.035156 -0.046875,0.1875 l -1.1015625,4.42968751 c -0.082031,0.328125 -0.09375,0.41015625 -0.9726563,0.41015625 -0.2109375,0 -0.26953125,0 -0.26953125,0.15234375 0,0.0820312525 0.09375,0.0820312525 0.140625,0.0820312525 0.19921875,0 0.42187505,-0.0117187525 0.62109375,-0.0117187525 h 1.2890625 c 0.2109375,0 0.4335938,0.0117187525 0.6328125,0.0117187525 0.09375,0 0.1757813,0 0.1757813,-0.1523437525 0,-0.0820313 -0.058594,-0.0820313 -0.2695313,-0.0820313 -0.75,0 -0.75,-0.0820313 -0.75,-0.19921875 0,0 0,-0.0703125 0.035156,-0.19921875 L 3.4462425,-5.0279992 c 0.046875,-0.1992187 0.058594,-0.28125 0.1875,-0.3046875 0.058594,-0.023437 0.3398438,-0.023437 0.5039063,-0.023437 0.8320312,0 1.21875,0.035156 1.21875,0.6796875 0,0.1171875 -0.035156,0.4335938 -0.082031,0.7382813 l -0.011719,0.1054687 c 0,0.023437 0.035156,0.082031 0.082031,0.082031 0.082031,0 0.082031,-0.046875 0.105469,-0.1757815 z m 0,0"
       style="fill:#000000;fill-opacity:1;fill-rule:nonzero;stroke:none"
       aria-label="T"
       transform="matrix(1.3333333,0,0,1.3333333,463.43626,313.66884)" />
    <path
       id="path58"
       d="m 1.8994378,1.3697477 c 0,-0.011719 0,-0.023437 -0.09375,-0.1171875 -0.7265625,-0.72656251 -0.90234374,-1.80468751 -0.90234374,-2.6835938 0,-0.9960937 0.21093754,-1.9921875 0.92578124,-2.71875 0.070312,-0.058594 0.070312,-0.070312 0.070312,-0.09375 0,-0.035156 -0.023437,-0.058594 -0.058594,-0.058594 -0.058594,0 -0.5742188,0.3984375 -0.91406254,1.125 -0.29296875,0.6210937 -0.36328125,1.265625 -0.36328125,1.7460937 0,0.44531254 0.0703125,1.13671879 0.38671875,1.78125004 C 1.2900628,1.0533414 1.7822503,1.4283414 1.8408441,1.4283414 c 0.035156,0 0.058594,-0.011719 0.058594,-0.058594 z m 2.7246094,-1.37109376 v -0.17578125 h -0.1875 c -0.515625,0 -0.5273438,-0.0703125 -0.5273438,-0.28125 V -3.6693148 c 0,-0.140625 0,-0.1523438 -0.1289062,-0.1523438 -0.3632813,0.375 -0.8671875,0.375 -1.0429688,0.375 v 0.1757813 c 0.1054688,0 0.4453125,0 0.75,-0.1523438 v 2.96484379 c 0,0.2109375 -0.023437,0.28125 -0.5390625,0.28125 h -0.1875 v 0.17578125 c 0.2109375,-0.01171875 0.703125,-0.01171875 0.9375,-0.01171875 0.2226563,0 0.7265625,0 0.9257813,0.01171875 z M 6.7392816,-1.4310336 c 0,-0.4453125 -0.058594,-1.1484375 -0.375,-1.7929687 -0.3398438,-0.703125 -0.8320313,-1.078125 -0.890625,-1.078125 -0.035156,0 -0.058594,0.023437 -0.058594,0.058594 0,0.023437 0,0.035156 0.1054688,0.1289063 0.5625,0.5742187 0.890625,1.4882812 0.890625,2.6835937 0,0.97265629 -0.2109375,1.98046879 -0.9257813,2.7070313 -0.070312,0.070312 -0.070312,0.082031 -0.070312,0.09375 0,0.035156 0.023437,0.058594 0.058594,0.058594 0.058594,0 0.5742187,-0.3867187 0.9140625,-1.11328121 0.28125,-0.6328125 0.3515625,-1.265625 0.351562,-1.74609439 z m 0,0"
       style="fill:#000000;fill-opacity:1;fill-rule:nonzero;stroke:none"
       aria-label="(1)"
       transform="matrix(1.3333333,0,0,1.3333333,471.24476,309.67758)" />
    <path
       id="path59"
       d="m 147.129,-205.305 h 15.019"
       style="fill:none;stroke:#000000;stroke-width:0.229138;stroke-linecap:butt;stroke-linejoin:miter;stroke-miterlimit:10;stroke-dasharray:none;stroke-opacity:1"
       transform="scale(1.3333333,-1.3333333)" />
    <path
       id="path60"
       d="m 164.211,205.305 c -0.609,-0.114 -1.606,-0.457 -2.293,-0.86 v 1.719 c 0.687,-0.402 1.684,-0.746 2.293,-0.859"
       style="fill:#000000;fill-opacity:1;fill-rule:nonzero;stroke:none"
       transform="scale(1.3333333)" />
    <path
       id="path61"
       d="m 173.094,-205.305 h 10.242"
       style="fill:none;stroke:#000000;stroke-width:0.229138;stroke-linecap:butt;stroke-linejoin:miter;stroke-miterlimit:10;stroke-dasharray:none;stroke-opacity:1"
       transform="scale(1.3333333,-1.3333333)" />
    <path
       id="path62"
       d="m 185.398,205.305 c -0.609,-0.114 -1.605,-0.457 -2.289,-0.86 v 1.719 c 0.684,-0.402 1.68,-0.746 2.289,-0.859"
       style="fill:#000000;fill-opacity:1;fill-rule:nonzero;stroke:none"
       transform="scale(1.3333333)" />
    <path
       id="path63"
       d="m 196.688,-205.305 h 9.347"
       style="fill:none;stroke:#000000;stroke-width:0.229138;stroke-linecap:butt;stroke-linejoin:miter;stroke-miterlimit:10;stroke-dasharray:none;stroke-opacity:1"
       transform="scale(1.3333333,-1.3333333)" />
    <path
       id="path64"
       d="m 208.098,205.305 c -0.61,-0.114 -1.602,-0.457 -2.289,-0.86 v 1.719 c 0.687,-0.402 1.679,-0.746 2.289,-0.859"
       style="fill:#000000;fill-opacity:1;fill-rule:nonzero;stroke:none"
       transform="scale(1.3333333)" />
    <path
       id="path65"
       d="m 273.754,-205.305 h 9.348"
       style="fill:none;stroke:#000000;stroke-width:0.229138;stroke-linecap:butt;stroke-linejoin:miter;stroke-miterlimit:10;stroke-dasharray:none;stroke-opacity:1"
       transform="scale(1.3333333,-1.3333333)" />
    <path
       id="path66"
       d="m 285.164,205.305 c -0.609,-0.114 -1.605,-0.457 -2.293,-0.86 v 1.719 c 0.688,-0.402 1.684,-0.746 2.293,-0.859"
       style="fill:#000000;fill-opacity:1;fill-rule:nonzero;stroke:none"
       transform="scale(1.3333333)" />
    <path
       id="path67"
       d="m 310.07,-205.305 h 9.348"
       style="fill:none;stroke:#000000;stroke-width:0.229138;stroke-linecap:butt;stroke-linejoin:miter;stroke-miterlimit:10;stroke-dasharray:none;stroke-opacity:1"
       transform="scale(1.3333333,-1.3333333)" />
    <path
       id="path68"
       d="m 321.48,205.305 c -0.609,-0.114 -1.601,-0.457 -2.289,-0.86 v 1.719 c 0.688,-0.402 1.68,-0.746 2.289,-0.859"
       style="fill:#000000;fill-opacity:1;fill-rule:nonzero;stroke:none"
       transform="scale(1.3333333)" />
    <path
       id="path69"
       d="m 387.137,-205.305 h 9.347"
       style="fill:none;stroke:#000000;stroke-width:0.229138;stroke-linecap:butt;stroke-linejoin:miter;stroke-miterlimit:10;stroke-dasharray:none;stroke-opacity:1"
       transform="scale(1.3333333,-1.3333333)" />
    <path
       id="path70"
       d="m 398.547,205.305 c -0.609,-0.114 -1.606,-0.457 -2.293,-0.86 v 1.719 c 0.687,-0.402 1.684,-0.746 2.293,-0.859"
       style="fill:#000000;fill-opacity:1;fill-rule:nonzero;stroke:none"
       transform="scale(1.3333333)" />
    <path
       id="path71"
       d="m 409.836,-205.305 h 10.246"
       style="fill:none;stroke:#000000;stroke-width:0.229138;stroke-linecap:butt;stroke-linejoin:miter;stroke-miterlimit:10;stroke-dasharray:none;stroke-opacity:1"
       transform="scale(1.3333333,-1.3333333)" />
    <path
       id="path72"
       d="m 422.145,205.305 c -0.614,-0.114 -1.606,-0.457 -2.293,-0.86 v 1.719 c 0.687,-0.402 1.679,-0.746 2.293,-0.859"
       style="fill:#000000;fill-opacity:1;fill-rule:nonzero;stroke:none"
       transform="scale(1.3333333)" />
    <path
       id="path73"
       d="m 431.023,-205.305 h 15.02"
       style="fill:none;stroke:#000000;stroke-width:0.229138;stroke-linecap:butt;stroke-linejoin:miter;stroke-miterlimit:10;stroke-dasharray:none;stroke-opacity:1"
       transform="scale(1.3333333,-1.3333333)" />
    <path
       id="path74"
       d="m 448.105,205.305 c -0.609,-0.114 -1.601,-0.457 -2.289,-0.86 v 1.719 c 0.688,-0.402 1.68,-0.746 2.289,-0.859"
       style="fill:#000000;fill-opacity:1;fill-rule:nonzero;stroke:none"
       transform="scale(1.3333333)" />
    <path
       id="path75"
       d="m 168.652,-185.629 v -13.172"
       style="fill:none;stroke:#000000;stroke-width:0.229138;stroke-linecap:butt;stroke-linejoin:miter;stroke-miterlimit:10;stroke-dasharray:none;stroke-opacity:1"
       transform="scale(1.3333333,-1.3333333)" />
    <path
       id="path76"
       d="m 168.652,200.863 c 0.114,-0.609 0.457,-1.601 0.86,-2.289 h -1.719 c 0.398,0.688 0.742,1.68 0.859,2.289"
       style="fill:#000000;fill-opacity:1;fill-rule:nonzero;stroke:none"
       transform="scale(1.3333333)" />
    <path
       id="path77"
       d="m 426.586,-185.629 v -13.172"
       style="fill:none;stroke:#000000;stroke-width:0.229138;stroke-linecap:butt;stroke-linejoin:miter;stroke-miterlimit:10;stroke-dasharray:none;stroke-opacity:1"
       transform="scale(1.3333333,-1.3333333)" />
    <path
       id="path78"
       d="m 426.586,200.863 c 0.113,-0.609 0.457,-1.601 0.859,-2.289 h -1.718 c 0.398,0.688 0.742,1.68 0.859,2.289"
       style="fill:#000000;fill-opacity:1;fill-rule:nonzero;stroke:none"
       transform="scale(1.3333333)" />
    <path
       id="path79"
       d="m 240.926,-185.629 v -9.234"
       style="fill:none;stroke:#000000;stroke-width:0.229138;stroke-linecap:butt;stroke-linejoin:miter;stroke-miterlimit:10;stroke-dasharray:none;stroke-opacity:1"
       transform="scale(1.3333333,-1.3333333)" />
    <path
       id="path80"
       d="m 240.926,196.926 c 0.117,-0.61 0.461,-1.606 0.859,-2.293 h -1.719 c 0.403,0.687 0.746,1.683 0.86,2.293"
       style="fill:#000000;fill-opacity:1;fill-rule:nonzero;stroke:none"
       transform="scale(1.3333333)" />
    <path
       id="path81"
       d="m 240.926,-224.977 v 9.231"
       style="fill:none;stroke:#000000;stroke-width:0.229138;stroke-linecap:butt;stroke-linejoin:miter;stroke-miterlimit:10;stroke-dasharray:none;stroke-opacity:1"
       transform="scale(1.3333333,-1.3333333)" />
    <path
       id="path82"
       d="m 240.926,213.684 c -0.114,0.609 -0.457,1.605 -0.86,2.293 h 1.719 c -0.398,-0.688 -0.742,-1.684 -0.859,-2.293"
       style="fill:#000000;fill-opacity:1;fill-rule:nonzero;stroke:none"
       transform="scale(1.3333333)" />
    <path
       id="path83"
       d="m 297.617,-185.629 v -10.68"
       style="fill:none;stroke:#000000;stroke-width:0.229138;stroke-linecap:butt;stroke-linejoin:miter;stroke-miterlimit:10;stroke-dasharray:none;stroke-opacity:1"
       transform="scale(1.3333333,-1.3333333)" />
    <path
       id="path84"
       d="m 297.617,198.371 c 0.117,-0.609 0.461,-1.605 0.86,-2.293 h -1.719 c 0.402,0.688 0.746,1.684 0.859,2.293"
       style="fill:#000000;fill-opacity:1;fill-rule:nonzero;stroke:none"
       transform="scale(1.3333333)" />
    <path
       id="path85"
       d="m 354.309,-185.629 v -9.234"
       style="fill:none;stroke:#000000;stroke-width:0.229138;stroke-linecap:butt;stroke-linejoin:miter;stroke-miterlimit:10;stroke-dasharray:none;stroke-opacity:1"
       transform="scale(1.3333333,-1.3333333)" />
    <path
       id="path86"
       d="m 354.309,196.926 c 0.117,-0.61 0.457,-1.606 0.859,-2.293 h -1.719 c 0.403,0.687 0.746,1.683 0.86,2.293"
       style="fill:#000000;fill-opacity:1;fill-rule:nonzero;stroke:none"
       transform="scale(1.3333333)" />
    <path
       id="path87"
       d="m 354.309,-224.977 v 9.231"
       style="fill:none;stroke:#000000;stroke-width:0.229138;stroke-linecap:butt;stroke-linejoin:miter;stroke-miterlimit:10;stroke-dasharray:none;stroke-opacity:1"
       transform="scale(1.3333333,-1.3333333)" />
    <path
       id="path88"
       d="m 354.309,213.684 c -0.114,0.609 -0.457,1.605 -0.86,2.293 h 1.719 c -0.402,-0.688 -0.742,-1.684 -0.859,-2.293"
       style="fill:#000000;fill-opacity:1;fill-rule:nonzero;stroke:none"
       transform="scale(1.3333333)" />
    <g
       id="g88" />
    <g
       id="g94" />
    <g
       id="g108" />
    <g
       id="g110" />
    <g
       id="g236" />
    <g
       id="g241" />
    <g
       id="g245" />
    <g
       id="g264" />
    <g
       id="g265" />
  </g>
</svg>
